M48
; DRILL file {KiCad 8.0.4} date 2024-10-01T08:13:15+0200
; FORMAT={-:-/ absolute / metric / decimal}
; #@! TF.CreationDate,2024-10-01T08:13:15+02:00
; #@! TF.GenerationSoftware,Kicad,Pcbnew,8.0.4
; #@! TF.FileFunction,Plated,1,2,PTH
FMAT,2
METRIC
; #@! TA.AperFunction,Plated,PTH,ViaDrill
T1C0.300
; #@! TA.AperFunction,Plated,PTH,ComponentDrill
T2C0.800
; #@! TA.AperFunction,Plated,PTH,ComponentDrill
T3C1.000
; #@! TA.AperFunction,Plated,PTH,ComponentDrill
T4C1.397
%
G90
G05
T1
X138.0Y-65.3
X138.126Y-70.186
X139.2Y-68.9
X139.559Y-70.358
X139.724Y-74.82
X141.35Y-64.85
X142.95Y-78.25
X144.55Y-58.7
X144.75Y-70.75
X145.7Y-83.5
X147.25Y-74.3
X148.15Y-84.2
X149.25Y-70.2
X154.4Y-71.6
X154.75Y-61.25
X154.8Y-68.95
X155.1Y-67.95
X157.2Y-58.95
X157.35Y-76.45
X157.35Y-77.85
X158.05Y-70.85
X158.05Y-71.7
X158.05Y-72.55
X158.25Y-82.9
X158.3Y-77.8
X158.65Y-74.4
X158.95Y-70.85
X159.0Y-71.65
X159.0Y-72.5
X159.7Y-74.35
X159.9Y-76.85
X159.95Y-70.85
X159.95Y-71.7
X159.95Y-72.55
X160.35Y-54.3
X161.0Y-67.45
X161.25Y-74.35
X161.35Y-69.7
X161.4Y-72.15
X161.4Y-73.3
X161.65Y-76.75
X164.0Y-70.9
X164.05Y-69.2
X164.25Y-71.9
X164.35Y-82.55
X165.2Y-84.15
X167.15Y-83.6
X167.45Y-58.65
X168.35Y-56.85
X171.25Y-81.8
X172.75Y-67.1
X173.05Y-63.5
X175.65Y-67.9
T3
X140.334Y-84.873
X140.361Y-57.889
X142.101Y-86.64
X142.129Y-56.121
X143.869Y-88.408
X143.897Y-54.354
X154.777Y-92.999
X154.931Y-49.8
X157.377Y-92.999
X157.431Y-49.8
X159.877Y-92.999
X160.031Y-49.8
X169.929Y-89.242
X170.847Y-54.415
X171.697Y-87.474
X172.615Y-56.183
X173.465Y-85.707
X174.383Y-57.951
X175.195Y-84.113
X178.865Y-71.522
X178.865Y-74.122
X178.865Y-69.022
T4
X139.273Y-85.919
X139.315Y-56.829
X141.041Y-87.687
X141.082Y-55.061
X142.809Y-89.455
X142.85Y-53.293
X154.767Y-94.489
X154.941Y-48.31
X157.367Y-94.489
X157.441Y-48.31
X159.867Y-94.489
X160.041Y-48.31
X170.976Y-90.303
X171.908Y-53.369
X172.744Y-88.535
X173.676Y-55.137
X174.511Y-86.767
X175.444Y-56.904
X176.242Y-85.173
X180.355Y-69.032
X180.355Y-71.532
X180.355Y-74.132
T2
X138.225Y-67.841G85X137.625Y-67.841
G05
X138.225Y-76.491G85X137.625Y-76.491
G05
X142.555Y-67.841G85X141.655Y-67.841
G05
X142.555Y-76.491G85X141.655Y-76.491
G05
M30
