G04 #@! TF.GenerationSoftware,KiCad,Pcbnew,8.0.4*
G04 #@! TF.CreationDate,2024-10-01T08:13:03+02:00*
G04 #@! TF.ProjectId,RP2040_roundStamp_secondIteration,52503230-3430-45f7-926f-756e64537461,rev?*
G04 #@! TF.SameCoordinates,Original*
G04 #@! TF.FileFunction,Legend,Top*
G04 #@! TF.FilePolarity,Positive*
%FSLAX46Y46*%
G04 Gerber Fmt 4.6, Leading zero omitted, Abs format (unit mm)*
G04 Created by KiCad (PCBNEW 8.0.4) date 2024-10-01 08:13:03*
%MOMM*%
%LPD*%
G01*
G04 APERTURE LIST*
G04 Aperture macros list*
%AMRoundRect*
0 Rectangle with rounded corners*
0 $1 Rounding radius*
0 $2 $3 $4 $5 $6 $7 $8 $9 X,Y pos of 4 corners*
0 Add a 4 corners polygon primitive as box body*
4,1,4,$2,$3,$4,$5,$6,$7,$8,$9,$2,$3,0*
0 Add four circle primitives for the rounded corners*
1,1,$1+$1,$2,$3*
1,1,$1+$1,$4,$5*
1,1,$1+$1,$6,$7*
1,1,$1+$1,$8,$9*
0 Add four rect primitives between the rounded corners*
20,1,$1+$1,$2,$3,$4,$5,0*
20,1,$1+$1,$4,$5,$6,$7,0*
20,1,$1+$1,$6,$7,$8,$9,0*
20,1,$1+$1,$8,$9,$2,$3,0*%
%AMHorizOval*
0 Thick line with rounded ends*
0 $1 width*
0 $2 $3 position (X,Y) of the first rounded end (center of the circle)*
0 $4 $5 position (X,Y) of the second rounded end (center of the circle)*
0 Add line between two ends*
20,1,$1,$2,$3,$4,$5,0*
0 Add two circle primitives to create the rounded ends*
1,1,$1,$2,$3*
1,1,$1,$4,$5*%
G04 Aperture macros list end*
%ADD10C,0.150000*%
%ADD11C,0.254000*%
%ADD12C,0.120000*%
%ADD13C,0.127000*%
%ADD14C,0.200000*%
%ADD15C,0.152400*%
%ADD16R,1.500000X1.000000*%
%ADD17RoundRect,0.237500X-0.300000X-0.237500X0.300000X-0.237500X0.300000X0.237500X-0.300000X0.237500X0*%
%ADD18RoundRect,0.250000X0.250000X0.250000X-0.250000X0.250000X-0.250000X-0.250000X0.250000X-0.250000X0*%
%ADD19RoundRect,0.237500X0.237500X-0.300000X0.237500X0.300000X-0.237500X0.300000X-0.237500X-0.300000X0*%
%ADD20RoundRect,0.237500X0.300000X0.237500X-0.300000X0.237500X-0.300000X-0.237500X0.300000X-0.237500X0*%
%ADD21RoundRect,0.237500X0.237500X-0.250000X0.237500X0.250000X-0.237500X0.250000X-0.237500X-0.250000X0*%
%ADD22RoundRect,0.237500X-0.250000X-0.237500X0.250000X-0.237500X0.250000X0.237500X-0.250000X0.237500X0*%
%ADD23RoundRect,0.250000X0.475000X-0.337500X0.475000X0.337500X-0.475000X0.337500X-0.475000X-0.337500X0*%
%ADD24RoundRect,0.237500X-0.237500X0.300000X-0.237500X-0.300000X0.237500X-0.300000X0.237500X0.300000X0*%
%ADD25RoundRect,0.250000X-0.337500X-0.475000X0.337500X-0.475000X0.337500X0.475000X-0.337500X0.475000X0*%
%ADD26RoundRect,0.150000X-0.150000X0.512500X-0.150000X-0.512500X0.150000X-0.512500X0.150000X0.512500X0*%
%ADD27RoundRect,0.218750X0.218750X0.256250X-0.218750X0.256250X-0.218750X-0.256250X0.218750X-0.256250X0*%
%ADD28RoundRect,0.102000X0.400000X0.850000X-0.400000X0.850000X-0.400000X-0.850000X0.400000X-0.850000X0*%
%ADD29RoundRect,0.250000X0.250000X-0.250000X0.250000X0.250000X-0.250000X0.250000X-0.250000X-0.250000X0*%
%ADD30RoundRect,0.237500X-0.237500X0.250000X-0.237500X-0.250000X0.237500X-0.250000X0.237500X0.250000X0*%
%ADD31RoundRect,0.050000X0.050000X-0.387500X0.050000X0.387500X-0.050000X0.387500X-0.050000X-0.387500X0*%
%ADD32RoundRect,0.050000X0.387500X-0.050000X0.387500X0.050000X-0.387500X0.050000X-0.387500X-0.050000X0*%
%ADD33RoundRect,0.135000X1.365000X-1.390000X1.365000X1.390000X-1.365000X1.390000X-1.365000X-1.390000X0*%
%ADD34RoundRect,0.065500X0.196500X-0.441500X0.196500X0.441500X-0.196500X0.441500X-0.196500X-0.441500X0*%
%ADD35R,1.400000X1.200000*%
%ADD36RoundRect,0.243750X0.243750X0.456250X-0.243750X0.456250X-0.243750X-0.456250X0.243750X-0.456250X0*%
%ADD37C,0.650000*%
%ADD38R,1.450000X0.600000*%
%ADD39R,1.450000X0.300000*%
%ADD40O,2.100000X1.200000*%
%ADD41O,1.800000X1.200000*%
%ADD42RoundRect,0.237500X0.250000X0.237500X-0.250000X0.237500X-0.250000X-0.237500X0.250000X-0.237500X0*%
%ADD43HorizOval,1.778000X-0.628618X0.628618X0.628618X-0.628618X0*%
%ADD44C,1.778000*%
%ADD45HorizOval,1.778000X-0.628618X-0.628618X0.628618X0.628618X0*%
%ADD46O,1.778000X3.556000*%
%ADD47HorizOval,1.778000X0.628618X-0.628618X-0.628618X0.628618X0*%
%ADD48O,3.556000X1.778000*%
%ADD49HorizOval,1.778000X0.628618X0.628618X-0.628618X-0.628618X0*%
G04 APERTURE END LIST*
D10*
X168191332Y-56260350D02*
X168497745Y-55953937D01*
X168497745Y-55953937D02*
X168602127Y-56388303D01*
X168602127Y-56388303D02*
X168672838Y-56317592D01*
X168672838Y-56317592D02*
X168753650Y-56304123D01*
X168753650Y-56304123D02*
X168810892Y-56314225D01*
X168810892Y-56314225D02*
X168901806Y-56357998D01*
X168901806Y-56357998D02*
X169070164Y-56526357D01*
X169070164Y-56526357D02*
X169113938Y-56617271D01*
X169113938Y-56617271D02*
X169124039Y-56674513D01*
X169124039Y-56674513D02*
X169110571Y-56755325D01*
X169110571Y-56755325D02*
X168969149Y-56896746D01*
X168969149Y-56896746D02*
X168888337Y-56910215D01*
X168888337Y-56910215D02*
X168831095Y-56900113D01*
X169349640Y-56381568D02*
X169406882Y-56391670D01*
X169406882Y-56391670D02*
X169416984Y-56448912D01*
X169416984Y-56448912D02*
X169359742Y-56438810D01*
X169359742Y-56438810D02*
X169349640Y-56381568D01*
X169349640Y-56381568D02*
X169416984Y-56448912D01*
X168898438Y-55553243D02*
X169204851Y-55246830D01*
X169204851Y-55246830D02*
X169309234Y-55681196D01*
X169309234Y-55681196D02*
X169379945Y-55610485D01*
X169379945Y-55610485D02*
X169460757Y-55597017D01*
X169460757Y-55597017D02*
X169517999Y-55607118D01*
X169517999Y-55607118D02*
X169608912Y-55650891D01*
X169608912Y-55650891D02*
X169777271Y-55819250D01*
X169777271Y-55819250D02*
X169821044Y-55910164D01*
X169821044Y-55910164D02*
X169831146Y-55967406D01*
X169831146Y-55967406D02*
X169817677Y-56048218D01*
X169817677Y-56048218D02*
X169676256Y-56189639D01*
X169676256Y-56189639D02*
X169595444Y-56203108D01*
X169595444Y-56203108D02*
X169538202Y-56193007D01*
X169605545Y-55317541D02*
X170194801Y-55671094D01*
X170194801Y-55671094D02*
X169841248Y-55081839D01*
X143029683Y-57795579D02*
X143736789Y-57088472D01*
X143736789Y-57088472D02*
X143854641Y-57206323D01*
X143854641Y-57206323D02*
X143891679Y-57310706D01*
X143891679Y-57310706D02*
X143871476Y-57425190D01*
X143871476Y-57425190D02*
X143827703Y-57516103D01*
X143827703Y-57516103D02*
X143716586Y-57674361D01*
X143716586Y-57674361D02*
X143615571Y-57775376D01*
X143615571Y-57775376D02*
X143457314Y-57886493D01*
X143457314Y-57886493D02*
X143366400Y-57930266D01*
X143366400Y-57930266D02*
X143251916Y-57950469D01*
X143251916Y-57950469D02*
X143147534Y-57913430D01*
X143147534Y-57913430D02*
X143029683Y-57795579D01*
X144140850Y-57627220D02*
X144198092Y-57617119D01*
X144198092Y-57617119D02*
X144278905Y-57630587D01*
X144278905Y-57630587D02*
X144396756Y-57748438D01*
X144396756Y-57748438D02*
X144410224Y-57829251D01*
X144410224Y-57829251D02*
X144400123Y-57886493D01*
X144400123Y-57886493D02*
X144356350Y-57977406D01*
X144356350Y-57977406D02*
X144289006Y-58044750D01*
X144289006Y-58044750D02*
X144164421Y-58122195D01*
X144164421Y-58122195D02*
X143477517Y-58243413D01*
X143477517Y-58243413D02*
X143783930Y-58549826D01*
X175882017Y-73517438D02*
X175815350Y-73469819D01*
X175815350Y-73469819D02*
X175715350Y-73469819D01*
X175715350Y-73469819D02*
X175615350Y-73517438D01*
X175615350Y-73517438D02*
X175548684Y-73612676D01*
X175548684Y-73612676D02*
X175515350Y-73707914D01*
X175515350Y-73707914D02*
X175482017Y-73898390D01*
X175482017Y-73898390D02*
X175482017Y-74041247D01*
X175482017Y-74041247D02*
X175515350Y-74231723D01*
X175515350Y-74231723D02*
X175548684Y-74326961D01*
X175548684Y-74326961D02*
X175615350Y-74422200D01*
X175615350Y-74422200D02*
X175715350Y-74469819D01*
X175715350Y-74469819D02*
X175782017Y-74469819D01*
X175782017Y-74469819D02*
X175882017Y-74422200D01*
X175882017Y-74422200D02*
X175915350Y-74374580D01*
X175915350Y-74374580D02*
X175915350Y-74041247D01*
X175915350Y-74041247D02*
X175782017Y-74041247D01*
X176215350Y-74469819D02*
X176215350Y-73469819D01*
X176215350Y-73469819D02*
X176615350Y-74469819D01*
X176615350Y-74469819D02*
X176615350Y-73469819D01*
X176948683Y-74469819D02*
X176948683Y-73469819D01*
X176948683Y-73469819D02*
X177115350Y-73469819D01*
X177115350Y-73469819D02*
X177215350Y-73517438D01*
X177215350Y-73517438D02*
X177282017Y-73612676D01*
X177282017Y-73612676D02*
X177315350Y-73707914D01*
X177315350Y-73707914D02*
X177348683Y-73898390D01*
X177348683Y-73898390D02*
X177348683Y-74041247D01*
X177348683Y-74041247D02*
X177315350Y-74231723D01*
X177315350Y-74231723D02*
X177282017Y-74326961D01*
X177282017Y-74326961D02*
X177215350Y-74422200D01*
X177215350Y-74422200D02*
X177115350Y-74469819D01*
X177115350Y-74469819D02*
X176948683Y-74469819D01*
X170989649Y-82991332D02*
X171296062Y-83297745D01*
X171296062Y-83297745D02*
X170861696Y-83402127D01*
X170861696Y-83402127D02*
X170932407Y-83472838D01*
X170932407Y-83472838D02*
X170945876Y-83553650D01*
X170945876Y-83553650D02*
X170935774Y-83610892D01*
X170935774Y-83610892D02*
X170892001Y-83701806D01*
X170892001Y-83701806D02*
X170723642Y-83870164D01*
X170723642Y-83870164D02*
X170632728Y-83913938D01*
X170632728Y-83913938D02*
X170575486Y-83924039D01*
X170575486Y-83924039D02*
X170494674Y-83910571D01*
X170494674Y-83910571D02*
X170353253Y-83769149D01*
X170353253Y-83769149D02*
X170339784Y-83688337D01*
X170339784Y-83688337D02*
X170349886Y-83631095D01*
X170868431Y-84149640D02*
X170858329Y-84206882D01*
X170858329Y-84206882D02*
X170801087Y-84216984D01*
X170801087Y-84216984D02*
X170811189Y-84159742D01*
X170811189Y-84159742D02*
X170868431Y-84149640D01*
X170868431Y-84149640D02*
X170801087Y-84216984D01*
X171696756Y-83698438D02*
X172003169Y-84004851D01*
X172003169Y-84004851D02*
X171568803Y-84109234D01*
X171568803Y-84109234D02*
X171639514Y-84179945D01*
X171639514Y-84179945D02*
X171652982Y-84260757D01*
X171652982Y-84260757D02*
X171642881Y-84317999D01*
X171642881Y-84317999D02*
X171599108Y-84408912D01*
X171599108Y-84408912D02*
X171430749Y-84577271D01*
X171430749Y-84577271D02*
X171339835Y-84621044D01*
X171339835Y-84621044D02*
X171282593Y-84631146D01*
X171282593Y-84631146D02*
X171201781Y-84617677D01*
X171201781Y-84617677D02*
X171060360Y-84476256D01*
X171060360Y-84476256D02*
X171046891Y-84395444D01*
X171046891Y-84395444D02*
X171056992Y-84338202D01*
X171932458Y-84405545D02*
X171578905Y-84994801D01*
X171578905Y-84994801D02*
X172168160Y-84641248D01*
X173882017Y-71962256D02*
X173948684Y-72009875D01*
X173948684Y-72009875D02*
X174082017Y-72009875D01*
X174082017Y-72009875D02*
X174148684Y-71962256D01*
X174148684Y-71962256D02*
X174182017Y-71867017D01*
X174182017Y-71867017D02*
X174182017Y-71819398D01*
X174182017Y-71819398D02*
X174148684Y-71724160D01*
X174148684Y-71724160D02*
X174082017Y-71676541D01*
X174082017Y-71676541D02*
X173982017Y-71676541D01*
X173982017Y-71676541D02*
X173915350Y-71628922D01*
X173915350Y-71628922D02*
X173882017Y-71533684D01*
X173882017Y-71533684D02*
X173882017Y-71486065D01*
X173882017Y-71486065D02*
X173915350Y-71390827D01*
X173915350Y-71390827D02*
X173982017Y-71343208D01*
X173982017Y-71343208D02*
X174082017Y-71343208D01*
X174082017Y-71343208D02*
X174148684Y-71390827D01*
X174882017Y-72009875D02*
X174648684Y-71533684D01*
X174482017Y-72009875D02*
X174482017Y-71009875D01*
X174482017Y-71009875D02*
X174748684Y-71009875D01*
X174748684Y-71009875D02*
X174815351Y-71057494D01*
X174815351Y-71057494D02*
X174848684Y-71105113D01*
X174848684Y-71105113D02*
X174882017Y-71200351D01*
X174882017Y-71200351D02*
X174882017Y-71343208D01*
X174882017Y-71343208D02*
X174848684Y-71438446D01*
X174848684Y-71438446D02*
X174815351Y-71486065D01*
X174815351Y-71486065D02*
X174748684Y-71533684D01*
X174748684Y-71533684D02*
X174482017Y-71533684D01*
X175115351Y-71009875D02*
X175582017Y-72009875D01*
X175582017Y-71009875D02*
X175115351Y-72009875D01*
X176748684Y-72009875D02*
X176348684Y-72009875D01*
X176548684Y-72009875D02*
X176548684Y-71009875D01*
X176548684Y-71009875D02*
X176482017Y-71152732D01*
X176482017Y-71152732D02*
X176415351Y-71247970D01*
X176415351Y-71247970D02*
X176348684Y-71295589D01*
X177348684Y-71009875D02*
X177215351Y-71009875D01*
X177215351Y-71009875D02*
X177148684Y-71057494D01*
X177148684Y-71057494D02*
X177115351Y-71105113D01*
X177115351Y-71105113D02*
X177048684Y-71247970D01*
X177048684Y-71247970D02*
X177015351Y-71438446D01*
X177015351Y-71438446D02*
X177015351Y-71819398D01*
X177015351Y-71819398D02*
X177048684Y-71914636D01*
X177048684Y-71914636D02*
X177082018Y-71962256D01*
X177082018Y-71962256D02*
X177148684Y-72009875D01*
X177148684Y-72009875D02*
X177282018Y-72009875D01*
X177282018Y-72009875D02*
X177348684Y-71962256D01*
X177348684Y-71962256D02*
X177382018Y-71914636D01*
X177382018Y-71914636D02*
X177415351Y-71819398D01*
X177415351Y-71819398D02*
X177415351Y-71581303D01*
X177415351Y-71581303D02*
X177382018Y-71486065D01*
X177382018Y-71486065D02*
X177348684Y-71438446D01*
X177348684Y-71438446D02*
X177282018Y-71390827D01*
X177282018Y-71390827D02*
X177148684Y-71390827D01*
X177148684Y-71390827D02*
X177082018Y-71438446D01*
X177082018Y-71438446D02*
X177048684Y-71486065D01*
X177048684Y-71486065D02*
X177015351Y-71581303D01*
X167639784Y-83988337D02*
X167676823Y-84092719D01*
X167676823Y-84092719D02*
X167794674Y-84210571D01*
X167794674Y-84210571D02*
X167875486Y-84224039D01*
X167875486Y-84224039D02*
X167932728Y-84213938D01*
X167932728Y-84213938D02*
X168023642Y-84170164D01*
X168023642Y-84170164D02*
X168090986Y-84102821D01*
X168090986Y-84102821D02*
X168134759Y-84011907D01*
X168134759Y-84011907D02*
X168144860Y-83954665D01*
X168144860Y-83954665D02*
X168131392Y-83873853D01*
X168131392Y-83873853D02*
X168070783Y-83745900D01*
X168070783Y-83745900D02*
X168057314Y-83665088D01*
X168057314Y-83665088D02*
X168067415Y-83607846D01*
X168067415Y-83607846D02*
X168111189Y-83516932D01*
X168111189Y-83516932D02*
X168178532Y-83449589D01*
X168178532Y-83449589D02*
X168269446Y-83405816D01*
X168269446Y-83405816D02*
X168326688Y-83395714D01*
X168326688Y-83395714D02*
X168407500Y-83409183D01*
X168407500Y-83409183D02*
X168525351Y-83527034D01*
X168525351Y-83527034D02*
X168562390Y-83631416D01*
X168101087Y-84516984D02*
X168808194Y-83809877D01*
X168808194Y-83809877D02*
X168926045Y-83927728D01*
X168926045Y-83927728D02*
X168963084Y-84032110D01*
X168963084Y-84032110D02*
X168942881Y-84146594D01*
X168942881Y-84146594D02*
X168899108Y-84237508D01*
X168899108Y-84237508D02*
X168787991Y-84395765D01*
X168787991Y-84395765D02*
X168686976Y-84496781D01*
X168686976Y-84496781D02*
X168528719Y-84607897D01*
X168528719Y-84607897D02*
X168437805Y-84651671D01*
X168437805Y-84651671D02*
X168323321Y-84671874D01*
X168323321Y-84671874D02*
X168218938Y-84634835D01*
X168218938Y-84634835D02*
X168101087Y-84516984D01*
X168774522Y-84786358D02*
X169010225Y-85022060D01*
X168525351Y-84941248D02*
X169397450Y-84399133D01*
X169397450Y-84399133D02*
X168855335Y-85271231D01*
X169656722Y-86072618D02*
X169373879Y-85789776D01*
X169515301Y-85931197D02*
X170222407Y-85224090D01*
X170222407Y-85224090D02*
X170074252Y-85277965D01*
X170074252Y-85277965D02*
X169959768Y-85298168D01*
X169959768Y-85298168D02*
X169878956Y-85284699D01*
X170485047Y-85621417D02*
X170542289Y-85611316D01*
X170542289Y-85611316D02*
X170623102Y-85624784D01*
X170623102Y-85624784D02*
X170740953Y-85742635D01*
X170740953Y-85742635D02*
X170754421Y-85823448D01*
X170754421Y-85823448D02*
X170744320Y-85880690D01*
X170744320Y-85880690D02*
X170700547Y-85971603D01*
X170700547Y-85971603D02*
X170633203Y-86038947D01*
X170633203Y-86038947D02*
X170508618Y-86116392D01*
X170508618Y-86116392D02*
X169821714Y-86237610D01*
X169821714Y-86237610D02*
X170128127Y-86544023D01*
X175998684Y-80596009D02*
X176098684Y-80643628D01*
X176098684Y-80643628D02*
X176132017Y-80691247D01*
X176132017Y-80691247D02*
X176165350Y-80786485D01*
X176165350Y-80786485D02*
X176165350Y-80929342D01*
X176165350Y-80929342D02*
X176132017Y-81024580D01*
X176132017Y-81024580D02*
X176098684Y-81072200D01*
X176098684Y-81072200D02*
X176032017Y-81119819D01*
X176032017Y-81119819D02*
X175765350Y-81119819D01*
X175765350Y-81119819D02*
X175765350Y-80119819D01*
X175765350Y-80119819D02*
X175998684Y-80119819D01*
X175998684Y-80119819D02*
X176065350Y-80167438D01*
X176065350Y-80167438D02*
X176098684Y-80215057D01*
X176098684Y-80215057D02*
X176132017Y-80310295D01*
X176132017Y-80310295D02*
X176132017Y-80405533D01*
X176132017Y-80405533D02*
X176098684Y-80500771D01*
X176098684Y-80500771D02*
X176065350Y-80548390D01*
X176065350Y-80548390D02*
X175998684Y-80596009D01*
X175998684Y-80596009D02*
X175765350Y-80596009D01*
X176598684Y-80119819D02*
X176732017Y-80119819D01*
X176732017Y-80119819D02*
X176798684Y-80167438D01*
X176798684Y-80167438D02*
X176865350Y-80262676D01*
X176865350Y-80262676D02*
X176898684Y-80453152D01*
X176898684Y-80453152D02*
X176898684Y-80786485D01*
X176898684Y-80786485D02*
X176865350Y-80976961D01*
X176865350Y-80976961D02*
X176798684Y-81072200D01*
X176798684Y-81072200D02*
X176732017Y-81119819D01*
X176732017Y-81119819D02*
X176598684Y-81119819D01*
X176598684Y-81119819D02*
X176532017Y-81072200D01*
X176532017Y-81072200D02*
X176465350Y-80976961D01*
X176465350Y-80976961D02*
X176432017Y-80786485D01*
X176432017Y-80786485D02*
X176432017Y-80453152D01*
X176432017Y-80453152D02*
X176465350Y-80262676D01*
X176465350Y-80262676D02*
X176532017Y-80167438D01*
X176532017Y-80167438D02*
X176598684Y-80119819D01*
X177332017Y-80119819D02*
X177465350Y-80119819D01*
X177465350Y-80119819D02*
X177532017Y-80167438D01*
X177532017Y-80167438D02*
X177598683Y-80262676D01*
X177598683Y-80262676D02*
X177632017Y-80453152D01*
X177632017Y-80453152D02*
X177632017Y-80786485D01*
X177632017Y-80786485D02*
X177598683Y-80976961D01*
X177598683Y-80976961D02*
X177532017Y-81072200D01*
X177532017Y-81072200D02*
X177465350Y-81119819D01*
X177465350Y-81119819D02*
X177332017Y-81119819D01*
X177332017Y-81119819D02*
X177265350Y-81072200D01*
X177265350Y-81072200D02*
X177198683Y-80976961D01*
X177198683Y-80976961D02*
X177165350Y-80786485D01*
X177165350Y-80786485D02*
X177165350Y-80453152D01*
X177165350Y-80453152D02*
X177198683Y-80262676D01*
X177198683Y-80262676D02*
X177265350Y-80167438D01*
X177265350Y-80167438D02*
X177332017Y-80119819D01*
X177832016Y-80119819D02*
X178232016Y-80119819D01*
X178032016Y-81119819D02*
X178032016Y-80119819D01*
X173332017Y-69522200D02*
X173398684Y-69569819D01*
X173398684Y-69569819D02*
X173532017Y-69569819D01*
X173532017Y-69569819D02*
X173598684Y-69522200D01*
X173598684Y-69522200D02*
X173632017Y-69426961D01*
X173632017Y-69426961D02*
X173632017Y-69379342D01*
X173632017Y-69379342D02*
X173598684Y-69284104D01*
X173598684Y-69284104D02*
X173532017Y-69236485D01*
X173532017Y-69236485D02*
X173432017Y-69236485D01*
X173432017Y-69236485D02*
X173365350Y-69188866D01*
X173365350Y-69188866D02*
X173332017Y-69093628D01*
X173332017Y-69093628D02*
X173332017Y-69046009D01*
X173332017Y-69046009D02*
X173365350Y-68950771D01*
X173365350Y-68950771D02*
X173432017Y-68903152D01*
X173432017Y-68903152D02*
X173532017Y-68903152D01*
X173532017Y-68903152D02*
X173598684Y-68950771D01*
X174332017Y-69474580D02*
X174298684Y-69522200D01*
X174298684Y-69522200D02*
X174198684Y-69569819D01*
X174198684Y-69569819D02*
X174132017Y-69569819D01*
X174132017Y-69569819D02*
X174032017Y-69522200D01*
X174032017Y-69522200D02*
X173965351Y-69426961D01*
X173965351Y-69426961D02*
X173932017Y-69331723D01*
X173932017Y-69331723D02*
X173898684Y-69141247D01*
X173898684Y-69141247D02*
X173898684Y-68998390D01*
X173898684Y-68998390D02*
X173932017Y-68807914D01*
X173932017Y-68807914D02*
X173965351Y-68712676D01*
X173965351Y-68712676D02*
X174032017Y-68617438D01*
X174032017Y-68617438D02*
X174132017Y-68569819D01*
X174132017Y-68569819D02*
X174198684Y-68569819D01*
X174198684Y-68569819D02*
X174298684Y-68617438D01*
X174298684Y-68617438D02*
X174332017Y-68665057D01*
X174598684Y-69522200D02*
X174698684Y-69569819D01*
X174698684Y-69569819D02*
X174865351Y-69569819D01*
X174865351Y-69569819D02*
X174932017Y-69522200D01*
X174932017Y-69522200D02*
X174965351Y-69474580D01*
X174965351Y-69474580D02*
X174998684Y-69379342D01*
X174998684Y-69379342D02*
X174998684Y-69284104D01*
X174998684Y-69284104D02*
X174965351Y-69188866D01*
X174965351Y-69188866D02*
X174932017Y-69141247D01*
X174932017Y-69141247D02*
X174865351Y-69093628D01*
X174865351Y-69093628D02*
X174732017Y-69046009D01*
X174732017Y-69046009D02*
X174665351Y-68998390D01*
X174665351Y-68998390D02*
X174632017Y-68950771D01*
X174632017Y-68950771D02*
X174598684Y-68855533D01*
X174598684Y-68855533D02*
X174598684Y-68760295D01*
X174598684Y-68760295D02*
X174632017Y-68665057D01*
X174632017Y-68665057D02*
X174665351Y-68617438D01*
X174665351Y-68617438D02*
X174732017Y-68569819D01*
X174732017Y-68569819D02*
X174898684Y-68569819D01*
X174898684Y-68569819D02*
X174998684Y-68617438D01*
X175298684Y-68903152D02*
X175298684Y-69569819D01*
X175298684Y-68998390D02*
X175332018Y-68950771D01*
X175332018Y-68950771D02*
X175398684Y-68903152D01*
X175398684Y-68903152D02*
X175498684Y-68903152D01*
X175498684Y-68903152D02*
X175565351Y-68950771D01*
X175565351Y-68950771D02*
X175598684Y-69046009D01*
X175598684Y-69046009D02*
X175598684Y-69569819D01*
X176832017Y-69569819D02*
X176432017Y-69569819D01*
X176632017Y-69569819D02*
X176632017Y-68569819D01*
X176632017Y-68569819D02*
X176565350Y-68712676D01*
X176565350Y-68712676D02*
X176498684Y-68807914D01*
X176498684Y-68807914D02*
X176432017Y-68855533D01*
X177065351Y-68569819D02*
X177532017Y-68569819D01*
X177532017Y-68569819D02*
X177232017Y-69569819D01*
X159380180Y-90115350D02*
X160380180Y-90115350D01*
X160380180Y-90115350D02*
X160380180Y-90282017D01*
X160380180Y-90282017D02*
X160332561Y-90382017D01*
X160332561Y-90382017D02*
X160237323Y-90448684D01*
X160237323Y-90448684D02*
X160142085Y-90482017D01*
X160142085Y-90482017D02*
X159951609Y-90515350D01*
X159951609Y-90515350D02*
X159808752Y-90515350D01*
X159808752Y-90515350D02*
X159618276Y-90482017D01*
X159618276Y-90482017D02*
X159523038Y-90448684D01*
X159523038Y-90448684D02*
X159427800Y-90382017D01*
X159427800Y-90382017D02*
X159380180Y-90282017D01*
X159380180Y-90282017D02*
X159380180Y-90115350D01*
X159951609Y-90915350D02*
X159999228Y-90848684D01*
X159999228Y-90848684D02*
X160046847Y-90815350D01*
X160046847Y-90815350D02*
X160142085Y-90782017D01*
X160142085Y-90782017D02*
X160189704Y-90782017D01*
X160189704Y-90782017D02*
X160284942Y-90815350D01*
X160284942Y-90815350D02*
X160332561Y-90848684D01*
X160332561Y-90848684D02*
X160380180Y-90915350D01*
X160380180Y-90915350D02*
X160380180Y-91048684D01*
X160380180Y-91048684D02*
X160332561Y-91115350D01*
X160332561Y-91115350D02*
X160284942Y-91148684D01*
X160284942Y-91148684D02*
X160189704Y-91182017D01*
X160189704Y-91182017D02*
X160142085Y-91182017D01*
X160142085Y-91182017D02*
X160046847Y-91148684D01*
X160046847Y-91148684D02*
X159999228Y-91115350D01*
X159999228Y-91115350D02*
X159951609Y-91048684D01*
X159951609Y-91048684D02*
X159951609Y-90915350D01*
X159951609Y-90915350D02*
X159903990Y-90848684D01*
X159903990Y-90848684D02*
X159856371Y-90815350D01*
X159856371Y-90815350D02*
X159761133Y-90782017D01*
X159761133Y-90782017D02*
X159570657Y-90782017D01*
X159570657Y-90782017D02*
X159475419Y-90815350D01*
X159475419Y-90815350D02*
X159427800Y-90848684D01*
X159427800Y-90848684D02*
X159380180Y-90915350D01*
X159380180Y-90915350D02*
X159380180Y-91048684D01*
X159380180Y-91048684D02*
X159427800Y-91115350D01*
X159427800Y-91115350D02*
X159475419Y-91148684D01*
X159475419Y-91148684D02*
X159570657Y-91182017D01*
X159570657Y-91182017D02*
X159761133Y-91182017D01*
X159761133Y-91182017D02*
X159856371Y-91148684D01*
X159856371Y-91148684D02*
X159903990Y-91115350D01*
X159903990Y-91115350D02*
X159951609Y-91048684D01*
X141945579Y-84020316D02*
X141238472Y-83313210D01*
X141238472Y-83313210D02*
X141356323Y-83195358D01*
X141356323Y-83195358D02*
X141460706Y-83158320D01*
X141460706Y-83158320D02*
X141575190Y-83178523D01*
X141575190Y-83178523D02*
X141666103Y-83222296D01*
X141666103Y-83222296D02*
X141824361Y-83333413D01*
X141824361Y-83333413D02*
X141925376Y-83434428D01*
X141925376Y-83434428D02*
X142036493Y-83592685D01*
X142036493Y-83592685D02*
X142080266Y-83683599D01*
X142080266Y-83683599D02*
X142100469Y-83798083D01*
X142100469Y-83798083D02*
X142063430Y-83902465D01*
X142063430Y-83902465D02*
X141945579Y-84020316D01*
X141686306Y-82865375D02*
X141992719Y-82558962D01*
X141992719Y-82558962D02*
X142097102Y-82993328D01*
X142097102Y-82993328D02*
X142167812Y-82922617D01*
X142167812Y-82922617D02*
X142248625Y-82909149D01*
X142248625Y-82909149D02*
X142305867Y-82919250D01*
X142305867Y-82919250D02*
X142396780Y-82963023D01*
X142396780Y-82963023D02*
X142565139Y-83131382D01*
X142565139Y-83131382D02*
X142608912Y-83222296D01*
X142608912Y-83222296D02*
X142619014Y-83279538D01*
X142619014Y-83279538D02*
X142605545Y-83360350D01*
X142605545Y-83360350D02*
X142464124Y-83501771D01*
X142464124Y-83501771D02*
X142383312Y-83515240D01*
X142383312Y-83515240D02*
X142326070Y-83505139D01*
X165889784Y-85888337D02*
X165926823Y-85992719D01*
X165926823Y-85992719D02*
X166044674Y-86110571D01*
X166044674Y-86110571D02*
X166125486Y-86124039D01*
X166125486Y-86124039D02*
X166182728Y-86113938D01*
X166182728Y-86113938D02*
X166273642Y-86070164D01*
X166273642Y-86070164D02*
X166340986Y-86002821D01*
X166340986Y-86002821D02*
X166384759Y-85911907D01*
X166384759Y-85911907D02*
X166394860Y-85854665D01*
X166394860Y-85854665D02*
X166381392Y-85773853D01*
X166381392Y-85773853D02*
X166320783Y-85645900D01*
X166320783Y-85645900D02*
X166307314Y-85565088D01*
X166307314Y-85565088D02*
X166317415Y-85507846D01*
X166317415Y-85507846D02*
X166361189Y-85416932D01*
X166361189Y-85416932D02*
X166428532Y-85349589D01*
X166428532Y-85349589D02*
X166519446Y-85305816D01*
X166519446Y-85305816D02*
X166576688Y-85295714D01*
X166576688Y-85295714D02*
X166657500Y-85309183D01*
X166657500Y-85309183D02*
X166775351Y-85427034D01*
X166775351Y-85427034D02*
X166812390Y-85531416D01*
X166701274Y-86632483D02*
X166644032Y-86642584D01*
X166644032Y-86642584D02*
X166539649Y-86605545D01*
X166539649Y-86605545D02*
X166492509Y-86558405D01*
X166492509Y-86558405D02*
X166455470Y-86454023D01*
X166455470Y-86454023D02*
X166475673Y-86339539D01*
X166475673Y-86339539D02*
X166519446Y-86248625D01*
X166519446Y-86248625D02*
X166630563Y-86090368D01*
X166630563Y-86090368D02*
X166731578Y-85989352D01*
X166731578Y-85989352D02*
X166889835Y-85878236D01*
X166889835Y-85878236D02*
X166980749Y-85834462D01*
X166980749Y-85834462D02*
X167095233Y-85814259D01*
X167095233Y-85814259D02*
X167199615Y-85851298D01*
X167199615Y-85851298D02*
X167246756Y-85898439D01*
X167246756Y-85898439D02*
X167283795Y-86002821D01*
X167283795Y-86002821D02*
X167273693Y-86060063D01*
X167081764Y-87147661D02*
X166846062Y-86911958D01*
X166846062Y-86911958D02*
X167553169Y-86204852D01*
X167883152Y-87949048D02*
X167600309Y-87666206D01*
X167741731Y-87807627D02*
X168448837Y-87100520D01*
X168448837Y-87100520D02*
X168300682Y-87154395D01*
X168300682Y-87154395D02*
X168186198Y-87174598D01*
X168186198Y-87174598D02*
X168105386Y-87161129D01*
X168755251Y-87406933D02*
X169061664Y-87713346D01*
X169061664Y-87713346D02*
X168627298Y-87817729D01*
X168627298Y-87817729D02*
X168698009Y-87888439D01*
X168698009Y-87888439D02*
X168711477Y-87969252D01*
X168711477Y-87969252D02*
X168701376Y-88026494D01*
X168701376Y-88026494D02*
X168657603Y-88117407D01*
X168657603Y-88117407D02*
X168489244Y-88285766D01*
X168489244Y-88285766D02*
X168398330Y-88329539D01*
X168398330Y-88329539D02*
X168341088Y-88339641D01*
X168341088Y-88339641D02*
X168260276Y-88326172D01*
X168260276Y-88326172D02*
X168118855Y-88184751D01*
X168118855Y-88184751D02*
X168105386Y-88103939D01*
X168105386Y-88103939D02*
X168115487Y-88046697D01*
X155034104Y-52567982D02*
X155034104Y-52234649D01*
X155319819Y-52634649D02*
X154319819Y-52401316D01*
X154319819Y-52401316D02*
X155319819Y-52167982D01*
X154415057Y-51967982D02*
X154367438Y-51934649D01*
X154367438Y-51934649D02*
X154319819Y-51867982D01*
X154319819Y-51867982D02*
X154319819Y-51701316D01*
X154319819Y-51701316D02*
X154367438Y-51634649D01*
X154367438Y-51634649D02*
X154415057Y-51601316D01*
X154415057Y-51601316D02*
X154510295Y-51567982D01*
X154510295Y-51567982D02*
X154605533Y-51567982D01*
X154605533Y-51567982D02*
X154748390Y-51601316D01*
X154748390Y-51601316D02*
X155319819Y-52001316D01*
X155319819Y-52001316D02*
X155319819Y-51567982D01*
X160234104Y-52417982D02*
X160234104Y-52084649D01*
X160519819Y-52484649D02*
X159519819Y-52251316D01*
X159519819Y-52251316D02*
X160519819Y-52017982D01*
X159519819Y-51651316D02*
X159519819Y-51584649D01*
X159519819Y-51584649D02*
X159567438Y-51517982D01*
X159567438Y-51517982D02*
X159615057Y-51484649D01*
X159615057Y-51484649D02*
X159710295Y-51451316D01*
X159710295Y-51451316D02*
X159900771Y-51417982D01*
X159900771Y-51417982D02*
X160138866Y-51417982D01*
X160138866Y-51417982D02*
X160329342Y-51451316D01*
X160329342Y-51451316D02*
X160424580Y-51484649D01*
X160424580Y-51484649D02*
X160472200Y-51517982D01*
X160472200Y-51517982D02*
X160519819Y-51584649D01*
X160519819Y-51584649D02*
X160519819Y-51651316D01*
X160519819Y-51651316D02*
X160472200Y-51717982D01*
X160472200Y-51717982D02*
X160424580Y-51751316D01*
X160424580Y-51751316D02*
X160329342Y-51784649D01*
X160329342Y-51784649D02*
X160138866Y-51817982D01*
X160138866Y-51817982D02*
X159900771Y-51817982D01*
X159900771Y-51817982D02*
X159710295Y-51784649D01*
X159710295Y-51784649D02*
X159615057Y-51751316D01*
X159615057Y-51751316D02*
X159567438Y-51717982D01*
X159567438Y-51717982D02*
X159519819Y-51651316D01*
X176315350Y-62919819D02*
X176082017Y-62443628D01*
X175915350Y-62919819D02*
X175915350Y-61919819D01*
X175915350Y-61919819D02*
X176182017Y-61919819D01*
X176182017Y-61919819D02*
X176248684Y-61967438D01*
X176248684Y-61967438D02*
X176282017Y-62015057D01*
X176282017Y-62015057D02*
X176315350Y-62110295D01*
X176315350Y-62110295D02*
X176315350Y-62253152D01*
X176315350Y-62253152D02*
X176282017Y-62348390D01*
X176282017Y-62348390D02*
X176248684Y-62396009D01*
X176248684Y-62396009D02*
X176182017Y-62443628D01*
X176182017Y-62443628D02*
X175915350Y-62443628D01*
X176615350Y-62396009D02*
X176848684Y-62396009D01*
X176948684Y-62919819D02*
X176615350Y-62919819D01*
X176615350Y-62919819D02*
X176615350Y-61919819D01*
X176615350Y-61919819D02*
X176948684Y-61919819D01*
X177215350Y-62872200D02*
X177315350Y-62919819D01*
X177315350Y-62919819D02*
X177482017Y-62919819D01*
X177482017Y-62919819D02*
X177548683Y-62872200D01*
X177548683Y-62872200D02*
X177582017Y-62824580D01*
X177582017Y-62824580D02*
X177615350Y-62729342D01*
X177615350Y-62729342D02*
X177615350Y-62634104D01*
X177615350Y-62634104D02*
X177582017Y-62538866D01*
X177582017Y-62538866D02*
X177548683Y-62491247D01*
X177548683Y-62491247D02*
X177482017Y-62443628D01*
X177482017Y-62443628D02*
X177348683Y-62396009D01*
X177348683Y-62396009D02*
X177282017Y-62348390D01*
X177282017Y-62348390D02*
X177248683Y-62300771D01*
X177248683Y-62300771D02*
X177215350Y-62205533D01*
X177215350Y-62205533D02*
X177215350Y-62110295D01*
X177215350Y-62110295D02*
X177248683Y-62015057D01*
X177248683Y-62015057D02*
X177282017Y-61967438D01*
X177282017Y-61967438D02*
X177348683Y-61919819D01*
X177348683Y-61919819D02*
X177515350Y-61919819D01*
X177515350Y-61919819D02*
X177615350Y-61967438D01*
X177915350Y-62396009D02*
X178148684Y-62396009D01*
X178248684Y-62919819D02*
X177915350Y-62919819D01*
X177915350Y-62919819D02*
X177915350Y-61919819D01*
X177915350Y-61919819D02*
X178248684Y-61919819D01*
X178448683Y-61919819D02*
X178848683Y-61919819D01*
X178648683Y-62919819D02*
X178648683Y-61919819D01*
X157584104Y-52467982D02*
X157584104Y-52134649D01*
X157869819Y-52534649D02*
X156869819Y-52301316D01*
X156869819Y-52301316D02*
X157869819Y-52067982D01*
X157869819Y-51467982D02*
X157869819Y-51867982D01*
X157869819Y-51667982D02*
X156869819Y-51667982D01*
X156869819Y-51667982D02*
X157012676Y-51734649D01*
X157012676Y-51734649D02*
X157107914Y-51801316D01*
X157107914Y-51801316D02*
X157155533Y-51867982D01*
X141962390Y-58831416D02*
X141948921Y-58750604D01*
X141948921Y-58750604D02*
X141878211Y-58679893D01*
X141878211Y-58679893D02*
X141773828Y-58642855D01*
X141773828Y-58642855D02*
X141659344Y-58663058D01*
X141659344Y-58663058D02*
X141568431Y-58706831D01*
X141568431Y-58706831D02*
X141410173Y-58817948D01*
X141410173Y-58817948D02*
X141309158Y-58918963D01*
X141309158Y-58918963D02*
X141198041Y-59077220D01*
X141198041Y-59077220D02*
X141154268Y-59168134D01*
X141154268Y-59168134D02*
X141134065Y-59282618D01*
X141134065Y-59282618D02*
X141171104Y-59387000D01*
X141171104Y-59387000D02*
X141218244Y-59434141D01*
X141218244Y-59434141D02*
X141322627Y-59471180D01*
X141322627Y-59471180D02*
X141379869Y-59461078D01*
X141379869Y-59461078D02*
X141615571Y-59225376D01*
X141615571Y-59225376D02*
X141521290Y-59131095D01*
X141524657Y-59740554D02*
X142231764Y-59033447D01*
X142231764Y-59033447D02*
X141807500Y-60023396D01*
X141807500Y-60023396D02*
X142514607Y-59316290D01*
X142043202Y-60259098D02*
X142750309Y-59551992D01*
X142750309Y-59551992D02*
X142868160Y-59669843D01*
X142868160Y-59669843D02*
X142905199Y-59774225D01*
X142905199Y-59774225D02*
X142884996Y-59888709D01*
X142884996Y-59888709D02*
X142841223Y-59979623D01*
X142841223Y-59979623D02*
X142730106Y-60137880D01*
X142730106Y-60137880D02*
X142629091Y-60238895D01*
X142629091Y-60238895D02*
X142470833Y-60350012D01*
X142470833Y-60350012D02*
X142379920Y-60393785D01*
X142379920Y-60393785D02*
X142265436Y-60413988D01*
X142265436Y-60413988D02*
X142161053Y-60376950D01*
X142161053Y-60376950D02*
X142043202Y-60259098D01*
X169488337Y-59710215D02*
X169569149Y-59696746D01*
X169569149Y-59696746D02*
X169663430Y-59602465D01*
X169663430Y-59602465D02*
X169676899Y-59521653D01*
X169676899Y-59521653D02*
X169633125Y-59430739D01*
X169633125Y-59430739D02*
X169599454Y-59397068D01*
X169599454Y-59397068D02*
X169508540Y-59353294D01*
X169508540Y-59353294D02*
X169427728Y-59366763D01*
X169427728Y-59366763D02*
X169357017Y-59437474D01*
X169357017Y-59437474D02*
X169276205Y-59450942D01*
X169276205Y-59450942D02*
X169185291Y-59407169D01*
X169185291Y-59407169D02*
X169151619Y-59373497D01*
X169151619Y-59373497D02*
X169107846Y-59282584D01*
X169107846Y-59282584D02*
X169121315Y-59201771D01*
X169121315Y-59201771D02*
X169192026Y-59131061D01*
X169192026Y-59131061D02*
X169272838Y-59117592D01*
X169168456Y-58683226D02*
X169451298Y-58400384D01*
X170016984Y-59248912D02*
X169309877Y-58541805D01*
X169569149Y-58282533D02*
X170606239Y-58659656D01*
X169899132Y-57952549D02*
X170276256Y-58989639D01*
X171431197Y-57834698D02*
X171148354Y-58117541D01*
X171289776Y-57976120D02*
X170582669Y-57269013D01*
X170582669Y-57269013D02*
X170636544Y-57417169D01*
X170636544Y-57417169D02*
X170656747Y-57531653D01*
X170656747Y-57531653D02*
X170643278Y-57612465D01*
X171666900Y-57598996D02*
X171761180Y-57504715D01*
X171761180Y-57504715D02*
X171774649Y-57423903D01*
X171774649Y-57423903D02*
X171764548Y-57366661D01*
X171764548Y-57366661D02*
X171710673Y-57218505D01*
X171710673Y-57218505D02*
X171599556Y-57060248D01*
X171599556Y-57060248D02*
X171330182Y-56790874D01*
X171330182Y-56790874D02*
X171239268Y-56747101D01*
X171239268Y-56747101D02*
X171182026Y-56736999D01*
X171182026Y-56736999D02*
X171101214Y-56750468D01*
X171101214Y-56750468D02*
X171006933Y-56844749D01*
X171006933Y-56844749D02*
X170993464Y-56925561D01*
X170993464Y-56925561D02*
X171003566Y-56982803D01*
X171003566Y-56982803D02*
X171047339Y-57073717D01*
X171047339Y-57073717D02*
X171215698Y-57242075D01*
X171215698Y-57242075D02*
X171306612Y-57285849D01*
X171306612Y-57285849D02*
X171363854Y-57295950D01*
X171363854Y-57295950D02*
X171444666Y-57282481D01*
X171444666Y-57282481D02*
X171538947Y-57188200D01*
X171538947Y-57188200D02*
X171552416Y-57107388D01*
X171552416Y-57107388D02*
X171542314Y-57050146D01*
X171542314Y-57050146D02*
X171498541Y-56959233D01*
X145495579Y-87620316D02*
X144788472Y-86913210D01*
X144788472Y-86913210D02*
X144906323Y-86795358D01*
X144906323Y-86795358D02*
X145010706Y-86758320D01*
X145010706Y-86758320D02*
X145125190Y-86778523D01*
X145125190Y-86778523D02*
X145216103Y-86822296D01*
X145216103Y-86822296D02*
X145374361Y-86933413D01*
X145374361Y-86933413D02*
X145475376Y-87034428D01*
X145475376Y-87034428D02*
X145586493Y-87192685D01*
X145586493Y-87192685D02*
X145630266Y-87283599D01*
X145630266Y-87283599D02*
X145650469Y-87398083D01*
X145650469Y-87398083D02*
X145613430Y-87502465D01*
X145613430Y-87502465D02*
X145495579Y-87620316D01*
X145519149Y-86182533D02*
X145283447Y-86418235D01*
X145283447Y-86418235D02*
X145596594Y-86778523D01*
X145596594Y-86778523D02*
X145586493Y-86721281D01*
X145586493Y-86721281D02*
X145599961Y-86640468D01*
X145599961Y-86640468D02*
X145717812Y-86522617D01*
X145717812Y-86522617D02*
X145798625Y-86509149D01*
X145798625Y-86509149D02*
X145855867Y-86519250D01*
X145855867Y-86519250D02*
X145946780Y-86563023D01*
X145946780Y-86563023D02*
X146115139Y-86731382D01*
X146115139Y-86731382D02*
X146158912Y-86822296D01*
X146158912Y-86822296D02*
X146169014Y-86879538D01*
X146169014Y-86879538D02*
X146155545Y-86960350D01*
X146155545Y-86960350D02*
X146037694Y-87078201D01*
X146037694Y-87078201D02*
X145956882Y-87091670D01*
X145956882Y-87091670D02*
X145899640Y-87081568D01*
X154280180Y-90115350D02*
X155280180Y-90115350D01*
X155280180Y-90115350D02*
X155280180Y-90282017D01*
X155280180Y-90282017D02*
X155232561Y-90382017D01*
X155232561Y-90382017D02*
X155137323Y-90448684D01*
X155137323Y-90448684D02*
X155042085Y-90482017D01*
X155042085Y-90482017D02*
X154851609Y-90515350D01*
X154851609Y-90515350D02*
X154708752Y-90515350D01*
X154708752Y-90515350D02*
X154518276Y-90482017D01*
X154518276Y-90482017D02*
X154423038Y-90448684D01*
X154423038Y-90448684D02*
X154327800Y-90382017D01*
X154327800Y-90382017D02*
X154280180Y-90282017D01*
X154280180Y-90282017D02*
X154280180Y-90115350D01*
X155280180Y-91115350D02*
X155280180Y-90982017D01*
X155280180Y-90982017D02*
X155232561Y-90915350D01*
X155232561Y-90915350D02*
X155184942Y-90882017D01*
X155184942Y-90882017D02*
X155042085Y-90815350D01*
X155042085Y-90815350D02*
X154851609Y-90782017D01*
X154851609Y-90782017D02*
X154470657Y-90782017D01*
X154470657Y-90782017D02*
X154375419Y-90815350D01*
X154375419Y-90815350D02*
X154327800Y-90848684D01*
X154327800Y-90848684D02*
X154280180Y-90915350D01*
X154280180Y-90915350D02*
X154280180Y-91048684D01*
X154280180Y-91048684D02*
X154327800Y-91115350D01*
X154327800Y-91115350D02*
X154375419Y-91148684D01*
X154375419Y-91148684D02*
X154470657Y-91182017D01*
X154470657Y-91182017D02*
X154708752Y-91182017D01*
X154708752Y-91182017D02*
X154803990Y-91148684D01*
X154803990Y-91148684D02*
X154851609Y-91115350D01*
X154851609Y-91115350D02*
X154899228Y-91048684D01*
X154899228Y-91048684D02*
X154899228Y-90915350D01*
X154899228Y-90915350D02*
X154851609Y-90848684D01*
X154851609Y-90848684D02*
X154803990Y-90815350D01*
X154803990Y-90815350D02*
X154708752Y-90782017D01*
X170838337Y-62110215D02*
X170919149Y-62096746D01*
X170919149Y-62096746D02*
X171013430Y-62002465D01*
X171013430Y-62002465D02*
X171026899Y-61921653D01*
X171026899Y-61921653D02*
X170983125Y-61830739D01*
X170983125Y-61830739D02*
X170949454Y-61797068D01*
X170949454Y-61797068D02*
X170858540Y-61753294D01*
X170858540Y-61753294D02*
X170777728Y-61766763D01*
X170777728Y-61766763D02*
X170707017Y-61837474D01*
X170707017Y-61837474D02*
X170626205Y-61850942D01*
X170626205Y-61850942D02*
X170535291Y-61807169D01*
X170535291Y-61807169D02*
X170501619Y-61773497D01*
X170501619Y-61773497D02*
X170457846Y-61682584D01*
X170457846Y-61682584D02*
X170471315Y-61601771D01*
X170471315Y-61601771D02*
X170542026Y-61531061D01*
X170542026Y-61531061D02*
X170622838Y-61517592D01*
X171511772Y-61369436D02*
X171521874Y-61426678D01*
X171521874Y-61426678D02*
X171484835Y-61531061D01*
X171484835Y-61531061D02*
X171437694Y-61578201D01*
X171437694Y-61578201D02*
X171333312Y-61615240D01*
X171333312Y-61615240D02*
X171218828Y-61595037D01*
X171218828Y-61595037D02*
X171127914Y-61551264D01*
X171127914Y-61551264D02*
X170969657Y-61440147D01*
X170969657Y-61440147D02*
X170868642Y-61339132D01*
X170868642Y-61339132D02*
X170757525Y-61180874D01*
X170757525Y-61180874D02*
X170713752Y-61089961D01*
X170713752Y-61089961D02*
X170693549Y-60975477D01*
X170693549Y-60975477D02*
X170730588Y-60871094D01*
X170730588Y-60871094D02*
X170777728Y-60823954D01*
X170777728Y-60823954D02*
X170882110Y-60786915D01*
X170882110Y-60786915D02*
X170939352Y-60797016D01*
X172026950Y-60988945D02*
X171791248Y-61224648D01*
X171791248Y-61224648D02*
X171084141Y-60517541D01*
X172191942Y-60823954D02*
X171484835Y-60116847D01*
X172474785Y-60541111D02*
X171858591Y-60349182D01*
X171767678Y-59834004D02*
X171888896Y-60520908D01*
X173323312Y-59692583D02*
X173040470Y-59975426D01*
X173181891Y-59834004D02*
X172474784Y-59126897D01*
X172474784Y-59126897D02*
X172528659Y-59275053D01*
X172528659Y-59275053D02*
X172548862Y-59389537D01*
X172548862Y-59389537D02*
X172535393Y-59470349D01*
X173202094Y-59005679D02*
X173121282Y-59019148D01*
X173121282Y-59019148D02*
X173064040Y-59009046D01*
X173064040Y-59009046D02*
X172973126Y-58965273D01*
X172973126Y-58965273D02*
X172939455Y-58931601D01*
X172939455Y-58931601D02*
X172895681Y-58840687D01*
X172895681Y-58840687D02*
X172885580Y-58783445D01*
X172885580Y-58783445D02*
X172899049Y-58702633D01*
X172899049Y-58702633D02*
X172993330Y-58608352D01*
X172993330Y-58608352D02*
X173074142Y-58594884D01*
X173074142Y-58594884D02*
X173131384Y-58604985D01*
X173131384Y-58604985D02*
X173222297Y-58648758D01*
X173222297Y-58648758D02*
X173255969Y-58682430D01*
X173255969Y-58682430D02*
X173299742Y-58773344D01*
X173299742Y-58773344D02*
X173309844Y-58830586D01*
X173309844Y-58830586D02*
X173296375Y-58911398D01*
X173296375Y-58911398D02*
X173202094Y-59005679D01*
X173202094Y-59005679D02*
X173188626Y-59086491D01*
X173188626Y-59086491D02*
X173198727Y-59143733D01*
X173198727Y-59143733D02*
X173242500Y-59234647D01*
X173242500Y-59234647D02*
X173377187Y-59369334D01*
X173377187Y-59369334D02*
X173468101Y-59413107D01*
X173468101Y-59413107D02*
X173525343Y-59423209D01*
X173525343Y-59423209D02*
X173606155Y-59409740D01*
X173606155Y-59409740D02*
X173700436Y-59315459D01*
X173700436Y-59315459D02*
X173713905Y-59234647D01*
X173713905Y-59234647D02*
X173703803Y-59177405D01*
X173703803Y-59177405D02*
X173660030Y-59086491D01*
X173660030Y-59086491D02*
X173525343Y-58951804D01*
X173525343Y-58951804D02*
X173434429Y-58908031D01*
X173434429Y-58908031D02*
X173377187Y-58897929D01*
X173377187Y-58897929D02*
X173296375Y-58911398D01*
X173312390Y-81631416D02*
X173298921Y-81550604D01*
X173298921Y-81550604D02*
X173228211Y-81479893D01*
X173228211Y-81479893D02*
X173123828Y-81442855D01*
X173123828Y-81442855D02*
X173009344Y-81463058D01*
X173009344Y-81463058D02*
X172918431Y-81506831D01*
X172918431Y-81506831D02*
X172760173Y-81617948D01*
X172760173Y-81617948D02*
X172659158Y-81718963D01*
X172659158Y-81718963D02*
X172548041Y-81877220D01*
X172548041Y-81877220D02*
X172504268Y-81968134D01*
X172504268Y-81968134D02*
X172484065Y-82082618D01*
X172484065Y-82082618D02*
X172521104Y-82187000D01*
X172521104Y-82187000D02*
X172568244Y-82234141D01*
X172568244Y-82234141D02*
X172672627Y-82271180D01*
X172672627Y-82271180D02*
X172729869Y-82261078D01*
X172729869Y-82261078D02*
X172965571Y-82025376D01*
X172965571Y-82025376D02*
X172871290Y-81931095D01*
X172874657Y-82540554D02*
X173581764Y-81833447D01*
X173581764Y-81833447D02*
X173157500Y-82823396D01*
X173157500Y-82823396D02*
X173864607Y-82116290D01*
X173393202Y-83059098D02*
X174100309Y-82351992D01*
X174100309Y-82351992D02*
X174218160Y-82469843D01*
X174218160Y-82469843D02*
X174255199Y-82574225D01*
X174255199Y-82574225D02*
X174234996Y-82688709D01*
X174234996Y-82688709D02*
X174191223Y-82779623D01*
X174191223Y-82779623D02*
X174080106Y-82937880D01*
X174080106Y-82937880D02*
X173979091Y-83038895D01*
X173979091Y-83038895D02*
X173820833Y-83150012D01*
X173820833Y-83150012D02*
X173729920Y-83193785D01*
X173729920Y-83193785D02*
X173615436Y-83213988D01*
X173615436Y-83213988D02*
X173511053Y-83176950D01*
X173511053Y-83176950D02*
X173393202Y-83059098D01*
X156980180Y-90115350D02*
X157980180Y-90115350D01*
X157980180Y-90115350D02*
X157980180Y-90282017D01*
X157980180Y-90282017D02*
X157932561Y-90382017D01*
X157932561Y-90382017D02*
X157837323Y-90448684D01*
X157837323Y-90448684D02*
X157742085Y-90482017D01*
X157742085Y-90482017D02*
X157551609Y-90515350D01*
X157551609Y-90515350D02*
X157408752Y-90515350D01*
X157408752Y-90515350D02*
X157218276Y-90482017D01*
X157218276Y-90482017D02*
X157123038Y-90448684D01*
X157123038Y-90448684D02*
X157027800Y-90382017D01*
X157027800Y-90382017D02*
X156980180Y-90282017D01*
X156980180Y-90282017D02*
X156980180Y-90115350D01*
X157980180Y-90748684D02*
X157980180Y-91215350D01*
X157980180Y-91215350D02*
X156980180Y-90915350D01*
X143745579Y-85870316D02*
X143038472Y-85163210D01*
X143038472Y-85163210D02*
X143156323Y-85045358D01*
X143156323Y-85045358D02*
X143260706Y-85008320D01*
X143260706Y-85008320D02*
X143375190Y-85028523D01*
X143375190Y-85028523D02*
X143466103Y-85072296D01*
X143466103Y-85072296D02*
X143624361Y-85183413D01*
X143624361Y-85183413D02*
X143725376Y-85284428D01*
X143725376Y-85284428D02*
X143836493Y-85442685D01*
X143836493Y-85442685D02*
X143880266Y-85533599D01*
X143880266Y-85533599D02*
X143900469Y-85648083D01*
X143900469Y-85648083D02*
X143863430Y-85752465D01*
X143863430Y-85752465D02*
X143745579Y-85870316D01*
X143981281Y-84691805D02*
X144452686Y-85163210D01*
X143594056Y-84540282D02*
X143981281Y-85163210D01*
X143981281Y-85163210D02*
X144287694Y-84856797D01*
X145922492Y-55474174D02*
X145686789Y-55238472D01*
X145686789Y-55238472D02*
X145326502Y-55551619D01*
X145326502Y-55551619D02*
X145383744Y-55541518D01*
X145383744Y-55541518D02*
X145464556Y-55554987D01*
X145464556Y-55554987D02*
X145582407Y-55672838D01*
X145582407Y-55672838D02*
X145595876Y-55753650D01*
X145595876Y-55753650D02*
X145585774Y-55810892D01*
X145585774Y-55810892D02*
X145542001Y-55901806D01*
X145542001Y-55901806D02*
X145373642Y-56070164D01*
X145373642Y-56070164D02*
X145282728Y-56113938D01*
X145282728Y-56113938D02*
X145225486Y-56124039D01*
X145225486Y-56124039D02*
X145144674Y-56110571D01*
X145144674Y-56110571D02*
X145026823Y-55992719D01*
X145026823Y-55992719D02*
X145013354Y-55911907D01*
X145013354Y-55911907D02*
X145023456Y-55854665D01*
X145875351Y-55898439D02*
X145521798Y-56487694D01*
X145521798Y-56487694D02*
X146111054Y-56134141D01*
X145895554Y-56726764D02*
X145885453Y-56784006D01*
X145885453Y-56784006D02*
X145828211Y-56794107D01*
X145828211Y-56794107D02*
X145838312Y-56736865D01*
X145838312Y-56736865D02*
X145895554Y-56726764D01*
X145895554Y-56726764D02*
X145828211Y-56794107D01*
X146097585Y-56524733D02*
X146478076Y-56097102D01*
X146478076Y-56097102D02*
X146535318Y-56087000D01*
X146535318Y-56087000D02*
X146525216Y-56144242D01*
X146525216Y-56144242D02*
X146097585Y-56524733D01*
X146097585Y-56524733D02*
X146535318Y-56087000D01*
D11*
X158825025Y-58850152D02*
X159525050Y-58149873D01*
X158875013Y-58950025D02*
X159575038Y-58950025D01*
X159575038Y-58250000D02*
X159575038Y-58950025D01*
D12*
X160403732Y-78660000D02*
X160696267Y-78660001D01*
X160403733Y-77639999D02*
X160696268Y-77640000D01*
X162510000Y-79050000D02*
X159250000Y-79050000D01*
X162510000Y-80750000D02*
X159250000Y-80750000D01*
X162510000Y-80750000D02*
X162510000Y-79050000D01*
X161289999Y-65508767D02*
X161290000Y-65216232D01*
X162310000Y-65508768D02*
X162310001Y-65216233D01*
X159131792Y-65782482D02*
X159131791Y-65273034D01*
X160176791Y-65782482D02*
X160176790Y-65273034D01*
X145932776Y-79827501D02*
X146442224Y-79827500D01*
X145932776Y-80872500D02*
X146442224Y-80872499D01*
X156039999Y-65046267D02*
X156040000Y-64753732D01*
X157060000Y-65046268D02*
X157060001Y-64753733D01*
X149130258Y-67798752D02*
X149130258Y-67276248D01*
X150600258Y-67798752D02*
X150600258Y-67276248D01*
X145590000Y-76520814D02*
X145589999Y-76813349D01*
X146610001Y-76520815D02*
X146610000Y-76813350D01*
X146804511Y-63834596D02*
X147327015Y-63834596D01*
X146804511Y-65304596D02*
X147327015Y-65304596D01*
X145290000Y-68637500D02*
X145290000Y-67837500D01*
X145290000Y-68637500D02*
X145290000Y-69437500D01*
X148410000Y-68637500D02*
X148410000Y-67837500D01*
X148410000Y-68637500D02*
X148410000Y-69437500D01*
X148690000Y-67577500D02*
X148360000Y-67337500D01*
X148690000Y-67097500D01*
X148690000Y-67577500D01*
G36*
X148690000Y-67577500D02*
G01*
X148360000Y-67337500D01*
X148690000Y-67097500D01*
X148690000Y-67577500D01*
G37*
X151495276Y-71177501D02*
X152004724Y-71177500D01*
X151495276Y-72222500D02*
X152004724Y-72222499D01*
X159894441Y-63200766D02*
X162179440Y-63200766D01*
X162179440Y-63200766D02*
X162179441Y-61730766D01*
X162179441Y-61730766D02*
X159894441Y-61730766D01*
D13*
X178600000Y-63950000D02*
X175600000Y-63950000D01*
X178600000Y-66450000D02*
X175600000Y-66450000D01*
D14*
X179899998Y-65400000D02*
G75*
G02*
X179700000Y-65400000I-99999J0D01*
G01*
X179700000Y-65400000D02*
G75*
G02*
X179899998Y-65400000I99999J0D01*
G01*
D12*
X151495276Y-69677501D02*
X152004724Y-69677500D01*
X151495276Y-70722500D02*
X152004724Y-70722499D01*
X142808571Y-65498257D02*
X142808571Y-62238257D01*
X142808571Y-65498257D02*
X144508571Y-65498257D01*
X144508571Y-65498257D02*
X144508571Y-62238257D01*
X166503732Y-69160000D02*
X166796267Y-69160001D01*
X166503733Y-68139999D02*
X166796268Y-68140000D01*
X164877500Y-71057776D02*
X164877501Y-71567224D01*
X165922499Y-71057776D02*
X165922500Y-71567224D01*
X152789999Y-67508767D02*
X152790000Y-67216232D01*
X153810000Y-67508768D02*
X153810001Y-67216233D01*
X172382776Y-65227501D02*
X172892224Y-65227500D01*
X172382776Y-66272500D02*
X172892224Y-66272499D01*
X155506394Y-68365795D02*
X156156394Y-68365795D01*
X155506394Y-69015795D02*
X155506394Y-68365795D01*
X155506394Y-74935795D02*
X155506394Y-75585795D01*
X162726394Y-68365795D02*
X162076394Y-68365795D01*
X162726394Y-69015795D02*
X162726394Y-68365795D01*
X162726394Y-74935795D02*
X162726394Y-75585795D01*
X162726394Y-75585795D02*
X162076394Y-75585795D01*
D13*
X148300000Y-78517082D02*
X148300000Y-74517082D01*
X152300000Y-78517082D02*
X152300000Y-74517082D01*
D14*
X149200001Y-79477083D02*
G75*
G02*
X148999999Y-79477083I-100001J0D01*
G01*
X148999999Y-79477083D02*
G75*
G02*
X149200001Y-79477083I100001J0D01*
G01*
D12*
X168096267Y-70910001D02*
X167803732Y-70910000D01*
X168096268Y-69890000D02*
X167803733Y-69889999D01*
D15*
X166257100Y-73235713D02*
X166257100Y-74892914D01*
X166257100Y-74892914D02*
X168114301Y-74892914D01*
X166485701Y-71307087D02*
X170542901Y-71307087D01*
X166485701Y-74664313D02*
X166485701Y-71307087D01*
X170542901Y-71307087D02*
X170542901Y-74664313D01*
X170542901Y-74664313D02*
X166485701Y-74664313D01*
D12*
X147190759Y-61412178D02*
X146673603Y-61412178D01*
X147190759Y-62832178D02*
X146673603Y-62832178D01*
X154489999Y-65046267D02*
X154490000Y-64753732D01*
X155510000Y-65046268D02*
X155510001Y-64753733D01*
X164889999Y-74858767D02*
X164890000Y-74566232D01*
X165910000Y-74858768D02*
X165910001Y-74566233D01*
X140426792Y-78937409D02*
X140936240Y-78937408D01*
X140426792Y-79982408D02*
X140936240Y-79982407D01*
D13*
X178600000Y-76609437D02*
X175600000Y-76609437D01*
X178600000Y-79109437D02*
X175600000Y-79109437D01*
D14*
X179899998Y-78059437D02*
G75*
G02*
X179700000Y-78059437I-99999J0D01*
G01*
X179700000Y-78059437D02*
G75*
G02*
X179899998Y-78059437I99999J0D01*
G01*
D12*
X162839999Y-65496267D02*
X162840000Y-65203732D01*
X163860000Y-65496268D02*
X163860001Y-65203733D01*
X151239999Y-67508767D02*
X151240000Y-67216232D01*
X152260000Y-67508768D02*
X152260001Y-67216233D01*
X137246895Y-78977833D02*
X136737447Y-78977834D01*
X137246895Y-80022832D02*
X136737447Y-80022833D01*
X154295276Y-76394583D02*
X154804724Y-76394582D01*
X154295276Y-77439582D02*
X154804724Y-77439581D01*
%LPC*%
D16*
X153300076Y-53700026D03*
X153300076Y-57000000D03*
X158200000Y-57000000D03*
X158200000Y-53700026D03*
D17*
X159687500Y-78150000D03*
X161412500Y-78150000D03*
D18*
X161750000Y-79900000D03*
X159250000Y-79900000D03*
D19*
X161800000Y-66225000D03*
X161800000Y-64500000D03*
D20*
X147762500Y-71700000D03*
X146037500Y-71700000D03*
D21*
X159654291Y-66440258D03*
X159654291Y-64615258D03*
D22*
X145275000Y-80350000D03*
X147100000Y-80350000D03*
D19*
X156550000Y-65762500D03*
X156550000Y-64037500D03*
D23*
X149865258Y-68575000D03*
X149865258Y-66500000D03*
D24*
X146100000Y-75804582D03*
X146100000Y-77529582D03*
D25*
X146028263Y-64569596D03*
X148103263Y-64569596D03*
D26*
X147800000Y-67500000D03*
X146850000Y-67500000D03*
X145900000Y-67500000D03*
X145900000Y-69775000D03*
X147800000Y-69775000D03*
D22*
X150837500Y-71700000D03*
X152662500Y-71700000D03*
D27*
X161481941Y-62465766D03*
X159906941Y-62465766D03*
D28*
X178800000Y-65200000D03*
X175400000Y-65200000D03*
D22*
X150837500Y-70200000D03*
X152662500Y-70200000D03*
D29*
X143658571Y-64738257D03*
X143658571Y-62238257D03*
D17*
X165787500Y-68650000D03*
X167512500Y-68650000D03*
D30*
X165400000Y-70400000D03*
X165400000Y-72225000D03*
D19*
X153300000Y-68225000D03*
X153300000Y-66500000D03*
D22*
X171725000Y-65750000D03*
X173550000Y-65750000D03*
D31*
X156516394Y-75413295D03*
X156916394Y-75413294D03*
X157316394Y-75413295D03*
X157716394Y-75413295D03*
X158116394Y-75413295D03*
X158516394Y-75413295D03*
X158916393Y-75413295D03*
X159316394Y-75413295D03*
X159716394Y-75413295D03*
X160116394Y-75413295D03*
X160516394Y-75413295D03*
X160916393Y-75413295D03*
X161316394Y-75413295D03*
X161716394Y-75413295D03*
D32*
X162553894Y-74575795D03*
X162553893Y-74175795D03*
X162553894Y-73775795D03*
X162553894Y-73375795D03*
X162553894Y-72975795D03*
X162553894Y-72575795D03*
X162553894Y-72175796D03*
X162553894Y-71775795D03*
X162553894Y-71375795D03*
X162553894Y-70975795D03*
X162553894Y-70575795D03*
X162553894Y-70175796D03*
X162553894Y-69775795D03*
X162553894Y-69375795D03*
D31*
X161716394Y-68538295D03*
X161316394Y-68538296D03*
X160916394Y-68538295D03*
X160516394Y-68538295D03*
X160116394Y-68538295D03*
X159716394Y-68538295D03*
X159316395Y-68538295D03*
X158916394Y-68538295D03*
X158516394Y-68538295D03*
X158116394Y-68538295D03*
X157716394Y-68538295D03*
X157316395Y-68538295D03*
X156916394Y-68538295D03*
X156516394Y-68538295D03*
D32*
X155678894Y-69375795D03*
X155678895Y-69775795D03*
X155678894Y-70175795D03*
X155678894Y-70575795D03*
X155678894Y-70975795D03*
X155678894Y-71375795D03*
X155678894Y-71775794D03*
X155678894Y-72175795D03*
X155678894Y-72575795D03*
X155678894Y-72975795D03*
X155678894Y-73375795D03*
X155678894Y-73775794D03*
X155678894Y-74175795D03*
X155678894Y-74575795D03*
D33*
X159016394Y-71900795D03*
D34*
X149100000Y-78467082D03*
X149900000Y-78467082D03*
X150700000Y-78467082D03*
X151500000Y-78467082D03*
X151500000Y-74567082D03*
X150700000Y-74567082D03*
X149900000Y-74567082D03*
X149100000Y-74567082D03*
D20*
X168812500Y-70400000D03*
X167087500Y-70400000D03*
D35*
X167414225Y-73835840D03*
X169614377Y-73835840D03*
X169614377Y-72135814D03*
X167414225Y-72135814D03*
D36*
X147869681Y-62122178D03*
X145994681Y-62122178D03*
D19*
X155000000Y-65762500D03*
X155000000Y-64037500D03*
D37*
X141605484Y-69276136D03*
X141605484Y-75056135D03*
D38*
X143020484Y-68916136D03*
X143020484Y-69716136D03*
D39*
X143020484Y-70916136D03*
X143020484Y-71916136D03*
X143020485Y-72416136D03*
X143020484Y-73416136D03*
D38*
X143020484Y-74616136D03*
X143020484Y-75416136D03*
X143020484Y-75416136D03*
X143020484Y-74616136D03*
D39*
X143020484Y-73916136D03*
X143020484Y-72916136D03*
X143020484Y-71416136D03*
X143020484Y-70416136D03*
D38*
X143020484Y-69716136D03*
X143020484Y-68916136D03*
D40*
X142105484Y-67841136D03*
D41*
X137925484Y-67841136D03*
D40*
X142105484Y-76491136D03*
D41*
X137925484Y-76491136D03*
D19*
X165400000Y-75575000D03*
X165400000Y-73850000D03*
D22*
X139769016Y-79459908D03*
X141594016Y-79459908D03*
D28*
X178800000Y-77859437D03*
X175400000Y-77859437D03*
D19*
X163350000Y-66212500D03*
X163350000Y-64487500D03*
X151750000Y-68225000D03*
X151750000Y-66500000D03*
D42*
X137904671Y-79500333D03*
X136079671Y-79500333D03*
D43*
X142850240Y-53293006D03*
D44*
X143896758Y-54353667D03*
D43*
X141082473Y-55060775D03*
D44*
X142128991Y-56121433D03*
D43*
X139314706Y-56828541D03*
D44*
X140361224Y-57889201D03*
X140333711Y-84872659D03*
D45*
X139273050Y-85919177D03*
D44*
X142101477Y-86640426D03*
D45*
X141040817Y-87686944D03*
D44*
X143869244Y-88408193D03*
D45*
X142808584Y-89454711D03*
D44*
X154777220Y-92999319D03*
D46*
X154767219Y-94489320D03*
D44*
X157377220Y-92999319D03*
D46*
X157367220Y-94489320D03*
D44*
X159877219Y-92999319D03*
D46*
X159867220Y-94489319D03*
D44*
X169929352Y-89242204D03*
D47*
X170975870Y-90302865D03*
D44*
X171697119Y-87474438D03*
D47*
X172743637Y-88535097D03*
D44*
X173464886Y-85706670D03*
D47*
X174511404Y-86767331D03*
D44*
X175195489Y-84112559D03*
D47*
X176242008Y-85173219D03*
D48*
X180355456Y-74131897D03*
D44*
X178865455Y-74121898D03*
D48*
X180355456Y-71531898D03*
D44*
X178865455Y-71521897D03*
D48*
X180355456Y-69031898D03*
D44*
X178865456Y-69021897D03*
D49*
X175443690Y-56904289D03*
D44*
X174383027Y-57950808D03*
D49*
X173675921Y-55136522D03*
D44*
X172615261Y-56183041D03*
D49*
X171908154Y-53368755D03*
D44*
X170847494Y-54415273D03*
D46*
X160041421Y-48310417D03*
D44*
X160031421Y-49800417D03*
D46*
X157441421Y-48310416D03*
D44*
X157431421Y-49800417D03*
D46*
X154941421Y-48310417D03*
D44*
X154931421Y-49800417D03*
D22*
X153637500Y-76917082D03*
X155462500Y-76917082D03*
%LPD*%
M02*
