%TF.GenerationSoftware,KiCad,Pcbnew,8.0.4*%
%TF.CreationDate,2024-10-01T08:13:16+02:00*%
%TF.ProjectId,RP2040_roundStamp_secondIteration,52503230-3430-45f7-926f-756e64537461,rev?*%
%TF.SameCoordinates,Original*%
%TF.FileFunction,Drillmap*%
%TF.FilePolarity,Positive*%
%FSLAX45Y45*%
G04 Gerber Fmt 4.5, Leading zero omitted, Abs format (unit mm)*
G04 Created by KiCad (PCBNEW 8.0.4) date 2024-10-01 08:13:16*
%MOMM*%
%LPD*%
G01*
G04 APERTURE LIST*
%ADD10C,0.050000*%
%ADD11C,0.200000*%
%ADD12C,0.100000*%
G04 APERTURE END LIST*
D10*
X16440000Y-9095000D02*
X16420000Y-9075000D01*
X16350000Y-5665000D02*
X16365000Y-5650000D01*
X16220000Y-8645000D02*
X16220000Y-8620000D01*
X16175000Y-5885000D02*
X16185000Y-5900000D01*
X16550000Y-9180000D02*
X16530000Y-9160000D01*
X14837163Y-5266299D02*
X14819013Y-5231722D01*
X14920232Y-5078817D02*
X14912250Y-5124219D01*
X16763742Y-4989499D02*
X16757236Y-5005205D01*
X15005000Y-5845000D02*
X14991019Y-5822517D01*
X14910440Y-5729608D02*
X14900272Y-5649630D01*
X15015000Y-5500000D02*
X15025000Y-5545000D01*
X15195000Y-8810000D02*
X15190000Y-8835000D01*
X15180000Y-8895000D02*
X15175000Y-8920000D01*
X15015000Y-5855000D02*
X15005000Y-5845000D01*
X15335000Y-8385000D02*
X15340000Y-8355000D01*
X14820000Y-9125000D02*
X14845000Y-9110000D01*
X15000000Y-8960000D02*
X15005000Y-8945000D01*
X16346482Y-5306988D02*
X16370564Y-5235784D01*
X16528392Y-4933145D02*
X16534461Y-4892363D01*
X15185000Y-6180000D02*
X15180000Y-6165000D01*
X16460302Y-5110596D02*
X16468748Y-5103270D01*
X16400000Y-5585000D02*
X16420000Y-5550000D01*
X16360000Y-8965000D02*
X16350000Y-8945000D01*
X15190000Y-5925000D02*
X15200000Y-5955000D01*
X15165000Y-8560000D02*
X15175000Y-8540000D01*
X14856897Y-5323181D02*
X14845281Y-5285898D01*
X14865807Y-5353932D02*
X14856897Y-5323181D01*
X15205000Y-8750000D02*
X15210000Y-8735000D01*
X16513710Y-4827483D02*
X16521800Y-4834082D01*
X16695000Y-9105000D02*
X16675000Y-9075000D01*
X15345000Y-8320000D02*
X15340000Y-8355000D01*
X16536182Y-4979667D02*
X16529977Y-4955449D01*
X15285000Y-6090000D02*
X15295000Y-6100000D01*
X16330000Y-8890000D02*
X16325000Y-8875000D01*
X16400000Y-9050000D02*
X16385000Y-9030000D01*
X14958108Y-4835815D02*
X14924772Y-4858807D01*
X15210000Y-5980000D02*
X15220000Y-6000000D01*
X16305000Y-8745000D02*
X16295000Y-8735000D01*
X15115000Y-8655000D02*
X15135000Y-8615000D01*
X16320000Y-8475000D02*
X16310000Y-8435000D01*
X16200000Y-5910000D02*
X16225000Y-5905000D01*
X16398144Y-5182264D02*
X16416157Y-5151842D01*
X15230000Y-8330000D02*
X15230000Y-8305000D01*
X15140000Y-6100000D02*
X15125000Y-6080000D01*
X15060000Y-8810000D02*
X15075000Y-8775000D01*
X14799920Y-9158309D02*
X14805660Y-9144451D01*
X16220000Y-8600000D02*
X16220000Y-8585000D01*
X16210000Y-8535000D02*
X16205000Y-8520000D01*
X16220000Y-8585000D02*
X16215000Y-8560000D01*
X16315000Y-8785000D02*
X16315000Y-8770000D01*
X15005000Y-9250000D02*
X14975757Y-9282557D01*
X14903691Y-5445391D02*
X14889040Y-5428499D01*
X15125000Y-6080000D02*
X15120000Y-6055000D01*
X16227850Y-5593391D02*
X16262756Y-5548317D01*
X16090000Y-8315000D02*
X16095000Y-8295000D01*
X16325000Y-8865000D02*
X16320000Y-8835000D01*
X16380000Y-5625000D02*
X16390000Y-5605000D01*
X15115000Y-6015000D02*
X15105000Y-5990000D01*
X16270000Y-8720000D02*
X16255000Y-8710000D01*
X16762133Y-9294589D02*
X16783950Y-9317697D01*
X16335000Y-8910000D02*
X16330000Y-8890000D01*
X15200000Y-8780000D02*
X15205000Y-8750000D01*
X14957890Y-5797971D02*
X14935914Y-5772632D01*
X15175000Y-6155000D02*
X15160000Y-6135000D01*
X14900000Y-9075000D02*
X14920000Y-9060000D01*
X15295000Y-8560000D02*
X15300000Y-8540000D01*
X16165000Y-5865000D02*
X16175000Y-5885000D01*
X14880000Y-9090000D02*
X14900000Y-9075000D01*
X16490000Y-9130000D02*
X16465000Y-9115000D01*
X14889040Y-5428499D02*
X14865807Y-5353932D01*
X14960000Y-9020000D02*
X14980000Y-8990000D01*
X16160416Y-5716993D02*
X16162329Y-5712374D01*
X16190000Y-8425000D02*
X16170000Y-8400000D01*
X14966506Y-5319875D02*
X14972710Y-5344093D01*
X14949598Y-9371842D02*
X14959181Y-9393130D01*
X16605000Y-9030000D02*
X16580000Y-9015000D01*
X16735000Y-9250000D02*
X16725000Y-9225000D01*
X16350000Y-8945000D02*
X16340000Y-8925000D01*
X15015000Y-5450000D02*
X15015000Y-5475000D01*
X14845000Y-9110000D02*
X14880000Y-9090000D01*
X15155000Y-6320000D02*
X15125000Y-6300000D01*
X16475000Y-5390000D02*
X16485000Y-5370000D01*
X16529986Y-9371613D02*
X16539553Y-9348516D01*
X14915444Y-5547675D02*
X14918806Y-5500360D01*
X16495000Y-5325000D02*
X16500000Y-5310000D01*
X16801578Y-4947804D02*
X16794345Y-4946973D01*
X14988154Y-5372137D02*
X15001683Y-5404802D01*
X15260000Y-8615000D02*
X15265000Y-8605000D01*
X15126295Y-5770311D02*
X15146686Y-5773345D01*
X14791146Y-9192558D02*
X14799920Y-9158309D01*
X16205000Y-8500000D02*
X16200000Y-8455000D01*
X16587403Y-5195714D02*
X16517592Y-5285861D01*
X16503039Y-9434054D02*
X16491821Y-9440231D01*
X16470000Y-5405000D02*
X16475000Y-5390000D01*
X16145000Y-8275000D02*
X16150000Y-8275000D01*
X16485000Y-5370000D02*
X16490000Y-5350000D01*
X16265000Y-5765000D02*
X16285000Y-5750000D01*
X16273115Y-5536373D02*
X16304194Y-5500538D01*
X14617374Y-4999912D02*
X14588405Y-5014973D01*
X15063536Y-5738904D02*
X15096665Y-5763450D01*
X16794345Y-4946973D02*
X16783893Y-4951303D01*
X16160416Y-5716993D02*
X16145000Y-5750000D01*
X16100000Y-8350000D02*
X16090000Y-8315000D01*
X16335000Y-8545000D02*
X16330000Y-8510000D01*
X16415000Y-8640000D02*
X16400000Y-8615000D01*
X14935075Y-5003786D02*
X14924387Y-5042655D01*
X15300000Y-6280000D02*
X15265000Y-6310000D01*
X16455000Y-8780000D02*
X16450000Y-8750000D01*
X15185000Y-5905000D02*
X15190000Y-5925000D01*
X15230000Y-8355000D02*
X15230000Y-8330000D01*
X15330000Y-8265000D02*
X15340000Y-8290000D01*
X16145000Y-8375000D02*
X16115000Y-8360000D01*
X16445000Y-5480000D02*
X16455000Y-5445000D01*
X16340000Y-8575000D02*
X16335000Y-8545000D01*
X16247500Y-5795000D02*
X16255000Y-5775000D01*
X15185000Y-8870000D02*
X15180000Y-8895000D01*
X15210000Y-8475000D02*
X15220000Y-8450000D01*
X15130000Y-9030000D02*
X15105000Y-9075000D01*
X15063989Y-9448449D02*
X16474677Y-9445037D01*
X15275000Y-8585000D02*
X15285000Y-8575000D01*
X14973225Y-9414101D02*
X14999186Y-9432431D01*
X16145000Y-5815000D02*
X16150000Y-5835000D01*
X15320000Y-6150000D02*
X15320000Y-6180000D01*
X16310000Y-8435000D02*
X16295000Y-8400000D01*
X15025000Y-5545000D02*
X15020000Y-5600000D01*
X15030000Y-8870000D02*
X15050000Y-8835000D01*
X16170000Y-8400000D02*
X16145000Y-8375000D01*
X16551033Y-9320800D02*
X16560600Y-9297703D01*
X16355000Y-8595000D02*
X16340000Y-8575000D01*
X16441496Y-5129866D02*
X16460302Y-5110596D01*
X15165163Y-5780999D02*
X15186347Y-5795185D01*
X15050000Y-8835000D02*
X15060000Y-8810000D01*
X16500000Y-5310000D02*
X16517592Y-5285861D01*
X14991019Y-5822517D02*
X14957890Y-5797971D01*
X16740978Y-5028777D02*
X16726698Y-5042346D01*
X14952632Y-9351451D02*
X14949598Y-9371842D01*
X16166156Y-5703135D02*
X16182256Y-5677332D01*
X14917662Y-5137284D02*
X14928486Y-5163416D01*
X15125000Y-6270000D02*
X15130000Y-6240000D01*
X14691968Y-4989679D02*
X14652427Y-4988454D01*
X15146686Y-5773345D02*
X15165163Y-5780999D01*
X15095000Y-5970000D02*
X15085000Y-5945000D01*
X15310000Y-6125000D02*
X15320000Y-6150000D01*
X15250000Y-8630000D02*
X15260000Y-8615000D01*
X16445000Y-8705000D02*
X16440000Y-8685000D01*
X16280000Y-8365000D02*
X16265000Y-8345000D01*
X15325000Y-8445000D02*
X15330000Y-8425000D01*
X14805660Y-9144451D02*
X14820000Y-9125000D01*
X16185000Y-5900000D02*
X16200000Y-5910000D01*
X15220000Y-6000000D02*
X15235000Y-6025000D01*
X16430000Y-5530000D02*
X16440000Y-5505000D01*
X16325000Y-5695000D02*
X16350000Y-5665000D01*
X15315000Y-6250000D02*
X15300000Y-6280000D01*
X16120000Y-8275000D02*
X16145000Y-8275000D01*
X16420000Y-5550000D02*
X16430000Y-5530000D01*
X15130000Y-6240000D02*
X15150000Y-6205000D01*
X15105000Y-8680000D02*
X15115000Y-8655000D01*
X14738226Y-9268053D02*
X14757825Y-9259936D01*
X14801657Y-5208296D02*
X14787006Y-5191404D01*
X14660954Y-9284754D02*
X14642252Y-9280254D01*
X15190000Y-8835000D02*
X15185000Y-8870000D01*
X16630000Y-9045000D02*
X16605000Y-9030000D01*
X16375000Y-8605000D02*
X16355000Y-8595000D01*
X16768399Y-4973028D02*
X16763742Y-4989499D01*
X16310000Y-8760000D02*
X16305000Y-8745000D01*
X16491821Y-9440231D02*
X16474677Y-9445037D01*
X16510000Y-9145000D02*
X16490000Y-9130000D01*
X15180000Y-6190000D02*
X15185000Y-6180000D01*
X16295000Y-5730000D02*
X16325000Y-5695000D01*
X18035000Y-8090000D02*
X18036004Y-6179994D01*
X16465000Y-8840000D02*
X16460000Y-8820000D01*
X16385000Y-9030000D02*
X16375000Y-9010000D01*
X16262756Y-5548317D02*
X16273115Y-5536373D01*
X14936853Y-4934167D02*
X14936524Y-4961091D01*
X16416157Y-5151842D02*
X16441496Y-5129866D01*
X16775064Y-4959552D02*
X16768399Y-4973028D01*
X14924772Y-4858807D02*
X14921738Y-4879198D01*
X15235000Y-6025000D02*
X15245000Y-6040000D01*
X16565000Y-9240000D02*
X16560000Y-9215000D01*
X14918806Y-5500360D02*
X14911809Y-5464990D01*
X16365000Y-8985000D02*
X16360000Y-8965000D01*
X15150000Y-6120000D02*
X15140000Y-6100000D01*
X15105000Y-5990000D02*
X15095000Y-5970000D01*
X16535000Y-8980000D02*
X16525000Y-8960000D01*
X14959181Y-9393130D02*
X14973225Y-9414101D01*
X16304194Y-5500538D02*
X16316467Y-5483974D01*
X15230000Y-8385000D02*
X15230000Y-8355000D01*
X16240000Y-8695000D02*
X16230000Y-8685000D01*
X15135000Y-8615000D02*
X15150000Y-8585000D01*
X15320000Y-8465000D02*
X15325000Y-8445000D01*
X14819013Y-5231722D02*
X14801657Y-5208296D01*
X14920000Y-9060000D02*
X14945000Y-9040000D01*
X15010000Y-5430000D02*
X15015000Y-5450000D01*
X16330000Y-8510000D02*
X16320000Y-8475000D01*
X16375000Y-9010000D02*
X16365000Y-8985000D01*
X16529918Y-4853680D02*
X16532083Y-4858906D01*
X16220000Y-8660000D02*
X16220000Y-8645000D01*
X15105000Y-9075000D02*
X15085000Y-9105000D01*
X16215000Y-8560000D02*
X16210000Y-8535000D01*
X15020000Y-8905000D02*
X15030000Y-8870000D01*
X16515471Y-9419720D02*
X16503039Y-9434054D01*
X14588405Y-5014973D02*
X13420222Y-6178496D01*
X14771098Y-5125283D02*
X14764894Y-5101065D01*
X16525000Y-8960000D02*
X16515000Y-8940000D01*
X14999186Y-9432431D02*
X15025279Y-9439992D01*
X14757825Y-9259936D02*
X14772011Y-9238752D01*
X15085000Y-5945000D02*
X15075000Y-5920000D01*
X14924387Y-5042655D02*
X14920232Y-5078817D01*
X16580000Y-9015000D02*
X16555000Y-9000000D01*
X16675000Y-9075000D02*
X16655000Y-9060000D01*
X15035027Y-5716271D02*
X15063536Y-5738904D01*
X16255000Y-5885000D02*
X16255000Y-5840000D01*
X16255000Y-5840000D02*
X16247500Y-5795000D01*
X15185000Y-5880000D02*
X15185000Y-5895000D01*
X16430000Y-8665000D02*
X16415000Y-8640000D01*
X16240000Y-8315000D02*
X16215000Y-8295000D01*
X15220000Y-8715000D02*
X15225000Y-8695000D01*
X14965234Y-9307963D02*
X14952632Y-9351451D01*
X15150000Y-6205000D02*
X15180000Y-6190000D01*
X14642252Y-9280254D02*
X14615301Y-9266926D01*
X16150000Y-8275000D02*
X16170000Y-8275000D01*
X15160000Y-6135000D02*
X15150000Y-6120000D01*
X16295000Y-8400000D02*
X16280000Y-8365000D01*
X16460000Y-8820000D02*
X16455000Y-8780000D01*
X14764894Y-5101065D02*
X14758689Y-5076848D01*
X16744776Y-9271163D02*
X16762133Y-9294589D01*
X15195000Y-8510000D02*
X15210000Y-8475000D01*
X16470000Y-8860000D02*
X16465000Y-8840000D01*
X16445000Y-8720000D02*
X16445000Y-8705000D01*
X15020000Y-5600000D02*
X15020000Y-5645000D01*
X15295000Y-6100000D02*
X15305000Y-6110000D01*
X15285000Y-8575000D02*
X15295000Y-8560000D01*
X15220000Y-8450000D02*
X15225000Y-8425000D01*
X14945000Y-9040000D02*
X14960000Y-9020000D01*
X15280000Y-8260000D02*
X15305000Y-8260000D01*
X14577105Y-9246775D02*
X14562164Y-9238422D01*
X15100000Y-8710000D02*
X15105000Y-8680000D01*
X15210000Y-8735000D02*
X15220000Y-8715000D01*
X15030000Y-5865000D02*
X15015000Y-5855000D01*
X16230000Y-8685000D02*
X16225000Y-8675000D01*
X15090000Y-8740000D02*
X15100000Y-8710000D01*
X16200000Y-8455000D02*
X16190000Y-8425000D01*
X16465000Y-9115000D02*
X16440000Y-9095000D01*
X16726698Y-5042346D02*
X16664869Y-5087091D01*
X15150000Y-8585000D02*
X15165000Y-8560000D01*
X16255000Y-5775000D02*
X16265000Y-5765000D01*
X16255000Y-8710000D02*
X16240000Y-8695000D01*
X16664869Y-5087091D02*
X16587403Y-5195714D01*
X16529977Y-4955449D02*
X16528392Y-4933145D01*
X16757236Y-5005205D02*
X16747959Y-5019763D01*
X15035000Y-9190000D02*
X15020000Y-9220000D01*
X15085000Y-9105000D02*
X15065000Y-9140000D01*
X16370564Y-5235784D02*
X16398144Y-5182264D01*
X16710000Y-9170000D02*
X16705000Y-9145000D01*
X16400000Y-8615000D02*
X16375000Y-8605000D01*
X16205000Y-8520000D02*
X16205000Y-8500000D01*
X16105000Y-8280000D02*
X16120000Y-8275000D01*
X16700000Y-9120000D02*
X16695000Y-9105000D01*
X16440000Y-8685000D02*
X16430000Y-8665000D01*
X16725000Y-9225000D02*
X16715000Y-9195000D01*
X16162329Y-5712374D02*
X16166156Y-5703135D01*
X15200000Y-5955000D02*
X15210000Y-5980000D01*
X15120000Y-6030000D02*
X15115000Y-6015000D01*
X15120000Y-6055000D02*
X15120000Y-6030000D01*
X14965234Y-9307963D02*
X14975757Y-9282557D01*
X15320000Y-6215000D02*
X15315000Y-6250000D01*
X15045000Y-5880000D02*
X15030000Y-5865000D01*
X15065000Y-9140000D02*
X15035000Y-9190000D01*
X15096665Y-5763450D02*
X15126295Y-5770311D01*
X15020000Y-5645000D02*
X15014965Y-5686313D01*
X15265000Y-6310000D02*
X15220000Y-6330000D01*
X16555000Y-9000000D02*
X16535000Y-8980000D01*
X16182256Y-5677332D02*
X16227850Y-5593391D01*
X15265000Y-8605000D02*
X15275000Y-8585000D01*
X16225000Y-8675000D02*
X16220000Y-8660000D01*
X16783893Y-4951303D02*
X16775064Y-4959552D01*
X16793189Y-9321524D02*
X16805041Y-9324268D01*
X14787006Y-5191404D02*
X14783507Y-5173719D01*
X16460000Y-5425000D02*
X16470000Y-5405000D01*
X16505000Y-8925000D02*
X16495000Y-8910000D01*
X16295000Y-8735000D02*
X16285000Y-8730000D01*
X14723976Y-5029997D02*
X14715858Y-5010399D01*
X16315000Y-8770000D02*
X16310000Y-8760000D01*
X16715000Y-9195000D02*
X16710000Y-9170000D01*
X14685964Y-9289701D02*
X14738226Y-9268053D01*
X15230000Y-8305000D02*
X15240000Y-8285000D01*
X16150000Y-5835000D02*
X16165000Y-5865000D01*
X14936524Y-4961091D02*
X14935075Y-5003786D01*
X15260000Y-6060000D02*
X15275000Y-6080000D01*
X15225000Y-8695000D02*
X15230000Y-8680000D01*
X15305000Y-8515000D02*
X15310000Y-8495000D01*
X15240000Y-8645000D02*
X15250000Y-8630000D01*
X15075000Y-5920000D02*
X15060000Y-5905000D01*
X14598130Y-9258731D02*
X14577105Y-9246775D01*
X14921738Y-4879198D02*
X14925236Y-4896883D01*
X15165000Y-8940000D02*
X15155000Y-8970000D01*
X15140000Y-9005000D02*
X15130000Y-9030000D01*
X14741332Y-5053422D02*
X14723976Y-5029997D01*
X16285000Y-8730000D02*
X16270000Y-8720000D01*
X14685964Y-9289701D02*
X14660954Y-9284754D01*
X16340000Y-8925000D02*
X16335000Y-8910000D01*
X15245000Y-6040000D02*
X15260000Y-6060000D01*
X16420000Y-9075000D02*
X16400000Y-9050000D01*
X16490000Y-5340000D02*
X16495000Y-5325000D01*
X16145000Y-5785000D02*
X16145000Y-5815000D01*
X15240000Y-8285000D02*
X15255000Y-8270000D01*
X15175000Y-6335000D02*
X15155000Y-6320000D01*
X16390000Y-5605000D02*
X16400000Y-5585000D01*
X16220000Y-8620000D02*
X16220000Y-8600000D01*
X14945514Y-5213765D02*
X14964128Y-5286418D01*
X15195257Y-5825936D02*
X15188396Y-5855566D01*
X15125000Y-6300000D02*
X15125000Y-6270000D01*
X15320000Y-6180000D02*
X15320000Y-6215000D01*
X15330000Y-8425000D02*
X15335000Y-8405000D01*
X15180000Y-6165000D02*
X15175000Y-6155000D01*
X16783950Y-9317697D02*
X16793189Y-9321524D01*
X16655000Y-9060000D02*
X16630000Y-9045000D01*
X16747959Y-5019763D02*
X16740978Y-5028777D01*
X16325000Y-8875000D02*
X16325000Y-8865000D01*
X15315000Y-8480000D02*
X15320000Y-8465000D01*
X14935914Y-5772632D02*
X14910440Y-5729608D01*
X16801578Y-4947804D02*
X18036004Y-6179994D01*
X16320000Y-8835000D02*
X16315000Y-8805000D01*
X15175000Y-8540000D02*
X15195000Y-8510000D01*
X16560600Y-9297703D02*
X16565000Y-9240000D01*
X14900272Y-5649630D02*
X14902842Y-5591163D01*
X15200000Y-8780000D02*
X15195000Y-8810000D01*
X16495000Y-8910000D02*
X16480000Y-8895000D01*
X15014965Y-5686313D02*
X15035027Y-5716271D01*
X14758689Y-5076848D02*
X14741332Y-5053422D01*
X16115000Y-8360000D02*
X16100000Y-8350000D01*
X16095000Y-8295000D02*
X16105000Y-8280000D01*
X14615301Y-9266926D02*
X14598130Y-9258731D01*
X14925236Y-4896883D02*
X14936853Y-4934167D01*
X15188396Y-5855566D02*
X15185000Y-5880000D01*
X16515471Y-9419720D02*
X16529986Y-9371613D01*
X16319502Y-5463583D02*
X16325242Y-5449725D01*
X16744776Y-9271163D02*
X16735000Y-9250000D01*
X14783492Y-9211036D02*
X14791146Y-9192558D01*
X16521800Y-4834082D02*
X16526737Y-4840456D01*
X15305000Y-8260000D02*
X15330000Y-8265000D01*
X15220000Y-6330000D02*
X15175000Y-6335000D01*
X16265000Y-8345000D02*
X16240000Y-8315000D01*
X15255000Y-8270000D02*
X15280000Y-8260000D01*
X16215000Y-8295000D02*
X16190000Y-8285000D01*
X16508670Y-5065687D02*
X16536182Y-4979667D01*
X16490000Y-5350000D02*
X16490000Y-5340000D01*
X16365000Y-5650000D02*
X16380000Y-5625000D01*
X16316467Y-5483974D02*
X16319502Y-5463583D01*
X16455000Y-5445000D02*
X16460000Y-5425000D01*
X16190000Y-8285000D02*
X16170000Y-8275000D01*
X16532083Y-4858906D02*
X16534461Y-4892363D01*
X15235000Y-8665000D02*
X15240000Y-8645000D01*
X15310000Y-8495000D02*
X15315000Y-8480000D01*
X15185000Y-5895000D02*
X15185000Y-5905000D01*
X16339292Y-5363542D02*
X16346482Y-5306988D01*
X15305000Y-6110000D02*
X15310000Y-6125000D01*
X16539553Y-9348516D02*
X16551033Y-9320800D01*
X14928486Y-5163416D02*
X14945514Y-5213765D01*
X13417304Y-8093122D02*
X14562164Y-9238422D01*
X16560000Y-9215000D02*
X16550000Y-9180000D01*
X15005000Y-8945000D02*
X15010000Y-8925000D01*
X15300000Y-8540000D02*
X15305000Y-8515000D01*
X16450000Y-8750000D02*
X16445000Y-8720000D01*
X14980000Y-8990000D02*
X15000000Y-8960000D01*
X16805041Y-9324268D02*
X18035000Y-8090000D01*
X15225000Y-8425000D02*
X15230000Y-8385000D01*
X14912250Y-5124219D02*
X14917662Y-5137284D01*
X16325242Y-5449725D02*
X16337051Y-5395085D01*
X16145000Y-5750000D02*
X16145000Y-5785000D01*
X16337051Y-5395085D02*
X16339292Y-5363542D01*
X16468748Y-5103270D02*
X16508670Y-5065687D01*
X15075000Y-8775000D02*
X15090000Y-8740000D01*
X16475000Y-8880000D02*
X16470000Y-8860000D01*
X15010000Y-8925000D02*
X15020000Y-8905000D01*
X16440000Y-5505000D02*
X16445000Y-5480000D01*
X14783507Y-5173719D02*
X14771098Y-5125283D01*
X16225000Y-5905000D02*
X16255000Y-5885000D01*
X14964128Y-5286418D02*
X14966506Y-5319875D01*
X16315000Y-8805000D02*
X16315000Y-8785000D01*
X15020000Y-9220000D02*
X15005000Y-9250000D01*
X16480000Y-8895000D02*
X16475000Y-8880000D01*
X16513710Y-4827483D02*
X14958108Y-4835815D01*
X14911809Y-5464990D02*
X14903691Y-5445391D01*
X16705000Y-9145000D02*
X16700000Y-9120000D01*
X15015000Y-5475000D02*
X15015000Y-5500000D01*
X15275000Y-6080000D02*
X15285000Y-6090000D01*
X14845281Y-5285898D02*
X14837163Y-5266299D01*
X14652427Y-4988454D02*
X14617374Y-4999912D01*
X15001683Y-5404802D02*
X15010000Y-5430000D01*
X14715858Y-5010399D02*
X14691968Y-4989679D01*
X14772011Y-9238752D02*
X14783492Y-9211036D01*
X16530000Y-9160000D02*
X16510000Y-9145000D01*
X14972710Y-5344093D02*
X14988154Y-5372137D01*
X15340000Y-8290000D02*
X15345000Y-8320000D01*
X13420222Y-6178496D02*
X13417304Y-8093122D01*
X15155000Y-8970000D02*
X15140000Y-9005000D01*
X15175000Y-8920000D02*
X15165000Y-8940000D01*
X15230000Y-8680000D02*
X15235000Y-8665000D01*
X15025279Y-9439992D02*
X15063989Y-9448449D01*
X16526737Y-4840456D02*
X16529918Y-4853680D01*
X15335000Y-8405000D02*
X15335000Y-8385000D01*
X16515000Y-8940000D02*
X16505000Y-8925000D01*
X15060000Y-5905000D02*
X15045000Y-5880000D01*
X14902842Y-5591163D02*
X14915444Y-5547675D01*
X15186347Y-5795185D02*
X15195257Y-5825936D01*
X16285000Y-5750000D02*
X16295000Y-5730000D01*
D11*
D12*
X14128048Y-6895114D02*
X14193048Y-6960114D01*
X14193048Y-6895114D02*
X14128048Y-6960114D01*
X14128048Y-7473113D02*
X14193048Y-7538113D01*
X14193048Y-7473113D02*
X14128048Y-7538113D01*
D11*
X13675581Y-9762433D02*
X13675581Y-9562433D01*
X13675581Y-9562433D02*
X13723200Y-9562433D01*
X13723200Y-9562433D02*
X13751771Y-9571957D01*
X13751771Y-9571957D02*
X13770819Y-9591004D01*
X13770819Y-9591004D02*
X13780343Y-9610052D01*
X13780343Y-9610052D02*
X13789867Y-9648147D01*
X13789867Y-9648147D02*
X13789867Y-9676719D01*
X13789867Y-9676719D02*
X13780343Y-9714814D01*
X13780343Y-9714814D02*
X13770819Y-9733862D01*
X13770819Y-9733862D02*
X13751771Y-9752909D01*
X13751771Y-9752909D02*
X13723200Y-9762433D01*
X13723200Y-9762433D02*
X13675581Y-9762433D01*
X13875581Y-9762433D02*
X13875581Y-9629100D01*
X13875581Y-9667195D02*
X13885105Y-9648147D01*
X13885105Y-9648147D02*
X13894628Y-9638623D01*
X13894628Y-9638623D02*
X13913676Y-9629100D01*
X13913676Y-9629100D02*
X13932724Y-9629100D01*
X13999390Y-9762433D02*
X13999390Y-9629100D01*
X13999390Y-9562433D02*
X13989867Y-9571957D01*
X13989867Y-9571957D02*
X13999390Y-9581481D01*
X13999390Y-9581481D02*
X14008914Y-9571957D01*
X14008914Y-9571957D02*
X13999390Y-9562433D01*
X13999390Y-9562433D02*
X13999390Y-9581481D01*
X14123200Y-9762433D02*
X14104152Y-9752909D01*
X14104152Y-9752909D02*
X14094628Y-9733862D01*
X14094628Y-9733862D02*
X14094628Y-9562433D01*
X14227962Y-9762433D02*
X14208914Y-9752909D01*
X14208914Y-9752909D02*
X14199390Y-9733862D01*
X14199390Y-9733862D02*
X14199390Y-9562433D01*
X14456533Y-9762433D02*
X14456533Y-9562433D01*
X14456533Y-9562433D02*
X14523200Y-9705290D01*
X14523200Y-9705290D02*
X14589867Y-9562433D01*
X14589867Y-9562433D02*
X14589867Y-9762433D01*
X14770819Y-9762433D02*
X14770819Y-9657671D01*
X14770819Y-9657671D02*
X14761295Y-9638623D01*
X14761295Y-9638623D02*
X14742248Y-9629100D01*
X14742248Y-9629100D02*
X14704152Y-9629100D01*
X14704152Y-9629100D02*
X14685105Y-9638623D01*
X14770819Y-9752909D02*
X14751771Y-9762433D01*
X14751771Y-9762433D02*
X14704152Y-9762433D01*
X14704152Y-9762433D02*
X14685105Y-9752909D01*
X14685105Y-9752909D02*
X14675581Y-9733862D01*
X14675581Y-9733862D02*
X14675581Y-9714814D01*
X14675581Y-9714814D02*
X14685105Y-9695766D01*
X14685105Y-9695766D02*
X14704152Y-9686243D01*
X14704152Y-9686243D02*
X14751771Y-9686243D01*
X14751771Y-9686243D02*
X14770819Y-9676719D01*
X14866057Y-9629100D02*
X14866057Y-9829100D01*
X14866057Y-9638623D02*
X14885105Y-9629100D01*
X14885105Y-9629100D02*
X14923200Y-9629100D01*
X14923200Y-9629100D02*
X14942248Y-9638623D01*
X14942248Y-9638623D02*
X14951771Y-9648147D01*
X14951771Y-9648147D02*
X14961295Y-9667195D01*
X14961295Y-9667195D02*
X14961295Y-9724338D01*
X14961295Y-9724338D02*
X14951771Y-9743385D01*
X14951771Y-9743385D02*
X14942248Y-9752909D01*
X14942248Y-9752909D02*
X14923200Y-9762433D01*
X14923200Y-9762433D02*
X14885105Y-9762433D01*
X14885105Y-9762433D02*
X14866057Y-9752909D01*
X15047009Y-9743385D02*
X15056533Y-9752909D01*
X15056533Y-9752909D02*
X15047009Y-9762433D01*
X15047009Y-9762433D02*
X15037486Y-9752909D01*
X15037486Y-9752909D02*
X15047009Y-9743385D01*
X15047009Y-9743385D02*
X15047009Y-9762433D01*
X15047009Y-9638623D02*
X15056533Y-9648147D01*
X15056533Y-9648147D02*
X15047009Y-9657671D01*
X15047009Y-9657671D02*
X15037486Y-9648147D01*
X15037486Y-9648147D02*
X15047009Y-9638623D01*
X15047009Y-9638623D02*
X15047009Y-9657671D01*
D12*
X13349804Y-10058449D02*
X13414804Y-10123449D01*
X13414804Y-10058449D02*
X13349804Y-10123449D01*
D11*
X13713676Y-9982433D02*
X13732724Y-9982433D01*
X13732724Y-9982433D02*
X13751771Y-9991957D01*
X13751771Y-9991957D02*
X13761295Y-10001481D01*
X13761295Y-10001481D02*
X13770819Y-10020528D01*
X13770819Y-10020528D02*
X13780343Y-10058623D01*
X13780343Y-10058623D02*
X13780343Y-10106243D01*
X13780343Y-10106243D02*
X13770819Y-10144338D01*
X13770819Y-10144338D02*
X13761295Y-10163385D01*
X13761295Y-10163385D02*
X13751771Y-10172909D01*
X13751771Y-10172909D02*
X13732724Y-10182433D01*
X13732724Y-10182433D02*
X13713676Y-10182433D01*
X13713676Y-10182433D02*
X13694628Y-10172909D01*
X13694628Y-10172909D02*
X13685105Y-10163385D01*
X13685105Y-10163385D02*
X13675581Y-10144338D01*
X13675581Y-10144338D02*
X13666057Y-10106243D01*
X13666057Y-10106243D02*
X13666057Y-10058623D01*
X13666057Y-10058623D02*
X13675581Y-10020528D01*
X13675581Y-10020528D02*
X13685105Y-10001481D01*
X13685105Y-10001481D02*
X13694628Y-9991957D01*
X13694628Y-9991957D02*
X13713676Y-9982433D01*
X13866057Y-10163385D02*
X13875581Y-10172909D01*
X13875581Y-10172909D02*
X13866057Y-10182433D01*
X13866057Y-10182433D02*
X13856533Y-10172909D01*
X13856533Y-10172909D02*
X13866057Y-10163385D01*
X13866057Y-10163385D02*
X13866057Y-10182433D01*
X14047009Y-9982433D02*
X14008914Y-9982433D01*
X14008914Y-9982433D02*
X13989867Y-9991957D01*
X13989867Y-9991957D02*
X13980343Y-10001481D01*
X13980343Y-10001481D02*
X13961295Y-10030052D01*
X13961295Y-10030052D02*
X13951771Y-10068147D01*
X13951771Y-10068147D02*
X13951771Y-10144338D01*
X13951771Y-10144338D02*
X13961295Y-10163385D01*
X13961295Y-10163385D02*
X13970819Y-10172909D01*
X13970819Y-10172909D02*
X13989867Y-10182433D01*
X13989867Y-10182433D02*
X14027962Y-10182433D01*
X14027962Y-10182433D02*
X14047009Y-10172909D01*
X14047009Y-10172909D02*
X14056533Y-10163385D01*
X14056533Y-10163385D02*
X14066057Y-10144338D01*
X14066057Y-10144338D02*
X14066057Y-10096719D01*
X14066057Y-10096719D02*
X14056533Y-10077671D01*
X14056533Y-10077671D02*
X14047009Y-10068147D01*
X14047009Y-10068147D02*
X14027962Y-10058623D01*
X14027962Y-10058623D02*
X13989867Y-10058623D01*
X13989867Y-10058623D02*
X13970819Y-10068147D01*
X13970819Y-10068147D02*
X13961295Y-10077671D01*
X13961295Y-10077671D02*
X13951771Y-10096719D01*
X14247009Y-9982433D02*
X14151771Y-9982433D01*
X14151771Y-9982433D02*
X14142248Y-10077671D01*
X14142248Y-10077671D02*
X14151771Y-10068147D01*
X14151771Y-10068147D02*
X14170819Y-10058623D01*
X14170819Y-10058623D02*
X14218438Y-10058623D01*
X14218438Y-10058623D02*
X14237486Y-10068147D01*
X14237486Y-10068147D02*
X14247009Y-10077671D01*
X14247009Y-10077671D02*
X14256533Y-10096719D01*
X14256533Y-10096719D02*
X14256533Y-10144338D01*
X14256533Y-10144338D02*
X14247009Y-10163385D01*
X14247009Y-10163385D02*
X14237486Y-10172909D01*
X14237486Y-10172909D02*
X14218438Y-10182433D01*
X14218438Y-10182433D02*
X14170819Y-10182433D01*
X14170819Y-10182433D02*
X14151771Y-10172909D01*
X14151771Y-10172909D02*
X14142248Y-10163385D01*
X14380343Y-9982433D02*
X14399390Y-9982433D01*
X14399390Y-9982433D02*
X14418438Y-9991957D01*
X14418438Y-9991957D02*
X14427962Y-10001481D01*
X14427962Y-10001481D02*
X14437486Y-10020528D01*
X14437486Y-10020528D02*
X14447009Y-10058623D01*
X14447009Y-10058623D02*
X14447009Y-10106243D01*
X14447009Y-10106243D02*
X14437486Y-10144338D01*
X14437486Y-10144338D02*
X14427962Y-10163385D01*
X14427962Y-10163385D02*
X14418438Y-10172909D01*
X14418438Y-10172909D02*
X14399390Y-10182433D01*
X14399390Y-10182433D02*
X14380343Y-10182433D01*
X14380343Y-10182433D02*
X14361295Y-10172909D01*
X14361295Y-10172909D02*
X14351771Y-10163385D01*
X14351771Y-10163385D02*
X14342248Y-10144338D01*
X14342248Y-10144338D02*
X14332724Y-10106243D01*
X14332724Y-10106243D02*
X14332724Y-10058623D01*
X14332724Y-10058623D02*
X14342248Y-10020528D01*
X14342248Y-10020528D02*
X14351771Y-10001481D01*
X14351771Y-10001481D02*
X14361295Y-9991957D01*
X14361295Y-9991957D02*
X14380343Y-9982433D01*
X14532724Y-10182433D02*
X14532724Y-10049100D01*
X14532724Y-10068147D02*
X14542248Y-10058623D01*
X14542248Y-10058623D02*
X14561295Y-10049100D01*
X14561295Y-10049100D02*
X14589867Y-10049100D01*
X14589867Y-10049100D02*
X14608914Y-10058623D01*
X14608914Y-10058623D02*
X14618438Y-10077671D01*
X14618438Y-10077671D02*
X14618438Y-10182433D01*
X14618438Y-10077671D02*
X14627962Y-10058623D01*
X14627962Y-10058623D02*
X14647009Y-10049100D01*
X14647009Y-10049100D02*
X14675581Y-10049100D01*
X14675581Y-10049100D02*
X14694629Y-10058623D01*
X14694629Y-10058623D02*
X14704152Y-10077671D01*
X14704152Y-10077671D02*
X14704152Y-10182433D01*
X14799390Y-10182433D02*
X14799390Y-10049100D01*
X14799390Y-10068147D02*
X14808914Y-10058623D01*
X14808914Y-10058623D02*
X14827962Y-10049100D01*
X14827962Y-10049100D02*
X14856533Y-10049100D01*
X14856533Y-10049100D02*
X14875581Y-10058623D01*
X14875581Y-10058623D02*
X14885105Y-10077671D01*
X14885105Y-10077671D02*
X14885105Y-10182433D01*
X14885105Y-10077671D02*
X14894629Y-10058623D01*
X14894629Y-10058623D02*
X14913676Y-10049100D01*
X14913676Y-10049100D02*
X14942248Y-10049100D01*
X14942248Y-10049100D02*
X14961295Y-10058623D01*
X14961295Y-10058623D02*
X14970819Y-10077671D01*
X14970819Y-10077671D02*
X14970819Y-10182433D01*
X15361295Y-9972909D02*
X15189867Y-10230052D01*
X15618438Y-9982433D02*
X15637486Y-9982433D01*
X15637486Y-9982433D02*
X15656533Y-9991957D01*
X15656533Y-9991957D02*
X15666057Y-10001481D01*
X15666057Y-10001481D02*
X15675581Y-10020528D01*
X15675581Y-10020528D02*
X15685105Y-10058623D01*
X15685105Y-10058623D02*
X15685105Y-10106243D01*
X15685105Y-10106243D02*
X15675581Y-10144338D01*
X15675581Y-10144338D02*
X15666057Y-10163385D01*
X15666057Y-10163385D02*
X15656533Y-10172909D01*
X15656533Y-10172909D02*
X15637486Y-10182433D01*
X15637486Y-10182433D02*
X15618438Y-10182433D01*
X15618438Y-10182433D02*
X15599391Y-10172909D01*
X15599391Y-10172909D02*
X15589867Y-10163385D01*
X15589867Y-10163385D02*
X15580343Y-10144338D01*
X15580343Y-10144338D02*
X15570819Y-10106243D01*
X15570819Y-10106243D02*
X15570819Y-10058623D01*
X15570819Y-10058623D02*
X15580343Y-10020528D01*
X15580343Y-10020528D02*
X15589867Y-10001481D01*
X15589867Y-10001481D02*
X15599391Y-9991957D01*
X15599391Y-9991957D02*
X15618438Y-9982433D01*
X15770819Y-10163385D02*
X15780343Y-10172909D01*
X15780343Y-10172909D02*
X15770819Y-10182433D01*
X15770819Y-10182433D02*
X15761295Y-10172909D01*
X15761295Y-10172909D02*
X15770819Y-10163385D01*
X15770819Y-10163385D02*
X15770819Y-10182433D01*
X15904152Y-9982433D02*
X15923200Y-9982433D01*
X15923200Y-9982433D02*
X15942248Y-9991957D01*
X15942248Y-9991957D02*
X15951772Y-10001481D01*
X15951772Y-10001481D02*
X15961295Y-10020528D01*
X15961295Y-10020528D02*
X15970819Y-10058623D01*
X15970819Y-10058623D02*
X15970819Y-10106243D01*
X15970819Y-10106243D02*
X15961295Y-10144338D01*
X15961295Y-10144338D02*
X15951772Y-10163385D01*
X15951772Y-10163385D02*
X15942248Y-10172909D01*
X15942248Y-10172909D02*
X15923200Y-10182433D01*
X15923200Y-10182433D02*
X15904152Y-10182433D01*
X15904152Y-10182433D02*
X15885105Y-10172909D01*
X15885105Y-10172909D02*
X15875581Y-10163385D01*
X15875581Y-10163385D02*
X15866057Y-10144338D01*
X15866057Y-10144338D02*
X15856533Y-10106243D01*
X15856533Y-10106243D02*
X15856533Y-10058623D01*
X15856533Y-10058623D02*
X15866057Y-10020528D01*
X15866057Y-10020528D02*
X15875581Y-10001481D01*
X15875581Y-10001481D02*
X15885105Y-9991957D01*
X15885105Y-9991957D02*
X15904152Y-9982433D01*
X16047010Y-10001481D02*
X16056533Y-9991957D01*
X16056533Y-9991957D02*
X16075581Y-9982433D01*
X16075581Y-9982433D02*
X16123200Y-9982433D01*
X16123200Y-9982433D02*
X16142248Y-9991957D01*
X16142248Y-9991957D02*
X16151772Y-10001481D01*
X16151772Y-10001481D02*
X16161295Y-10020528D01*
X16161295Y-10020528D02*
X16161295Y-10039576D01*
X16161295Y-10039576D02*
X16151772Y-10068147D01*
X16151772Y-10068147D02*
X16037486Y-10182433D01*
X16037486Y-10182433D02*
X16161295Y-10182433D01*
X16342248Y-9982433D02*
X16247010Y-9982433D01*
X16247010Y-9982433D02*
X16237486Y-10077671D01*
X16237486Y-10077671D02*
X16247010Y-10068147D01*
X16247010Y-10068147D02*
X16266057Y-10058623D01*
X16266057Y-10058623D02*
X16313676Y-10058623D01*
X16313676Y-10058623D02*
X16332724Y-10068147D01*
X16332724Y-10068147D02*
X16342248Y-10077671D01*
X16342248Y-10077671D02*
X16351772Y-10096719D01*
X16351772Y-10096719D02*
X16351772Y-10144338D01*
X16351772Y-10144338D02*
X16342248Y-10163385D01*
X16342248Y-10163385D02*
X16332724Y-10172909D01*
X16332724Y-10172909D02*
X16313676Y-10182433D01*
X16313676Y-10182433D02*
X16266057Y-10182433D01*
X16266057Y-10182433D02*
X16247010Y-10172909D01*
X16247010Y-10172909D02*
X16237486Y-10163385D01*
X16523200Y-9982433D02*
X16485105Y-9982433D01*
X16485105Y-9982433D02*
X16466057Y-9991957D01*
X16466057Y-9991957D02*
X16456533Y-10001481D01*
X16456533Y-10001481D02*
X16437486Y-10030052D01*
X16437486Y-10030052D02*
X16427962Y-10068147D01*
X16427962Y-10068147D02*
X16427962Y-10144338D01*
X16427962Y-10144338D02*
X16437486Y-10163385D01*
X16437486Y-10163385D02*
X16447010Y-10172909D01*
X16447010Y-10172909D02*
X16466057Y-10182433D01*
X16466057Y-10182433D02*
X16504153Y-10182433D01*
X16504153Y-10182433D02*
X16523200Y-10172909D01*
X16523200Y-10172909D02*
X16532724Y-10163385D01*
X16532724Y-10163385D02*
X16542248Y-10144338D01*
X16542248Y-10144338D02*
X16542248Y-10096719D01*
X16542248Y-10096719D02*
X16532724Y-10077671D01*
X16532724Y-10077671D02*
X16523200Y-10068147D01*
X16523200Y-10068147D02*
X16504153Y-10058623D01*
X16504153Y-10058623D02*
X16466057Y-10058623D01*
X16466057Y-10058623D02*
X16447010Y-10068147D01*
X16447010Y-10068147D02*
X16437486Y-10077671D01*
X16437486Y-10077671D02*
X16427962Y-10096719D01*
X16618438Y-9982433D02*
X16618438Y-10020528D01*
X16694629Y-9982433D02*
X16694629Y-10020528D01*
X16989867Y-10258623D02*
X16980343Y-10249100D01*
X16980343Y-10249100D02*
X16961296Y-10220528D01*
X16961296Y-10220528D02*
X16951772Y-10201481D01*
X16951772Y-10201481D02*
X16942248Y-10172909D01*
X16942248Y-10172909D02*
X16932724Y-10125290D01*
X16932724Y-10125290D02*
X16932724Y-10087195D01*
X16932724Y-10087195D02*
X16942248Y-10039576D01*
X16942248Y-10039576D02*
X16951772Y-10011004D01*
X16951772Y-10011004D02*
X16961296Y-9991957D01*
X16961296Y-9991957D02*
X16980343Y-9963385D01*
X16980343Y-9963385D02*
X16989867Y-9953862D01*
X17056534Y-10001481D02*
X17066057Y-9991957D01*
X17066057Y-9991957D02*
X17085105Y-9982433D01*
X17085105Y-9982433D02*
X17132724Y-9982433D01*
X17132724Y-9982433D02*
X17151772Y-9991957D01*
X17151772Y-9991957D02*
X17161296Y-10001481D01*
X17161296Y-10001481D02*
X17170819Y-10020528D01*
X17170819Y-10020528D02*
X17170819Y-10039576D01*
X17170819Y-10039576D02*
X17161296Y-10068147D01*
X17161296Y-10068147D02*
X17047010Y-10182433D01*
X17047010Y-10182433D02*
X17170819Y-10182433D01*
X17408915Y-10182433D02*
X17408915Y-9982433D01*
X17494629Y-10182433D02*
X17494629Y-10077671D01*
X17494629Y-10077671D02*
X17485105Y-10058623D01*
X17485105Y-10058623D02*
X17466058Y-10049100D01*
X17466058Y-10049100D02*
X17437486Y-10049100D01*
X17437486Y-10049100D02*
X17418438Y-10058623D01*
X17418438Y-10058623D02*
X17408915Y-10068147D01*
X17618438Y-10182433D02*
X17599391Y-10172909D01*
X17599391Y-10172909D02*
X17589867Y-10163385D01*
X17589867Y-10163385D02*
X17580343Y-10144338D01*
X17580343Y-10144338D02*
X17580343Y-10087195D01*
X17580343Y-10087195D02*
X17589867Y-10068147D01*
X17589867Y-10068147D02*
X17599391Y-10058623D01*
X17599391Y-10058623D02*
X17618438Y-10049100D01*
X17618438Y-10049100D02*
X17647010Y-10049100D01*
X17647010Y-10049100D02*
X17666058Y-10058623D01*
X17666058Y-10058623D02*
X17675581Y-10068147D01*
X17675581Y-10068147D02*
X17685105Y-10087195D01*
X17685105Y-10087195D02*
X17685105Y-10144338D01*
X17685105Y-10144338D02*
X17675581Y-10163385D01*
X17675581Y-10163385D02*
X17666058Y-10172909D01*
X17666058Y-10172909D02*
X17647010Y-10182433D01*
X17647010Y-10182433D02*
X17618438Y-10182433D01*
X17799391Y-10182433D02*
X17780343Y-10172909D01*
X17780343Y-10172909D02*
X17770819Y-10153862D01*
X17770819Y-10153862D02*
X17770819Y-9982433D01*
X17951772Y-10172909D02*
X17932724Y-10182433D01*
X17932724Y-10182433D02*
X17894629Y-10182433D01*
X17894629Y-10182433D02*
X17875581Y-10172909D01*
X17875581Y-10172909D02*
X17866058Y-10153862D01*
X17866058Y-10153862D02*
X17866058Y-10077671D01*
X17866058Y-10077671D02*
X17875581Y-10058623D01*
X17875581Y-10058623D02*
X17894629Y-10049100D01*
X17894629Y-10049100D02*
X17932724Y-10049100D01*
X17932724Y-10049100D02*
X17951772Y-10058623D01*
X17951772Y-10058623D02*
X17961296Y-10077671D01*
X17961296Y-10077671D02*
X17961296Y-10096719D01*
X17961296Y-10096719D02*
X17866058Y-10115766D01*
X18037486Y-10172909D02*
X18056534Y-10182433D01*
X18056534Y-10182433D02*
X18094629Y-10182433D01*
X18094629Y-10182433D02*
X18113677Y-10172909D01*
X18113677Y-10172909D02*
X18123200Y-10153862D01*
X18123200Y-10153862D02*
X18123200Y-10144338D01*
X18123200Y-10144338D02*
X18113677Y-10125290D01*
X18113677Y-10125290D02*
X18094629Y-10115766D01*
X18094629Y-10115766D02*
X18066058Y-10115766D01*
X18066058Y-10115766D02*
X18047010Y-10106243D01*
X18047010Y-10106243D02*
X18037486Y-10087195D01*
X18037486Y-10087195D02*
X18037486Y-10077671D01*
X18037486Y-10077671D02*
X18047010Y-10058623D01*
X18047010Y-10058623D02*
X18066058Y-10049100D01*
X18066058Y-10049100D02*
X18094629Y-10049100D01*
X18094629Y-10049100D02*
X18113677Y-10058623D01*
X18189867Y-10258623D02*
X18199391Y-10249100D01*
X18199391Y-10249100D02*
X18218439Y-10220528D01*
X18218439Y-10220528D02*
X18227962Y-10201481D01*
X18227962Y-10201481D02*
X18237486Y-10172909D01*
X18237486Y-10172909D02*
X18247010Y-10125290D01*
X18247010Y-10125290D02*
X18247010Y-10087195D01*
X18247010Y-10087195D02*
X18237486Y-10039576D01*
X18237486Y-10039576D02*
X18227962Y-10011004D01*
X18227962Y-10011004D02*
X18218439Y-9991957D01*
X18218439Y-9991957D02*
X18199391Y-9963385D01*
X18199391Y-9963385D02*
X18189867Y-9953862D01*
X18551772Y-10258623D02*
X18542248Y-10249100D01*
X18542248Y-10249100D02*
X18523200Y-10220528D01*
X18523200Y-10220528D02*
X18513677Y-10201481D01*
X18513677Y-10201481D02*
X18504153Y-10172909D01*
X18504153Y-10172909D02*
X18494629Y-10125290D01*
X18494629Y-10125290D02*
X18494629Y-10087195D01*
X18494629Y-10087195D02*
X18504153Y-10039576D01*
X18504153Y-10039576D02*
X18513677Y-10011004D01*
X18513677Y-10011004D02*
X18523200Y-9991957D01*
X18523200Y-9991957D02*
X18542248Y-9963385D01*
X18542248Y-9963385D02*
X18551772Y-9953862D01*
X18627962Y-10049100D02*
X18627962Y-10182433D01*
X18627962Y-10068147D02*
X18637486Y-10058623D01*
X18637486Y-10058623D02*
X18656534Y-10049100D01*
X18656534Y-10049100D02*
X18685105Y-10049100D01*
X18685105Y-10049100D02*
X18704153Y-10058623D01*
X18704153Y-10058623D02*
X18713677Y-10077671D01*
X18713677Y-10077671D02*
X18713677Y-10182433D01*
X18837486Y-10182433D02*
X18818439Y-10172909D01*
X18818439Y-10172909D02*
X18808915Y-10163385D01*
X18808915Y-10163385D02*
X18799391Y-10144338D01*
X18799391Y-10144338D02*
X18799391Y-10087195D01*
X18799391Y-10087195D02*
X18808915Y-10068147D01*
X18808915Y-10068147D02*
X18818439Y-10058623D01*
X18818439Y-10058623D02*
X18837486Y-10049100D01*
X18837486Y-10049100D02*
X18866058Y-10049100D01*
X18866058Y-10049100D02*
X18885105Y-10058623D01*
X18885105Y-10058623D02*
X18894629Y-10068147D01*
X18894629Y-10068147D02*
X18904153Y-10087195D01*
X18904153Y-10087195D02*
X18904153Y-10144338D01*
X18904153Y-10144338D02*
X18894629Y-10163385D01*
X18894629Y-10163385D02*
X18885105Y-10172909D01*
X18885105Y-10172909D02*
X18866058Y-10182433D01*
X18866058Y-10182433D02*
X18837486Y-10182433D01*
X18961296Y-10049100D02*
X19037486Y-10049100D01*
X18989867Y-9982433D02*
X18989867Y-10153862D01*
X18989867Y-10153862D02*
X18999391Y-10172909D01*
X18999391Y-10172909D02*
X19018439Y-10182433D01*
X19018439Y-10182433D02*
X19037486Y-10182433D01*
X19256534Y-10049100D02*
X19256534Y-10249100D01*
X19256534Y-10058623D02*
X19275581Y-10049100D01*
X19275581Y-10049100D02*
X19313677Y-10049100D01*
X19313677Y-10049100D02*
X19332724Y-10058623D01*
X19332724Y-10058623D02*
X19342248Y-10068147D01*
X19342248Y-10068147D02*
X19351772Y-10087195D01*
X19351772Y-10087195D02*
X19351772Y-10144338D01*
X19351772Y-10144338D02*
X19342248Y-10163385D01*
X19342248Y-10163385D02*
X19332724Y-10172909D01*
X19332724Y-10172909D02*
X19313677Y-10182433D01*
X19313677Y-10182433D02*
X19275581Y-10182433D01*
X19275581Y-10182433D02*
X19256534Y-10172909D01*
X19466058Y-10182433D02*
X19447010Y-10172909D01*
X19447010Y-10172909D02*
X19437486Y-10153862D01*
X19437486Y-10153862D02*
X19437486Y-9982433D01*
X19627962Y-10182433D02*
X19627962Y-10077671D01*
X19627962Y-10077671D02*
X19618439Y-10058623D01*
X19618439Y-10058623D02*
X19599391Y-10049100D01*
X19599391Y-10049100D02*
X19561296Y-10049100D01*
X19561296Y-10049100D02*
X19542248Y-10058623D01*
X19627962Y-10172909D02*
X19608915Y-10182433D01*
X19608915Y-10182433D02*
X19561296Y-10182433D01*
X19561296Y-10182433D02*
X19542248Y-10172909D01*
X19542248Y-10172909D02*
X19532724Y-10153862D01*
X19532724Y-10153862D02*
X19532724Y-10134814D01*
X19532724Y-10134814D02*
X19542248Y-10115766D01*
X19542248Y-10115766D02*
X19561296Y-10106243D01*
X19561296Y-10106243D02*
X19608915Y-10106243D01*
X19608915Y-10106243D02*
X19627962Y-10096719D01*
X19694629Y-10049100D02*
X19770820Y-10049100D01*
X19723201Y-9982433D02*
X19723201Y-10153862D01*
X19723201Y-10153862D02*
X19732724Y-10172909D01*
X19732724Y-10172909D02*
X19751772Y-10182433D01*
X19751772Y-10182433D02*
X19770820Y-10182433D01*
X19913677Y-10172909D02*
X19894629Y-10182433D01*
X19894629Y-10182433D02*
X19856534Y-10182433D01*
X19856534Y-10182433D02*
X19837486Y-10172909D01*
X19837486Y-10172909D02*
X19827962Y-10153862D01*
X19827962Y-10153862D02*
X19827962Y-10077671D01*
X19827962Y-10077671D02*
X19837486Y-10058623D01*
X19837486Y-10058623D02*
X19856534Y-10049100D01*
X19856534Y-10049100D02*
X19894629Y-10049100D01*
X19894629Y-10049100D02*
X19913677Y-10058623D01*
X19913677Y-10058623D02*
X19923201Y-10077671D01*
X19923201Y-10077671D02*
X19923201Y-10096719D01*
X19923201Y-10096719D02*
X19827962Y-10115766D01*
X20094629Y-10182433D02*
X20094629Y-9982433D01*
X20094629Y-10172909D02*
X20075582Y-10182433D01*
X20075582Y-10182433D02*
X20037486Y-10182433D01*
X20037486Y-10182433D02*
X20018439Y-10172909D01*
X20018439Y-10172909D02*
X20008915Y-10163385D01*
X20008915Y-10163385D02*
X19999391Y-10144338D01*
X19999391Y-10144338D02*
X19999391Y-10087195D01*
X19999391Y-10087195D02*
X20008915Y-10068147D01*
X20008915Y-10068147D02*
X20018439Y-10058623D01*
X20018439Y-10058623D02*
X20037486Y-10049100D01*
X20037486Y-10049100D02*
X20075582Y-10049100D01*
X20075582Y-10049100D02*
X20094629Y-10058623D01*
X20170820Y-10258623D02*
X20180343Y-10249100D01*
X20180343Y-10249100D02*
X20199391Y-10220528D01*
X20199391Y-10220528D02*
X20208915Y-10201481D01*
X20208915Y-10201481D02*
X20218439Y-10172909D01*
X20218439Y-10172909D02*
X20227962Y-10125290D01*
X20227962Y-10125290D02*
X20227962Y-10087195D01*
X20227962Y-10087195D02*
X20218439Y-10039576D01*
X20218439Y-10039576D02*
X20208915Y-10011004D01*
X20208915Y-10011004D02*
X20199391Y-9991957D01*
X20199391Y-9991957D02*
X20180343Y-9963385D01*
X20180343Y-9963385D02*
X20170820Y-9953862D01*
M02*
