G04 #@! TF.GenerationSoftware,KiCad,Pcbnew,8.0.4*
G04 #@! TF.CreationDate,2024-10-01T08:13:03+02:00*
G04 #@! TF.ProjectId,RP2040_roundStamp_secondIteration,52503230-3430-45f7-926f-756e64537461,rev?*
G04 #@! TF.SameCoordinates,Original*
G04 #@! TF.FileFunction,Profile,NP*
%FSLAX46Y46*%
G04 Gerber Fmt 4.6, Leading zero omitted, Abs format (unit mm)*
G04 Created by KiCad (PCBNEW 8.0.4) date 2024-10-01 08:13:03*
%MOMM*%
%LPD*%
G01*
G04 APERTURE LIST*
G04 #@! TA.AperFunction,Profile*
%ADD10C,0.050000*%
G04 #@! TD*
G04 APERTURE END LIST*
D10*
X164400000Y-90950000D02*
X164200000Y-90750000D01*
X163500000Y-56650000D02*
X163650000Y-56500000D01*
X162200000Y-86450000D02*
X162200000Y-86200000D01*
X161750000Y-58850000D02*
X161850000Y-59000000D01*
X165500000Y-91800000D02*
X165300000Y-91600000D01*
X148371626Y-52662992D02*
X148190133Y-52317217D01*
X149202321Y-50788173D02*
X149122502Y-51242187D01*
X167637416Y-49894989D02*
X167572360Y-50052049D01*
X150050000Y-58450000D02*
X149910189Y-58225170D01*
X149104397Y-57296085D02*
X149002724Y-56496296D01*
X150150000Y-55000000D02*
X150250000Y-55450000D01*
X151950000Y-88100000D02*
X151900000Y-88350000D01*
X151800000Y-88950000D02*
X151750000Y-89200000D01*
X150150000Y-58550000D02*
X150050000Y-58450000D01*
X153350000Y-83850000D02*
X153400000Y-83550000D01*
X148200000Y-91250000D02*
X148450000Y-91100000D01*
X150000000Y-89600000D02*
X150050000Y-89450000D01*
X163464818Y-53069879D02*
X163705637Y-52357835D01*
X165283924Y-49331450D02*
X165344610Y-48923630D01*
X151850000Y-61800000D02*
X151800000Y-61650000D01*
X164603020Y-51105955D02*
X164687482Y-51032701D01*
X164000000Y-55850000D02*
X164200000Y-55500000D01*
X163600000Y-89650000D02*
X163500000Y-89450000D01*
X151900000Y-59250000D02*
X152000000Y-59550000D01*
X151650000Y-85600000D02*
X151750000Y-85400000D01*
X148568970Y-53231811D02*
X148452806Y-52858977D01*
X148658075Y-53539318D02*
X148568970Y-53231811D01*
X152050000Y-87500000D02*
X152100000Y-87350000D01*
X165137098Y-48274832D02*
X165218005Y-48340816D01*
X166950000Y-91050000D02*
X166750000Y-90750000D01*
X153450000Y-83200000D02*
X153400000Y-83550000D01*
X165361821Y-49796673D02*
X165299775Y-49554494D01*
X152850000Y-60900000D02*
X152950000Y-61000000D01*
X163300000Y-88900000D02*
X163250000Y-88750000D01*
X164000000Y-90500000D02*
X163850000Y-90300000D01*
X149581084Y-48358145D02*
X149247719Y-48588074D01*
X152100000Y-59800000D02*
X152200000Y-60000000D01*
X163050000Y-87450000D02*
X162950000Y-87350000D01*
X151150000Y-86550000D02*
X151350000Y-86150000D01*
X163200000Y-84750000D02*
X163100000Y-84350000D01*
X162000000Y-59100000D02*
X162250000Y-59050000D01*
X163981441Y-51822642D02*
X164161574Y-51518418D01*
X152300000Y-83300000D02*
X152300000Y-83050000D01*
X151400000Y-61000000D02*
X151250000Y-60800000D01*
X150600000Y-88100000D02*
X150750000Y-87750000D01*
X147999201Y-91583087D02*
X148056604Y-91444505D01*
X162200000Y-86000000D02*
X162200000Y-85850000D01*
X162100000Y-85350000D02*
X162050000Y-85200000D01*
X162200000Y-85850000D02*
X162150000Y-85600000D01*
X163150000Y-87850000D02*
X163150000Y-87700000D01*
X150050000Y-92500000D02*
X149757574Y-92825565D01*
X149036913Y-54453912D02*
X148890405Y-54284987D01*
X151250000Y-60800000D02*
X151200000Y-60550000D01*
X162278499Y-55933906D02*
X162627557Y-55483174D01*
X160900000Y-83150000D02*
X160950000Y-82950000D01*
X163250000Y-88650000D02*
X163200000Y-88350000D01*
X163800000Y-56250000D02*
X163900000Y-56050000D01*
X151150000Y-60150000D02*
X151050000Y-59900000D01*
X162700000Y-87200000D02*
X162550000Y-87100000D01*
X167621326Y-92945886D02*
X167839502Y-93176969D01*
X163350000Y-89100000D02*
X163300000Y-88900000D01*
X152000000Y-87800000D02*
X152050000Y-87500000D01*
X149578905Y-57979709D02*
X149359144Y-57726322D01*
X151750000Y-61550000D02*
X151600000Y-61350000D01*
X149000000Y-90750000D02*
X149200000Y-90600000D01*
X152950000Y-85600000D02*
X153000000Y-85400000D01*
X161650000Y-58650000D02*
X161750000Y-58850000D01*
X148800000Y-90900000D02*
X149000000Y-90750000D01*
X164900000Y-91300000D02*
X164650000Y-91150000D01*
X148890405Y-54284987D02*
X148658075Y-53539318D01*
X149600000Y-90200000D02*
X149800000Y-89900000D01*
X161604161Y-57169934D02*
X161623295Y-57123740D01*
X161900000Y-84250000D02*
X161700000Y-84000000D01*
X149665057Y-53198749D02*
X149727103Y-53440927D01*
X149495980Y-93718422D02*
X149591810Y-93931299D01*
X166050000Y-90300000D02*
X165800000Y-90150000D01*
X167350000Y-92500000D02*
X167250000Y-92250000D01*
X163500000Y-89450000D02*
X163400000Y-89250000D01*
X150150000Y-54500000D02*
X150150000Y-54750000D01*
X148450000Y-91100000D02*
X148800000Y-90900000D01*
X151550000Y-63200000D02*
X151250000Y-63000000D01*
X164750000Y-53900000D02*
X164850000Y-53700000D01*
X165299856Y-93716129D02*
X165395526Y-93485159D01*
X149154437Y-55476745D02*
X149188063Y-55003597D01*
X164950000Y-53250000D02*
X165000000Y-53100000D01*
X168015775Y-49478043D02*
X167943450Y-49469733D01*
X149881536Y-53721374D02*
X150016835Y-54048015D01*
X152600000Y-86150000D02*
X152650000Y-86050000D01*
X151262946Y-57703108D02*
X151466856Y-57733451D01*
X147911456Y-91925579D02*
X147999201Y-91583087D01*
X162050000Y-85000000D02*
X162000000Y-84550000D01*
X165874034Y-51957144D02*
X165175918Y-52858607D01*
X165030392Y-94340540D02*
X164918213Y-94402314D01*
X164700000Y-54050000D02*
X164750000Y-53900000D01*
X161450000Y-82750000D02*
X161500000Y-82750000D01*
X164850000Y-53700000D02*
X164900000Y-53500000D01*
X162650000Y-57650000D02*
X162850000Y-57500000D01*
X162731154Y-55363727D02*
X163041943Y-55005383D01*
X146173741Y-49999123D02*
X145884055Y-50149729D01*
X150635364Y-57389036D02*
X150966648Y-57634497D01*
X167943450Y-49469733D02*
X167838925Y-49513028D01*
X161604161Y-57169934D02*
X161450000Y-57500000D01*
X161000000Y-83500000D02*
X160900000Y-83150000D01*
X163350000Y-85450000D02*
X163300000Y-85100000D01*
X164150000Y-86400000D02*
X164000000Y-86150000D01*
X149350752Y-50037861D02*
X149243872Y-50426547D01*
X153000000Y-62800000D02*
X152650000Y-63100000D01*
X164550000Y-87800000D02*
X164500000Y-87500000D01*
X151850000Y-59050000D02*
X151900000Y-59250000D01*
X152300000Y-83550000D02*
X152300000Y-83300000D01*
X153300000Y-82650000D02*
X153400000Y-82900000D01*
X161450000Y-83750000D02*
X161150000Y-83600000D01*
X164450000Y-54800000D02*
X164550000Y-54450000D01*
X163400000Y-85750000D02*
X163350000Y-85450000D01*
X162475000Y-57950000D02*
X162550000Y-57750000D01*
X151850000Y-88700000D02*
X151800000Y-88950000D01*
X152100000Y-84750000D02*
X152200000Y-84500000D01*
X151300000Y-90300000D02*
X151050000Y-90750000D01*
X150639892Y-94484492D02*
X164746775Y-94450365D01*
X152750000Y-85850000D02*
X152850000Y-85750000D01*
X149732249Y-94141006D02*
X149991864Y-94324309D01*
X161450000Y-58150000D02*
X161500000Y-58350000D01*
X153200000Y-61500000D02*
X153200000Y-61800000D01*
X163100000Y-84350000D02*
X162950000Y-84000000D01*
X150250000Y-55450000D02*
X150200000Y-56000000D01*
X150300000Y-88700000D02*
X150500000Y-88350000D01*
X161700000Y-84000000D02*
X161450000Y-83750000D01*
X165510331Y-93207995D02*
X165606002Y-92977025D01*
X163550000Y-85950000D02*
X163400000Y-85750000D01*
X164414961Y-51298657D02*
X164603020Y-51105955D01*
X151651632Y-57809988D02*
X151863467Y-57951853D01*
X150500000Y-88350000D02*
X150600000Y-88100000D01*
X165000000Y-53100000D02*
X165175918Y-52858607D01*
X149910189Y-58225170D02*
X149578905Y-57979709D01*
X167409776Y-50287774D02*
X167266982Y-50423457D01*
X149526322Y-93514512D02*
X149495980Y-93718422D01*
X161661563Y-57031353D02*
X161822562Y-56773323D01*
X149176621Y-51372844D02*
X149284860Y-51634156D01*
X151250000Y-62700000D02*
X151300000Y-62400000D01*
X146919682Y-49896793D02*
X146524271Y-49884543D01*
X151466856Y-57733451D02*
X151651632Y-57809988D01*
X150950000Y-59700000D02*
X150850000Y-59450000D01*
X153100000Y-61250000D02*
X153200000Y-61500000D01*
X152500000Y-86300000D02*
X152600000Y-86150000D01*
X164450000Y-87050000D02*
X164400000Y-86850000D01*
X162800000Y-83650000D02*
X162650000Y-83450000D01*
X153250000Y-84450000D02*
X153300000Y-84250000D01*
X148056604Y-91444505D02*
X148200000Y-91250000D01*
X161850000Y-59000000D02*
X162000000Y-59100000D01*
X152200000Y-60000000D02*
X152350000Y-60250000D01*
X164300000Y-55300000D02*
X164400000Y-55050000D01*
X163250000Y-56950000D02*
X163500000Y-56650000D01*
X153150000Y-62500000D02*
X153000000Y-62800000D01*
X161200000Y-82750000D02*
X161450000Y-82750000D01*
X164200000Y-55500000D02*
X164300000Y-55300000D01*
X151300000Y-62400000D02*
X151500000Y-62050000D01*
X151050000Y-86800000D02*
X151150000Y-86550000D01*
X147382265Y-92680534D02*
X147578250Y-92599355D01*
X148016566Y-52082964D02*
X147870058Y-51914040D01*
X146609536Y-92847536D02*
X146422518Y-92802542D01*
X151900000Y-88350000D02*
X151850000Y-88700000D01*
X166300000Y-90450000D02*
X166050000Y-90300000D01*
X163750000Y-86050000D02*
X163550000Y-85950000D01*
X167683995Y-49730276D02*
X167637416Y-49894989D01*
X163100000Y-87600000D02*
X163050000Y-87450000D01*
X164918213Y-94402314D02*
X164746775Y-94450365D01*
X165100000Y-91450000D02*
X164900000Y-91300000D01*
X151800000Y-61900000D02*
X151850000Y-61800000D01*
X162950000Y-57300000D02*
X163250000Y-56950000D01*
X180350000Y-80900000D02*
X180360042Y-61799937D01*
X164650000Y-88400000D02*
X164600000Y-88200000D01*
X163850000Y-90300000D02*
X163750000Y-90100000D01*
X162627557Y-55483174D02*
X162731154Y-55363727D01*
X149368526Y-49341669D02*
X149365243Y-49610907D01*
X164161574Y-51518418D02*
X164414961Y-51298657D01*
X167750636Y-49595521D02*
X167683995Y-49730276D01*
X149247719Y-48588074D02*
X149217376Y-48791984D01*
X152350000Y-60250000D02*
X152450000Y-60400000D01*
X165650000Y-92400000D02*
X165600000Y-92150000D01*
X149188063Y-55003597D02*
X149118092Y-54649896D01*
X163650000Y-89850000D02*
X163600000Y-89650000D01*
X151500000Y-61200000D02*
X151400000Y-61000000D01*
X151050000Y-59900000D02*
X150950000Y-59700000D01*
X165350000Y-89800000D02*
X165250000Y-89600000D01*
X149591810Y-93931299D02*
X149732249Y-94141006D01*
X163041943Y-55005383D02*
X163164674Y-54839742D01*
X152300000Y-83850000D02*
X152300000Y-83550000D01*
X162400000Y-86950000D02*
X162300000Y-86850000D01*
X151350000Y-86150000D02*
X151500000Y-85850000D01*
X153200000Y-84650000D02*
X153250000Y-84450000D01*
X148190133Y-52317217D02*
X148016566Y-52082964D01*
X149200000Y-90600000D02*
X149450000Y-90400000D01*
X150100000Y-54300000D02*
X150150000Y-54500000D01*
X163300000Y-85100000D02*
X163200000Y-84750000D01*
X163750000Y-90100000D02*
X163650000Y-89850000D01*
X165299185Y-48536801D02*
X165320833Y-48589063D01*
X162200000Y-86600000D02*
X162200000Y-86450000D01*
X151050000Y-90750000D02*
X150850000Y-91050000D01*
X162150000Y-85600000D02*
X162100000Y-85350000D01*
X150200000Y-89050000D02*
X150300000Y-88700000D01*
X165154708Y-94197203D02*
X165030392Y-94340540D01*
X145884055Y-50149729D02*
X134202217Y-61784963D01*
X147710982Y-51252833D02*
X147648937Y-51010654D01*
X165250000Y-89600000D02*
X165150000Y-89400000D01*
X149991864Y-94324309D02*
X150252792Y-94399917D01*
X147578250Y-92599355D02*
X147720114Y-92387519D01*
X150850000Y-59450000D02*
X150750000Y-59200000D01*
X149243872Y-50426547D02*
X149202321Y-50788173D01*
X165800000Y-90150000D02*
X165550000Y-90000000D01*
X166750000Y-90750000D02*
X166550000Y-90600000D01*
X150350275Y-57162709D02*
X150635364Y-57389036D01*
X162550000Y-58850000D02*
X162550000Y-58400000D01*
X162550000Y-58400000D02*
X162475000Y-57950000D01*
X151850000Y-58800000D02*
X151850000Y-58950000D01*
X164300000Y-86650000D02*
X164150000Y-86400000D01*
X162400000Y-83150000D02*
X162150000Y-82950000D01*
X152200000Y-87150000D02*
X152250000Y-86950000D01*
X149652336Y-93079632D02*
X149526322Y-93514512D01*
X151500000Y-62050000D02*
X151800000Y-61900000D01*
X146422518Y-92802542D02*
X146153008Y-92669260D01*
X161500000Y-82750000D02*
X161700000Y-82750000D01*
X151600000Y-61350000D02*
X151500000Y-61200000D01*
X162950000Y-84000000D02*
X162800000Y-83650000D01*
X164600000Y-88200000D02*
X164550000Y-87800000D01*
X147648937Y-51010654D02*
X147586892Y-50768476D01*
X167447759Y-92711633D02*
X167621326Y-92945886D01*
X151950000Y-85100000D02*
X152100000Y-84750000D01*
X164700000Y-88600000D02*
X164650000Y-88400000D01*
X164450000Y-87200000D02*
X164450000Y-87050000D01*
X150200000Y-56000000D02*
X150200000Y-56450000D01*
X152950000Y-61000000D02*
X153050000Y-61100000D01*
X152850000Y-85750000D02*
X152950000Y-85600000D01*
X152200000Y-84500000D02*
X152250000Y-84250000D01*
X149450000Y-90400000D02*
X149600000Y-90200000D01*
X152800000Y-82600000D02*
X153050000Y-82600000D01*
X145771047Y-92467751D02*
X145621641Y-92384217D01*
X151000000Y-87100000D02*
X151050000Y-86800000D01*
X152100000Y-87350000D02*
X152200000Y-87150000D01*
X150300000Y-58650000D02*
X150150000Y-58550000D01*
X162300000Y-86850000D02*
X162250000Y-86750000D01*
X150900000Y-87400000D02*
X151000000Y-87100000D01*
X162000000Y-84550000D02*
X161900000Y-84250000D01*
X164650000Y-91150000D02*
X164400000Y-90950000D01*
X167266982Y-50423457D02*
X166648686Y-50870906D01*
X151500000Y-85850000D02*
X151650000Y-85600000D01*
X162550000Y-57750000D02*
X162650000Y-57650000D01*
X162550000Y-87100000D02*
X162400000Y-86950000D01*
X166648686Y-50870906D02*
X165874034Y-51957144D01*
X165299775Y-49554494D02*
X165283924Y-49331450D01*
X167572360Y-50052049D02*
X167479587Y-50197628D01*
X150350000Y-91900000D02*
X150200000Y-92200000D01*
X150850000Y-91050000D02*
X150650000Y-91400000D01*
X163705637Y-52357835D02*
X163981441Y-51822642D01*
X167100000Y-91700000D02*
X167050000Y-91450000D01*
X164000000Y-86150000D02*
X163750000Y-86050000D01*
X162050000Y-85200000D02*
X162050000Y-85000000D01*
X161050000Y-82800000D02*
X161200000Y-82750000D01*
X167000000Y-91200000D02*
X166950000Y-91050000D01*
X164400000Y-86850000D02*
X164300000Y-86650000D01*
X167250000Y-92250000D02*
X167150000Y-91950000D01*
X161623295Y-57123740D02*
X161661563Y-57031353D01*
X152000000Y-59550000D02*
X152100000Y-59800000D01*
X151200000Y-60300000D02*
X151150000Y-60150000D01*
X151200000Y-60550000D02*
X151200000Y-60300000D01*
X149652336Y-93079632D02*
X149757574Y-92825565D01*
X153200000Y-62150000D02*
X153150000Y-62500000D01*
X150450000Y-58800000D02*
X150300000Y-58650000D01*
X150650000Y-91400000D02*
X150350000Y-91900000D01*
X150966648Y-57634497D02*
X151262946Y-57703108D01*
X150200000Y-56450000D02*
X150149648Y-56863128D01*
X152650000Y-63100000D02*
X152200000Y-63300000D01*
X165550000Y-90000000D02*
X165350000Y-89800000D01*
X161822562Y-56773323D02*
X162278499Y-55933906D01*
X152650000Y-86050000D02*
X152750000Y-85850000D01*
X162250000Y-86750000D02*
X162200000Y-86600000D01*
X167838925Y-49513028D02*
X167750636Y-49595521D01*
X167931890Y-93215237D02*
X168050410Y-93242681D01*
X147870058Y-51914040D02*
X147835073Y-51737190D01*
X164600000Y-54250000D02*
X164700000Y-54050000D01*
X165050000Y-89250000D02*
X164950000Y-89100000D01*
X162950000Y-87350000D02*
X162850000Y-87300000D01*
X147239757Y-50299970D02*
X147158578Y-50103986D01*
X163150000Y-87700000D02*
X163100000Y-87600000D01*
X167150000Y-91950000D02*
X167100000Y-91700000D01*
X146859640Y-92897013D02*
X147382265Y-92680534D01*
X152300000Y-83050000D02*
X152400000Y-82850000D01*
X161500000Y-58350000D02*
X161650000Y-58650000D01*
X149365243Y-49610907D02*
X149350752Y-50037861D01*
X152600000Y-60600000D02*
X152750000Y-60800000D01*
X152250000Y-86950000D02*
X152300000Y-86800000D01*
X153050000Y-85150000D02*
X153100000Y-84950000D01*
X152400000Y-86450000D02*
X152500000Y-86300000D01*
X150750000Y-59200000D02*
X150600000Y-59050000D01*
X145981298Y-92587311D02*
X145771047Y-92467751D01*
X149217376Y-48791984D02*
X149252361Y-48968834D01*
X151650000Y-89400000D02*
X151550000Y-89700000D01*
X151400000Y-90050000D02*
X151300000Y-90300000D01*
X147413324Y-50534223D02*
X147239757Y-50299970D01*
X162850000Y-87300000D02*
X162700000Y-87200000D01*
X146859640Y-92897013D02*
X146609536Y-92847536D01*
X163400000Y-89250000D02*
X163350000Y-89100000D01*
X152450000Y-60400000D02*
X152600000Y-60600000D01*
X164200000Y-90750000D02*
X164000000Y-90500000D01*
X164900000Y-53400000D02*
X164950000Y-53250000D01*
X161450000Y-57850000D02*
X161450000Y-58150000D01*
X152400000Y-82850000D02*
X152550000Y-82700000D01*
X151750000Y-63350000D02*
X151550000Y-63200000D01*
X163900000Y-56050000D02*
X164000000Y-55850000D01*
X162200000Y-86200000D02*
X162200000Y-86000000D01*
X149455145Y-52137647D02*
X149641281Y-52864183D01*
X151952573Y-58259359D02*
X151883961Y-58555657D01*
X151250000Y-63000000D02*
X151250000Y-62700000D01*
X153200000Y-61800000D02*
X153200000Y-62150000D01*
X153300000Y-84250000D02*
X153350000Y-84050000D01*
X151800000Y-61650000D02*
X151750000Y-61550000D01*
X167839502Y-93176969D02*
X167931890Y-93215237D01*
X166550000Y-90600000D02*
X166300000Y-90450000D01*
X167479587Y-50197628D02*
X167409776Y-50287774D01*
X163250000Y-88750000D02*
X163250000Y-88650000D01*
X153150000Y-84800000D02*
X153200000Y-84650000D01*
X149359144Y-57726322D02*
X149104397Y-57296085D01*
X168015775Y-49478043D02*
X180360042Y-61799937D01*
X163200000Y-88350000D02*
X163150000Y-88050000D01*
X151750000Y-85400000D02*
X151950000Y-85100000D01*
X165606002Y-92977025D02*
X165650000Y-92400000D01*
X149002724Y-56496296D02*
X149028424Y-55911625D01*
X152000000Y-87800000D02*
X151950000Y-88100000D01*
X164950000Y-89100000D02*
X164800000Y-88950000D01*
X150149648Y-56863128D02*
X150350275Y-57162709D01*
X147586892Y-50768476D02*
X147413324Y-50534223D01*
X161150000Y-83600000D02*
X161000000Y-83500000D01*
X160950000Y-82950000D02*
X161050000Y-82800000D01*
X146153008Y-92669260D02*
X145981298Y-92587311D01*
X149252361Y-48968834D02*
X149368526Y-49341669D01*
X151883961Y-58555657D02*
X151850000Y-58800000D01*
X165154708Y-94197203D02*
X165299856Y-93716129D01*
X163195017Y-54635832D02*
X163252419Y-54497250D01*
X167447759Y-92711633D02*
X167350000Y-92500000D01*
X147834920Y-92110355D02*
X147911456Y-91925579D01*
X165218005Y-48340816D02*
X165267370Y-48404559D01*
X153050000Y-82600000D02*
X153300000Y-82650000D01*
X152200000Y-63300000D02*
X151750000Y-63350000D01*
X162650000Y-83450000D02*
X162400000Y-83150000D01*
X152550000Y-82700000D02*
X152800000Y-82600000D01*
X162150000Y-82950000D02*
X161900000Y-82850000D01*
X165086697Y-50656865D02*
X165361821Y-49796673D01*
X164900000Y-53500000D02*
X164900000Y-53400000D01*
X163650000Y-56500000D02*
X163800000Y-56250000D01*
X163164674Y-54839742D02*
X163195017Y-54635832D01*
X164550000Y-54450000D02*
X164600000Y-54250000D01*
X161900000Y-82850000D02*
X161700000Y-82750000D01*
X165320833Y-48589063D02*
X165344610Y-48923630D01*
X152350000Y-86650000D02*
X152400000Y-86450000D01*
X153100000Y-84950000D02*
X153150000Y-84800000D01*
X151850000Y-58950000D02*
X151850000Y-59050000D01*
X163392924Y-53635415D02*
X163464818Y-53069879D01*
X153050000Y-61100000D02*
X153100000Y-61250000D01*
X165395526Y-93485159D02*
X165510331Y-93207995D01*
X149284860Y-51634156D02*
X149455145Y-52137647D01*
X134173041Y-80931220D02*
X145621641Y-92384217D01*
X165600000Y-92150000D02*
X165500000Y-91800000D01*
X150050000Y-89450000D02*
X150100000Y-89250000D01*
X153000000Y-85400000D02*
X153050000Y-85150000D01*
X164500000Y-87500000D02*
X164450000Y-87200000D01*
X149800000Y-89900000D02*
X150000000Y-89600000D01*
X168050410Y-93242681D02*
X180350000Y-80900000D01*
X152250000Y-84250000D02*
X152300000Y-83850000D01*
X149122502Y-51242187D02*
X149176621Y-51372844D01*
X163252419Y-54497250D02*
X163370507Y-53950848D01*
X161450000Y-57500000D02*
X161450000Y-57850000D01*
X163370507Y-53950848D02*
X163392924Y-53635415D01*
X164687482Y-51032701D02*
X165086697Y-50656865D01*
X150750000Y-87750000D02*
X150900000Y-87400000D01*
X164750000Y-88800000D02*
X164700000Y-88600000D01*
X150100000Y-89250000D02*
X150200000Y-89050000D01*
X164400000Y-55050000D02*
X164450000Y-54800000D01*
X147835073Y-51737190D02*
X147710982Y-51252833D01*
X162250000Y-59050000D02*
X162550000Y-58850000D01*
X149641281Y-52864183D02*
X149665057Y-53198749D01*
X163150000Y-88050000D02*
X163150000Y-87850000D01*
X150200000Y-92200000D02*
X150050000Y-92500000D01*
X164800000Y-88950000D02*
X164750000Y-88800000D01*
X165137098Y-48274832D02*
X149581084Y-48358145D01*
X149118092Y-54649896D02*
X149036913Y-54453912D01*
X167050000Y-91450000D02*
X167000000Y-91200000D01*
X150150000Y-54750000D02*
X150150000Y-55000000D01*
X152750000Y-60800000D02*
X152850000Y-60900000D01*
X148452806Y-52858977D02*
X148371626Y-52662992D01*
X146524271Y-49884543D02*
X146173741Y-49999123D01*
X150016835Y-54048015D02*
X150100000Y-54300000D01*
X147158578Y-50103986D02*
X146919682Y-49896793D01*
X147720114Y-92387519D02*
X147834920Y-92110355D01*
X165300000Y-91600000D02*
X165100000Y-91450000D01*
X149727103Y-53440927D02*
X149881536Y-53721374D01*
X153400000Y-82900000D02*
X153450000Y-83200000D01*
X134202217Y-61784963D02*
X134173041Y-80931220D01*
X151550000Y-89700000D02*
X151400000Y-90050000D01*
X151750000Y-89200000D02*
X151650000Y-89400000D01*
X152300000Y-86800000D02*
X152350000Y-86650000D01*
X150252792Y-94399917D02*
X150639892Y-94484492D01*
X165267370Y-48404559D02*
X165299185Y-48536801D01*
X153350000Y-84050000D02*
X153350000Y-83850000D01*
X165150000Y-89400000D02*
X165050000Y-89250000D01*
X150600000Y-59050000D02*
X150450000Y-58800000D01*
X149028424Y-55911625D02*
X149154437Y-55476745D01*
X151863467Y-57951853D02*
X151952573Y-58259359D01*
X162850000Y-57500000D02*
X162950000Y-57300000D01*
M02*
