G04 #@! TF.GenerationSoftware,KiCad,Pcbnew,8.0.4*
G04 #@! TF.CreationDate,2024-10-01T08:13:03+02:00*
G04 #@! TF.ProjectId,RP2040_roundStamp_secondIteration,52503230-3430-45f7-926f-756e64537461,rev?*
G04 #@! TF.SameCoordinates,Original*
G04 #@! TF.FileFunction,Soldermask,Top*
G04 #@! TF.FilePolarity,Negative*
%FSLAX46Y46*%
G04 Gerber Fmt 4.6, Leading zero omitted, Abs format (unit mm)*
G04 Created by KiCad (PCBNEW 8.0.4) date 2024-10-01 08:13:03*
%MOMM*%
%LPD*%
G01*
G04 APERTURE LIST*
G04 Aperture macros list*
%AMRoundRect*
0 Rectangle with rounded corners*
0 $1 Rounding radius*
0 $2 $3 $4 $5 $6 $7 $8 $9 X,Y pos of 4 corners*
0 Add a 4 corners polygon primitive as box body*
4,1,4,$2,$3,$4,$5,$6,$7,$8,$9,$2,$3,0*
0 Add four circle primitives for the rounded corners*
1,1,$1+$1,$2,$3*
1,1,$1+$1,$4,$5*
1,1,$1+$1,$6,$7*
1,1,$1+$1,$8,$9*
0 Add four rect primitives between the rounded corners*
20,1,$1+$1,$2,$3,$4,$5,0*
20,1,$1+$1,$4,$5,$6,$7,0*
20,1,$1+$1,$6,$7,$8,$9,0*
20,1,$1+$1,$8,$9,$2,$3,0*%
%AMHorizOval*
0 Thick line with rounded ends*
0 $1 width*
0 $2 $3 position (X,Y) of the first rounded end (center of the circle)*
0 $4 $5 position (X,Y) of the second rounded end (center of the circle)*
0 Add line between two ends*
20,1,$1,$2,$3,$4,$5,0*
0 Add two circle primitives to create the rounded ends*
1,1,$1,$2,$3*
1,1,$1,$4,$5*%
G04 Aperture macros list end*
%ADD10R,1.500000X1.000000*%
%ADD11RoundRect,0.237500X-0.300000X-0.237500X0.300000X-0.237500X0.300000X0.237500X-0.300000X0.237500X0*%
%ADD12RoundRect,0.250000X0.250000X0.250000X-0.250000X0.250000X-0.250000X-0.250000X0.250000X-0.250000X0*%
%ADD13RoundRect,0.237500X0.237500X-0.300000X0.237500X0.300000X-0.237500X0.300000X-0.237500X-0.300000X0*%
%ADD14RoundRect,0.237500X0.300000X0.237500X-0.300000X0.237500X-0.300000X-0.237500X0.300000X-0.237500X0*%
%ADD15RoundRect,0.237500X0.237500X-0.250000X0.237500X0.250000X-0.237500X0.250000X-0.237500X-0.250000X0*%
%ADD16RoundRect,0.237500X-0.250000X-0.237500X0.250000X-0.237500X0.250000X0.237500X-0.250000X0.237500X0*%
%ADD17RoundRect,0.250000X0.475000X-0.337500X0.475000X0.337500X-0.475000X0.337500X-0.475000X-0.337500X0*%
%ADD18RoundRect,0.237500X-0.237500X0.300000X-0.237500X-0.300000X0.237500X-0.300000X0.237500X0.300000X0*%
%ADD19RoundRect,0.250000X-0.337500X-0.475000X0.337500X-0.475000X0.337500X0.475000X-0.337500X0.475000X0*%
%ADD20RoundRect,0.150000X-0.150000X0.512500X-0.150000X-0.512500X0.150000X-0.512500X0.150000X0.512500X0*%
%ADD21RoundRect,0.218750X0.218750X0.256250X-0.218750X0.256250X-0.218750X-0.256250X0.218750X-0.256250X0*%
%ADD22RoundRect,0.102000X0.400000X0.850000X-0.400000X0.850000X-0.400000X-0.850000X0.400000X-0.850000X0*%
%ADD23RoundRect,0.250000X0.250000X-0.250000X0.250000X0.250000X-0.250000X0.250000X-0.250000X-0.250000X0*%
%ADD24RoundRect,0.237500X-0.237500X0.250000X-0.237500X-0.250000X0.237500X-0.250000X0.237500X0.250000X0*%
%ADD25RoundRect,0.050000X0.050000X-0.387500X0.050000X0.387500X-0.050000X0.387500X-0.050000X-0.387500X0*%
%ADD26RoundRect,0.050000X0.387500X-0.050000X0.387500X0.050000X-0.387500X0.050000X-0.387500X-0.050000X0*%
%ADD27RoundRect,0.135000X1.365000X-1.390000X1.365000X1.390000X-1.365000X1.390000X-1.365000X-1.390000X0*%
%ADD28RoundRect,0.065500X0.196500X-0.441500X0.196500X0.441500X-0.196500X0.441500X-0.196500X-0.441500X0*%
%ADD29R,1.400000X1.200000*%
%ADD30RoundRect,0.243750X0.243750X0.456250X-0.243750X0.456250X-0.243750X-0.456250X0.243750X-0.456250X0*%
%ADD31C,0.650000*%
%ADD32R,1.450000X0.600000*%
%ADD33R,1.450000X0.300000*%
%ADD34O,2.100000X1.200000*%
%ADD35O,1.800000X1.200000*%
%ADD36RoundRect,0.237500X0.250000X0.237500X-0.250000X0.237500X-0.250000X-0.237500X0.250000X-0.237500X0*%
%ADD37HorizOval,1.778000X-0.628618X0.628618X0.628618X-0.628618X0*%
%ADD38C,1.778000*%
%ADD39HorizOval,1.778000X-0.628618X-0.628618X0.628618X0.628618X0*%
%ADD40O,1.778000X3.556000*%
%ADD41HorizOval,1.778000X0.628618X-0.628618X-0.628618X0.628618X0*%
%ADD42O,3.556000X1.778000*%
%ADD43HorizOval,1.778000X0.628618X0.628618X-0.628618X-0.628618X0*%
G04 APERTURE END LIST*
D10*
X153300076Y-53700026D03*
X153300076Y-57000000D03*
X158200000Y-57000000D03*
X158200000Y-53700026D03*
D11*
X159687500Y-78150000D03*
X161412500Y-78150000D03*
D12*
X161750000Y-79900000D03*
X159250000Y-79900000D03*
D13*
X161800000Y-66225000D03*
X161800000Y-64500000D03*
D14*
X147762500Y-71700000D03*
X146037500Y-71700000D03*
D15*
X159654291Y-66440258D03*
X159654291Y-64615258D03*
D16*
X145275000Y-80350000D03*
X147100000Y-80350000D03*
D13*
X156550000Y-65762500D03*
X156550000Y-64037500D03*
D17*
X149865258Y-68575000D03*
X149865258Y-66500000D03*
D18*
X146100000Y-75804582D03*
X146100000Y-77529582D03*
D19*
X146028263Y-64569596D03*
X148103263Y-64569596D03*
D20*
X147800000Y-67500000D03*
X146850000Y-67500000D03*
X145900000Y-67500000D03*
X145900000Y-69775000D03*
X147800000Y-69775000D03*
D16*
X150837500Y-71700000D03*
X152662500Y-71700000D03*
D21*
X161481941Y-62465766D03*
X159906941Y-62465766D03*
D22*
X178800000Y-65200000D03*
X175400000Y-65200000D03*
D16*
X150837500Y-70200000D03*
X152662500Y-70200000D03*
D23*
X143658571Y-64738257D03*
X143658571Y-62238257D03*
D11*
X165787500Y-68650000D03*
X167512500Y-68650000D03*
D24*
X165400000Y-70400000D03*
X165400000Y-72225000D03*
D13*
X153300000Y-68225000D03*
X153300000Y-66500000D03*
D16*
X171725000Y-65750000D03*
X173550000Y-65750000D03*
D25*
X156516394Y-75413295D03*
X156916394Y-75413294D03*
X157316394Y-75413295D03*
X157716394Y-75413295D03*
X158116394Y-75413295D03*
X158516394Y-75413295D03*
X158916393Y-75413295D03*
X159316394Y-75413295D03*
X159716394Y-75413295D03*
X160116394Y-75413295D03*
X160516394Y-75413295D03*
X160916393Y-75413295D03*
X161316394Y-75413295D03*
X161716394Y-75413295D03*
D26*
X162553894Y-74575795D03*
X162553893Y-74175795D03*
X162553894Y-73775795D03*
X162553894Y-73375795D03*
X162553894Y-72975795D03*
X162553894Y-72575795D03*
X162553894Y-72175796D03*
X162553894Y-71775795D03*
X162553894Y-71375795D03*
X162553894Y-70975795D03*
X162553894Y-70575795D03*
X162553894Y-70175796D03*
X162553894Y-69775795D03*
X162553894Y-69375795D03*
D25*
X161716394Y-68538295D03*
X161316394Y-68538296D03*
X160916394Y-68538295D03*
X160516394Y-68538295D03*
X160116394Y-68538295D03*
X159716394Y-68538295D03*
X159316395Y-68538295D03*
X158916394Y-68538295D03*
X158516394Y-68538295D03*
X158116394Y-68538295D03*
X157716394Y-68538295D03*
X157316395Y-68538295D03*
X156916394Y-68538295D03*
X156516394Y-68538295D03*
D26*
X155678894Y-69375795D03*
X155678895Y-69775795D03*
X155678894Y-70175795D03*
X155678894Y-70575795D03*
X155678894Y-70975795D03*
X155678894Y-71375795D03*
X155678894Y-71775794D03*
X155678894Y-72175795D03*
X155678894Y-72575795D03*
X155678894Y-72975795D03*
X155678894Y-73375795D03*
X155678894Y-73775794D03*
X155678894Y-74175795D03*
X155678894Y-74575795D03*
D27*
X159016394Y-71900795D03*
D28*
X149100000Y-78467082D03*
X149900000Y-78467082D03*
X150700000Y-78467082D03*
X151500000Y-78467082D03*
X151500000Y-74567082D03*
X150700000Y-74567082D03*
X149900000Y-74567082D03*
X149100000Y-74567082D03*
D14*
X168812500Y-70400000D03*
X167087500Y-70400000D03*
D29*
X167414225Y-73835840D03*
X169614377Y-73835840D03*
X169614377Y-72135814D03*
X167414225Y-72135814D03*
D30*
X147869681Y-62122178D03*
X145994681Y-62122178D03*
D13*
X155000000Y-65762500D03*
X155000000Y-64037500D03*
D31*
X141605484Y-69276136D03*
X141605484Y-75056135D03*
D32*
X143020484Y-68916136D03*
X143020484Y-69716136D03*
D33*
X143020484Y-70916136D03*
X143020484Y-71916136D03*
X143020485Y-72416136D03*
X143020484Y-73416136D03*
D32*
X143020484Y-74616136D03*
X143020484Y-75416136D03*
X143020484Y-75416136D03*
X143020484Y-74616136D03*
D33*
X143020484Y-73916136D03*
X143020484Y-72916136D03*
X143020484Y-71416136D03*
X143020484Y-70416136D03*
D32*
X143020484Y-69716136D03*
X143020484Y-68916136D03*
D34*
X142105484Y-67841136D03*
D35*
X137925484Y-67841136D03*
D34*
X142105484Y-76491136D03*
D35*
X137925484Y-76491136D03*
D13*
X165400000Y-75575000D03*
X165400000Y-73850000D03*
D16*
X139769016Y-79459908D03*
X141594016Y-79459908D03*
D22*
X178800000Y-77859437D03*
X175400000Y-77859437D03*
D13*
X163350000Y-66212500D03*
X163350000Y-64487500D03*
X151750000Y-68225000D03*
X151750000Y-66500000D03*
D36*
X137904671Y-79500333D03*
X136079671Y-79500333D03*
D37*
X142850240Y-53293006D03*
D38*
X143896758Y-54353667D03*
D37*
X141082473Y-55060775D03*
D38*
X142128991Y-56121433D03*
D37*
X139314706Y-56828541D03*
D38*
X140361224Y-57889201D03*
X140333711Y-84872659D03*
D39*
X139273050Y-85919177D03*
D38*
X142101477Y-86640426D03*
D39*
X141040817Y-87686944D03*
D38*
X143869244Y-88408193D03*
D39*
X142808584Y-89454711D03*
D38*
X154777220Y-92999319D03*
D40*
X154767219Y-94489320D03*
D38*
X157377220Y-92999319D03*
D40*
X157367220Y-94489320D03*
D38*
X159877219Y-92999319D03*
D40*
X159867220Y-94489319D03*
D38*
X169929352Y-89242204D03*
D41*
X170975870Y-90302865D03*
D38*
X171697119Y-87474438D03*
D41*
X172743637Y-88535097D03*
D38*
X173464886Y-85706670D03*
D41*
X174511404Y-86767331D03*
D38*
X175195489Y-84112559D03*
D41*
X176242008Y-85173219D03*
D42*
X180355456Y-74131897D03*
D38*
X178865455Y-74121898D03*
D42*
X180355456Y-71531898D03*
D38*
X178865455Y-71521897D03*
D42*
X180355456Y-69031898D03*
D38*
X178865456Y-69021897D03*
D43*
X175443690Y-56904289D03*
D38*
X174383027Y-57950808D03*
D43*
X173675921Y-55136522D03*
D38*
X172615261Y-56183041D03*
D43*
X171908154Y-53368755D03*
D38*
X170847494Y-54415273D03*
D40*
X160041421Y-48310417D03*
D38*
X160031421Y-49800417D03*
D40*
X157441421Y-48310416D03*
D38*
X157431421Y-49800417D03*
D40*
X154941421Y-48310417D03*
D38*
X154931421Y-49800417D03*
D16*
X153637500Y-76917082D03*
X155462500Y-76917082D03*
M02*
