M48
; DRILL file {KiCad 8.0.4} date 2024-10-01T08:31:05+0200
; FORMAT={-:-/ absolute / metric / decimal}
; #@! TF.CreationDate,2024-10-01T08:31:05+02:00
; #@! TF.GenerationSoftware,Kicad,Pcbnew,8.0.4
; #@! TF.FileFunction,Plated,1,2,PTH
FMAT,2
METRIC
; #@! TA.AperFunction,Plated,PTH,ViaDrill
T1C0.300
; #@! TA.AperFunction,Plated,PTH,ComponentDrill
T2C1.000
; #@! TA.AperFunction,Plated,PTH,ComponentDrill
T3C3.000
%
G90
G05
T1
X78.07Y-83.16
X84.58Y-63.53
X100.62Y-96.57
X107.27Y-66.22
X107.99Y-50.7
X113.22Y-50.61
X127.95Y-87.77
X128.96Y-92.83
X129.13Y-81.89
X129.22Y-78.97
X131.015Y-62.095
X133.89Y-56.36
T2
X75.711Y-81.557
X84.176Y-59.48
X84.651Y-106.035
X89.38Y-79.19
X89.38Y-84.29
X89.38Y-81.79
X93.933Y-95.325
X93.995Y-68.374
X95.701Y-97.092
X95.763Y-66.606
X97.469Y-98.86
X97.53Y-64.838
X108.601Y-60.356
X110.755Y-47.439
X111.101Y-60.356
X113.701Y-60.356
X123.692Y-64.026
X124.452Y-98.888
X125.286Y-65.757
X126.22Y-97.12
X127.054Y-67.524
X127.988Y-95.352
X128.822Y-69.292
X132.579Y-81.844
X132.579Y-79.344
X132.579Y-84.444
X135.776Y-107.18
X136.33Y-58.52
X146.061Y-81.582
T3
X69.745Y-81.16
X79.945Y-55.36
X80.42Y-109.86
X99.28Y-108.745
X99.305Y-55.595
X110.445Y-41.335
X122.13Y-55.82
X122.13Y-108.97
X139.82Y-110.96
X140.72Y-54.41
X151.82Y-81.36
M30
