%TF.GenerationSoftware,KiCad,Pcbnew,8.0.4*%
%TF.CreationDate,2024-10-01T08:30:59+02:00*%
%TF.ProjectId,Rp2040_Tastatur,52703230-3430-45f5-9461-737461747572,rev?*%
%TF.SameCoordinates,Original*%
%TF.FileFunction,Soldermask,Bot*%
%TF.FilePolarity,Negative*%
%FSLAX46Y46*%
G04 Gerber Fmt 4.6, Leading zero omitted, Abs format (unit mm)*
G04 Created by KiCad (PCBNEW 8.0.4) date 2024-10-01 08:30:59*
%MOMM*%
%LPD*%
G01*
G04 APERTURE LIST*
G04 Aperture macros list*
%AMHorizOval*
0 Thick line with rounded ends*
0 $1 width*
0 $2 $3 position (X,Y) of the first rounded end (center of the circle)*
0 $4 $5 position (X,Y) of the second rounded end (center of the circle)*
0 Add line between two ends*
20,1,$1,$2,$3,$4,$5,0*
0 Add two circle primitives to create the rounded ends*
1,1,$1,$2,$3*
1,1,$1,$4,$5*%
%AMFreePoly0*
4,1,58,0.958779,3.605902,0.995106,3.555902,0.998387,3.542889,1.048231,3.268747,1.122847,2.895666,1.169948,2.683709,1.287472,2.448661,1.484876,2.127881,1.639369,1.883263,1.822422,1.711368,2.022542,1.469463,2.190767,1.204384,2.324441,0.920311,2.421458,0.621725,2.480287,0.313333,2.500000,0.000000,2.480287,-0.313333,2.421458,-0.621725,2.324441,-0.920311,2.190768,-1.204384,
2.022542,-1.469462,1.822422,-1.711368,1.593560,-1.926283,1.339567,-2.110820,1.064448,-2.262068,0.772542,-2.377641,0.468453,-2.455718,0.156976,-2.495067,-0.156976,-2.495067,-0.468453,-2.455718,-0.772542,-2.377641,-1.064448,-2.262068,-1.339567,-2.110819,-1.593560,-1.926283,-1.822422,-1.711368,-2.022542,-1.469463,-2.190767,-1.204384,-2.324441,-0.920311,-2.421458,-0.621725,-2.480287,-0.313333,
-2.500000,0.000000,-2.480287,0.313333,-2.421458,0.621725,-2.324441,0.920311,-2.190768,1.204384,-2.022542,1.469462,-1.876003,1.646598,-1.590044,2.218519,-1.419948,2.583010,-1.197308,3.523047,-1.165177,3.575841,-1.108151,3.599667,-1.100000,3.600000,-0.602075,3.600000,-0.004163,3.624913,0.000000,3.625000,0.900000,3.625000,0.958779,3.605902,0.958779,3.605902,$1*%
%AMFreePoly1*
4,1,58,0.468453,2.455718,0.772542,2.377641,1.064448,2.262068,1.339567,2.110820,1.593560,1.926283,1.822422,1.711368,2.022542,1.469463,2.190767,1.204384,2.324441,0.920311,2.421457,0.621725,2.480287,0.313333,2.500000,0.000000,2.480287,-0.313333,2.421457,-0.621725,2.324441,-0.920311,2.190767,-1.204384,2.022542,-1.469463,1.876003,-1.646598,1.590044,-2.218519,1.419948,-2.583009,
1.197308,-3.523047,1.165177,-3.575841,1.108151,-3.599667,1.100000,-3.600000,0.602075,-3.600000,0.004163,-3.624913,0.000000,-3.625000,-0.900000,-3.625000,-0.958779,-3.605902,-0.995106,-3.555902,-0.998387,-3.542889,-1.048231,-3.268747,-1.122847,-2.895667,-1.169948,-2.683709,-1.287472,-2.448661,-1.484876,-2.127881,-1.639369,-1.883264,-1.822422,-1.711368,-2.022542,-1.469463,-2.190767,-1.204384,
-2.324441,-0.920311,-2.421457,-0.621725,-2.480287,-0.313333,-2.500000,0.000000,-2.480287,0.313333,-2.421457,0.621725,-2.324441,0.920311,-2.190767,1.204384,-2.022542,1.469463,-1.822422,1.711368,-1.593560,1.926283,-1.339567,2.110820,-1.064448,2.262068,-0.772542,2.377641,-0.468453,2.455718,-0.156976,2.495067,0.156976,2.495067,0.468453,2.455718,0.468453,2.455718,$1*%
%AMFreePoly2*
4,1,58,0.004163,3.624913,0.602075,3.600000,1.100000,3.600000,1.158779,3.580902,1.195106,3.530902,1.197308,3.523047,1.419948,2.583009,1.590044,2.218519,1.876003,1.646598,2.022542,1.469463,2.190767,1.204384,2.324441,0.920311,2.421458,0.621725,2.480287,0.313333,2.500000,0.000000,2.480287,-0.313333,2.421458,-0.621725,2.324441,-0.920311,2.190767,-1.204384,2.022542,-1.469463,
1.822422,-1.711368,1.593560,-1.926283,1.339567,-2.110820,1.064448,-2.262068,0.772542,-2.377641,0.468453,-2.455718,0.156976,-2.495067,-0.156976,-2.495067,-0.468453,-2.455718,-0.772542,-2.377641,-1.064448,-2.262068,-1.339567,-2.110820,-1.593560,-1.926283,-1.822422,-1.711368,-2.022542,-1.469463,-2.190767,-1.204384,-2.324441,-0.920311,-2.421458,-0.621725,-2.480287,-0.313333,-2.500000,0.000000,
-2.480287,0.313333,-2.421458,0.621725,-2.324441,0.920311,-2.190767,1.204384,-2.022542,1.469463,-1.822422,1.711368,-1.639369,1.883264,-1.484876,2.127881,-1.287472,2.448661,-1.169948,2.683709,-1.122847,2.895667,-1.048231,3.268747,-0.998387,3.542889,-0.969082,3.597303,-0.913390,3.624099,-0.900000,3.625000,0.000000,3.625000,0.004163,3.624913,0.004163,3.624913,$1*%
%AMFreePoly3*
4,1,58,0.468453,2.455718,0.772542,2.377641,1.064448,2.262068,1.339567,2.110820,1.593560,1.926283,1.822422,1.711368,2.022542,1.469463,2.190767,1.204384,2.324441,0.920311,2.421457,0.621725,2.480287,0.313333,2.500000,0.000000,2.480287,-0.313333,2.421457,-0.621725,2.324441,-0.920311,2.190767,-1.204384,2.022542,-1.469463,1.822422,-1.711368,1.639369,-1.883264,1.484876,-2.127881,
1.287472,-2.448661,1.169948,-2.683709,1.122847,-2.895667,1.048231,-3.268747,0.998387,-3.542889,0.969082,-3.597303,0.913390,-3.624099,0.900000,-3.625000,0.000000,-3.625000,-0.004163,-3.624913,-0.602075,-3.600000,-1.100000,-3.600000,-1.158779,-3.580903,-1.195106,-3.530902,-1.197308,-3.523047,-1.419948,-2.583009,-1.590044,-2.218519,-1.876003,-1.646598,-2.022542,-1.469463,-2.190767,-1.204384,
-2.324441,-0.920311,-2.421457,-0.621725,-2.480287,-0.313333,-2.500000,0.000000,-2.480287,0.313333,-2.421457,0.621725,-2.324441,0.920311,-2.190767,1.204384,-2.022542,1.469463,-1.822422,1.711368,-1.593560,1.926283,-1.339567,2.110820,-1.064448,2.262068,-0.772542,2.377641,-0.468453,2.455718,-0.156976,2.495067,0.156976,2.495067,0.468453,2.455718,0.468453,2.455718,$1*%
G04 Aperture macros list end*
%ADD10FreePoly0,202.500000*%
%ADD11HorizOval,1.700000X0.459619X0.459619X-0.459619X-0.459619X0*%
%ADD12O,1.700000X3.000000*%
%ADD13HorizOval,1.700000X-0.459619X0.459619X0.459619X-0.459619X0*%
%ADD14FreePoly0,337.500000*%
%ADD15O,3.000000X1.700000*%
%ADD16FreePoly0,22.500000*%
%ADD17FreePoly0,157.500000*%
%ADD18C,1.778000*%
%ADD19FreePoly1,45.000000*%
%ADD20FreePoly2,270.000000*%
%ADD21FreePoly2,315.000000*%
%ADD22FreePoly0,0.000000*%
%ADD23FreePoly0,45.000000*%
%ADD24FreePoly0,90.000000*%
%ADD25FreePoly3,315.000000*%
G04 APERTURE END LIST*
D10*
%TO.C,GDN_pads1*%
X122130000Y-108970000D03*
D11*
X135776264Y-107179653D03*
D12*
X146061250Y-81582500D03*
D13*
X136330000Y-58520000D03*
D14*
X122130000Y-55820000D03*
D15*
X110755000Y-47438750D03*
D16*
X99305000Y-55595000D03*
D11*
X84176264Y-59479652D03*
D12*
X75711250Y-81557500D03*
D13*
X84651264Y-106035348D03*
D17*
X99280000Y-108745000D03*
%TD*%
D18*
%TO.C,Conn1*%
X93933250Y-95324664D03*
X95701015Y-97092430D03*
X97468783Y-98860197D03*
X124452241Y-98887711D03*
X126220008Y-97119946D03*
X127987774Y-95352178D03*
X132578901Y-84444201D03*
X132578900Y-81844201D03*
X132578901Y-79344202D03*
X128821785Y-69292069D03*
X127054019Y-67524302D03*
X125286252Y-65756535D03*
X123692142Y-64025933D03*
X113701478Y-60355966D03*
X111101480Y-60355966D03*
X108601479Y-60355966D03*
X97530388Y-64838394D03*
X95762622Y-66606160D03*
X93994854Y-68373927D03*
X89379999Y-79190000D03*
X89380000Y-81790000D03*
X89379999Y-84289999D03*
%TD*%
D19*
%TO.C,TH_externPads1*%
X139820000Y-110960000D03*
D20*
X151820000Y-81360000D03*
D21*
X140720000Y-54410000D03*
D22*
X110445000Y-41335000D03*
D23*
X79945000Y-55360000D03*
D24*
X69745000Y-81160000D03*
D25*
X80420000Y-109860000D03*
%TD*%
M02*
