%TF.GenerationSoftware,KiCad,Pcbnew,8.0.4*%
%TF.CreationDate,2024-10-01T08:31:06+02:00*%
%TF.ProjectId,Rp2040_Tastatur,52703230-3430-45f5-9461-737461747572,rev?*%
%TF.SameCoordinates,Original*%
%TF.FileFunction,Drillmap*%
%TF.FilePolarity,Positive*%
%FSLAX45Y45*%
G04 Gerber Fmt 4.5, Leading zero omitted, Abs format (unit mm)*
G04 Created by KiCad (PCBNEW 8.0.4) date 2024-10-01 08:31:06*
%MOMM*%
%LPD*%
G01*
G04 APERTURE LIST*
%ADD10C,0.050000*%
%ADD11C,0.200000*%
G04 APERTURE END LIST*
D10*
X14351000Y-11143000D02*
X14366000Y-11106000D01*
X8736000Y-7079000D02*
X8734000Y-7094000D01*
X8002000Y-8636000D02*
X8071000Y-8631000D01*
X7257000Y-7494000D02*
X7195000Y-7498000D01*
X11337000Y-8206000D02*
X11325000Y-8246000D01*
X15136000Y-8693000D02*
X15177000Y-8674000D01*
X8627000Y-11258000D02*
X8662000Y-11227000D01*
X10178000Y-5331000D02*
X10147000Y-5304000D01*
X14033000Y-11444000D02*
X14089000Y-11418000D01*
X13939000Y-5045000D02*
X13882000Y-5041000D01*
X11639000Y-4221000D02*
X11632000Y-4199000D01*
X14061000Y-5071000D02*
X14014000Y-5059000D01*
X9577000Y-5755000D02*
X9578000Y-5810000D01*
X14397000Y-11000000D02*
X14407000Y-10924000D01*
X9729000Y-11135000D02*
X9767000Y-11158000D01*
X13369000Y-11298000D02*
X13399000Y-11328000D01*
X11548000Y-5540000D02*
X11510000Y-5489000D01*
X9691000Y-5316000D02*
X9669000Y-5339000D01*
X11017000Y-3818000D02*
X10980000Y-3822000D01*
X13962000Y-11469000D02*
X14033000Y-11444000D01*
X6963000Y-7568000D02*
X6898000Y-7610000D01*
X8071000Y-8631000D02*
X8098000Y-8630000D01*
X13607000Y-7391000D02*
X13592000Y-7372000D01*
X13550000Y-11430000D02*
X13587000Y-11447000D01*
X6699000Y-7862000D02*
X6675000Y-7933000D01*
X13159000Y-10867000D02*
X13215000Y-11009000D01*
X8400000Y-11377000D02*
X8451000Y-11361000D01*
X14471000Y-5657000D02*
X14472000Y-5621000D01*
X11637000Y-5583000D02*
X11618000Y-5578000D01*
X11457000Y-5179000D02*
X11508000Y-5016000D01*
X11652000Y-4265000D02*
X11639000Y-4221000D01*
X8491000Y-11343000D02*
X8552000Y-11311000D01*
X12626000Y-10586000D02*
X12656000Y-10557000D01*
X10981000Y-7824000D02*
X11028000Y-7818000D01*
X14895000Y-7539000D02*
X14852000Y-7543000D01*
X10905000Y-3843000D02*
X10851000Y-3862000D01*
X8695000Y-5446000D02*
X8668000Y-5400000D01*
X9545000Y-10400000D02*
X9573000Y-10418000D01*
X11371000Y-3900000D02*
X11321000Y-3874000D01*
X7749000Y-7572000D02*
X7584000Y-7548000D01*
X12126000Y-5232000D02*
X12100000Y-5238000D01*
X8284000Y-8650000D02*
X8338000Y-8651000D01*
X14947000Y-8739000D02*
X15043000Y-8723000D01*
X8913000Y-10895000D02*
X9044000Y-10715000D01*
X9314000Y-10379000D02*
X9329000Y-10368000D01*
X11321000Y-3874000D02*
X11275000Y-3857000D01*
X10732000Y-8033000D02*
X10753000Y-7986000D01*
X14294000Y-11237000D02*
X14306000Y-11222000D01*
X7339000Y-8689000D02*
X7399000Y-8685000D01*
X9450000Y-10367000D02*
X9494000Y-10374000D01*
X14110000Y-6192000D02*
X14128000Y-6184000D01*
X10781000Y-8325000D02*
X10758000Y-8291000D01*
X8012000Y-10238000D02*
X7915000Y-10293000D01*
X9544000Y-5967000D02*
X9529000Y-5987000D01*
X7645000Y-10857000D02*
X7656000Y-10933000D01*
X10717000Y-8120000D02*
X10720000Y-8080000D01*
X8554000Y-7438000D02*
X8511000Y-7471000D01*
X11028000Y-7818000D02*
X11074000Y-7821000D01*
X11861000Y-10716000D02*
X11848000Y-10748000D01*
X11407000Y-3922000D02*
X11371000Y-3900000D01*
X11277000Y-7937000D02*
X11297000Y-7964000D01*
X9373000Y-6049000D02*
X9308000Y-6040000D01*
X11451000Y-5211000D02*
X11450000Y-5198000D01*
X9629000Y-5389000D02*
X9603000Y-5438000D01*
X8230000Y-6482000D02*
X8443000Y-6616000D01*
X13541000Y-9843000D02*
X13529000Y-9811000D01*
X10401000Y-5684000D02*
X10384000Y-5681000D01*
X11694000Y-10307000D02*
X11797000Y-10489000D01*
X9497000Y-6014000D02*
X9464000Y-6042000D01*
X14388000Y-5949000D02*
X14415000Y-5893000D01*
X7340000Y-7503000D02*
X7257000Y-7494000D01*
X9229000Y-10464000D02*
X9284000Y-10406000D01*
X11248000Y-7904000D02*
X11277000Y-7937000D01*
X10384000Y-5681000D02*
X10363000Y-5660000D01*
X9210000Y-10483000D02*
X9229000Y-10464000D01*
X11214000Y-7877000D02*
X11248000Y-7904000D01*
X10827000Y-8374000D02*
X10803000Y-8351000D01*
X10784000Y-3894000D02*
X10746000Y-3917000D01*
X13215000Y-11009000D02*
X13225000Y-11032000D01*
X12511000Y-5742000D02*
X12511000Y-5723000D01*
X10281000Y-10809000D02*
X10278000Y-10785000D01*
X7961000Y-7607000D02*
X7749000Y-7572000D01*
X13613000Y-9983000D02*
X13563000Y-9887000D01*
X13873000Y-7712000D02*
X13626000Y-7414000D01*
X9284000Y-10406000D02*
X9314000Y-10379000D01*
X10533000Y-5667000D02*
X10506000Y-5679000D01*
X12935000Y-10464000D02*
X12961000Y-10469000D01*
X9634000Y-10542000D02*
X9606000Y-10666000D01*
X7915000Y-11303000D02*
X7966000Y-11332000D01*
X11889000Y-5385000D02*
X11875000Y-5410000D01*
X10103000Y-5274000D02*
X10071000Y-5258000D01*
X9113000Y-10618000D02*
X9186000Y-10517000D01*
X7642000Y-10795000D02*
X7645000Y-10857000D01*
X11970000Y-5300000D02*
X11936000Y-5328000D01*
X12811000Y-10468000D02*
X12841000Y-10456000D01*
X14239000Y-10471000D02*
X14192000Y-10428000D01*
X12468000Y-11081000D02*
X12499000Y-11033000D01*
X10137000Y-11126000D02*
X10163000Y-11105000D01*
X10851000Y-7874000D02*
X10891000Y-7852000D01*
X7654000Y-10675000D02*
X7640000Y-10763000D01*
X8058000Y-5154000D02*
X8009000Y-5166000D01*
X11672000Y-4460000D02*
X11673000Y-4427000D01*
X10632000Y-4012000D02*
X10606000Y-4044000D01*
X14228000Y-6124000D02*
X14275000Y-6085000D01*
X10273000Y-5503000D02*
X10263000Y-5465000D01*
X15232000Y-8644000D02*
X15277000Y-8612000D01*
X12516000Y-5855000D02*
X12511000Y-5742000D01*
X8443000Y-6616000D02*
X8653000Y-6762000D01*
X13541000Y-9063000D02*
X13563000Y-9003000D01*
X13540000Y-6628000D02*
X13558000Y-6609000D01*
X13198000Y-5533000D02*
X13098000Y-5657000D01*
X10710000Y-3944000D02*
X10667000Y-3979000D01*
X13799000Y-11488000D02*
X13849000Y-11487000D01*
X15474000Y-8334000D02*
X15486000Y-8291000D01*
X11622000Y-4176000D02*
X11604000Y-4141000D01*
X13645000Y-5084000D02*
X13594000Y-5107000D01*
X7112000Y-8680000D02*
X7178000Y-8693000D01*
X8726000Y-6897000D02*
X8734000Y-7035000D01*
X11659000Y-4552000D02*
X11667000Y-4501000D01*
X14382000Y-11061000D02*
X14397000Y-11000000D01*
X12437000Y-5333000D02*
X12429000Y-5326000D01*
X13703000Y-5065000D02*
X13645000Y-5084000D01*
X10540000Y-4147000D02*
X10521000Y-4182000D01*
X13502000Y-9726000D02*
X13496000Y-9697000D01*
X6898000Y-7610000D02*
X6853000Y-7648000D01*
X12644000Y-5950000D02*
X12630000Y-5946000D01*
X14132000Y-10382000D02*
X13625000Y-10001000D01*
X12538000Y-10908000D02*
X12540000Y-10875000D01*
X11074000Y-7821000D02*
X11142000Y-7838000D01*
X10263000Y-5465000D02*
X10247000Y-5431000D01*
X8741000Y-9187000D02*
X8781000Y-9369000D01*
X15250000Y-7646000D02*
X15212000Y-7621000D01*
X10899000Y-9520000D02*
X10900000Y-8419000D01*
X9572000Y-5639000D02*
X9575000Y-5686000D01*
X10363000Y-5660000D02*
X10328000Y-5627000D01*
X10227000Y-5392000D02*
X10202000Y-5357000D01*
X7966000Y-11332000D02*
X8027000Y-11360000D01*
X9642000Y-11052000D02*
X9662000Y-11077000D01*
X8266000Y-7655000D02*
X8234000Y-7650000D01*
X9355000Y-10366000D02*
X9394000Y-10364000D01*
X15374000Y-7764000D02*
X15351000Y-7735000D01*
X9725000Y-5292000D02*
X9691000Y-5316000D01*
X8781000Y-9369000D02*
X8781000Y-9391000D01*
X14415000Y-5893000D02*
X14436000Y-5844000D01*
X9573000Y-10418000D02*
X9591000Y-10437000D01*
X13478000Y-7165000D02*
X13436000Y-7055000D01*
X7436000Y-7524000D02*
X7340000Y-7503000D01*
X11171000Y-8415000D02*
X11170000Y-9525000D01*
X13438000Y-6870000D02*
X13448000Y-6844000D01*
X7696000Y-11046000D02*
X7721000Y-11097000D01*
X10483000Y-4311000D02*
X10478000Y-4342000D01*
X6661000Y-7985000D02*
X6658000Y-8014000D01*
X13625000Y-10001000D02*
X13613000Y-9983000D01*
X10803000Y-8351000D02*
X10781000Y-8325000D01*
X12499000Y-11033000D02*
X12507000Y-11016000D01*
X7134000Y-7506000D02*
X7042000Y-7533000D01*
X13552000Y-5134000D02*
X13484000Y-5183000D01*
X14396000Y-10770000D02*
X14368000Y-10674000D01*
X9898000Y-5228000D02*
X9872000Y-5233000D01*
X14324000Y-10584000D02*
X14293000Y-10534000D01*
X13693000Y-11478000D02*
X13729000Y-11484000D01*
X11659000Y-4293000D02*
X11652000Y-4265000D01*
X7024000Y-8652000D02*
X7073000Y-8669000D01*
X12485000Y-5393000D02*
X12469000Y-5370000D01*
X15504000Y-8074000D02*
X15492000Y-8014000D01*
X12542000Y-5901000D02*
X12526000Y-5880000D01*
X8176000Y-11396000D02*
X8235000Y-11399000D01*
X8800000Y-11052000D02*
X8913000Y-10895000D01*
X10688000Y-5350000D02*
X10683000Y-5409000D01*
X11632000Y-4199000D02*
X11622000Y-4176000D01*
X13089000Y-10697000D02*
X13159000Y-10867000D01*
X8451000Y-11361000D02*
X8491000Y-11343000D01*
X13505000Y-6684000D02*
X13540000Y-6628000D01*
X11207000Y-8394000D02*
X11171000Y-8415000D01*
X11936000Y-5328000D02*
X11910000Y-5358000D01*
X11492000Y-3991000D02*
X11465000Y-3966000D01*
X7604000Y-5559000D02*
X7589000Y-5615000D01*
X14936000Y-7538000D02*
X14895000Y-7539000D01*
X12284000Y-11204000D02*
X12349000Y-11174000D01*
X9394000Y-10364000D02*
X9425000Y-10363000D01*
X10102000Y-11148000D02*
X10111000Y-11142000D01*
X8781000Y-9391000D02*
X8765000Y-9596000D01*
X8580000Y-9856000D02*
X8545000Y-9909000D01*
X9631000Y-11036000D02*
X9642000Y-11052000D01*
X9575000Y-10785000D02*
X9572000Y-10809000D01*
X9441000Y-6057000D02*
X9420000Y-6058000D01*
X9599000Y-10977000D02*
X9613000Y-11008000D01*
X11667000Y-4334000D02*
X11659000Y-4293000D01*
X10278000Y-10785000D02*
X10266000Y-10733000D01*
X14335000Y-11173000D02*
X14351000Y-11143000D01*
X8754000Y-9622000D02*
X8740000Y-9638000D01*
X8594000Y-11285000D02*
X8627000Y-11258000D01*
X13396000Y-5275000D02*
X13366000Y-5313000D01*
X13241000Y-11082000D02*
X13249000Y-11107000D01*
X10196000Y-11072000D02*
X10218000Y-11043000D01*
X9901000Y-11197000D02*
X9952000Y-11194000D01*
X9642000Y-10512000D02*
X9634000Y-10542000D01*
X13048000Y-10594000D02*
X13089000Y-10697000D01*
X14288000Y-6074000D02*
X14324000Y-6036000D01*
X13332000Y-11255000D02*
X13369000Y-11298000D01*
X11437000Y-3943000D02*
X11407000Y-3922000D01*
X10218000Y-11043000D02*
X10243000Y-11001000D01*
X8734000Y-7094000D02*
X8719000Y-7128000D01*
X9575000Y-5686000D02*
X9577000Y-5755000D01*
X8322000Y-11393000D02*
X8358000Y-11388000D01*
X12656000Y-10557000D02*
X12689000Y-10528000D01*
X10656000Y-5531000D02*
X10630000Y-5574000D01*
X12155000Y-11222000D02*
X12216000Y-11221000D01*
X13466000Y-9426000D02*
X13468000Y-9391000D01*
X9584000Y-10938000D02*
X9599000Y-10977000D01*
X7662000Y-5431000D02*
X7633000Y-5482000D01*
X10521000Y-4182000D02*
X10512000Y-4207000D01*
X12452000Y-5349000D02*
X12437000Y-5333000D01*
X10677000Y-5112000D02*
X10680000Y-5129000D01*
X7791000Y-5286000D02*
X7709000Y-5362000D01*
X12840000Y-5915000D02*
X12795000Y-5926000D01*
X8603000Y-5322000D02*
X8549000Y-5273000D01*
X13465000Y-9458000D02*
X13466000Y-9426000D01*
X10293000Y-5591000D02*
X10281000Y-5571000D01*
X11839000Y-10951000D02*
X11850000Y-10989000D01*
X9586000Y-10738000D02*
X9579000Y-10763000D01*
X13480000Y-9261000D02*
X13506000Y-9172000D01*
X9578000Y-5810000D02*
X9569000Y-5859000D01*
X11306000Y-8285000D02*
X11285000Y-8320000D01*
X8738000Y-9168000D02*
X8741000Y-9187000D01*
X11876000Y-10673000D02*
X11876000Y-10690000D01*
X9592000Y-10720000D02*
X9586000Y-10738000D01*
X9186000Y-10517000D02*
X9210000Y-10483000D01*
X9700000Y-11114000D02*
X9729000Y-11135000D01*
X7896000Y-5211000D02*
X7863000Y-5229000D01*
X12689000Y-10528000D02*
X12707000Y-10516000D01*
X10059000Y-11169000D02*
X10102000Y-11148000D01*
X9571000Y-5577000D02*
X9572000Y-5639000D01*
X9591000Y-10437000D02*
X9624000Y-10475000D01*
X7775000Y-11171000D02*
X7812000Y-11218000D01*
X15492000Y-8014000D02*
X15479000Y-7956000D01*
X8098000Y-8630000D02*
X8122000Y-8631000D01*
X13882000Y-5041000D02*
X13824000Y-5042000D01*
X7676000Y-10995000D02*
X7696000Y-11046000D01*
X12540000Y-5562000D02*
X12535000Y-5522000D01*
X8375000Y-8665000D02*
X8506000Y-8773000D01*
X7787000Y-10404000D02*
X7743000Y-10458000D01*
X11510000Y-5489000D02*
X11504000Y-5478000D01*
X10502000Y-4603000D02*
X10513000Y-4633000D01*
X11450000Y-5198000D02*
X11457000Y-5179000D01*
X12841000Y-10456000D02*
X12859000Y-10451000D01*
X8576000Y-8908000D02*
X8725000Y-9146000D01*
X9188000Y-5972000D02*
X9052000Y-5827000D01*
X8765000Y-9596000D02*
X8754000Y-9622000D01*
X12664000Y-5948000D02*
X12644000Y-5950000D01*
X14461000Y-7634000D02*
X14008000Y-7729000D01*
X9203000Y-5986000D02*
X9188000Y-5972000D01*
X7766000Y-6183000D02*
X7817000Y-6226000D01*
X11620000Y-4669000D02*
X11640000Y-4620000D01*
X14178000Y-11360000D02*
X14230000Y-11312000D01*
X10259000Y-10598000D02*
X10268000Y-10573000D01*
X11875000Y-5410000D02*
X11855000Y-5431000D01*
X6853000Y-7648000D02*
X6812000Y-7689000D01*
X13477000Y-11390000D02*
X13519000Y-11415000D01*
X8362000Y-8652000D02*
X8375000Y-8665000D01*
X8511000Y-7471000D02*
X8380000Y-7576000D01*
X9783000Y-5260000D02*
X9725000Y-5292000D01*
X7668000Y-6063000D02*
X7692000Y-6099000D01*
X14648000Y-7592000D02*
X14461000Y-7634000D01*
X6776000Y-7730000D02*
X6748000Y-7768000D01*
X15434000Y-8424000D02*
X15456000Y-8376000D01*
X10031000Y-5242000D02*
X9977000Y-5232000D01*
X10147000Y-5304000D02*
X10103000Y-5274000D01*
X10670000Y-5510000D02*
X10656000Y-5531000D01*
X7727000Y-6144000D02*
X7766000Y-6183000D01*
X15495000Y-8262000D02*
X15503000Y-8202000D01*
X11167000Y-3827000D02*
X11146000Y-3824000D01*
X8136000Y-11389000D02*
X8176000Y-11396000D01*
X7251000Y-8697000D02*
X7339000Y-8689000D01*
X8549000Y-5273000D02*
X8509000Y-5245000D01*
X10071000Y-5258000D02*
X10031000Y-5242000D01*
X12287000Y-5241000D02*
X12217000Y-5228000D01*
X10598000Y-4878000D02*
X10653000Y-5041000D01*
X7747000Y-8655000D02*
X8002000Y-8636000D01*
X13011000Y-10501000D02*
X13048000Y-10594000D01*
X14125000Y-5097000D02*
X14061000Y-5071000D01*
X10478000Y-4342000D02*
X10476000Y-4363000D01*
X13932000Y-8710000D02*
X14001000Y-8659000D01*
X8668000Y-5400000D02*
X8641000Y-5365000D01*
X13435000Y-7005000D02*
X13437000Y-6931000D01*
X11933000Y-11119000D02*
X11961000Y-11145000D01*
X9558000Y-5910000D02*
X9544000Y-5967000D01*
X12001000Y-5278000D02*
X11970000Y-5300000D01*
X8263000Y-11399000D02*
X8322000Y-11393000D01*
X6938000Y-8607000D02*
X6974000Y-8628000D01*
X11559000Y-4851000D02*
X11590000Y-4752000D01*
X7689000Y-5384000D02*
X7662000Y-5431000D01*
X13963000Y-7729000D02*
X13909000Y-7727000D01*
X11830000Y-10841000D02*
X11829000Y-10885000D01*
X7886000Y-11283000D02*
X7915000Y-11303000D01*
X10851000Y-3862000D02*
X10784000Y-3894000D01*
X13439000Y-11362000D02*
X13477000Y-11390000D01*
X9606000Y-10666000D02*
X9600000Y-10696000D01*
X14407000Y-10924000D02*
X14408000Y-10873000D01*
X10473000Y-4433000D02*
X10475000Y-4464000D01*
X12961000Y-5829000D02*
X12945000Y-5850000D01*
X12945000Y-5850000D02*
X12911000Y-5870000D01*
X12521000Y-10984000D02*
X12527000Y-10964000D01*
X10775000Y-7951000D02*
X10813000Y-7905000D01*
X10474000Y-4400000D02*
X10473000Y-4433000D01*
X8274000Y-5152000D02*
X8218000Y-5145000D01*
X15422000Y-7832000D02*
X15374000Y-7764000D01*
X15122000Y-7578000D02*
X15050000Y-7556000D01*
X14001000Y-8659000D02*
X14055000Y-8619000D01*
X11667000Y-4501000D02*
X11672000Y-4460000D01*
X10328000Y-5627000D02*
X10293000Y-5591000D01*
X10891000Y-7852000D02*
X10950000Y-7829000D01*
X6974000Y-8628000D02*
X7024000Y-8652000D01*
X15486000Y-8291000D02*
X15495000Y-8262000D01*
X14686000Y-8703000D02*
X14720000Y-8709000D01*
X10980000Y-3822000D02*
X10942000Y-3831000D01*
X10758000Y-8291000D02*
X10739000Y-8252000D01*
X14389000Y-5338000D02*
X14379000Y-5321000D01*
X14356000Y-5996000D02*
X14388000Y-5949000D01*
X8225000Y-8647000D02*
X8239000Y-8650000D01*
X11618000Y-5578000D02*
X11570000Y-5563000D01*
X13988000Y-7731000D02*
X13963000Y-7729000D01*
X10244500Y-10677000D02*
X10247500Y-10637000D01*
X11602000Y-4713000D02*
X11606000Y-4699000D01*
X11247000Y-8361000D02*
X11207000Y-8394000D01*
X11874000Y-10640000D02*
X11876000Y-10673000D01*
X11170000Y-9525000D02*
X11694000Y-10307000D01*
X14328000Y-5254000D02*
X14293000Y-5216000D01*
X15313000Y-7696000D02*
X15250000Y-7646000D01*
X11468000Y-5329000D02*
X11464000Y-5305000D01*
X11700000Y-5577000D02*
X11637000Y-5583000D01*
X11673000Y-4427000D02*
X11667000Y-4334000D01*
X11566000Y-4079000D02*
X11516000Y-4015000D01*
X10753000Y-7986000D02*
X10775000Y-7951000D01*
X9823000Y-5246000D02*
X9783000Y-5260000D01*
X13471000Y-9566000D02*
X13465000Y-9458000D01*
X14720000Y-8709000D02*
X14801000Y-8731000D01*
X11652000Y-4581000D02*
X11659000Y-4552000D01*
X15212000Y-7621000D02*
X15181000Y-7605000D01*
X8725000Y-5480000D02*
X8695000Y-5446000D01*
X7631000Y-5999000D02*
X7668000Y-6063000D01*
X13494000Y-6702000D02*
X13505000Y-6684000D01*
X9579000Y-10763000D02*
X9575000Y-10785000D01*
X7839000Y-5246000D02*
X7791000Y-5286000D01*
X13516000Y-9771000D02*
X13502000Y-9726000D01*
X8734000Y-7035000D02*
X8736000Y-7079000D01*
X9662000Y-11077000D02*
X9681000Y-11097000D01*
X10674000Y-5470000D02*
X10670000Y-5510000D01*
X13436000Y-7055000D02*
X13434000Y-7033000D01*
X14230000Y-11312000D02*
X14267000Y-11271000D01*
X15050000Y-7556000D02*
X14996000Y-7544000D01*
X13098000Y-5657000D02*
X12961000Y-5829000D01*
X6880000Y-8567000D02*
X6938000Y-8607000D01*
X11841000Y-10774000D02*
X11830000Y-10841000D01*
X8515000Y-9944000D02*
X8470000Y-9969000D01*
X10667000Y-3979000D02*
X10632000Y-4012000D01*
X12589000Y-5931000D02*
X12564000Y-5923000D01*
X8380000Y-7576000D02*
X8315000Y-7636000D01*
X12100000Y-5238000D02*
X12076000Y-5244000D01*
X6748000Y-7768000D02*
X6722000Y-7814000D01*
X10452000Y-5681000D02*
X10401000Y-5684000D01*
X12873000Y-5894000D02*
X12840000Y-5915000D01*
X11344000Y-8169000D02*
X11337000Y-8206000D01*
X12525000Y-5687000D02*
X12532000Y-5653000D01*
X7740000Y-11122000D02*
X7775000Y-11171000D01*
X9574000Y-5523000D02*
X9571000Y-5577000D01*
X9329000Y-10368000D02*
X9355000Y-10366000D01*
X10630000Y-5574000D02*
X10593000Y-5640000D01*
X12596000Y-10686000D02*
X12626000Y-10586000D01*
X7843000Y-10348000D02*
X7787000Y-10404000D01*
X9767000Y-11158000D02*
X9808000Y-11176000D01*
X14194000Y-6148000D02*
X14228000Y-6124000D01*
X13590000Y-8960000D02*
X13659000Y-8901000D01*
X12707000Y-10516000D02*
X12763000Y-10488000D01*
X14451000Y-5798000D02*
X14462000Y-5747000D01*
X11806000Y-5491000D02*
X11741000Y-5568000D01*
X14872000Y-8739000D02*
X14947000Y-8739000D01*
X10582000Y-4073000D02*
X10540000Y-4147000D01*
X6655000Y-8117000D02*
X6657000Y-8181000D01*
X7589000Y-5615000D02*
X7578000Y-5672000D01*
X8103000Y-5147000D02*
X8058000Y-5154000D01*
X8670000Y-6787000D02*
X8702000Y-6829000D01*
X7584000Y-7548000D02*
X7478000Y-7531000D01*
X14293000Y-10534000D02*
X14239000Y-10471000D01*
X13434000Y-5230000D02*
X13396000Y-5275000D01*
X13911000Y-11480000D02*
X13962000Y-11469000D01*
X11581000Y-4101000D02*
X11566000Y-4079000D01*
X8517000Y-8795000D02*
X8552000Y-8870000D01*
X13506000Y-9172000D02*
X13541000Y-9063000D01*
X8725000Y-9146000D02*
X8738000Y-9168000D01*
X13563000Y-9003000D02*
X13570000Y-8978000D01*
X10720000Y-8080000D02*
X10732000Y-8033000D01*
X6760000Y-8440000D02*
X6808000Y-8500000D01*
X12514000Y-5448000D02*
X12494000Y-5409000D01*
X7042000Y-7533000D02*
X6963000Y-7568000D01*
X14801000Y-8731000D02*
X14872000Y-8739000D01*
X13849000Y-11487000D02*
X13911000Y-11480000D01*
X9849000Y-11188000D02*
X9901000Y-11197000D01*
X11339000Y-8066000D02*
X11344000Y-8099000D01*
X8653000Y-6762000D02*
X8670000Y-6787000D01*
X12911000Y-5870000D02*
X12873000Y-5894000D01*
X8702000Y-6829000D02*
X8723000Y-6857000D01*
X14055000Y-8619000D02*
X14066000Y-8611000D01*
X9681000Y-11097000D02*
X9700000Y-11114000D01*
X13298000Y-11208000D02*
X13310000Y-11226000D01*
X9294000Y-6032000D02*
X9226000Y-5997000D01*
X12540000Y-5598000D02*
X12540000Y-5562000D01*
X11850000Y-10989000D02*
X11871000Y-11035000D01*
X11893000Y-11071000D02*
X11933000Y-11119000D01*
X13660000Y-11471000D02*
X13693000Y-11478000D01*
X10268000Y-10573000D02*
X10330000Y-10455000D01*
X8681000Y-7211000D02*
X8658000Y-7252000D01*
X13570000Y-8978000D02*
X13590000Y-8960000D01*
X11570000Y-5563000D02*
X11557000Y-5554000D01*
X7576000Y-5801000D02*
X7586000Y-5864000D01*
X10512000Y-4207000D02*
X10502000Y-4236000D01*
X13448000Y-6844000D02*
X13480000Y-6744000D01*
X13519000Y-11415000D02*
X13550000Y-11430000D01*
X11201000Y-3834000D02*
X11167000Y-3827000D01*
X11319000Y-8007000D02*
X11330000Y-8034000D01*
X10813000Y-7905000D02*
X10851000Y-7874000D01*
X7675000Y-10598000D02*
X7654000Y-10675000D01*
X11590000Y-4752000D02*
X11602000Y-4713000D01*
X8779000Y-5536000D02*
X8725000Y-5480000D01*
X7586000Y-5864000D02*
X7599000Y-5914000D01*
X14416000Y-5388000D02*
X14389000Y-5338000D01*
X15351000Y-7735000D02*
X15313000Y-7696000D01*
X11243000Y-3845000D02*
X11201000Y-3834000D01*
X7478000Y-7531000D02*
X7436000Y-7524000D01*
X15479000Y-7956000D02*
X15459000Y-7902000D01*
X11465000Y-3966000D02*
X11437000Y-3943000D01*
X15503000Y-8202000D02*
X15505000Y-8137000D01*
X10279000Y-5542000D02*
X10273000Y-5503000D01*
X14148000Y-10394000D02*
X14132000Y-10382000D01*
X10502000Y-4236000D02*
X10489000Y-4280000D01*
X7925000Y-6289000D02*
X7978000Y-6327000D01*
X11508000Y-5016000D02*
X11559000Y-4851000D01*
X7915000Y-10293000D02*
X7843000Y-10348000D01*
X12763000Y-10488000D02*
X12811000Y-10468000D01*
X14460000Y-5523000D02*
X14436000Y-5435000D01*
X10683000Y-5409000D02*
X10674000Y-5470000D01*
X10950000Y-7829000D02*
X10981000Y-7824000D01*
X15177000Y-8674000D02*
X15232000Y-8644000D01*
X13758000Y-8838000D02*
X13804000Y-8804000D01*
X6839000Y-8532000D02*
X6880000Y-8567000D01*
X8658000Y-7252000D02*
X8554000Y-7438000D01*
X14366000Y-11106000D02*
X14382000Y-11061000D01*
X9420000Y-6058000D02*
X9373000Y-6049000D01*
X13592000Y-7372000D02*
X13576000Y-7350000D01*
X9464000Y-6042000D02*
X9441000Y-6057000D01*
X14734000Y-7571000D02*
X14695000Y-7580000D01*
X10489000Y-4280000D02*
X10483000Y-4311000D01*
X8106000Y-7630000D02*
X8015000Y-7616000D01*
X13904000Y-8730000D02*
X13932000Y-8710000D01*
X14267000Y-11271000D02*
X14294000Y-11237000D01*
X7178000Y-8693000D02*
X7251000Y-8697000D01*
X6724000Y-8382000D02*
X6760000Y-8440000D01*
X8136000Y-5143000D02*
X8103000Y-5147000D01*
X14093000Y-6207000D02*
X14110000Y-6192000D01*
X6701000Y-8333000D02*
X6724000Y-8382000D01*
X10593000Y-5640000D02*
X10577000Y-5651000D01*
X12494000Y-5409000D02*
X12485000Y-5393000D01*
X11797000Y-10489000D02*
X11842000Y-10553000D01*
X12740000Y-5937000D02*
X12718000Y-5941000D01*
X10739000Y-8252000D02*
X10730000Y-8227000D01*
X13659000Y-8901000D02*
X13683000Y-8886000D01*
X11842000Y-10553000D02*
X11860000Y-10581000D01*
X11344000Y-8099000D02*
X11346000Y-8134000D01*
X14695000Y-7580000D02*
X14648000Y-7592000D01*
X13754000Y-5052000D02*
X13703000Y-5065000D01*
X8338000Y-8651000D02*
X8362000Y-8652000D01*
X11848000Y-10748000D02*
X11841000Y-10774000D01*
X11961000Y-11145000D02*
X12014000Y-11180000D01*
X12859000Y-10451000D02*
X12880000Y-10454000D01*
X6808000Y-8500000D02*
X6839000Y-8532000D01*
X9575000Y-10898000D02*
X9584000Y-10938000D01*
X6656000Y-8043000D02*
X6655000Y-8117000D01*
X12511000Y-5723000D02*
X12519000Y-5705000D01*
X12693000Y-5945000D02*
X12664000Y-5948000D01*
X11330000Y-8034000D02*
X11339000Y-8066000D01*
X12507000Y-11016000D02*
X12521000Y-10984000D01*
X11285000Y-8320000D02*
X11264000Y-8345000D01*
X8348000Y-5169000D02*
X8274000Y-5152000D01*
X14368000Y-10674000D02*
X14324000Y-10584000D01*
X12540000Y-10875000D02*
X12540000Y-10854000D01*
X11741000Y-5568000D02*
X11726000Y-5575000D01*
X15306000Y-8586000D02*
X15360000Y-8532000D01*
X12237000Y-11217000D02*
X12284000Y-11204000D01*
X11640000Y-4620000D02*
X11652000Y-4581000D01*
X7692000Y-6099000D02*
X7727000Y-6144000D01*
X13558000Y-6609000D02*
X13579000Y-6593000D01*
X15456000Y-8376000D02*
X15474000Y-8334000D01*
X8027000Y-11360000D02*
X8067000Y-11374000D01*
X10577000Y-5651000D02*
X10533000Y-5667000D01*
X10480000Y-4517000D02*
X10491000Y-4566000D01*
X10942000Y-3831000D02*
X10905000Y-3843000D01*
X14462000Y-5747000D02*
X14471000Y-5657000D01*
X12217000Y-5228000D02*
X12181000Y-5227000D01*
X13006000Y-10490000D02*
X13011000Y-10501000D01*
X7721000Y-11097000D02*
X7740000Y-11122000D01*
X10257000Y-10969000D02*
X10271000Y-10935000D01*
X12961000Y-10469000D02*
X12992000Y-10483000D01*
X12718000Y-5941000D02*
X12693000Y-5945000D01*
X10111000Y-11142000D02*
X10137000Y-11126000D01*
X13909000Y-7727000D02*
X13885000Y-7724000D01*
X13399000Y-11328000D02*
X13439000Y-11362000D01*
X13824000Y-5042000D02*
X13754000Y-5052000D01*
X11516000Y-4015000D02*
X11492000Y-3991000D01*
X12526000Y-5880000D02*
X12518000Y-5870000D01*
X6675000Y-7933000D02*
X6661000Y-7985000D01*
X13683000Y-8886000D02*
X13758000Y-8838000D01*
X10259000Y-10706000D02*
X10244500Y-10677000D01*
X8207000Y-10125000D02*
X8012000Y-10238000D01*
X11464000Y-5305000D02*
X11451000Y-5211000D01*
X7949000Y-5187000D02*
X7896000Y-5211000D01*
X10686000Y-5262000D02*
X10688000Y-5350000D01*
X8234000Y-7650000D02*
X8106000Y-7630000D01*
X13506000Y-7238000D02*
X13478000Y-7165000D01*
X12216000Y-11221000D02*
X12237000Y-11217000D01*
X14436000Y-5844000D02*
X14451000Y-5798000D01*
X12076000Y-5244000D02*
X12034000Y-5261000D01*
X8552000Y-8870000D02*
X8576000Y-8908000D01*
X11179000Y-7856000D02*
X11214000Y-7877000D01*
X10247500Y-10637000D02*
X10259000Y-10598000D01*
X15401000Y-8478000D02*
X15434000Y-8424000D01*
X8662000Y-11227000D02*
X8699000Y-11187000D01*
X10015000Y-11183000D02*
X10059000Y-11169000D01*
X14436000Y-5435000D02*
X14416000Y-5388000D01*
X10475000Y-4464000D02*
X10480000Y-4517000D01*
X13287000Y-11186000D02*
X13298000Y-11208000D01*
X11910000Y-5358000D02*
X11889000Y-5385000D01*
X8509000Y-5245000D02*
X8459000Y-5214000D01*
X10724000Y-8207000D02*
X10718000Y-8172000D01*
X10271000Y-10935000D02*
X10277000Y-10900000D01*
X8760000Y-11106000D02*
X8800000Y-11052000D01*
X11876000Y-10690000D02*
X11861000Y-10716000D01*
X11726000Y-5575000D02*
X11700000Y-5577000D01*
X12469000Y-5370000D02*
X12452000Y-5349000D01*
X14192000Y-10428000D02*
X14148000Y-10394000D01*
X6812000Y-7689000D02*
X6776000Y-7730000D01*
X12429000Y-5326000D02*
X12389000Y-5300000D01*
X10476000Y-4363000D02*
X10474000Y-4400000D01*
X11264000Y-8345000D02*
X11247000Y-8361000D01*
X13579000Y-6593000D02*
X14093000Y-6207000D01*
X9624000Y-10475000D02*
X9637000Y-10492000D01*
X7656000Y-10933000D02*
X7676000Y-10995000D01*
X14467000Y-5564000D02*
X14460000Y-5523000D01*
X14403000Y-10820000D02*
X14396000Y-10770000D01*
X12535000Y-5522000D02*
X12521000Y-5467000D01*
X13804000Y-8804000D02*
X13904000Y-8730000D01*
X13468000Y-9391000D02*
X13474000Y-9320000D01*
X8545000Y-9909000D02*
X8515000Y-9944000D01*
X7873000Y-6263000D02*
X7925000Y-6289000D01*
X10491000Y-4566000D02*
X10502000Y-4603000D01*
X14085000Y-8610000D02*
X14419000Y-8663000D01*
X8506000Y-8773000D02*
X8517000Y-8795000D01*
X8358000Y-11388000D02*
X8400000Y-11377000D01*
X8641000Y-5365000D02*
X8603000Y-5322000D01*
X7578000Y-5672000D02*
X7573000Y-5734000D01*
X7812000Y-11218000D02*
X7842000Y-11251000D01*
X9600000Y-10696000D02*
X9592000Y-10720000D01*
X12347000Y-5273000D02*
X12287000Y-5241000D01*
X8239000Y-8650000D02*
X8284000Y-8650000D01*
X10668000Y-5084000D02*
X10677000Y-5112000D01*
X7613000Y-5953000D02*
X7631000Y-5999000D01*
X13563000Y-9887000D02*
X13541000Y-9843000D01*
X13437000Y-6931000D02*
X13438000Y-6870000D01*
X9872000Y-5233000D02*
X9823000Y-5246000D01*
X14324000Y-6036000D02*
X14356000Y-5996000D01*
X8289000Y-10075000D02*
X8207000Y-10125000D01*
X14306000Y-11222000D02*
X14335000Y-11173000D01*
X10746000Y-3917000D02*
X10710000Y-3944000D01*
X7707000Y-10526000D02*
X7675000Y-10598000D01*
X9584000Y-5481000D02*
X9574000Y-5523000D01*
X9572000Y-10809000D02*
X9571000Y-10863000D01*
X9529000Y-5987000D02*
X9497000Y-6014000D01*
X12992000Y-10483000D02*
X13006000Y-10490000D01*
X8067000Y-11374000D02*
X8106000Y-11382000D01*
X9494000Y-10374000D02*
X9522000Y-10382000D01*
X9522000Y-10382000D02*
X9545000Y-10400000D01*
X15505000Y-8137000D02*
X15504000Y-8074000D01*
X8288000Y-7654000D02*
X8266000Y-7655000D01*
X12880000Y-10454000D02*
X12935000Y-10464000D01*
X11860000Y-10581000D02*
X11866000Y-10602000D01*
X14203000Y-5141000D02*
X14125000Y-5097000D01*
X8409000Y-5191000D02*
X8348000Y-5169000D01*
X10730000Y-8227000D02*
X10724000Y-8207000D01*
X7817000Y-6226000D02*
X7873000Y-6263000D01*
X13496000Y-9697000D02*
X13484000Y-9636000D01*
X11146000Y-3824000D02*
X11085000Y-3819000D01*
X9808000Y-11176000D02*
X9849000Y-11188000D01*
X11325000Y-8246000D02*
X11306000Y-8285000D01*
X12518000Y-5870000D02*
X12516000Y-5855000D01*
X12795000Y-5926000D02*
X12740000Y-5937000D01*
X14408000Y-10873000D02*
X14403000Y-10820000D01*
X13366000Y-5313000D02*
X13198000Y-5533000D01*
X14129000Y-11395000D02*
X14178000Y-11360000D01*
X11871000Y-11035000D02*
X11893000Y-11071000D01*
X7195000Y-7498000D02*
X7134000Y-7506000D01*
X12519000Y-5705000D02*
X12525000Y-5687000D01*
X10513000Y-4633000D02*
X10538000Y-4696000D01*
X9226000Y-5997000D02*
X9203000Y-5986000D01*
X15277000Y-8612000D02*
X15306000Y-8586000D01*
X13269000Y-11151000D02*
X13287000Y-11186000D01*
X13434000Y-7033000D02*
X13435000Y-7005000D01*
X8723000Y-6857000D02*
X8726000Y-6897000D01*
X11606000Y-4699000D02*
X11620000Y-4669000D01*
X14014000Y-5059000D02*
X13939000Y-5045000D01*
X8168000Y-8639000D02*
X8225000Y-8647000D01*
X6722000Y-7814000D02*
X6699000Y-7862000D01*
X13484000Y-5183000D02*
X13434000Y-5230000D01*
X8470000Y-9969000D02*
X8289000Y-10075000D01*
X7842000Y-11251000D02*
X7886000Y-11283000D01*
X7640000Y-10763000D02*
X7642000Y-10795000D01*
X13484000Y-9636000D02*
X13471000Y-9566000D01*
X12552000Y-5913000D02*
X12542000Y-5901000D01*
X7073000Y-8669000D02*
X7112000Y-8680000D01*
X10266000Y-10733000D02*
X10259000Y-10706000D01*
X14128000Y-6184000D02*
X14194000Y-6148000D01*
X7709000Y-5362000D02*
X7689000Y-5384000D01*
X12540000Y-10854000D02*
X12596000Y-10686000D01*
X14089000Y-11418000D02*
X14129000Y-11395000D01*
X11346000Y-8134000D02*
X11344000Y-8169000D01*
X11297000Y-7964000D02*
X11319000Y-8007000D01*
X12630000Y-5946000D02*
X12589000Y-5931000D01*
X7399000Y-8685000D02*
X7747000Y-8655000D01*
X12527000Y-10964000D02*
X12538000Y-10908000D01*
X13480000Y-6744000D02*
X13494000Y-6702000D01*
X14008000Y-7729000D02*
X13988000Y-7731000D01*
X8122000Y-8631000D02*
X8168000Y-8639000D01*
X8719000Y-7128000D02*
X8681000Y-7211000D01*
X14795000Y-7557000D02*
X14734000Y-7571000D01*
X10861000Y-8398000D02*
X10827000Y-8374000D01*
X10283000Y-10859000D02*
X10281000Y-10809000D01*
X10330000Y-10455000D02*
X10899000Y-9520000D01*
X7863000Y-5229000D02*
X7839000Y-5246000D01*
X9940000Y-5228000D02*
X9898000Y-5228000D01*
X13885000Y-7724000D02*
X13873000Y-7712000D01*
X9669000Y-5339000D02*
X9629000Y-5389000D01*
X13576000Y-7350000D02*
X13519000Y-7263000D01*
X8724000Y-11156000D02*
X8760000Y-11106000D01*
X14275000Y-6085000D02*
X14288000Y-6074000D01*
X11855000Y-5431000D02*
X11806000Y-5491000D01*
X13310000Y-11226000D02*
X13332000Y-11255000D01*
X10243000Y-11001000D02*
X10257000Y-10969000D01*
X9637000Y-10492000D02*
X9642000Y-10512000D01*
X8235000Y-11399000D02*
X8263000Y-11399000D01*
X11504000Y-5478000D02*
X11468000Y-5329000D01*
X8740000Y-9638000D02*
X8580000Y-9856000D01*
X8015000Y-7616000D02*
X7961000Y-7607000D01*
X13587000Y-11447000D02*
X13660000Y-11471000D01*
X9308000Y-6040000D02*
X9294000Y-6032000D01*
X11833000Y-10915000D02*
X11839000Y-10951000D01*
X10163000Y-11105000D02*
X10196000Y-11072000D01*
X11604000Y-4141000D02*
X11581000Y-4101000D01*
X10202000Y-5357000D02*
X10178000Y-5331000D01*
X13474000Y-9320000D02*
X13480000Y-9261000D01*
X14293000Y-5216000D02*
X14230000Y-5162000D01*
X10247000Y-5431000D02*
X10227000Y-5392000D01*
X12389000Y-5300000D02*
X12347000Y-5273000D01*
X13529000Y-9811000D02*
X13516000Y-9771000D01*
X8009000Y-5166000D02*
X7949000Y-5187000D01*
X12415000Y-11133000D02*
X12450000Y-11104000D01*
X9569000Y-5859000D02*
X9558000Y-5910000D01*
X10680000Y-5129000D02*
X10681000Y-5166000D01*
X8459000Y-5214000D02*
X8409000Y-5191000D01*
X12532000Y-5653000D02*
X12540000Y-5598000D01*
X12564000Y-5923000D02*
X12552000Y-5913000D01*
X10606000Y-4044000D02*
X10582000Y-4073000D01*
X15043000Y-8723000D02*
X15136000Y-8693000D01*
X10578000Y-4813000D02*
X10598000Y-4878000D01*
X14472000Y-5621000D02*
X14467000Y-5564000D01*
X6673000Y-8256000D02*
X6701000Y-8333000D01*
X14996000Y-7544000D02*
X14936000Y-7538000D01*
X7743000Y-10458000D02*
X7707000Y-10526000D01*
X12521000Y-5467000D02*
X12514000Y-5448000D01*
X11866000Y-10602000D02*
X11874000Y-10640000D01*
X8315000Y-7636000D02*
X8288000Y-7654000D01*
X13594000Y-5107000D02*
X13552000Y-5134000D01*
X11085000Y-3819000D02*
X11017000Y-3818000D01*
X13249000Y-11107000D02*
X13269000Y-11151000D01*
X10900000Y-8419000D02*
X10861000Y-8398000D01*
X9613000Y-11008000D02*
X9631000Y-11036000D01*
X11275000Y-3857000D02*
X11243000Y-3845000D01*
X14852000Y-7543000D02*
X14795000Y-7557000D01*
X8218000Y-5145000D02*
X8136000Y-5143000D01*
X10506000Y-5679000D02*
X10452000Y-5681000D01*
X9952000Y-11194000D02*
X10015000Y-11183000D01*
X8552000Y-11311000D02*
X8594000Y-11285000D01*
X13729000Y-11484000D02*
X13799000Y-11488000D01*
X11557000Y-5554000D02*
X11548000Y-5540000D01*
X10718000Y-8172000D02*
X10717000Y-8120000D01*
X13225000Y-11032000D02*
X13241000Y-11082000D01*
X6657000Y-8181000D02*
X6673000Y-8256000D01*
X9052000Y-5827000D02*
X8779000Y-5536000D01*
X13519000Y-7263000D02*
X13506000Y-7238000D01*
X9603000Y-5438000D02*
X9584000Y-5481000D01*
X14066000Y-8611000D02*
X14074000Y-8608000D01*
X12076000Y-11206000D02*
X12107000Y-11214000D01*
X10281000Y-5571000D02*
X10279000Y-5542000D01*
X10277000Y-10900000D02*
X10283000Y-10859000D01*
X7573000Y-5734000D02*
X7576000Y-5801000D01*
X8699000Y-11187000D02*
X8724000Y-11156000D01*
X12107000Y-11214000D02*
X12155000Y-11222000D01*
X15459000Y-7902000D02*
X15422000Y-7832000D01*
X7599000Y-5914000D02*
X7613000Y-5953000D01*
X14074000Y-8608000D02*
X14085000Y-8610000D01*
X9425000Y-10363000D02*
X9450000Y-10367000D01*
X10681000Y-5166000D02*
X10686000Y-5262000D01*
X10555000Y-4745000D02*
X10578000Y-4813000D01*
X10538000Y-4696000D02*
X10555000Y-4745000D01*
X12450000Y-11104000D02*
X12468000Y-11081000D01*
X12014000Y-11180000D02*
X12076000Y-11206000D01*
X7978000Y-6327000D02*
X8230000Y-6482000D01*
X9977000Y-5232000D02*
X9940000Y-5228000D01*
X14379000Y-5321000D02*
X14328000Y-5254000D01*
X11829000Y-10885000D02*
X11833000Y-10915000D01*
X12349000Y-11174000D02*
X12415000Y-11133000D01*
X11142000Y-7838000D02*
X11179000Y-7856000D01*
X12181000Y-5227000D02*
X12126000Y-5232000D01*
X14419000Y-8663000D02*
X14686000Y-8703000D01*
X8106000Y-11382000D02*
X8136000Y-11389000D01*
X9044000Y-10715000D02*
X9113000Y-10618000D01*
X10653000Y-5041000D02*
X10668000Y-5084000D01*
X6658000Y-8014000D02*
X6656000Y-8043000D01*
X9571000Y-10863000D02*
X9575000Y-10898000D01*
X13626000Y-7414000D02*
X13607000Y-7391000D01*
X15181000Y-7605000D02*
X15122000Y-7578000D01*
X14230000Y-5162000D02*
X14203000Y-5141000D01*
X15360000Y-8532000D02*
X15401000Y-8478000D01*
X12034000Y-5261000D02*
X12001000Y-5278000D01*
X7633000Y-5482000D02*
X7604000Y-5559000D01*
D11*
X6913277Y-11801984D02*
X6913277Y-11601984D01*
X6913277Y-11601984D02*
X6960896Y-11601984D01*
X6960896Y-11601984D02*
X6989467Y-11611508D01*
X6989467Y-11611508D02*
X7008515Y-11630555D01*
X7008515Y-11630555D02*
X7018039Y-11649603D01*
X7018039Y-11649603D02*
X7027562Y-11687698D01*
X7027562Y-11687698D02*
X7027562Y-11716269D01*
X7027562Y-11716269D02*
X7018039Y-11754365D01*
X7018039Y-11754365D02*
X7008515Y-11773412D01*
X7008515Y-11773412D02*
X6989467Y-11792460D01*
X6989467Y-11792460D02*
X6960896Y-11801984D01*
X6960896Y-11801984D02*
X6913277Y-11801984D01*
X7113277Y-11801984D02*
X7113277Y-11668650D01*
X7113277Y-11706746D02*
X7122801Y-11687698D01*
X7122801Y-11687698D02*
X7132324Y-11678174D01*
X7132324Y-11678174D02*
X7151372Y-11668650D01*
X7151372Y-11668650D02*
X7170420Y-11668650D01*
X7237086Y-11801984D02*
X7237086Y-11668650D01*
X7237086Y-11601984D02*
X7227562Y-11611508D01*
X7227562Y-11611508D02*
X7237086Y-11621031D01*
X7237086Y-11621031D02*
X7246610Y-11611508D01*
X7246610Y-11611508D02*
X7237086Y-11601984D01*
X7237086Y-11601984D02*
X7237086Y-11621031D01*
X7360896Y-11801984D02*
X7341848Y-11792460D01*
X7341848Y-11792460D02*
X7332324Y-11773412D01*
X7332324Y-11773412D02*
X7332324Y-11601984D01*
X7465658Y-11801984D02*
X7446610Y-11792460D01*
X7446610Y-11792460D02*
X7437086Y-11773412D01*
X7437086Y-11773412D02*
X7437086Y-11601984D01*
X7694229Y-11801984D02*
X7694229Y-11601984D01*
X7694229Y-11601984D02*
X7760896Y-11744841D01*
X7760896Y-11744841D02*
X7827562Y-11601984D01*
X7827562Y-11601984D02*
X7827562Y-11801984D01*
X8008515Y-11801984D02*
X8008515Y-11697222D01*
X8008515Y-11697222D02*
X7998991Y-11678174D01*
X7998991Y-11678174D02*
X7979943Y-11668650D01*
X7979943Y-11668650D02*
X7941848Y-11668650D01*
X7941848Y-11668650D02*
X7922801Y-11678174D01*
X8008515Y-11792460D02*
X7989467Y-11801984D01*
X7989467Y-11801984D02*
X7941848Y-11801984D01*
X7941848Y-11801984D02*
X7922801Y-11792460D01*
X7922801Y-11792460D02*
X7913277Y-11773412D01*
X7913277Y-11773412D02*
X7913277Y-11754365D01*
X7913277Y-11754365D02*
X7922801Y-11735317D01*
X7922801Y-11735317D02*
X7941848Y-11725793D01*
X7941848Y-11725793D02*
X7989467Y-11725793D01*
X7989467Y-11725793D02*
X8008515Y-11716269D01*
X8103753Y-11668650D02*
X8103753Y-11868650D01*
X8103753Y-11678174D02*
X8122801Y-11668650D01*
X8122801Y-11668650D02*
X8160896Y-11668650D01*
X8160896Y-11668650D02*
X8179943Y-11678174D01*
X8179943Y-11678174D02*
X8189467Y-11687698D01*
X8189467Y-11687698D02*
X8198991Y-11706746D01*
X8198991Y-11706746D02*
X8198991Y-11763888D01*
X8198991Y-11763888D02*
X8189467Y-11782936D01*
X8189467Y-11782936D02*
X8179943Y-11792460D01*
X8179943Y-11792460D02*
X8160896Y-11801984D01*
X8160896Y-11801984D02*
X8122801Y-11801984D01*
X8122801Y-11801984D02*
X8103753Y-11792460D01*
X8284705Y-11782936D02*
X8294229Y-11792460D01*
X8294229Y-11792460D02*
X8284705Y-11801984D01*
X8284705Y-11801984D02*
X8275182Y-11792460D01*
X8275182Y-11792460D02*
X8284705Y-11782936D01*
X8284705Y-11782936D02*
X8284705Y-11801984D01*
X8284705Y-11678174D02*
X8294229Y-11687698D01*
X8294229Y-11687698D02*
X8284705Y-11697222D01*
X8284705Y-11697222D02*
X8275182Y-11687698D01*
X8275182Y-11687698D02*
X8284705Y-11678174D01*
X8284705Y-11678174D02*
X8284705Y-11697222D01*
M02*
