%TF.GenerationSoftware,KiCad,Pcbnew,8.0.4*%
%TF.CreationDate,2024-10-01T08:30:58+02:00*%
%TF.ProjectId,Rp2040_Tastatur,52703230-3430-45f5-9461-737461747572,rev?*%
%TF.SameCoordinates,Original*%
%TF.FileFunction,Copper,L2,Bot*%
%TF.FilePolarity,Positive*%
%FSLAX46Y46*%
G04 Gerber Fmt 4.6, Leading zero omitted, Abs format (unit mm)*
G04 Created by KiCad (PCBNEW 8.0.4) date 2024-10-01 08:30:58*
%MOMM*%
%LPD*%
G01*
G04 APERTURE LIST*
G04 Aperture macros list*
%AMHorizOval*
0 Thick line with rounded ends*
0 $1 width*
0 $2 $3 position (X,Y) of the first rounded end (center of the circle)*
0 $4 $5 position (X,Y) of the second rounded end (center of the circle)*
0 Add line between two ends*
20,1,$1,$2,$3,$4,$5,0*
0 Add two circle primitives to create the rounded ends*
1,1,$1,$2,$3*
1,1,$1,$4,$5*%
%AMFreePoly0*
4,1,58,0.958779,3.605902,0.995106,3.555902,0.998387,3.542889,1.048231,3.268747,1.122847,2.895666,1.169948,2.683709,1.287472,2.448661,1.484876,2.127881,1.639369,1.883263,1.822422,1.711368,2.022542,1.469463,2.190767,1.204384,2.324441,0.920311,2.421458,0.621725,2.480287,0.313333,2.500000,0.000000,2.480287,-0.313333,2.421458,-0.621725,2.324441,-0.920311,2.190768,-1.204384,
2.022542,-1.469462,1.822422,-1.711368,1.593560,-1.926283,1.339567,-2.110820,1.064448,-2.262068,0.772542,-2.377641,0.468453,-2.455718,0.156976,-2.495067,-0.156976,-2.495067,-0.468453,-2.455718,-0.772542,-2.377641,-1.064448,-2.262068,-1.339567,-2.110819,-1.593560,-1.926283,-1.822422,-1.711368,-2.022542,-1.469463,-2.190767,-1.204384,-2.324441,-0.920311,-2.421458,-0.621725,-2.480287,-0.313333,
-2.500000,0.000000,-2.480287,0.313333,-2.421458,0.621725,-2.324441,0.920311,-2.190768,1.204384,-2.022542,1.469462,-1.876003,1.646598,-1.590044,2.218519,-1.419948,2.583010,-1.197308,3.523047,-1.165177,3.575841,-1.108151,3.599667,-1.100000,3.600000,-0.602075,3.600000,-0.004163,3.624913,0.000000,3.625000,0.900000,3.625000,0.958779,3.605902,0.958779,3.605902,$1*%
%AMFreePoly1*
4,1,58,0.468453,2.455718,0.772542,2.377641,1.064448,2.262068,1.339567,2.110820,1.593560,1.926283,1.822422,1.711368,2.022542,1.469463,2.190767,1.204384,2.324441,0.920311,2.421457,0.621725,2.480287,0.313333,2.500000,0.000000,2.480287,-0.313333,2.421457,-0.621725,2.324441,-0.920311,2.190767,-1.204384,2.022542,-1.469463,1.876003,-1.646598,1.590044,-2.218519,1.419948,-2.583009,
1.197308,-3.523047,1.165177,-3.575841,1.108151,-3.599667,1.100000,-3.600000,0.602075,-3.600000,0.004163,-3.624913,0.000000,-3.625000,-0.900000,-3.625000,-0.958779,-3.605902,-0.995106,-3.555902,-0.998387,-3.542889,-1.048231,-3.268747,-1.122847,-2.895667,-1.169948,-2.683709,-1.287472,-2.448661,-1.484876,-2.127881,-1.639369,-1.883264,-1.822422,-1.711368,-2.022542,-1.469463,-2.190767,-1.204384,
-2.324441,-0.920311,-2.421457,-0.621725,-2.480287,-0.313333,-2.500000,0.000000,-2.480287,0.313333,-2.421457,0.621725,-2.324441,0.920311,-2.190767,1.204384,-2.022542,1.469463,-1.822422,1.711368,-1.593560,1.926283,-1.339567,2.110820,-1.064448,2.262068,-0.772542,2.377641,-0.468453,2.455718,-0.156976,2.495067,0.156976,2.495067,0.468453,2.455718,0.468453,2.455718,$1*%
%AMFreePoly2*
4,1,58,0.004163,3.624913,0.602075,3.600000,1.100000,3.600000,1.158779,3.580902,1.195106,3.530902,1.197308,3.523047,1.419948,2.583009,1.590044,2.218519,1.876003,1.646598,2.022542,1.469463,2.190767,1.204384,2.324441,0.920311,2.421458,0.621725,2.480287,0.313333,2.500000,0.000000,2.480287,-0.313333,2.421458,-0.621725,2.324441,-0.920311,2.190767,-1.204384,2.022542,-1.469463,
1.822422,-1.711368,1.593560,-1.926283,1.339567,-2.110820,1.064448,-2.262068,0.772542,-2.377641,0.468453,-2.455718,0.156976,-2.495067,-0.156976,-2.495067,-0.468453,-2.455718,-0.772542,-2.377641,-1.064448,-2.262068,-1.339567,-2.110820,-1.593560,-1.926283,-1.822422,-1.711368,-2.022542,-1.469463,-2.190767,-1.204384,-2.324441,-0.920311,-2.421458,-0.621725,-2.480287,-0.313333,-2.500000,0.000000,
-2.480287,0.313333,-2.421458,0.621725,-2.324441,0.920311,-2.190767,1.204384,-2.022542,1.469463,-1.822422,1.711368,-1.639369,1.883264,-1.484876,2.127881,-1.287472,2.448661,-1.169948,2.683709,-1.122847,2.895667,-1.048231,3.268747,-0.998387,3.542889,-0.969082,3.597303,-0.913390,3.624099,-0.900000,3.625000,0.000000,3.625000,0.004163,3.624913,0.004163,3.624913,$1*%
%AMFreePoly3*
4,1,58,0.468453,2.455718,0.772542,2.377641,1.064448,2.262068,1.339567,2.110820,1.593560,1.926283,1.822422,1.711368,2.022542,1.469463,2.190767,1.204384,2.324441,0.920311,2.421457,0.621725,2.480287,0.313333,2.500000,0.000000,2.480287,-0.313333,2.421457,-0.621725,2.324441,-0.920311,2.190767,-1.204384,2.022542,-1.469463,1.822422,-1.711368,1.639369,-1.883264,1.484876,-2.127881,
1.287472,-2.448661,1.169948,-2.683709,1.122847,-2.895667,1.048231,-3.268747,0.998387,-3.542889,0.969082,-3.597303,0.913390,-3.624099,0.900000,-3.625000,0.000000,-3.625000,-0.004163,-3.624913,-0.602075,-3.600000,-1.100000,-3.600000,-1.158779,-3.580903,-1.195106,-3.530902,-1.197308,-3.523047,-1.419948,-2.583009,-1.590044,-2.218519,-1.876003,-1.646598,-2.022542,-1.469463,-2.190767,-1.204384,
-2.324441,-0.920311,-2.421457,-0.621725,-2.480287,-0.313333,-2.500000,0.000000,-2.480287,0.313333,-2.421457,0.621725,-2.324441,0.920311,-2.190767,1.204384,-2.022542,1.469463,-1.822422,1.711368,-1.593560,1.926283,-1.339567,2.110820,-1.064448,2.262068,-0.772542,2.377641,-0.468453,2.455718,-0.156976,2.495067,0.156976,2.495067,0.468453,2.455718,0.468453,2.455718,$1*%
G04 Aperture macros list end*
%TA.AperFunction,CastellatedPad*%
%ADD10FreePoly0,202.500000*%
%TD*%
%TA.AperFunction,CastellatedPad*%
%ADD11HorizOval,1.700000X0.459619X0.459619X-0.459619X-0.459619X0*%
%TD*%
%TA.AperFunction,CastellatedPad*%
%ADD12O,1.700000X3.000000*%
%TD*%
%TA.AperFunction,CastellatedPad*%
%ADD13HorizOval,1.700000X-0.459619X0.459619X0.459619X-0.459619X0*%
%TD*%
%TA.AperFunction,CastellatedPad*%
%ADD14FreePoly0,337.500000*%
%TD*%
%TA.AperFunction,CastellatedPad*%
%ADD15O,3.000000X1.700000*%
%TD*%
%TA.AperFunction,CastellatedPad*%
%ADD16FreePoly0,22.500000*%
%TD*%
%TA.AperFunction,CastellatedPad*%
%ADD17FreePoly0,157.500000*%
%TD*%
%TA.AperFunction,CastellatedPad*%
%ADD18C,1.778000*%
%TD*%
%TA.AperFunction,CastellatedPad*%
%ADD19FreePoly1,45.000000*%
%TD*%
%TA.AperFunction,CastellatedPad*%
%ADD20FreePoly2,270.000000*%
%TD*%
%TA.AperFunction,CastellatedPad*%
%ADD21FreePoly2,315.000000*%
%TD*%
%TA.AperFunction,CastellatedPad*%
%ADD22FreePoly0,0.000000*%
%TD*%
%TA.AperFunction,CastellatedPad*%
%ADD23FreePoly0,45.000000*%
%TD*%
%TA.AperFunction,CastellatedPad*%
%ADD24FreePoly0,90.000000*%
%TD*%
%TA.AperFunction,CastellatedPad*%
%ADD25FreePoly3,315.000000*%
%TD*%
%TA.AperFunction,ViaPad*%
%ADD26C,0.600000*%
%TD*%
%TA.AperFunction,Conductor*%
%ADD27C,0.300000*%
%TD*%
G04 APERTURE END LIST*
D10*
%TO.P,GDN_pads1,1,Pin_1*%
%TO.N,GND*%
X122130000Y-108970000D03*
D11*
%TO.P,GDN_pads1,2,Pin_2*%
X135776264Y-107179653D03*
D12*
%TO.P,GDN_pads1,3,Pin_3*%
X146061250Y-81582500D03*
D13*
%TO.P,GDN_pads1,4,Pin_4*%
X136330000Y-58520000D03*
D14*
%TO.P,GDN_pads1,5,Pin_5*%
X122130000Y-55820000D03*
D15*
%TO.P,GDN_pads1,6,Pin_6*%
X110755000Y-47438750D03*
D16*
%TO.P,GDN_pads1,7,Pin_7*%
X99305000Y-55595000D03*
D11*
%TO.P,GDN_pads1,8,Pin_8*%
X84176264Y-59479652D03*
D12*
%TO.P,GDN_pads1,9,Pin_9*%
X75711250Y-81557500D03*
D13*
%TO.P,GDN_pads1,10,Pin_10*%
X84651264Y-106035348D03*
D17*
%TO.P,GDN_pads1,11,Pin_11*%
X99280000Y-108745000D03*
%TD*%
D18*
%TO.P,Conn1,1,Pin_1*%
%TO.N,unconnected-(Conn1-Pin_1-Pad1)*%
X93933250Y-95324664D03*
%TO.P,Conn1,2,Pin_2*%
%TO.N,/D2*%
X95701015Y-97092430D03*
%TO.P,Conn1,3,Pin_3*%
%TO.N,GND*%
X97468783Y-98860197D03*
%TO.P,Conn1,4,Pin_4*%
%TO.N,/D3*%
X124452241Y-98887711D03*
%TO.P,Conn1,5,Pin_5*%
%TO.N,/D4*%
X126220008Y-97119946D03*
%TO.P,Conn1,6,Pin_6*%
%TO.N,/D5*%
X127987774Y-95352178D03*
%TO.P,Conn1,7,Pin_7*%
%TO.N,/D6*%
X132578901Y-84444201D03*
%TO.P,Conn1,8,Pin_8*%
%TO.N,/D7*%
X132578900Y-81844201D03*
%TO.P,Conn1,9,Pin_9*%
%TO.N,/D8*%
X132578901Y-79344202D03*
%TO.P,Conn1,10,Pin_10*%
%TO.N,unconnected-(Conn1-Pin_10-Pad10)_1*%
X128821785Y-69292069D03*
%TO.P,Conn1,11,Pin_11*%
%TO.N,unconnected-(Conn1-Pin_11-Pad11)_1*%
X127054019Y-67524302D03*
%TO.P,Conn1,12,Pin_12*%
%TO.N,+3.3V*%
X125286252Y-65756535D03*
%TO.P,Conn1,13,Pin_13*%
%TO.N,GND*%
X123692142Y-64025933D03*
%TO.P,Conn1,14,Pin_14*%
X113701478Y-60355966D03*
%TO.P,Conn1,15,Pin_15*%
%TO.N,unconnected-(Conn1-Pin_15-Pad15)_1*%
X111101480Y-60355966D03*
%TO.P,Conn1,16,Pin_16*%
%TO.N,unconnected-(Conn1-Pin_16-Pad16)*%
X108601479Y-60355966D03*
%TO.P,Conn1,17,Pin_17*%
%TO.N,unconnected-(Conn1-Pin_17-Pad17)*%
X97530388Y-64838394D03*
%TO.P,Conn1,18,Pin_18*%
%TO.N,unconnected-(Conn1-Pin_18-Pad18)_1*%
X95762622Y-66606160D03*
%TO.P,Conn1,19,Pin_19*%
%TO.N,+3.3V*%
X93994854Y-68373927D03*
%TO.P,Conn1,20,Pin_20*%
%TO.N,unconnected-(Conn1-Pin_20-Pad20)_1*%
X89379999Y-79190000D03*
%TO.P,Conn1,21,Pin_21*%
%TO.N,unconnected-(Conn1-Pin_21-Pad21)*%
X89380000Y-81790000D03*
%TO.P,Conn1,22,Pin_22*%
%TO.N,unconnected-(Conn1-Pin_22-Pad22)*%
X89379999Y-84289999D03*
%TD*%
D19*
%TO.P,TH_externPads1,1,Pin_1*%
%TO.N,/D3*%
X139820000Y-110960000D03*
D20*
%TO.P,TH_externPads1,2,Pin_2*%
%TO.N,/D4*%
X151820000Y-81360000D03*
D21*
%TO.P,TH_externPads1,3,Pin_3*%
%TO.N,/D5*%
X140720000Y-54410000D03*
D22*
%TO.P,TH_externPads1,4,Pin_4*%
%TO.N,/D6*%
X110445000Y-41335000D03*
D23*
%TO.P,TH_externPads1,5,Pin_5*%
%TO.N,/D7*%
X79945000Y-55360000D03*
D24*
%TO.P,TH_externPads1,6,Pin_6*%
%TO.N,/D8*%
X69745000Y-81160000D03*
D25*
%TO.P,TH_externPads1,7,Pin_7*%
%TO.N,/D2*%
X80420000Y-109860000D03*
%TD*%
D26*
%TO.N,/D5*%
X131015000Y-62095000D03*
X128960000Y-92830000D03*
%TO.N,GND*%
X113220000Y-50610000D03*
X133890000Y-56360000D03*
X100620000Y-96570000D03*
X107270000Y-66220000D03*
%TO.N,/D8*%
X127950000Y-87770000D03*
X78070000Y-83160000D03*
%TO.N,/D6*%
X107990000Y-50700000D03*
X129220000Y-78970000D03*
%TO.N,/D7*%
X84580000Y-63530000D03*
X129130000Y-81890000D03*
%TD*%
D27*
%TO.N,/D5*%
X131015000Y-62095000D02*
X133150000Y-64230000D01*
X134360000Y-88310000D02*
X133480000Y-88310000D01*
X133150000Y-68160000D02*
X132870000Y-68440000D01*
X139070000Y-85140000D02*
X136780000Y-87430000D01*
X142010000Y-82330000D02*
X140890000Y-83450000D01*
X139360000Y-85140000D02*
X139070000Y-85140000D01*
X133150000Y-64230000D02*
X133150000Y-68160000D01*
X132870000Y-68440000D02*
X132870000Y-73390000D01*
X142010000Y-80390000D02*
X142010000Y-82330000D01*
X131015000Y-62095000D02*
X131015000Y-61218706D01*
X135240000Y-87430000D02*
X134360000Y-88310000D01*
X140890000Y-83450000D02*
X140890000Y-83610000D01*
X138180000Y-78700000D02*
X140320000Y-78700000D01*
X137823706Y-54410000D02*
X140720000Y-54410000D01*
X140890000Y-83610000D02*
X139360000Y-85140000D01*
X133480000Y-88310000D02*
X128960000Y-92830000D01*
X140320000Y-78700000D02*
X142010000Y-80390000D01*
X131015000Y-61218706D02*
X137823706Y-54410000D01*
X132870000Y-73390000D02*
X138180000Y-78700000D01*
X136780000Y-87430000D02*
X135240000Y-87430000D01*
%TO.N,GND*%
X116850000Y-59610000D02*
X123000000Y-59610000D01*
X99720000Y-101111414D02*
X99720000Y-102670000D01*
X113220000Y-50610000D02*
X113220000Y-55980000D01*
X133600000Y-56360000D02*
X133890000Y-56360000D01*
X99300000Y-103090000D02*
X99300000Y-105530000D01*
X113701478Y-60355966D02*
X113701478Y-56741478D01*
X127060000Y-62180000D02*
X128770000Y-60470000D01*
X99280000Y-105550000D02*
X99280000Y-108745000D01*
X125570000Y-62180000D02*
X127060000Y-62180000D01*
X110755000Y-53795000D02*
X110755000Y-47438750D01*
X119055966Y-60355966D02*
X120500000Y-61800000D01*
X99300000Y-105530000D02*
X99280000Y-105550000D01*
X100620000Y-96570000D02*
X103050000Y-94140000D01*
X99720000Y-102670000D02*
X99300000Y-103090000D01*
X107270000Y-69190000D02*
X107270000Y-66220000D01*
X113220000Y-55980000D02*
X116850000Y-59610000D01*
X103050000Y-73410000D02*
X107270000Y-69190000D01*
X128770000Y-60470000D02*
X129490000Y-60470000D01*
X123000000Y-59610000D02*
X125570000Y-62180000D01*
X121466209Y-61800000D02*
X123692142Y-64025933D01*
X113701478Y-56741478D02*
X110755000Y-53795000D01*
X113701478Y-60355966D02*
X119055966Y-60355966D01*
X103050000Y-94140000D02*
X103050000Y-73410000D01*
X129490000Y-60470000D02*
X133600000Y-56360000D01*
X120500000Y-61800000D02*
X121466209Y-61800000D01*
X97468783Y-98860197D02*
X99720000Y-101111414D01*
%TO.N,/D8*%
X127550000Y-74180000D02*
X127550000Y-87370000D01*
X78070000Y-83160000D02*
X79380000Y-83160000D01*
X79380000Y-83160000D02*
X90890000Y-71650000D01*
X90890000Y-71650000D02*
X95010000Y-71650000D01*
X102070000Y-64590000D02*
X117960000Y-64590000D01*
X127550000Y-87370000D02*
X127950000Y-87770000D01*
X95010000Y-71650000D02*
X102070000Y-64590000D01*
X117960000Y-64590000D02*
X127550000Y-74180000D01*
%TO.N,/D6*%
X107360000Y-62720000D02*
X106320000Y-61680000D01*
X106320000Y-56990000D02*
X108100000Y-55210000D01*
X106320000Y-61680000D02*
X106320000Y-56990000D01*
X108100000Y-55210000D02*
X107990000Y-55100000D01*
X107990000Y-55100000D02*
X107990000Y-50700000D01*
X129460000Y-73450000D02*
X118730000Y-62720000D01*
X129220000Y-78970000D02*
X129460000Y-78730000D01*
X129460000Y-78730000D02*
X129460000Y-73450000D01*
X118730000Y-62720000D02*
X107360000Y-62720000D01*
%TO.N,/D7*%
X128570000Y-73790000D02*
X128570000Y-81330000D01*
X84580000Y-63530000D02*
X118310000Y-63530000D01*
X128570000Y-81330000D02*
X129130000Y-81890000D01*
X118310000Y-63530000D02*
X128570000Y-73790000D01*
%TD*%
%TA.AperFunction,Conductor*%
%TO.N,GND*%
G36*
X112821722Y-39130091D02*
G01*
X112999694Y-39195863D01*
X113013897Y-39202150D01*
X113420029Y-39413339D01*
X113459962Y-39434104D01*
X113467414Y-39438312D01*
X113707956Y-39585310D01*
X113792447Y-39636943D01*
X113798896Y-39641165D01*
X114063285Y-39826237D01*
X114070884Y-39832004D01*
X114317996Y-40034989D01*
X114323533Y-40039819D01*
X114557721Y-40256660D01*
X114571161Y-40269104D01*
X114574595Y-40272409D01*
X114779075Y-40476888D01*
X114789109Y-40488229D01*
X114841922Y-40555830D01*
X115208242Y-41024720D01*
X115253141Y-41082190D01*
X115257878Y-41088677D01*
X115382995Y-41272183D01*
X115388039Y-41280226D01*
X115598813Y-41646790D01*
X115601589Y-41651889D01*
X115765641Y-41970877D01*
X115769084Y-41978143D01*
X115828223Y-42114163D01*
X115848287Y-42160309D01*
X115852733Y-42172154D01*
X115911097Y-42355586D01*
X115911852Y-42358048D01*
X116036267Y-42779145D01*
X116037647Y-42784205D01*
X116100483Y-43035546D01*
X116101890Y-43041874D01*
X116171081Y-43396482D01*
X116173119Y-43412245D01*
X116228632Y-44272682D01*
X116228832Y-44284422D01*
X116220591Y-44556395D01*
X116219736Y-44567650D01*
X116174475Y-44938792D01*
X116173889Y-44942997D01*
X116099479Y-45417363D01*
X116097515Y-45427243D01*
X116037992Y-45673831D01*
X116035971Y-45681201D01*
X115929811Y-46026226D01*
X115926099Y-46036619D01*
X115742413Y-46486650D01*
X115739975Y-46492228D01*
X115620129Y-46749044D01*
X115614112Y-46760369D01*
X115596859Y-46789145D01*
X115592366Y-46804869D01*
X115585509Y-46823228D01*
X115578590Y-46838055D01*
X115572753Y-46871100D01*
X115569873Y-46883593D01*
X115540491Y-46986429D01*
X115539779Y-46988829D01*
X115422063Y-47371408D01*
X115421880Y-47371996D01*
X115134427Y-48289994D01*
X115132952Y-48293830D01*
X115122796Y-48326688D01*
X115112022Y-48361544D01*
X115090978Y-48428751D01*
X115090025Y-48432712D01*
X114602172Y-50011058D01*
X114602045Y-50011467D01*
X114096969Y-51625733D01*
X114094980Y-51631574D01*
X114040497Y-51779455D01*
X114035970Y-51790165D01*
X114020165Y-51823152D01*
X114020163Y-51823157D01*
X114017711Y-51836257D01*
X114012187Y-51856297D01*
X114007579Y-51868804D01*
X114004249Y-51905227D01*
X114002648Y-51916745D01*
X113995921Y-51952685D01*
X113995921Y-51952694D01*
X113996942Y-51965972D01*
X113996792Y-51986766D01*
X113995578Y-52000040D01*
X114001788Y-52036086D01*
X114003223Y-52047628D01*
X114006140Y-52085554D01*
X114005549Y-52110434D01*
X114005191Y-52113293D01*
X114011623Y-52159797D01*
X114012427Y-52167274D01*
X114016027Y-52214080D01*
X114016029Y-52214088D01*
X114016983Y-52216798D01*
X114022850Y-52240986D01*
X114134159Y-53045828D01*
X114134441Y-53059187D01*
X114135198Y-53059162D01*
X114135476Y-53067284D01*
X114144888Y-53123758D01*
X114145406Y-53127153D01*
X114153246Y-53183840D01*
X114155399Y-53191669D01*
X114154668Y-53191869D01*
X114158378Y-53204700D01*
X114176533Y-53313625D01*
X114178182Y-53337070D01*
X114178023Y-53343491D01*
X114178023Y-53343495D01*
X114188221Y-53385703D01*
X114190002Y-53394436D01*
X114197142Y-53437277D01*
X114199802Y-53443123D01*
X114207464Y-53465347D01*
X114536178Y-54825864D01*
X114536272Y-54826398D01*
X114541849Y-54849431D01*
X114549084Y-54879315D01*
X114553316Y-54896791D01*
X114553323Y-54896850D01*
X114553330Y-54896849D01*
X114553330Y-54896850D01*
X114568973Y-54961593D01*
X114568973Y-54961594D01*
X114568975Y-54961599D01*
X114569038Y-54961763D01*
X114569054Y-54961805D01*
X114569060Y-54961816D01*
X114569061Y-54961819D01*
X114600050Y-55018634D01*
X114600065Y-55018691D01*
X114600078Y-55018685D01*
X114635685Y-55084040D01*
X114635982Y-55084510D01*
X114642526Y-55096507D01*
X114648888Y-55110056D01*
X114659286Y-55136199D01*
X114659287Y-55136201D01*
X114659288Y-55136202D01*
X114662873Y-55141014D01*
X114672310Y-55153679D01*
X114681730Y-55168381D01*
X114692166Y-55187512D01*
X114711570Y-55207881D01*
X114721219Y-55219320D01*
X114732295Y-55234186D01*
X114754347Y-55283435D01*
X114767711Y-55348803D01*
X114770000Y-55360000D01*
X114835909Y-55416818D01*
X114916354Y-55486168D01*
X114934822Y-55505999D01*
X115065772Y-55681746D01*
X115070645Y-55688780D01*
X115127061Y-55776538D01*
X115134856Y-55790589D01*
X115145689Y-55813501D01*
X115161585Y-55832241D01*
X115171328Y-55845398D01*
X115184620Y-55866075D01*
X115195772Y-55876209D01*
X115203376Y-55883120D01*
X115214536Y-55894668D01*
X115230935Y-55914001D01*
X115231812Y-55914608D01*
X115251143Y-55927992D01*
X115263955Y-55938175D01*
X115282149Y-55954710D01*
X115304671Y-55966316D01*
X115318451Y-55974589D01*
X115358156Y-56002077D01*
X115370117Y-56012484D01*
X115370250Y-56012326D01*
X115376494Y-56017538D01*
X115376495Y-56017539D01*
X115417975Y-56043816D01*
X115421358Y-56045959D01*
X115425583Y-56048758D01*
X115469284Y-56079013D01*
X115476516Y-56082729D01*
X115476422Y-56082911D01*
X115480365Y-56084836D01*
X115480452Y-56084649D01*
X115487818Y-56088061D01*
X115487821Y-56088063D01*
X115538537Y-56103911D01*
X115543305Y-56105509D01*
X115593361Y-56123427D01*
X115593362Y-56123427D01*
X115601307Y-56125144D01*
X115601263Y-56125346D01*
X115616828Y-56128377D01*
X115966014Y-56237498D01*
X115981372Y-56244192D01*
X115981380Y-56244175D01*
X115988901Y-56247251D01*
X115988903Y-56247251D01*
X115988904Y-56247252D01*
X116038891Y-56260406D01*
X116044285Y-56261957D01*
X116093606Y-56277371D01*
X116093608Y-56277371D01*
X116093611Y-56277372D01*
X116101614Y-56278763D01*
X116101610Y-56278781D01*
X116118172Y-56281270D01*
X116190768Y-56300373D01*
X116210740Y-56307506D01*
X116221902Y-56312607D01*
X116259009Y-56318855D01*
X116269962Y-56321214D01*
X116275397Y-56322644D01*
X116306349Y-56330790D01*
X116318616Y-56330734D01*
X116339760Y-56332455D01*
X116351857Y-56334493D01*
X116389329Y-56330923D01*
X116400488Y-56330368D01*
X116438132Y-56330200D01*
X116438135Y-56330199D01*
X116438137Y-56330199D01*
X116449965Y-56326973D01*
X116470834Y-56323161D01*
X116618032Y-56309142D01*
X116653876Y-56310948D01*
X116750000Y-56330000D01*
X116845925Y-56292276D01*
X116879530Y-56284237D01*
X117041860Y-56268777D01*
X117043928Y-56268599D01*
X117247296Y-56252955D01*
X117267571Y-56253058D01*
X117282169Y-56254332D01*
X117316888Y-56248198D01*
X117328936Y-56246674D01*
X117364084Y-56243972D01*
X117377910Y-56239103D01*
X117397525Y-56233955D01*
X117411944Y-56231409D01*
X117443893Y-56216498D01*
X117455123Y-56211915D01*
X117488388Y-56200202D01*
X117500474Y-56191925D01*
X117518094Y-56181872D01*
X117596018Y-56145507D01*
X117606383Y-56141229D01*
X117641773Y-56128468D01*
X117651851Y-56121454D01*
X117670242Y-56110870D01*
X117671577Y-56110246D01*
X117681364Y-56105680D01*
X117710172Y-56081490D01*
X117719064Y-56074686D01*
X117749948Y-56053199D01*
X117757869Y-56043814D01*
X117772886Y-56028836D01*
X117782292Y-56020941D01*
X117803852Y-55990128D01*
X117810693Y-55981238D01*
X118054946Y-55691892D01*
X118394986Y-55289074D01*
X118404768Y-55278752D01*
X118405964Y-55277625D01*
X118405974Y-55277619D01*
X118444496Y-55230447D01*
X118445689Y-55229012D01*
X118484955Y-55182498D01*
X118484958Y-55182489D01*
X118485853Y-55181096D01*
X118494191Y-55169596D01*
X118612811Y-55024347D01*
X118617074Y-55019407D01*
X118990000Y-54610000D01*
X119112666Y-54446445D01*
X119123035Y-54434331D01*
X119154494Y-54402037D01*
X119154495Y-54402034D01*
X119154650Y-54401876D01*
X119155839Y-54400247D01*
X119156680Y-54399107D01*
X119157773Y-54397643D01*
X119157874Y-54397458D01*
X119176138Y-54363961D01*
X119185794Y-54348940D01*
X119336833Y-54147554D01*
X119392802Y-54105736D01*
X119462498Y-54100815D01*
X119523791Y-54134355D01*
X119557221Y-54195708D01*
X119552174Y-54265395D01*
X119539674Y-54290032D01*
X119532049Y-54301639D01*
X119532041Y-54301653D01*
X119500633Y-54356717D01*
X119500616Y-54356749D01*
X119362227Y-54639236D01*
X119337963Y-54697812D01*
X119337962Y-54697817D01*
X119236060Y-54995449D01*
X119219329Y-55056608D01*
X119155539Y-55364637D01*
X119155536Y-55364657D01*
X119146604Y-55427417D01*
X119121923Y-55741022D01*
X119120927Y-55804457D01*
X119135744Y-56118650D01*
X119135745Y-56118665D01*
X119142703Y-56181685D01*
X119142705Y-56181699D01*
X119196789Y-56491592D01*
X119211594Y-56553259D01*
X119211599Y-56553276D01*
X119267528Y-56735075D01*
X120664582Y-56156396D01*
X120666935Y-56171251D01*
X120739896Y-56395800D01*
X120847085Y-56606171D01*
X120855923Y-56618336D01*
X119455300Y-57198495D01*
X119455955Y-57199946D01*
X119485640Y-57256010D01*
X119649989Y-57524204D01*
X119686469Y-57576109D01*
X119883149Y-57821606D01*
X119925831Y-57868512D01*
X119925838Y-57868519D01*
X120151731Y-58087424D01*
X120199953Y-58128610D01*
X120451516Y-58317490D01*
X120504527Y-58352312D01*
X120777754Y-58508158D01*
X120777784Y-58508174D01*
X120834709Y-58536060D01*
X120834746Y-58536077D01*
X121125332Y-58656440D01*
X121125377Y-58656457D01*
X121185353Y-58676992D01*
X121488768Y-58759997D01*
X121550870Y-58772858D01*
X121862313Y-58817182D01*
X121925525Y-58822158D01*
X122240073Y-58827099D01*
X122240088Y-58827099D01*
X122303388Y-58824114D01*
X122303421Y-58824111D01*
X122616093Y-58789592D01*
X122678566Y-58778689D01*
X122984448Y-58705252D01*
X122984454Y-58705251D01*
X123045038Y-58686612D01*
X123045075Y-58686599D01*
X123046553Y-58686041D01*
X122466396Y-57285417D01*
X122481251Y-57283065D01*
X122705800Y-57210104D01*
X122916171Y-57102915D01*
X122928337Y-57094075D01*
X123507016Y-58491129D01*
X123675130Y-58402118D01*
X123729211Y-58368976D01*
X123986583Y-58188091D01*
X123986599Y-58188079D01*
X124036052Y-58148459D01*
X124036081Y-58148435D01*
X124268720Y-57936751D01*
X124268759Y-57936713D01*
X124312854Y-57891211D01*
X124312860Y-57891204D01*
X124336048Y-57864055D01*
X124394554Y-57825862D01*
X124464422Y-57825362D01*
X124523469Y-57862715D01*
X124552948Y-57926062D01*
X124551147Y-57972541D01*
X124480000Y-58280000D01*
X124480000Y-58280001D01*
X124658836Y-58631398D01*
X124671237Y-58671252D01*
X124674157Y-58693152D01*
X124675219Y-58707010D01*
X124675284Y-58710216D01*
X124684329Y-58769603D01*
X124684655Y-58771885D01*
X124692597Y-58831456D01*
X124693434Y-58834558D01*
X124693514Y-58834940D01*
X124694106Y-58837053D01*
X124694232Y-58837411D01*
X124695127Y-58840501D01*
X124719234Y-58895522D01*
X124720134Y-58897629D01*
X124743231Y-58953131D01*
X124743232Y-58953133D01*
X124743233Y-58953134D01*
X124744838Y-58955904D01*
X124745006Y-58956236D01*
X124746130Y-58958135D01*
X124746141Y-58958155D01*
X124746361Y-58958476D01*
X124748008Y-58961200D01*
X124748012Y-58961205D01*
X124748013Y-58961207D01*
X124767787Y-58985925D01*
X124785561Y-59008143D01*
X124786952Y-59009915D01*
X124823629Y-59057549D01*
X124823633Y-59057552D01*
X124825881Y-59059793D01*
X124835171Y-59070156D01*
X124864568Y-59106903D01*
X124866373Y-59109215D01*
X124966912Y-59241173D01*
X124978789Y-59260079D01*
X125049998Y-59399998D01*
X125049999Y-59399998D01*
X125050000Y-59400000D01*
X125072892Y-59407420D01*
X125130593Y-59446814D01*
X125135986Y-59453905D01*
X125148968Y-59472312D01*
X125155975Y-59478151D01*
X125171848Y-59494024D01*
X125177688Y-59501032D01*
X125210998Y-59524525D01*
X125218884Y-59530575D01*
X125286301Y-59586755D01*
X125298692Y-59598629D01*
X125313860Y-59615325D01*
X125336879Y-59630128D01*
X125349181Y-59639156D01*
X125370207Y-59656678D01*
X125388788Y-59665265D01*
X125390684Y-59666142D01*
X125405734Y-59674407D01*
X125424705Y-59686607D01*
X125450762Y-59694945D01*
X125464997Y-59700488D01*
X125489828Y-59711965D01*
X125489829Y-59711965D01*
X125489833Y-59711967D01*
X125505704Y-59714710D01*
X125512061Y-59715809D01*
X125528733Y-59719896D01*
X125559824Y-59729845D01*
X125725308Y-59782799D01*
X125730052Y-59784426D01*
X126072336Y-59909652D01*
X126093486Y-59919748D01*
X126099145Y-59923141D01*
X126140757Y-59935030D01*
X126149290Y-59937805D01*
X126189919Y-59952670D01*
X126196477Y-59953254D01*
X126219518Y-59957533D01*
X126258706Y-59968729D01*
X126275633Y-59974929D01*
X126294180Y-59983300D01*
X126323366Y-59988073D01*
X126337415Y-59991218D01*
X126343679Y-59993007D01*
X126365859Y-59999345D01*
X126386198Y-59999680D01*
X126404164Y-60001289D01*
X126424237Y-60004573D01*
X126453675Y-60001628D01*
X126468057Y-60001031D01*
X126497625Y-60001519D01*
X126497629Y-60001518D01*
X126497630Y-60001518D01*
X126517347Y-59996582D01*
X126535119Y-59993484D01*
X126616347Y-59985361D01*
X126620135Y-59985226D01*
X126668078Y-59980265D01*
X126690419Y-59977954D01*
X126755367Y-59971460D01*
X126755370Y-59971458D01*
X126761219Y-59970874D01*
X126764955Y-59970243D01*
X126917224Y-59954492D01*
X126942752Y-59954494D01*
X126942995Y-59954518D01*
X126944010Y-59954624D01*
X126991933Y-59946955D01*
X126998753Y-59946058D01*
X127047044Y-59941063D01*
X127048223Y-59940612D01*
X127072877Y-59934005D01*
X127186278Y-59915860D01*
X127199810Y-59914452D01*
X127204690Y-59914212D01*
X127204703Y-59914214D01*
X127263048Y-59903605D01*
X127265589Y-59903171D01*
X127324139Y-59893804D01*
X127324150Y-59893798D01*
X127328840Y-59892402D01*
X127342074Y-59889236D01*
X127417115Y-59875592D01*
X127431070Y-59873867D01*
X127433536Y-59873702D01*
X127433544Y-59873703D01*
X127492782Y-59861854D01*
X127494897Y-59861451D01*
X127554362Y-59850640D01*
X127554374Y-59850634D01*
X127556732Y-59849877D01*
X127570333Y-59846344D01*
X127980689Y-59764272D01*
X127996770Y-59762860D01*
X127996755Y-59762715D01*
X128004828Y-59761832D01*
X128004832Y-59761830D01*
X128004838Y-59761831D01*
X128056055Y-59749310D01*
X128061073Y-59748196D01*
X128112768Y-59737858D01*
X128112774Y-59737854D01*
X128120461Y-59735237D01*
X128120508Y-59735376D01*
X128135679Y-59729846D01*
X128459010Y-59650810D01*
X128483113Y-59647379D01*
X128487411Y-59647194D01*
X128514227Y-59638752D01*
X128530846Y-59633522D01*
X128538631Y-59631347D01*
X128582852Y-59620539D01*
X128586620Y-59618472D01*
X128609018Y-59608918D01*
X128613113Y-59607629D01*
X128613113Y-59607628D01*
X128613116Y-59607628D01*
X128651532Y-59583180D01*
X128658486Y-59579068D01*
X128681810Y-59566280D01*
X128698407Y-59557180D01*
X128701513Y-59554206D01*
X128720668Y-59539184D01*
X128997723Y-59362877D01*
X128998026Y-59362686D01*
X129368901Y-59128448D01*
X129372226Y-59126419D01*
X129667216Y-58952895D01*
X129682227Y-58945385D01*
X129703904Y-58936320D01*
X129724836Y-58920142D01*
X129737764Y-58911396D01*
X129760558Y-58897989D01*
X129777025Y-58881250D01*
X129789596Y-58870096D01*
X129808180Y-58855737D01*
X129824202Y-58834706D01*
X129834439Y-58822896D01*
X129852984Y-58804050D01*
X129864566Y-58783604D01*
X129873804Y-58769603D01*
X130004097Y-58598593D01*
X130005603Y-58596660D01*
X131370575Y-56882974D01*
X132323258Y-55701648D01*
X132332649Y-55692484D01*
X132332055Y-55691892D01*
X132337786Y-55686132D01*
X132337791Y-55686129D01*
X132372778Y-55640310D01*
X132374797Y-55637740D01*
X132410957Y-55592903D01*
X132410957Y-55592901D01*
X132410960Y-55592899D01*
X132410961Y-55592895D01*
X132415194Y-55585958D01*
X132415926Y-55586404D01*
X132422579Y-55575096D01*
X134054797Y-53437666D01*
X134055884Y-53436265D01*
X134346479Y-53068180D01*
X134349008Y-53065083D01*
X134699199Y-52650383D01*
X134708991Y-52640054D01*
X135153176Y-52222520D01*
X135165594Y-52212283D01*
X135799188Y-51755724D01*
X135804578Y-51752053D01*
X136171800Y-51515982D01*
X136187859Y-51507261D01*
X136625259Y-51310002D01*
X136637613Y-51305210D01*
X137165941Y-51132137D01*
X137173883Y-51129826D01*
X137631012Y-51013304D01*
X137644097Y-51010709D01*
X138272202Y-50920980D01*
X138287578Y-50919753D01*
X138801371Y-50910895D01*
X138812176Y-50911180D01*
X139319266Y-50946766D01*
X139333327Y-50948566D01*
X140028099Y-51078257D01*
X140035966Y-51079994D01*
X140418902Y-51177765D01*
X140478987Y-51213421D01*
X140510257Y-51275903D01*
X140502782Y-51345372D01*
X140458937Y-51399772D01*
X140399896Y-51421360D01*
X140332151Y-51427764D01*
X140280569Y-51432640D01*
X140280567Y-51432640D01*
X140280549Y-51432642D01*
X140217886Y-51442567D01*
X140217874Y-51442569D01*
X139910862Y-51511195D01*
X139849913Y-51528902D01*
X139553935Y-51635461D01*
X139553927Y-51635464D01*
X139495685Y-51660667D01*
X139215391Y-51803484D01*
X139215388Y-51803486D01*
X139160747Y-51835801D01*
X139160741Y-51835804D01*
X139160736Y-51835808D01*
X138900572Y-52012615D01*
X138900559Y-52012624D01*
X138850420Y-52051516D01*
X138850390Y-52051541D01*
X138614444Y-52259557D01*
X138569557Y-52304444D01*
X138361541Y-52540390D01*
X138361516Y-52540420D01*
X138322624Y-52590559D01*
X138322615Y-52590572D01*
X138153318Y-52839686D01*
X138145801Y-52850747D01*
X138130707Y-52876269D01*
X138113484Y-52905391D01*
X137970667Y-53185685D01*
X137945464Y-53243927D01*
X137945461Y-53243935D01*
X137838902Y-53539913D01*
X137821195Y-53600862D01*
X137804567Y-53675254D01*
X137770732Y-53736385D01*
X137709218Y-53769519D01*
X137707747Y-53769821D01*
X137661001Y-53779120D01*
X137638617Y-53783573D01*
X137638613Y-53783573D01*
X137638611Y-53783574D01*
X137633966Y-53784497D01*
X137633963Y-53784498D01*
X137515576Y-53833535D01*
X137409037Y-53904722D01*
X137409030Y-53904728D01*
X130509724Y-60804034D01*
X130454467Y-60886734D01*
X130438535Y-60910577D01*
X130389499Y-61028961D01*
X130389497Y-61028967D01*
X130364500Y-61154634D01*
X130364500Y-61589931D01*
X130345494Y-61655903D01*
X130289211Y-61745477D01*
X130289209Y-61745481D01*
X130229633Y-61915737D01*
X130229630Y-61915750D01*
X130209435Y-62094996D01*
X130209435Y-62095003D01*
X130229630Y-62274249D01*
X130229631Y-62274254D01*
X130289211Y-62444523D01*
X130385184Y-62597262D01*
X130512738Y-62724816D01*
X130544275Y-62744632D01*
X130639092Y-62804210D01*
X130665478Y-62820789D01*
X130835745Y-62880368D01*
X130842974Y-62881182D01*
X130907388Y-62908246D01*
X130916776Y-62916722D01*
X132463181Y-64463127D01*
X132496666Y-64524450D01*
X132499500Y-64550808D01*
X132499500Y-67839191D01*
X132479815Y-67906230D01*
X132463181Y-67926872D01*
X132364727Y-68025325D01*
X132364726Y-68025326D01*
X132364723Y-68025331D01*
X132298234Y-68124840D01*
X132298233Y-68124840D01*
X132293535Y-68131871D01*
X132244499Y-68250255D01*
X132244497Y-68250261D01*
X132219500Y-68375928D01*
X132219500Y-68375931D01*
X132219500Y-73454069D01*
X132219500Y-73454071D01*
X132219499Y-73454071D01*
X132241784Y-73566096D01*
X132244497Y-73579738D01*
X132244500Y-73579747D01*
X132293532Y-73698123D01*
X132364726Y-73804673D01*
X137765328Y-79205275D01*
X137765331Y-79205277D01*
X137825771Y-79245661D01*
X137871873Y-79276465D01*
X137990256Y-79325501D01*
X137990260Y-79325501D01*
X137990261Y-79325502D01*
X138115928Y-79350500D01*
X138115931Y-79350500D01*
X139999192Y-79350500D01*
X140066231Y-79370185D01*
X140086873Y-79386819D01*
X141323181Y-80623127D01*
X141356666Y-80684450D01*
X141359500Y-80710808D01*
X141359500Y-82009191D01*
X141339815Y-82076230D01*
X141323181Y-82096872D01*
X140384727Y-83035325D01*
X140384724Y-83035328D01*
X140323276Y-83127292D01*
X140323274Y-83127297D01*
X140321928Y-83129312D01*
X140313533Y-83141875D01*
X140264498Y-83260257D01*
X140264498Y-83260258D01*
X140258105Y-83292396D01*
X140225718Y-83354306D01*
X140224169Y-83355883D01*
X139126873Y-84453181D01*
X139065550Y-84486666D01*
X139039192Y-84489500D01*
X139005929Y-84489500D01*
X138880261Y-84514497D01*
X138880255Y-84514499D01*
X138761874Y-84563534D01*
X138655326Y-84634726D01*
X138655325Y-84634727D01*
X136546873Y-86743181D01*
X136485550Y-86776666D01*
X136459192Y-86779500D01*
X135175929Y-86779500D01*
X135068424Y-86800885D01*
X135059697Y-86802621D01*
X135057775Y-86803003D01*
X135050257Y-86804498D01*
X134931874Y-86853534D01*
X134825326Y-86924726D01*
X134825325Y-86924727D01*
X134126873Y-87623181D01*
X134065550Y-87656666D01*
X134039192Y-87659500D01*
X133415929Y-87659500D01*
X133290261Y-87684497D01*
X133290255Y-87684499D01*
X133171870Y-87733535D01*
X133065331Y-87804722D01*
X133065324Y-87804728D01*
X128861775Y-92008277D01*
X128800452Y-92041762D01*
X128787988Y-92043815D01*
X128780752Y-92044630D01*
X128780744Y-92044632D01*
X128610478Y-92104210D01*
X128457737Y-92200184D01*
X128330184Y-92327737D01*
X128234211Y-92480476D01*
X128174631Y-92650745D01*
X128174630Y-92650750D01*
X128154435Y-92829996D01*
X128154435Y-92830003D01*
X128174630Y-93009249D01*
X128174631Y-93009254D01*
X128234211Y-93179523D01*
X128256451Y-93214917D01*
X128330184Y-93332262D01*
X128457738Y-93459816D01*
X128610478Y-93555789D01*
X128663051Y-93574185D01*
X128780745Y-93615368D01*
X128780750Y-93615369D01*
X128959996Y-93635565D01*
X128960000Y-93635565D01*
X128960004Y-93635565D01*
X129139249Y-93615369D01*
X129139252Y-93615368D01*
X129139255Y-93615368D01*
X129309522Y-93555789D01*
X129462262Y-93459816D01*
X129589816Y-93332262D01*
X129685789Y-93179522D01*
X129745368Y-93009255D01*
X129746182Y-93002025D01*
X129773245Y-92937611D01*
X129781712Y-92928232D01*
X133713127Y-88996819D01*
X133774450Y-88963334D01*
X133800808Y-88960500D01*
X134424071Y-88960500D01*
X134525000Y-88940423D01*
X134549744Y-88935501D01*
X134668127Y-88886465D01*
X134695093Y-88868447D01*
X134774669Y-88815277D01*
X135473127Y-88116819D01*
X135534450Y-88083334D01*
X135560808Y-88080500D01*
X136509649Y-88080500D01*
X136576688Y-88100185D01*
X136622443Y-88152989D01*
X136632387Y-88222147D01*
X136603362Y-88285703D01*
X136570638Y-88312463D01*
X136416003Y-88399815D01*
X135919998Y-88680000D01*
X135919998Y-88680001D01*
X134850000Y-90039998D01*
X134140000Y-91959998D01*
X134140000Y-91960002D01*
X134165009Y-94144183D01*
X134164816Y-94152667D01*
X134164538Y-94157539D01*
X134164166Y-94157517D01*
X134163113Y-94170493D01*
X134161800Y-94178514D01*
X134159995Y-94236298D01*
X134159854Y-94239497D01*
X134156555Y-94297228D01*
X134157155Y-94305336D01*
X134157431Y-94318352D01*
X134151454Y-94509593D01*
X134148888Y-94531107D01*
X134146616Y-94541966D01*
X134146615Y-94541975D01*
X134148766Y-94580692D01*
X134148897Y-94591436D01*
X134147686Y-94630225D01*
X134147687Y-94630231D01*
X134150221Y-94641029D01*
X134153310Y-94662482D01*
X134207951Y-95646019D01*
X134207764Y-95662575D01*
X134205883Y-95686602D01*
X134210599Y-95712001D01*
X134212492Y-95727756D01*
X134213925Y-95753550D01*
X134213926Y-95753555D01*
X134221443Y-95776445D01*
X134225547Y-95792489D01*
X134297191Y-96178269D01*
X134298881Y-96191021D01*
X134349999Y-96829998D01*
X134350001Y-96830007D01*
X134515893Y-97311363D01*
X134520865Y-97337799D01*
X134521138Y-97337752D01*
X134522518Y-97345760D01*
X134533032Y-97379554D01*
X134536057Y-97391264D01*
X134543229Y-97425927D01*
X134543231Y-97425933D01*
X134549747Y-97438896D01*
X134557359Y-97457750D01*
X134650156Y-97756025D01*
X134660237Y-97788426D01*
X134663485Y-97801553D01*
X134682794Y-97860966D01*
X134683268Y-97862456D01*
X134701824Y-97922102D01*
X134706747Y-97934668D01*
X134792956Y-98199928D01*
X134796339Y-98216144D01*
X134796396Y-98216131D01*
X134798230Y-98224042D01*
X134816487Y-98272727D01*
X134818310Y-98277937D01*
X134834374Y-98327363D01*
X134837874Y-98334699D01*
X134837820Y-98334724D01*
X134845279Y-98349504D01*
X134867082Y-98407643D01*
X134924126Y-98559762D01*
X134929503Y-98578438D01*
X134932871Y-98594896D01*
X134947676Y-98624505D01*
X134952872Y-98636421D01*
X134964501Y-98667432D01*
X134964504Y-98667438D01*
X134974267Y-98681096D01*
X134984297Y-98697748D01*
X135149427Y-99028008D01*
X135155027Y-99041016D01*
X135155661Y-99042757D01*
X135183711Y-99096612D01*
X135184643Y-99098438D01*
X135190523Y-99110197D01*
X135194024Y-99117199D01*
X135211808Y-99152768D01*
X135212841Y-99154296D01*
X135220094Y-99166469D01*
X135254710Y-99232931D01*
X135257135Y-99237850D01*
X135709999Y-100209998D01*
X135710001Y-100210001D01*
X135850607Y-100323038D01*
X135866225Y-100338015D01*
X135870109Y-100342453D01*
X135876026Y-100347653D01*
X135891781Y-100364323D01*
X135896644Y-100370530D01*
X135896648Y-100370534D01*
X135930202Y-100395749D01*
X135937564Y-100401735D01*
X135969100Y-100429449D01*
X135976159Y-100432939D01*
X135995694Y-100444965D01*
X136094917Y-100519528D01*
X136098093Y-100521996D01*
X136730000Y-101030000D01*
X137365999Y-101474809D01*
X137369355Y-101477241D01*
X139960752Y-103424623D01*
X140960198Y-104175686D01*
X140961013Y-104176385D01*
X140966985Y-104180864D01*
X140966986Y-104180865D01*
X140982709Y-104192657D01*
X141019807Y-104220480D01*
X141019789Y-104220503D01*
X141019899Y-104220549D01*
X141071998Y-104259701D01*
X141072000Y-104259701D01*
X141078019Y-104264225D01*
X141078896Y-104264797D01*
X141176148Y-104337735D01*
X141177412Y-104338698D01*
X141440812Y-104542234D01*
X141452665Y-104552665D01*
X142452244Y-105552244D01*
X142458710Y-105559226D01*
X142478337Y-105582124D01*
X142493389Y-105599685D01*
X142518709Y-105629224D01*
X142529950Y-105644583D01*
X142771560Y-106034277D01*
X142777081Y-106044163D01*
X143029713Y-106549427D01*
X143030204Y-106550419D01*
X143206859Y-106911759D01*
X143214499Y-106931501D01*
X143466846Y-107796688D01*
X143470608Y-107814216D01*
X143532382Y-108255456D01*
X143533032Y-108261002D01*
X143578374Y-108741637D01*
X143578898Y-108755714D01*
X143570276Y-109195433D01*
X143569240Y-109209178D01*
X143478273Y-109900526D01*
X143475746Y-109913960D01*
X143341477Y-110459989D01*
X143337899Y-110471920D01*
X143192974Y-110879520D01*
X143191055Y-110884566D01*
X143145471Y-110997007D01*
X143102041Y-111051740D01*
X143035915Y-111074304D01*
X142968088Y-111057536D01*
X142920093Y-111006759D01*
X142912918Y-110989632D01*
X142890657Y-110922850D01*
X142817984Y-110704832D01*
X142812174Y-110677302D01*
X142797360Y-110520571D01*
X142787429Y-110457868D01*
X142718806Y-110150870D01*
X142718804Y-110150862D01*
X142701097Y-110089913D01*
X142611260Y-109840381D01*
X142594539Y-109793936D01*
X142580039Y-109760428D01*
X142569332Y-109735685D01*
X142488628Y-109577294D01*
X142426514Y-109455388D01*
X142394199Y-109400747D01*
X142217383Y-109140570D01*
X142217379Y-109140565D01*
X142217375Y-109140559D01*
X142178483Y-109090420D01*
X142178458Y-109090390D01*
X141970442Y-108854444D01*
X141970427Y-108854428D01*
X141925572Y-108809573D01*
X141925555Y-108809557D01*
X141689609Y-108601541D01*
X141689579Y-108601516D01*
X141639440Y-108562624D01*
X141639427Y-108562615D01*
X141530792Y-108488787D01*
X141379253Y-108385801D01*
X141324612Y-108353486D01*
X141205850Y-108292974D01*
X141044314Y-108210667D01*
X140986072Y-108185464D01*
X140986064Y-108185461D01*
X140690086Y-108078902D01*
X140629137Y-108061195D01*
X140322125Y-107992569D01*
X140322113Y-107992567D01*
X140259448Y-107982642D01*
X140259437Y-107982640D01*
X140259431Y-107982640D01*
X139971253Y-107955399D01*
X139946245Y-107953035D01*
X139882805Y-107951042D01*
X139568394Y-107960922D01*
X139568367Y-107960924D01*
X139505204Y-107966895D01*
X139505166Y-107966900D01*
X139194508Y-108016103D01*
X139194478Y-108016109D01*
X139132530Y-108029955D01*
X139132528Y-108029956D01*
X138830449Y-108117717D01*
X138770733Y-108139218D01*
X138770708Y-108139228D01*
X138482024Y-108264153D01*
X138425466Y-108292970D01*
X138425462Y-108292972D01*
X138154708Y-108453094D01*
X138102176Y-108488795D01*
X137853642Y-108681578D01*
X137853641Y-108681579D01*
X137806009Y-108723572D01*
X137583572Y-108946009D01*
X137573812Y-108957080D01*
X137544866Y-108989913D01*
X137541579Y-108993641D01*
X137541578Y-108993642D01*
X137348795Y-109242176D01*
X137313094Y-109294708D01*
X137152972Y-109565462D01*
X137152970Y-109565466D01*
X137124153Y-109622024D01*
X136999228Y-109910708D01*
X136999218Y-109910733D01*
X136977717Y-109970449D01*
X136889956Y-110272528D01*
X136889955Y-110272530D01*
X136876109Y-110334478D01*
X136876103Y-110334508D01*
X136826900Y-110645166D01*
X136826895Y-110645204D01*
X136820924Y-110708367D01*
X136820922Y-110708394D01*
X136811042Y-111022805D01*
X136813035Y-111086240D01*
X136813035Y-111086250D01*
X136828865Y-111253711D01*
X136841839Y-111390961D01*
X136842642Y-111399448D01*
X136852567Y-111462113D01*
X136852569Y-111462125D01*
X136921195Y-111769137D01*
X136938902Y-111830086D01*
X137045461Y-112126064D01*
X137045464Y-112126072D01*
X137070667Y-112184314D01*
X137194154Y-112426671D01*
X137213486Y-112464612D01*
X137245801Y-112519253D01*
X137383030Y-112721179D01*
X137422615Y-112779427D01*
X137422624Y-112779440D01*
X137461516Y-112829579D01*
X137461541Y-112829609D01*
X137669557Y-113065555D01*
X137669573Y-113065572D01*
X137714428Y-113110427D01*
X137714444Y-113110442D01*
X137950390Y-113318458D01*
X137950420Y-113318483D01*
X138000559Y-113357375D01*
X138000565Y-113357379D01*
X138000570Y-113357383D01*
X138260747Y-113534199D01*
X138315388Y-113566514D01*
X138594784Y-113708873D01*
X138595685Y-113709332D01*
X138646041Y-113731122D01*
X138653936Y-113734539D01*
X138801459Y-113787650D01*
X138949913Y-113841097D01*
X139010862Y-113858804D01*
X139010866Y-113858805D01*
X139010870Y-113858806D01*
X139317868Y-113927429D01*
X139317873Y-113927429D01*
X139317874Y-113927430D01*
X139317886Y-113927432D01*
X139338346Y-113930672D01*
X139380569Y-113937360D01*
X139504882Y-113949111D01*
X139569770Y-113975016D01*
X139610352Y-114031892D01*
X139613743Y-114101679D01*
X139578866Y-114162221D01*
X139534393Y-114189521D01*
X139515299Y-114196244D01*
X139490971Y-114204811D01*
X139475933Y-114209062D01*
X139035020Y-114304161D01*
X139022788Y-114306165D01*
X138462548Y-114369418D01*
X138451116Y-114370176D01*
X138004074Y-114379118D01*
X137994520Y-114378941D01*
X137352279Y-114342241D01*
X137338968Y-114340756D01*
X137025786Y-114288560D01*
X137020440Y-114287548D01*
X136737066Y-114227438D01*
X136724069Y-114223934D01*
X136059886Y-114005572D01*
X136046844Y-114000451D01*
X135714653Y-113847823D01*
X135712413Y-113846767D01*
X135432241Y-113711200D01*
X135422827Y-113706132D01*
X135052346Y-113485607D01*
X135042213Y-113478882D01*
X134704365Y-113229940D01*
X134697614Y-113224594D01*
X134563316Y-113110442D01*
X134446192Y-113010886D01*
X134437987Y-113003245D01*
X133887840Y-112442168D01*
X133882387Y-112436232D01*
X133711926Y-112238128D01*
X133707129Y-112232194D01*
X133510252Y-111972675D01*
X133505867Y-111966513D01*
X133418006Y-111834719D01*
X133410272Y-111821392D01*
X133350572Y-111701994D01*
X133345769Y-111690753D01*
X133316690Y-111634211D01*
X133316052Y-111632953D01*
X133288193Y-111577234D01*
X133288191Y-111577232D01*
X133287661Y-111576171D01*
X133281438Y-111565665D01*
X133141984Y-111294505D01*
X133139387Y-111289141D01*
X132960763Y-110896168D01*
X132955550Y-110882654D01*
X132906771Y-110730217D01*
X132780144Y-110334508D01*
X132742079Y-110215559D01*
X132737542Y-110196091D01*
X132735267Y-110180867D01*
X132735267Y-110180865D01*
X132721504Y-110149209D01*
X132717122Y-110137563D01*
X132706607Y-110104706D01*
X132706607Y-110104705D01*
X132706606Y-110104703D01*
X132698275Y-110091748D01*
X132688864Y-110074139D01*
X132613268Y-109900270D01*
X132611653Y-109896372D01*
X132566408Y-109781644D01*
X132242455Y-108960189D01*
X132240255Y-108954155D01*
X131871391Y-107854148D01*
X131868906Y-107845765D01*
X131788144Y-107533025D01*
X133966645Y-107533025D01*
X133966645Y-107745518D01*
X133999887Y-107955399D01*
X133999887Y-107955402D01*
X134065549Y-108157489D01*
X134162022Y-108346826D01*
X134201374Y-108400988D01*
X134201374Y-108400989D01*
X135293301Y-107309062D01*
X135310339Y-107372646D01*
X135376165Y-107486660D01*
X135469257Y-107579752D01*
X135583271Y-107645578D01*
X135646854Y-107662615D01*
X134554926Y-108754541D01*
X134554927Y-108754542D01*
X134609085Y-108793890D01*
X134609098Y-108793898D01*
X134798427Y-108890367D01*
X135000515Y-108956029D01*
X135210399Y-108989272D01*
X135422891Y-108989272D01*
X135632772Y-108956029D01*
X135632775Y-108956029D01*
X135834862Y-108890367D01*
X136024202Y-108793892D01*
X136196104Y-108668999D01*
X136196109Y-108668995D01*
X137265606Y-107599498D01*
X137265610Y-107599493D01*
X137390503Y-107427591D01*
X137486977Y-107238254D01*
X137486978Y-107238251D01*
X137552640Y-107036160D01*
X137585883Y-106826280D01*
X137585883Y-106613787D01*
X137552640Y-106403906D01*
X137552640Y-106403903D01*
X137486978Y-106201816D01*
X137390509Y-106012487D01*
X137390501Y-106012474D01*
X137351153Y-105958316D01*
X137351152Y-105958315D01*
X136259226Y-107050242D01*
X136242189Y-106986660D01*
X136176363Y-106872646D01*
X136083271Y-106779554D01*
X135969257Y-106713728D01*
X135905672Y-106696690D01*
X136997600Y-105604763D01*
X136943437Y-105565411D01*
X136754100Y-105468938D01*
X136552012Y-105403276D01*
X136342129Y-105370034D01*
X136129637Y-105370034D01*
X135919756Y-105403276D01*
X135717665Y-105468938D01*
X135717662Y-105468939D01*
X135528325Y-105565413D01*
X135356423Y-105690306D01*
X135356418Y-105690310D01*
X134998446Y-106048281D01*
X134998446Y-106048282D01*
X135646854Y-106696690D01*
X135583271Y-106713728D01*
X135469257Y-106779554D01*
X135376165Y-106872646D01*
X135310339Y-106986660D01*
X135293301Y-107050243D01*
X134644893Y-106401835D01*
X134644892Y-106401835D01*
X134286921Y-106759807D01*
X134286917Y-106759812D01*
X134162024Y-106931714D01*
X134065549Y-107121054D01*
X133999887Y-107323141D01*
X133999887Y-107323144D01*
X133966645Y-107533025D01*
X131788144Y-107533025D01*
X131400000Y-106030000D01*
X131399570Y-106028922D01*
X131012276Y-105057511D01*
X130790000Y-104500000D01*
X130672734Y-104349546D01*
X130260000Y-103819999D01*
X127350004Y-103949999D01*
X127350003Y-103949999D01*
X127350000Y-103949999D01*
X127350000Y-103950000D01*
X127243457Y-103992080D01*
X126159999Y-104420000D01*
X125430000Y-106669999D01*
X125368470Y-107046863D01*
X125363727Y-107066094D01*
X125127376Y-107775144D01*
X125087501Y-107832519D01*
X125022938Y-107859228D01*
X124954184Y-107846791D01*
X124903069Y-107799157D01*
X124898384Y-107790484D01*
X124759389Y-107506761D01*
X124759366Y-107506717D01*
X124727958Y-107451653D01*
X124727946Y-107451633D01*
X124555250Y-107188727D01*
X124517166Y-107138005D01*
X124312863Y-106898798D01*
X124312854Y-106898788D01*
X124268759Y-106853286D01*
X124268720Y-106853248D01*
X124036081Y-106641564D01*
X124036052Y-106641540D01*
X123986599Y-106601920D01*
X123986583Y-106601908D01*
X123729211Y-106421023D01*
X123675129Y-106387881D01*
X123507015Y-106298869D01*
X122928336Y-107695923D01*
X122916171Y-107687085D01*
X122705800Y-107579896D01*
X122481251Y-107506935D01*
X122466395Y-107504582D01*
X123046553Y-106103958D01*
X123045059Y-106103394D01*
X122984446Y-106084746D01*
X122678566Y-106011310D01*
X122616093Y-106000407D01*
X122303421Y-105965888D01*
X122303388Y-105965885D01*
X122240080Y-105962900D01*
X121925525Y-105967841D01*
X121862313Y-105972817D01*
X121550870Y-106017141D01*
X121488768Y-106030002D01*
X121185353Y-106113007D01*
X121125377Y-106133542D01*
X121125332Y-106133559D01*
X120834746Y-106253922D01*
X120834709Y-106253939D01*
X120777784Y-106281825D01*
X120777754Y-106281841D01*
X120504527Y-106437687D01*
X120451516Y-106472509D01*
X120199953Y-106661389D01*
X120151731Y-106702575D01*
X119925838Y-106921480D01*
X119925831Y-106921487D01*
X119883149Y-106968393D01*
X119686469Y-107213890D01*
X119649989Y-107265795D01*
X119485638Y-107533993D01*
X119485635Y-107533997D01*
X119455964Y-107590037D01*
X119455946Y-107590073D01*
X119455300Y-107591503D01*
X119455300Y-107591504D01*
X120855924Y-108171662D01*
X120847085Y-108183829D01*
X120739896Y-108394200D01*
X120666935Y-108618749D01*
X120664582Y-108633602D01*
X119267528Y-108054923D01*
X119211599Y-108236723D01*
X119211594Y-108236740D01*
X119196789Y-108298407D01*
X119142705Y-108608300D01*
X119142703Y-108608314D01*
X119135745Y-108671334D01*
X119135744Y-108671349D01*
X119120927Y-108985534D01*
X119120927Y-108985550D01*
X119121923Y-109048969D01*
X119146604Y-109362582D01*
X119155536Y-109425342D01*
X119155540Y-109425362D01*
X119183691Y-109561303D01*
X119178010Y-109630942D01*
X119135581Y-109686453D01*
X119069875Y-109710214D01*
X119001754Y-109694680D01*
X118952846Y-109644783D01*
X118943159Y-109620933D01*
X118880899Y-109405851D01*
X118877696Y-109391757D01*
X118846765Y-109206170D01*
X118825356Y-109077714D01*
X118824760Y-109073737D01*
X118823407Y-109063593D01*
X118792529Y-108832010D01*
X118791474Y-108812806D01*
X118799375Y-108465143D01*
X118800981Y-108447878D01*
X118898812Y-107851996D01*
X118901433Y-107839871D01*
X118953307Y-107647197D01*
X118958152Y-107632791D01*
X118976056Y-107588718D01*
X118980002Y-107579994D01*
X119202467Y-107135065D01*
X119205961Y-107128571D01*
X119226392Y-107093186D01*
X119226392Y-107093183D01*
X119226394Y-107093181D01*
X119226450Y-107093044D01*
X119226450Y-107093041D01*
X119226454Y-107093036D01*
X119226626Y-107092391D01*
X119235495Y-107069009D01*
X119470000Y-106600000D01*
X119450092Y-106550419D01*
X119128966Y-105750632D01*
X118940000Y-105280000D01*
X117924546Y-103792615D01*
X117919058Y-103783805D01*
X117404338Y-102874298D01*
X117394887Y-102853235D01*
X117392660Y-102846703D01*
X117392465Y-102846130D01*
X117368877Y-102810929D01*
X117363994Y-102803013D01*
X117343129Y-102766143D01*
X117337865Y-102760787D01*
X117323288Y-102742892D01*
X114740016Y-98887705D01*
X123057979Y-98887705D01*
X123057979Y-98887716D01*
X123076994Y-99117195D01*
X123133523Y-99340425D01*
X123226023Y-99551305D01*
X123351969Y-99744081D01*
X123392259Y-99787847D01*
X123507933Y-99913503D01*
X123621380Y-100001802D01*
X123653759Y-100027004D01*
X123689652Y-100054940D01*
X123892172Y-100164539D01*
X124005266Y-100203364D01*
X124109966Y-100239308D01*
X124109968Y-100239308D01*
X124109970Y-100239309D01*
X124337104Y-100277211D01*
X124337105Y-100277211D01*
X124567377Y-100277211D01*
X124567378Y-100277211D01*
X124794512Y-100239309D01*
X125012310Y-100164539D01*
X125214830Y-100054940D01*
X125396549Y-99913503D01*
X125552510Y-99744084D01*
X125678458Y-99551306D01*
X125770958Y-99340427D01*
X125827487Y-99117199D01*
X125835938Y-99015204D01*
X125846503Y-98887716D01*
X125846503Y-98887705D01*
X125829382Y-98681096D01*
X125827487Y-98658223D01*
X125822503Y-98638541D01*
X125825127Y-98568722D01*
X125865082Y-98511404D01*
X125929682Y-98484786D01*
X125963113Y-98485790D01*
X126104871Y-98509446D01*
X126104872Y-98509446D01*
X126335144Y-98509446D01*
X126335145Y-98509446D01*
X126562279Y-98471544D01*
X126780077Y-98396774D01*
X126982597Y-98287175D01*
X127164316Y-98145738D01*
X127320277Y-97976319D01*
X127446225Y-97783541D01*
X127538725Y-97572662D01*
X127595254Y-97349434D01*
X127613148Y-97133491D01*
X127614270Y-97119951D01*
X127614270Y-97119940D01*
X127595254Y-96890462D01*
X127595254Y-96890461D01*
X127595254Y-96890458D01*
X127590269Y-96870773D01*
X127592892Y-96800955D01*
X127632847Y-96743637D01*
X127697447Y-96717018D01*
X127730879Y-96718022D01*
X127872637Y-96741678D01*
X127872638Y-96741678D01*
X128102910Y-96741678D01*
X128102911Y-96741678D01*
X128330045Y-96703776D01*
X128547843Y-96629006D01*
X128750363Y-96519407D01*
X128932082Y-96377970D01*
X129088043Y-96208551D01*
X129213991Y-96015773D01*
X129306491Y-95804894D01*
X129363020Y-95581666D01*
X129382036Y-95352178D01*
X129379756Y-95324664D01*
X129363020Y-95122693D01*
X129363020Y-95122690D01*
X129306491Y-94899462D01*
X129213991Y-94688583D01*
X129189841Y-94651619D01*
X129088045Y-94495807D01*
X129061129Y-94466568D01*
X128932082Y-94326386D01*
X128818410Y-94237912D01*
X128750365Y-94184950D01*
X128547843Y-94075350D01*
X128547835Y-94075347D01*
X128330048Y-94000580D01*
X128159694Y-93972153D01*
X128102911Y-93962678D01*
X127872637Y-93962678D01*
X127827210Y-93970258D01*
X127645499Y-94000580D01*
X127427712Y-94075347D01*
X127427704Y-94075350D01*
X127225182Y-94184950D01*
X127043468Y-94326384D01*
X127043463Y-94326389D01*
X126887502Y-94495807D01*
X126761556Y-94688583D01*
X126669056Y-94899463D01*
X126612527Y-95122693D01*
X126593512Y-95352172D01*
X126593512Y-95352183D01*
X126612527Y-95581662D01*
X126617513Y-95601351D01*
X126614888Y-95671171D01*
X126574932Y-95728489D01*
X126510330Y-95755105D01*
X126476898Y-95754100D01*
X126335145Y-95730446D01*
X126104871Y-95730446D01*
X126059444Y-95738026D01*
X125877733Y-95768348D01*
X125659946Y-95843115D01*
X125659938Y-95843118D01*
X125457416Y-95952718D01*
X125275702Y-96094152D01*
X125275697Y-96094157D01*
X125119736Y-96263575D01*
X124993790Y-96456351D01*
X124901290Y-96667231D01*
X124844761Y-96890461D01*
X124825746Y-97119940D01*
X124825746Y-97119951D01*
X124844761Y-97349432D01*
X124849746Y-97369117D01*
X124847120Y-97438937D01*
X124807164Y-97496254D01*
X124742562Y-97522870D01*
X124709131Y-97521865D01*
X124567378Y-97498211D01*
X124337104Y-97498211D01*
X124291677Y-97505791D01*
X124109966Y-97536113D01*
X123892179Y-97610880D01*
X123892171Y-97610883D01*
X123689649Y-97720483D01*
X123507935Y-97861917D01*
X123507930Y-97861922D01*
X123351969Y-98031340D01*
X123226023Y-98224116D01*
X123133523Y-98434996D01*
X123076994Y-98658226D01*
X123057979Y-98887705D01*
X114740016Y-98887705D01*
X112221658Y-95129393D01*
X112200693Y-95062743D01*
X112200670Y-95060255D01*
X112201166Y-94509593D01*
X112210175Y-84508765D01*
X112229920Y-84441748D01*
X112271692Y-84401775D01*
X112295188Y-84388069D01*
X112306166Y-84382382D01*
X112337682Y-84368005D01*
X112349476Y-84358273D01*
X112365906Y-84346817D01*
X112379103Y-84339120D01*
X112403486Y-84314516D01*
X112412612Y-84306186D01*
X112741040Y-84035233D01*
X112761222Y-84021677D01*
X112765042Y-84019624D01*
X112798175Y-83988438D01*
X112804228Y-83983103D01*
X112839337Y-83954140D01*
X112841857Y-83950602D01*
X112857842Y-83932281D01*
X112950057Y-83845490D01*
X112963962Y-83834184D01*
X112980854Y-83822371D01*
X112988438Y-83813342D01*
X112999702Y-83799932D01*
X113009663Y-83789390D01*
X113031007Y-83769304D01*
X113041849Y-83751772D01*
X113052355Y-83737249D01*
X113187226Y-83576689D01*
X113207170Y-83557703D01*
X113270000Y-83510000D01*
X113860000Y-82490000D01*
X114160000Y-81440000D01*
X114090000Y-80300000D01*
X113440000Y-79180000D01*
X113372364Y-79114717D01*
X112290000Y-78070000D01*
X112214047Y-78046884D01*
X110680000Y-77580000D01*
X110679997Y-77580000D01*
X108520001Y-77899999D01*
X108520000Y-77899999D01*
X107109998Y-79150001D01*
X106529999Y-80829998D01*
X106529999Y-80830000D01*
X106549999Y-81850000D01*
X106793952Y-82332876D01*
X106804386Y-82369735D01*
X106805036Y-82369594D01*
X106806766Y-82377532D01*
X106823360Y-82423625D01*
X106825460Y-82429993D01*
X106839542Y-82476932D01*
X106839965Y-82477617D01*
X106851131Y-82500767D01*
X106857988Y-82519815D01*
X106894043Y-82619968D01*
X106902763Y-82644188D01*
X106907824Y-82662578D01*
X106911196Y-82679966D01*
X106918796Y-82695565D01*
X106921236Y-82700574D01*
X106925300Y-82708914D01*
X106930496Y-82721223D01*
X106941405Y-82751526D01*
X106941406Y-82751528D01*
X106951508Y-82766064D01*
X106961158Y-82782521D01*
X107113571Y-83095370D01*
X107119284Y-83109145D01*
X107128521Y-83135853D01*
X107128524Y-83135859D01*
X107140663Y-83153804D01*
X107149428Y-83168971D01*
X107158911Y-83188436D01*
X107158914Y-83188441D01*
X107177444Y-83209777D01*
X107186530Y-83221606D01*
X107197097Y-83237227D01*
X107355551Y-83471463D01*
X107368393Y-83490446D01*
X107377850Y-83507055D01*
X107385361Y-83522991D01*
X107385362Y-83522993D01*
X107400371Y-83540731D01*
X107416386Y-83564910D01*
X107519998Y-83769998D01*
X107520001Y-83770001D01*
X107584336Y-83813342D01*
X107706236Y-83895464D01*
X107722745Y-83908772D01*
X107830971Y-84012488D01*
X107898346Y-84077056D01*
X107907842Y-84087239D01*
X107927538Y-84110894D01*
X107943170Y-84121928D01*
X107957452Y-84133700D01*
X107971274Y-84146946D01*
X107998246Y-84161762D01*
X108010054Y-84169140D01*
X108285323Y-84363447D01*
X108298851Y-84374502D01*
X108314697Y-84389436D01*
X108339489Y-84402785D01*
X108352202Y-84410656D01*
X108375202Y-84426891D01*
X108395628Y-84434413D01*
X108411561Y-84441594D01*
X108432771Y-84453015D01*
X108482465Y-84502131D01*
X108495574Y-84537875D01*
X108496747Y-84543740D01*
X108499155Y-84568171D01*
X108489658Y-95024766D01*
X108471585Y-95089116D01*
X102904837Y-104236584D01*
X102890021Y-104256233D01*
X102887584Y-104258871D01*
X102866069Y-104299817D01*
X102862231Y-104306593D01*
X102838194Y-104346094D01*
X102838190Y-104346105D01*
X102837182Y-104349546D01*
X102827954Y-104372359D01*
X102254904Y-105463004D01*
X102246961Y-105476089D01*
X102236879Y-105490597D01*
X102231405Y-105498474D01*
X102231403Y-105498478D01*
X102223728Y-105519796D01*
X102216833Y-105535461D01*
X102206286Y-105555534D01*
X102200285Y-105582124D01*
X102195998Y-105596822D01*
X102140626Y-105750632D01*
X102129771Y-105773277D01*
X102128573Y-105775237D01*
X102115126Y-105820839D01*
X102112859Y-105827766D01*
X102096767Y-105872465D01*
X102096766Y-105872470D01*
X102096574Y-105874761D01*
X102091947Y-105899442D01*
X101999339Y-106213507D01*
X101997441Y-106219397D01*
X101980829Y-106266861D01*
X101980389Y-106268971D01*
X101976625Y-106289559D01*
X101976298Y-106291644D01*
X101975043Y-106341929D01*
X101974735Y-106348109D01*
X101951403Y-106659205D01*
X101949502Y-106673435D01*
X101949347Y-106674235D01*
X101945676Y-106735379D01*
X101945552Y-106737218D01*
X101940973Y-106798280D01*
X101941020Y-106799104D01*
X101941019Y-106799723D01*
X101941119Y-106801123D01*
X101941238Y-106802985D01*
X101941315Y-106804368D01*
X101941392Y-106804960D01*
X101941450Y-106805782D01*
X101953728Y-106865786D01*
X101954085Y-106867598D01*
X101963733Y-106918607D01*
X101956850Y-106988137D01*
X101913470Y-107042908D01*
X101847364Y-107065531D01*
X101779521Y-107048824D01*
X101740442Y-107012952D01*
X101723536Y-106988897D01*
X101723536Y-106988896D01*
X101526850Y-106743393D01*
X101484168Y-106696487D01*
X101484161Y-106696480D01*
X101258268Y-106477575D01*
X101210046Y-106436389D01*
X100958483Y-106247509D01*
X100905472Y-106212687D01*
X100632245Y-106056841D01*
X100632215Y-106056825D01*
X100575290Y-106028939D01*
X100575253Y-106028922D01*
X100284667Y-105908559D01*
X100284622Y-105908542D01*
X100224646Y-105888007D01*
X99921231Y-105805002D01*
X99859129Y-105792141D01*
X99547686Y-105747817D01*
X99484474Y-105742841D01*
X99169926Y-105737900D01*
X99169911Y-105737900D01*
X99106611Y-105740885D01*
X99106578Y-105740888D01*
X98793906Y-105775407D01*
X98731433Y-105786310D01*
X98425553Y-105859746D01*
X98364937Y-105878395D01*
X98364907Y-105878405D01*
X98363444Y-105878957D01*
X98943602Y-107279582D01*
X98928749Y-107281935D01*
X98704200Y-107354896D01*
X98493829Y-107462085D01*
X98481661Y-107470924D01*
X97902982Y-106073869D01*
X97734852Y-106162891D01*
X97680792Y-106196020D01*
X97423416Y-106376908D01*
X97423400Y-106376920D01*
X97373947Y-106416540D01*
X97373918Y-106416564D01*
X97141279Y-106628248D01*
X97141240Y-106628286D01*
X97097145Y-106673788D01*
X97097136Y-106673798D01*
X96892833Y-106913005D01*
X96854749Y-106963727D01*
X96709832Y-107184344D01*
X96656574Y-107229569D01*
X96587319Y-107238820D01*
X96524057Y-107209162D01*
X96486872Y-107150009D01*
X96487570Y-107080143D01*
X96488557Y-107077048D01*
X96491930Y-107066931D01*
X96495653Y-107055762D01*
X96497025Y-107032889D01*
X96499208Y-107016013D01*
X96549270Y-106765703D01*
X96549901Y-106762741D01*
X96550563Y-106759812D01*
X96825563Y-105541951D01*
X96826704Y-105537320D01*
X96837691Y-105496119D01*
X96902159Y-105254361D01*
X96902733Y-105252287D01*
X96903214Y-105250608D01*
X96914395Y-105211520D01*
X96919320Y-105194306D01*
X96919734Y-105191524D01*
X96919814Y-105191134D01*
X96919834Y-105190988D01*
X96920149Y-105188736D01*
X96920184Y-105188494D01*
X96920217Y-105188053D01*
X96920576Y-105185298D01*
X96920578Y-105185293D01*
X96920505Y-105124961D01*
X96920523Y-105122757D01*
X96921537Y-105062536D01*
X96921219Y-105059762D01*
X96921194Y-105059339D01*
X96921166Y-105059123D01*
X96920882Y-105056831D01*
X96920864Y-105056682D01*
X96920790Y-105056289D01*
X96920421Y-105053515D01*
X96920421Y-105053509D01*
X96904742Y-104995277D01*
X96904187Y-104993139D01*
X96864331Y-104833710D01*
X96861663Y-104819619D01*
X96860910Y-104813825D01*
X96857833Y-104790149D01*
X96850132Y-104771471D01*
X96844474Y-104754284D01*
X96839575Y-104734686D01*
X96825152Y-104708705D01*
X96818929Y-104695785D01*
X96807606Y-104668321D01*
X96807602Y-104668314D01*
X96807602Y-104668313D01*
X96795325Y-104652259D01*
X96785418Y-104637130D01*
X96775612Y-104619465D01*
X96754951Y-104598097D01*
X96745599Y-104587232D01*
X96675549Y-104495627D01*
X96662576Y-104474613D01*
X96661098Y-104471579D01*
X96630621Y-104436486D01*
X96625768Y-104430531D01*
X96621257Y-104424632D01*
X96604617Y-104402871D01*
X96597551Y-104393630D01*
X96597550Y-104393629D01*
X96594871Y-104391566D01*
X96576905Y-104374629D01*
X96539524Y-104331585D01*
X96513521Y-104282911D01*
X96480000Y-104160000D01*
X96296505Y-104043786D01*
X96269232Y-104020337D01*
X96244692Y-103992080D01*
X96238609Y-103986693D01*
X96238680Y-103986612D01*
X96226227Y-103976054D01*
X96097728Y-103840416D01*
X96096036Y-103838592D01*
X96056077Y-103794623D01*
X96052556Y-103791643D01*
X96052337Y-103791436D01*
X96051848Y-103791031D01*
X96051608Y-103790857D01*
X96048020Y-103787947D01*
X95997356Y-103756841D01*
X95995181Y-103755475D01*
X95745014Y-103594654D01*
X95735657Y-103588007D01*
X95562409Y-103452420D01*
X95549724Y-103441001D01*
X95533880Y-103424625D01*
X95510599Y-103410667D01*
X95497946Y-103401972D01*
X95476572Y-103385244D01*
X95476571Y-103385243D01*
X95476569Y-103385242D01*
X95455605Y-103376323D01*
X95440390Y-103368571D01*
X95420858Y-103356861D01*
X95420848Y-103356856D01*
X95394755Y-103349401D01*
X95380280Y-103344277D01*
X95355302Y-103333650D01*
X95332741Y-103330460D01*
X95316041Y-103326911D01*
X95119978Y-103270894D01*
X95103531Y-103264910D01*
X95083709Y-103256069D01*
X95055853Y-103251637D01*
X95041274Y-103248406D01*
X95014148Y-103240656D01*
X95014138Y-103240654D01*
X94992431Y-103240296D01*
X94974998Y-103238773D01*
X94578901Y-103175757D01*
X94578842Y-103175747D01*
X94578793Y-103175740D01*
X94350945Y-103139285D01*
X94342322Y-103137590D01*
X94299722Y-103127636D01*
X94299721Y-103127636D01*
X94293612Y-103127832D01*
X94270037Y-103126340D01*
X94265882Y-103125675D01*
X94264005Y-103125375D01*
X94220502Y-103129878D01*
X94211736Y-103130473D01*
X93997469Y-103137385D01*
X93983613Y-103137057D01*
X93980175Y-103136782D01*
X93980172Y-103136782D01*
X93980168Y-103136782D01*
X93980166Y-103136782D01*
X93920250Y-103139854D01*
X93917979Y-103139949D01*
X93874067Y-103141366D01*
X93857996Y-103141885D01*
X93854595Y-103142445D01*
X93840818Y-103143927D01*
X93598256Y-103156366D01*
X93585204Y-103156348D01*
X93577311Y-103155920D01*
X93519584Y-103160360D01*
X93516430Y-103160562D01*
X93458557Y-103163531D01*
X93450767Y-103164965D01*
X93437830Y-103166649D01*
X93323353Y-103175455D01*
X93309118Y-103174916D01*
X93309106Y-103175477D01*
X93300979Y-103175300D01*
X93300978Y-103175300D01*
X93300976Y-103175300D01*
X93245521Y-103181377D01*
X93241525Y-103181750D01*
X93185917Y-103186027D01*
X93177970Y-103187702D01*
X93177854Y-103187154D01*
X93177739Y-103187181D01*
X93177872Y-103187723D01*
X93169980Y-103189655D01*
X93118005Y-103209870D01*
X93114246Y-103211263D01*
X93061607Y-103229799D01*
X93054361Y-103233476D01*
X93054108Y-103232978D01*
X93054017Y-103233026D01*
X93054286Y-103233517D01*
X93047158Y-103237428D01*
X93002176Y-103270413D01*
X92998908Y-103272729D01*
X92952874Y-103304249D01*
X92946827Y-103309676D01*
X92946453Y-103309259D01*
X92936001Y-103318941D01*
X92884832Y-103356465D01*
X92867780Y-103366965D01*
X92854159Y-103373902D01*
X92828427Y-103397060D01*
X92818812Y-103404879D01*
X92790891Y-103425356D01*
X92790885Y-103425362D01*
X92781316Y-103437285D01*
X92767563Y-103451837D01*
X92547697Y-103649718D01*
X92529578Y-103663251D01*
X92522166Y-103667797D01*
X92493836Y-103697670D01*
X92486818Y-103704508D01*
X92456204Y-103732062D01*
X92451463Y-103739359D01*
X92437465Y-103757116D01*
X91932543Y-104289579D01*
X91930247Y-104291937D01*
X91766217Y-104455967D01*
X91757883Y-104463575D01*
X91729105Y-104487537D01*
X91729104Y-104487539D01*
X91721922Y-104497713D01*
X91708309Y-104513874D01*
X91699503Y-104522680D01*
X91699501Y-104522683D01*
X91680779Y-104555110D01*
X91674701Y-104564610D01*
X91455682Y-104874889D01*
X91453168Y-104878451D01*
X91452362Y-104879579D01*
X90767507Y-105827118D01*
X90762272Y-105833494D01*
X90723488Y-105888016D01*
X90722945Y-105888772D01*
X90683827Y-105942895D01*
X90679471Y-105949894D01*
X90034117Y-106857132D01*
X90033332Y-106858222D01*
X88768714Y-108595866D01*
X88765009Y-108600338D01*
X88753408Y-108616456D01*
X88724741Y-108656284D01*
X88724448Y-108656689D01*
X88697342Y-108693936D01*
X88683801Y-108712542D01*
X88680705Y-108717467D01*
X87596287Y-110224135D01*
X87595286Y-110225506D01*
X87241608Y-110702973D01*
X87232357Y-110714040D01*
X87196293Y-110764128D01*
X87195309Y-110765476D01*
X87158567Y-110815080D01*
X87150844Y-110827252D01*
X86843793Y-111253711D01*
X86839686Y-111259098D01*
X86613699Y-111539323D01*
X86608204Y-111545683D01*
X86273693Y-111907317D01*
X86264881Y-111915941D01*
X85947311Y-112197216D01*
X85943617Y-112200362D01*
X85654865Y-112436614D01*
X85641611Y-112446076D01*
X85275470Y-112672735D01*
X85267806Y-112677110D01*
X84694157Y-112978041D01*
X84687438Y-112981311D01*
X84338492Y-113138336D01*
X84324725Y-113143572D01*
X83864442Y-113287974D01*
X83858741Y-113289614D01*
X83488925Y-113386472D01*
X83474566Y-113389339D01*
X83162482Y-113432683D01*
X83157970Y-113433226D01*
X82610874Y-113488864D01*
X82598328Y-113489500D01*
X82365863Y-113489500D01*
X82359566Y-113489340D01*
X81823648Y-113462090D01*
X81808572Y-113460394D01*
X81652023Y-113432998D01*
X81463490Y-113400004D01*
X81456690Y-113398616D01*
X81245487Y-113349336D01*
X81233067Y-113344852D01*
X81232805Y-113345610D01*
X81225116Y-113342948D01*
X81168795Y-113331395D01*
X81165537Y-113330681D01*
X81109561Y-113317620D01*
X81101475Y-113316822D01*
X81101551Y-113316042D01*
X81088400Y-113314903D01*
X80811725Y-113258150D01*
X80795679Y-113253717D01*
X80462962Y-113137266D01*
X80452195Y-113132922D01*
X80390114Y-113104425D01*
X80337399Y-113058568D01*
X80317844Y-112991491D01*
X80337659Y-112924489D01*
X80390551Y-112878837D01*
X80445737Y-112867792D01*
X80482803Y-112868958D01*
X80546255Y-112866964D01*
X80859431Y-112837360D01*
X80922132Y-112827429D01*
X81229130Y-112758806D01*
X81229137Y-112758804D01*
X81290086Y-112741097D01*
X81365378Y-112713990D01*
X81586064Y-112634539D01*
X81634245Y-112613689D01*
X81644314Y-112609332D01*
X81644317Y-112609330D01*
X81644325Y-112609327D01*
X81924612Y-112466514D01*
X81979253Y-112434199D01*
X82239430Y-112257383D01*
X82289591Y-112218474D01*
X82525556Y-112010442D01*
X82525563Y-112010434D01*
X82525572Y-112010427D01*
X82570427Y-111965572D01*
X82570434Y-111965563D01*
X82570442Y-111965556D01*
X82778474Y-111729591D01*
X82817383Y-111679430D01*
X82994199Y-111419253D01*
X83026514Y-111364612D01*
X83169327Y-111084325D01*
X83194539Y-111026064D01*
X83288590Y-110764825D01*
X83301097Y-110730086D01*
X83318804Y-110669137D01*
X83318806Y-110669130D01*
X83387429Y-110362132D01*
X83397360Y-110299431D01*
X83426964Y-109986255D01*
X83428958Y-109922805D01*
X83419077Y-109608386D01*
X83413950Y-109554151D01*
X83413104Y-109545204D01*
X83413099Y-109545166D01*
X83363896Y-109234508D01*
X83363890Y-109234478D01*
X83362101Y-109226476D01*
X83350045Y-109172534D01*
X83318395Y-109063593D01*
X83262282Y-108870449D01*
X83242639Y-108815892D01*
X83240777Y-108810721D01*
X83152235Y-108606114D01*
X83115846Y-108522024D01*
X83087029Y-108465466D01*
X83087027Y-108465462D01*
X82926905Y-108194708D01*
X82926899Y-108194699D01*
X82926896Y-108194694D01*
X82891213Y-108142188D01*
X82888913Y-108139223D01*
X82698421Y-107893642D01*
X82698420Y-107893641D01*
X82698418Y-107893639D01*
X82698409Y-107893627D01*
X82656428Y-107846010D01*
X82433990Y-107623572D01*
X82386373Y-107581591D01*
X82386358Y-107581579D01*
X82386357Y-107581578D01*
X82137823Y-107388795D01*
X82137817Y-107388791D01*
X82137812Y-107388787D01*
X82085306Y-107353104D01*
X82085303Y-107353102D01*
X82085291Y-107353094D01*
X81814537Y-107192972D01*
X81814533Y-107192970D01*
X81757975Y-107164153D01*
X81469291Y-107039228D01*
X81469266Y-107039218D01*
X81409550Y-107017717D01*
X81107471Y-106929956D01*
X81107469Y-106929955D01*
X81045521Y-106916109D01*
X81045491Y-106916103D01*
X80734833Y-106866900D01*
X80734795Y-106866895D01*
X80671632Y-106860924D01*
X80671605Y-106860922D01*
X80370393Y-106851456D01*
X80357195Y-106851042D01*
X80357194Y-106851042D01*
X80293759Y-106853035D01*
X80293749Y-106853035D01*
X80107832Y-106870610D01*
X79980569Y-106882640D01*
X79980564Y-106882640D01*
X79980551Y-106882642D01*
X79917886Y-106892567D01*
X79917874Y-106892569D01*
X79610862Y-106961195D01*
X79549913Y-106978902D01*
X79253935Y-107085461D01*
X79253927Y-107085464D01*
X79195685Y-107110667D01*
X78915391Y-107253484D01*
X78898259Y-107263615D01*
X78860747Y-107285801D01*
X78860741Y-107285804D01*
X78860736Y-107285808D01*
X78600572Y-107462615D01*
X78600559Y-107462624D01*
X78550420Y-107501516D01*
X78550390Y-107501541D01*
X78314444Y-107709557D01*
X78269557Y-107754444D01*
X78061541Y-107990390D01*
X78061516Y-107990420D01*
X78022624Y-108040559D01*
X78022615Y-108040572D01*
X77847391Y-108298407D01*
X77845801Y-108300747D01*
X77826347Y-108333642D01*
X77813484Y-108355391D01*
X77670667Y-108635685D01*
X77645464Y-108693927D01*
X77645461Y-108693935D01*
X77538902Y-108989913D01*
X77521195Y-109050862D01*
X77452571Y-109357864D01*
X77442640Y-109420568D01*
X77427825Y-109577294D01*
X77422010Y-109604840D01*
X77415820Y-109623408D01*
X77375944Y-109680781D01*
X77311380Y-109707488D01*
X77242627Y-109695049D01*
X77191513Y-109647414D01*
X77180175Y-109622265D01*
X77052500Y-109226472D01*
X77047792Y-109206170D01*
X77044305Y-109182080D01*
X76949607Y-108527809D01*
X76948474Y-108516041D01*
X76942172Y-108385801D01*
X76923471Y-107999294D01*
X76923618Y-107984807D01*
X76923636Y-107984541D01*
X76922533Y-107966895D01*
X76919792Y-107923057D01*
X76919708Y-107921547D01*
X76916731Y-107859996D01*
X76916729Y-107859990D01*
X76916683Y-107859735D01*
X76914936Y-107845359D01*
X76903830Y-107667666D01*
X76905128Y-107640465D01*
X77028959Y-106862101D01*
X77031779Y-106848998D01*
X77220358Y-106157542D01*
X77226668Y-106139829D01*
X77518650Y-105482871D01*
X77522371Y-105475220D01*
X77525409Y-105469482D01*
X82841645Y-105469482D01*
X82841645Y-105681975D01*
X82874887Y-105891856D01*
X82874887Y-105891859D01*
X82940549Y-106093946D01*
X83037024Y-106283286D01*
X83161917Y-106455188D01*
X83161921Y-106455193D01*
X83519893Y-106813165D01*
X84168301Y-106164757D01*
X84185339Y-106228341D01*
X84251165Y-106342355D01*
X84344257Y-106435447D01*
X84458271Y-106501273D01*
X84521854Y-106518310D01*
X83873446Y-107166717D01*
X83873446Y-107166718D01*
X84231418Y-107524690D01*
X84231423Y-107524694D01*
X84403325Y-107649587D01*
X84592662Y-107746061D01*
X84592665Y-107746062D01*
X84794756Y-107811724D01*
X85004637Y-107844967D01*
X85217129Y-107844967D01*
X85427010Y-107811724D01*
X85427013Y-107811724D01*
X85629100Y-107746062D01*
X85818437Y-107649589D01*
X85872599Y-107610237D01*
X85872599Y-107610236D01*
X84780673Y-106518310D01*
X84844257Y-106501273D01*
X84958271Y-106435447D01*
X85051363Y-106342355D01*
X85117189Y-106228341D01*
X85134226Y-106164757D01*
X86226152Y-107256683D01*
X86226153Y-107256683D01*
X86265505Y-107202521D01*
X86361978Y-107013184D01*
X86427640Y-106811097D01*
X86427640Y-106811094D01*
X86460883Y-106601213D01*
X86460883Y-106388720D01*
X86427640Y-106178840D01*
X86361978Y-105976749D01*
X86361977Y-105976746D01*
X86265503Y-105787409D01*
X86140610Y-105615507D01*
X86140606Y-105615502D01*
X85782634Y-105257530D01*
X85782633Y-105257530D01*
X85134226Y-105905937D01*
X85117189Y-105842355D01*
X85051363Y-105728341D01*
X84958271Y-105635249D01*
X84844257Y-105569423D01*
X84780672Y-105552385D01*
X85429081Y-104903977D01*
X85071109Y-104546005D01*
X85071104Y-104546001D01*
X84899202Y-104421108D01*
X84709862Y-104324633D01*
X84507774Y-104258971D01*
X84297891Y-104225729D01*
X84085399Y-104225729D01*
X83875517Y-104258971D01*
X83875514Y-104258971D01*
X83673427Y-104324633D01*
X83484094Y-104421104D01*
X83429927Y-104460458D01*
X84521854Y-105552385D01*
X84458271Y-105569423D01*
X84344257Y-105635249D01*
X84251165Y-105728341D01*
X84185339Y-105842355D01*
X84168301Y-105905938D01*
X83076374Y-104814011D01*
X83037020Y-104868178D01*
X82940549Y-105057511D01*
X82874887Y-105259598D01*
X82874887Y-105259601D01*
X82841645Y-105469482D01*
X77525409Y-105469482D01*
X77525697Y-105468938D01*
X77843495Y-104868654D01*
X77856947Y-104848358D01*
X78237938Y-104380778D01*
X78246367Y-104371445D01*
X78754490Y-103863322D01*
X78766882Y-103852478D01*
X79419899Y-103353646D01*
X79433998Y-103344326D01*
X80302833Y-102851688D01*
X80311958Y-102847225D01*
X80313929Y-102846082D01*
X80313932Y-102846082D01*
X80368458Y-102814484D01*
X80369244Y-102814033D01*
X80424185Y-102782882D01*
X80424187Y-102782879D01*
X80426157Y-102781763D01*
X80434633Y-102776136D01*
X82257106Y-101720036D01*
X82269088Y-101713937D01*
X82274297Y-101711631D01*
X82274306Y-101711629D01*
X82324679Y-101680913D01*
X82326920Y-101679580D01*
X82377955Y-101650007D01*
X82377957Y-101650005D01*
X82382476Y-101646526D01*
X82393561Y-101638910D01*
X83145884Y-101180178D01*
X83147654Y-101179119D01*
X84946847Y-100125447D01*
X84949157Y-100124129D01*
X85346952Y-99903132D01*
X85365988Y-99894568D01*
X85372504Y-99892273D01*
X85378387Y-99890202D01*
X85408722Y-99869431D01*
X85418519Y-99863373D01*
X85450665Y-99845515D01*
X85460112Y-99836373D01*
X85476273Y-99823180D01*
X85487126Y-99815750D01*
X85511047Y-99787839D01*
X85518956Y-99779439D01*
X85545375Y-99753880D01*
X85552134Y-99742606D01*
X85564331Y-99725676D01*
X85802165Y-99448201D01*
X85814048Y-99436120D01*
X85831340Y-99420790D01*
X85846110Y-99398422D01*
X85855442Y-99386047D01*
X85860543Y-99380095D01*
X85872890Y-99365692D01*
X85882877Y-99344847D01*
X85891220Y-99330111D01*
X86209152Y-98848671D01*
X86212620Y-98843694D01*
X86828638Y-98004369D01*
X86831699Y-98000375D01*
X86837959Y-97992550D01*
X86842165Y-97987568D01*
X87820000Y-96890000D01*
X87922791Y-96558782D01*
X87947899Y-96513884D01*
X87960055Y-96499993D01*
X87960782Y-96498513D01*
X87974260Y-96476993D01*
X87975270Y-96475699D01*
X87975272Y-96475695D01*
X87994030Y-96431357D01*
X87996957Y-96424950D01*
X88018210Y-96381734D01*
X88018531Y-96380108D01*
X88025974Y-96355849D01*
X88086374Y-96213084D01*
X88098339Y-96191231D01*
X88099946Y-96188891D01*
X88115607Y-96144572D01*
X88118316Y-96137588D01*
X88134216Y-96100007D01*
X88136618Y-96094330D01*
X88137008Y-96091527D01*
X88142912Y-96067304D01*
X88143855Y-96064637D01*
X88147510Y-96017796D01*
X88148321Y-96010336D01*
X88151398Y-95988259D01*
X88154805Y-95963807D01*
X88154455Y-95960993D01*
X88153888Y-95936076D01*
X88154737Y-95925201D01*
X88165523Y-95787005D01*
X88170719Y-95759904D01*
X88172209Y-95755105D01*
X88180000Y-95730000D01*
X88188289Y-95496700D01*
X88188580Y-95491591D01*
X88201609Y-95324658D01*
X92538988Y-95324658D01*
X92538988Y-95324669D01*
X92558003Y-95554148D01*
X92614532Y-95777378D01*
X92707032Y-95988258D01*
X92832978Y-96181034D01*
X92832981Y-96181037D01*
X92988942Y-96350456D01*
X93084652Y-96424950D01*
X93151509Y-96476987D01*
X93170661Y-96491893D01*
X93373181Y-96601492D01*
X93453324Y-96629005D01*
X93590975Y-96676261D01*
X93590977Y-96676261D01*
X93590979Y-96676262D01*
X93818113Y-96714164D01*
X93818114Y-96714164D01*
X94048386Y-96714164D01*
X94048387Y-96714164D01*
X94190137Y-96690510D01*
X94259502Y-96698892D01*
X94313325Y-96743445D01*
X94334515Y-96810023D01*
X94330753Y-96843257D01*
X94325768Y-96862940D01*
X94325768Y-96862943D01*
X94306753Y-97092424D01*
X94306753Y-97092435D01*
X94325768Y-97321914D01*
X94382297Y-97545144D01*
X94474797Y-97756024D01*
X94600743Y-97948800D01*
X94600746Y-97948803D01*
X94756707Y-98118222D01*
X94792055Y-98145734D01*
X94899303Y-98229209D01*
X94938426Y-98259659D01*
X95140946Y-98369258D01*
X95252758Y-98407643D01*
X95358740Y-98444027D01*
X95358742Y-98444027D01*
X95358744Y-98444028D01*
X95585878Y-98481930D01*
X95585879Y-98481930D01*
X95816151Y-98481930D01*
X95816152Y-98481930D01*
X95958446Y-98458185D01*
X96027809Y-98466567D01*
X96081631Y-98511119D01*
X96102822Y-98577698D01*
X96099156Y-98610080D01*
X96099247Y-98610197D01*
X97035771Y-98610197D01*
X97002858Y-98667204D01*
X96968783Y-98794371D01*
X96968783Y-98926023D01*
X97002858Y-99053190D01*
X97035771Y-99110197D01*
X96099247Y-99110197D01*
X96150540Y-99312750D01*
X96243007Y-99523552D01*
X96368909Y-99716259D01*
X96524812Y-99885616D01*
X96524822Y-99885625D01*
X96706460Y-100027000D01*
X96706466Y-100027004D01*
X96908914Y-100136564D01*
X96908923Y-100136567D01*
X97126632Y-100211307D01*
X97218782Y-100226684D01*
X97218783Y-100226684D01*
X97218783Y-99293209D01*
X97275790Y-99326122D01*
X97402957Y-99360197D01*
X97534609Y-99360197D01*
X97661776Y-99326122D01*
X97718783Y-99293209D01*
X97718783Y-100226684D01*
X97810933Y-100211307D01*
X98028642Y-100136567D01*
X98028651Y-100136564D01*
X98231099Y-100027004D01*
X98231105Y-100027000D01*
X98412743Y-99885625D01*
X98412753Y-99885616D01*
X98568656Y-99716259D01*
X98694558Y-99523552D01*
X98787025Y-99312750D01*
X98838318Y-99110197D01*
X97901795Y-99110197D01*
X97934708Y-99053190D01*
X97968783Y-98926023D01*
X97968783Y-98794371D01*
X97934708Y-98667204D01*
X97901795Y-98610197D01*
X98838319Y-98610197D01*
X98838318Y-98610196D01*
X98787025Y-98407643D01*
X98694558Y-98196841D01*
X98568656Y-98004134D01*
X98412753Y-97834777D01*
X98412743Y-97834768D01*
X98231105Y-97693393D01*
X98231099Y-97693389D01*
X98028651Y-97583829D01*
X98028639Y-97583824D01*
X97810939Y-97509088D01*
X97810920Y-97509084D01*
X97718783Y-97493707D01*
X97718783Y-98427185D01*
X97661776Y-98394272D01*
X97534609Y-98360197D01*
X97402957Y-98360197D01*
X97275790Y-98394272D01*
X97218783Y-98427185D01*
X97218783Y-97493708D01*
X97218782Y-97493707D01*
X97211759Y-97494880D01*
X97142394Y-97486499D01*
X97088571Y-97441946D01*
X97067380Y-97375368D01*
X97071143Y-97342129D01*
X97076261Y-97321917D01*
X97076261Y-97321916D01*
X97077136Y-97311363D01*
X97091875Y-97133491D01*
X97095277Y-97092435D01*
X97095277Y-97092424D01*
X97076261Y-96862945D01*
X97076261Y-96862942D01*
X97019732Y-96639714D01*
X96927232Y-96428835D01*
X96896460Y-96381735D01*
X96801286Y-96236059D01*
X96757863Y-96188889D01*
X96645323Y-96066638D01*
X96544620Y-95988258D01*
X96463606Y-95925202D01*
X96261084Y-95815602D01*
X96261076Y-95815599D01*
X96043289Y-95740832D01*
X95870511Y-95712001D01*
X95816152Y-95702930D01*
X95585878Y-95702930D01*
X95444127Y-95726584D01*
X95374761Y-95718202D01*
X95320939Y-95673649D01*
X95299749Y-95607070D01*
X95303512Y-95573832D01*
X95308496Y-95554152D01*
X95325233Y-95352172D01*
X95327512Y-95324669D01*
X95327512Y-95324658D01*
X95308496Y-95095179D01*
X95308496Y-95095176D01*
X95251967Y-94871948D01*
X95159467Y-94661069D01*
X95102537Y-94573931D01*
X95033521Y-94468293D01*
X94902886Y-94326386D01*
X94877558Y-94298872D01*
X94797163Y-94236298D01*
X94695841Y-94157436D01*
X94493319Y-94047836D01*
X94493311Y-94047833D01*
X94275524Y-93973066D01*
X94079297Y-93940322D01*
X94048387Y-93935164D01*
X93818113Y-93935164D01*
X93787203Y-93940322D01*
X93590975Y-93973066D01*
X93373188Y-94047833D01*
X93373180Y-94047836D01*
X93170658Y-94157436D01*
X92988944Y-94298870D01*
X92988939Y-94298875D01*
X92832978Y-94468293D01*
X92707032Y-94661069D01*
X92614532Y-94871949D01*
X92558003Y-95095179D01*
X92538988Y-95324658D01*
X88201609Y-95324658D01*
X88304501Y-94006350D01*
X88308350Y-93983912D01*
X88310500Y-93975892D01*
X88310500Y-93934336D01*
X88310876Y-93924688D01*
X88310969Y-93923485D01*
X88314110Y-93883253D01*
X88312591Y-93875084D01*
X88310500Y-93852410D01*
X88310500Y-93704197D01*
X88310628Y-93698563D01*
X88312977Y-93646920D01*
X88312975Y-93646911D01*
X88312283Y-93638822D01*
X88312306Y-93638819D01*
X88311583Y-93632164D01*
X88311561Y-93632167D01*
X88310500Y-93624114D01*
X88310500Y-93624108D01*
X88297117Y-93574164D01*
X88295786Y-93568706D01*
X88243820Y-93332262D01*
X88129261Y-92811015D01*
X88127371Y-92800112D01*
X87960000Y-91490000D01*
X87959999Y-91489998D01*
X86891554Y-89652672D01*
X86888579Y-89647249D01*
X85800000Y-87540000D01*
X84509999Y-86519999D01*
X84252859Y-86409493D01*
X84222940Y-86391245D01*
X84222776Y-86391110D01*
X84122833Y-86308714D01*
X84091510Y-86282890D01*
X84082708Y-86274894D01*
X83983097Y-86175283D01*
X83979545Y-86171582D01*
X83943720Y-86132641D01*
X83943719Y-86132640D01*
X83943716Y-86132637D01*
X83937485Y-86127430D01*
X83937596Y-86127296D01*
X83933866Y-86124308D01*
X83933760Y-86124447D01*
X83927318Y-86119504D01*
X83927314Y-86119500D01*
X83911452Y-86110342D01*
X83881484Y-86093039D01*
X83877070Y-86090366D01*
X83832435Y-86062055D01*
X83825061Y-86058635D01*
X83825134Y-86058476D01*
X83820766Y-86056559D01*
X83820700Y-86056720D01*
X83813186Y-86053608D01*
X83762094Y-86039917D01*
X83757139Y-86038478D01*
X83706676Y-86022678D01*
X83706671Y-86022677D01*
X83706670Y-86022676D01*
X83698671Y-86021283D01*
X83698700Y-86021112D01*
X83693968Y-86020388D01*
X83693946Y-86020560D01*
X83685894Y-86019500D01*
X83685892Y-86019500D01*
X83632992Y-86019500D01*
X83627831Y-86019392D01*
X83603999Y-86018399D01*
X83474605Y-86013007D01*
X83461315Y-86011734D01*
X83455152Y-86010806D01*
X83396493Y-86009719D01*
X83393630Y-86009633D01*
X83337587Y-86007298D01*
X83309305Y-86000865D01*
X83308915Y-86002347D01*
X83300000Y-85999999D01*
X81930000Y-85850000D01*
X81612852Y-85867106D01*
X81584928Y-85865452D01*
X81346195Y-85823934D01*
X81330392Y-85820104D01*
X81306668Y-85812676D01*
X81281619Y-85811632D01*
X81265544Y-85809907D01*
X81240838Y-85805611D01*
X81216085Y-85807834D01*
X81199834Y-85808224D01*
X81058127Y-85802320D01*
X81035659Y-85799309D01*
X81027329Y-85797405D01*
X81027316Y-85797403D01*
X80986033Y-85798932D01*
X80976288Y-85798910D01*
X80935002Y-85797191D01*
X80935001Y-85797191D01*
X80926654Y-85799058D01*
X80904176Y-85801964D01*
X80762445Y-85807214D01*
X80747682Y-85806086D01*
X80747657Y-85806523D01*
X80739547Y-85806047D01*
X80739546Y-85806047D01*
X80739544Y-85806047D01*
X80739542Y-85806047D01*
X80684819Y-85810012D01*
X80680450Y-85810251D01*
X80643176Y-85811632D01*
X80625629Y-85812282D01*
X80625625Y-85812283D01*
X80617614Y-85813641D01*
X80617541Y-85813211D01*
X80602990Y-85815942D01*
X80057526Y-85855468D01*
X80055259Y-85855485D01*
X79983884Y-85860803D01*
X79983671Y-85860819D01*
X79983635Y-85860822D01*
X79918107Y-85865571D01*
X79918104Y-85865571D01*
X79911410Y-85866057D01*
X79909156Y-85866371D01*
X77506187Y-86045416D01*
X77493691Y-86045601D01*
X77430557Y-86051042D01*
X77429127Y-86051157D01*
X77366059Y-86055857D01*
X77353713Y-86057667D01*
X73953057Y-86350827D01*
X73950656Y-86351010D01*
X73430445Y-86385692D01*
X73417214Y-86385867D01*
X73410310Y-86385589D01*
X73352153Y-86390876D01*
X73349177Y-86391110D01*
X73290961Y-86394991D01*
X73284194Y-86396345D01*
X73271102Y-86398244D01*
X72509974Y-86467437D01*
X72491964Y-86467760D01*
X71851026Y-86432640D01*
X71833846Y-86430488D01*
X71241382Y-86313791D01*
X71231685Y-86311473D01*
X70883611Y-86213298D01*
X70876628Y-86211104D01*
X70437595Y-86058787D01*
X70424580Y-86053426D01*
X69979261Y-85839673D01*
X69970440Y-85834993D01*
X69765718Y-85715572D01*
X69652604Y-85649588D01*
X69644690Y-85644561D01*
X69641291Y-85642217D01*
X69110614Y-85276233D01*
X69100522Y-85268478D01*
X68737437Y-84958528D01*
X68728891Y-84950503D01*
X68460088Y-84673028D01*
X68452322Y-84664212D01*
X68336539Y-84519483D01*
X68014107Y-84116443D01*
X68005590Y-84104388D01*
X67787341Y-83752766D01*
X67768712Y-83685427D01*
X67789447Y-83618705D01*
X67842963Y-83573785D01*
X67912269Y-83564928D01*
X67965579Y-83587054D01*
X68001771Y-83613349D01*
X68267375Y-83781906D01*
X68323003Y-83812488D01*
X68323018Y-83812495D01*
X68607630Y-83946424D01*
X68607632Y-83946424D01*
X68607637Y-83946427D01*
X68666660Y-83969796D01*
X68965837Y-84067005D01*
X69027325Y-84082792D01*
X69336326Y-84141737D01*
X69399307Y-84149694D01*
X69399318Y-84149694D01*
X69399321Y-84149695D01*
X69713249Y-84169446D01*
X69713260Y-84169446D01*
X69776751Y-84169446D01*
X70090678Y-84149695D01*
X70090679Y-84149694D01*
X70090693Y-84149694D01*
X70153674Y-84141737D01*
X70462675Y-84082792D01*
X70524163Y-84067005D01*
X70823340Y-83969796D01*
X70882363Y-83946427D01*
X71166997Y-83812488D01*
X71222625Y-83781906D01*
X71488229Y-83613349D01*
X71539587Y-83576035D01*
X71781969Y-83375519D01*
X71828244Y-83332064D01*
X72043585Y-83102750D01*
X72084050Y-83053836D01*
X72268951Y-82799341D01*
X72302966Y-82745742D01*
X72454513Y-82470079D01*
X72481542Y-82412640D01*
X72597344Y-82120157D01*
X72616960Y-82059784D01*
X72695192Y-81755094D01*
X72707088Y-81692735D01*
X72746514Y-81380642D01*
X72749543Y-81332500D01*
X72750500Y-81317296D01*
X72750500Y-81002703D01*
X72746515Y-80939381D01*
X72746514Y-80939358D01*
X72729068Y-80801253D01*
X74361250Y-80801253D01*
X74361250Y-81307500D01*
X75278238Y-81307500D01*
X75245325Y-81364507D01*
X75211250Y-81491674D01*
X75211250Y-81623326D01*
X75245325Y-81750493D01*
X75278238Y-81807500D01*
X74361250Y-81807500D01*
X74361250Y-82313746D01*
X74394492Y-82523627D01*
X74394492Y-82523630D01*
X74460154Y-82725717D01*
X74556629Y-82915057D01*
X74681522Y-83086959D01*
X74681526Y-83086964D01*
X74831785Y-83237223D01*
X74831790Y-83237227D01*
X75003692Y-83362120D01*
X75193032Y-83458595D01*
X75395121Y-83524257D01*
X75461250Y-83534731D01*
X75461250Y-81990512D01*
X75518257Y-82023425D01*
X75645424Y-82057500D01*
X75777076Y-82057500D01*
X75904243Y-82023425D01*
X75961250Y-81990512D01*
X75961250Y-83534730D01*
X76027376Y-83524257D01*
X76027379Y-83524257D01*
X76229467Y-83458595D01*
X76418807Y-83362120D01*
X76590709Y-83237227D01*
X76590714Y-83237223D01*
X76740973Y-83086964D01*
X76740977Y-83086959D01*
X76865870Y-82915057D01*
X76962345Y-82725717D01*
X77028007Y-82523630D01*
X77028007Y-82523627D01*
X77061250Y-82313746D01*
X77061250Y-81807500D01*
X76144262Y-81807500D01*
X76177175Y-81750493D01*
X76211250Y-81623326D01*
X76211250Y-81491674D01*
X76177175Y-81364507D01*
X76144262Y-81307500D01*
X77061250Y-81307500D01*
X77061250Y-80801253D01*
X77028007Y-80591372D01*
X77028007Y-80591369D01*
X76962345Y-80389282D01*
X76865870Y-80199942D01*
X76740977Y-80028040D01*
X76740973Y-80028035D01*
X76590714Y-79877776D01*
X76590709Y-79877772D01*
X76418807Y-79752879D01*
X76229465Y-79656403D01*
X76027374Y-79590741D01*
X75961250Y-79580268D01*
X75961250Y-81124488D01*
X75904243Y-81091575D01*
X75777076Y-81057500D01*
X75645424Y-81057500D01*
X75518257Y-81091575D01*
X75461250Y-81124488D01*
X75461250Y-79580268D01*
X75461249Y-79580268D01*
X75395125Y-79590741D01*
X75193034Y-79656403D01*
X75003692Y-79752879D01*
X74831790Y-79877772D01*
X74831785Y-79877776D01*
X74681526Y-80028035D01*
X74681522Y-80028040D01*
X74556629Y-80199942D01*
X74460154Y-80389282D01*
X74394492Y-80591369D01*
X74394492Y-80591372D01*
X74361250Y-80801253D01*
X72729068Y-80801253D01*
X72707088Y-80627265D01*
X72695192Y-80564906D01*
X72616960Y-80260216D01*
X72597344Y-80199843D01*
X72483758Y-79912957D01*
X72481545Y-79907367D01*
X72481539Y-79907353D01*
X72467619Y-79877772D01*
X72454513Y-79849921D01*
X72302966Y-79574258D01*
X72268951Y-79520659D01*
X72084050Y-79266164D01*
X72043585Y-79217250D01*
X71828244Y-78987936D01*
X71828239Y-78987931D01*
X71828235Y-78987927D01*
X71781983Y-78944494D01*
X71781975Y-78944487D01*
X71781969Y-78944481D01*
X71539587Y-78743965D01*
X71531506Y-78738094D01*
X71488229Y-78706651D01*
X71483787Y-78703832D01*
X71222625Y-78538094D01*
X71166997Y-78507512D01*
X71166981Y-78507504D01*
X70882369Y-78373575D01*
X70882366Y-78373574D01*
X70823351Y-78350208D01*
X70823343Y-78350205D01*
X70823340Y-78350204D01*
X70782936Y-78337076D01*
X70524169Y-78252997D01*
X70524163Y-78252995D01*
X70481496Y-78242040D01*
X70462668Y-78237206D01*
X70153671Y-78178262D01*
X70153672Y-78178262D01*
X70090695Y-78170306D01*
X70090678Y-78170304D01*
X69776751Y-78150554D01*
X69776740Y-78150554D01*
X69713260Y-78150554D01*
X69713249Y-78150554D01*
X69399321Y-78170304D01*
X69399304Y-78170306D01*
X69336328Y-78178262D01*
X69027331Y-78237206D01*
X68984658Y-78248162D01*
X68965837Y-78252995D01*
X68965834Y-78252995D01*
X68965830Y-78252997D01*
X68666674Y-78350199D01*
X68666648Y-78350208D01*
X68607633Y-78373574D01*
X68607630Y-78373575D01*
X68323018Y-78507504D01*
X68323002Y-78507512D01*
X68289038Y-78526184D01*
X68267375Y-78538094D01*
X68267372Y-78538096D01*
X68001770Y-78706651D01*
X67950420Y-78743959D01*
X67708023Y-78944487D01*
X67661753Y-78987938D01*
X67633894Y-79017604D01*
X67573652Y-79052997D01*
X67503839Y-79050203D01*
X67446618Y-79010108D01*
X67420159Y-78945442D01*
X67426033Y-78893014D01*
X67452044Y-78816063D01*
X67457678Y-78802217D01*
X67662241Y-78375303D01*
X67666095Y-78367911D01*
X67897173Y-77959079D01*
X67905279Y-77946563D01*
X68147105Y-77618372D01*
X68153707Y-77610171D01*
X68482761Y-77235417D01*
X68488215Y-77229597D01*
X68865322Y-76852490D01*
X68872975Y-76845454D01*
X69272436Y-76508130D01*
X69285131Y-76498728D01*
X69860474Y-76126970D01*
X69877536Y-76117751D01*
X70585120Y-75804265D01*
X70600417Y-75798660D01*
X71434402Y-75553902D01*
X71453172Y-75549942D01*
X71994639Y-75478930D01*
X72002773Y-75478135D01*
X72293813Y-75459358D01*
X72314201Y-75459725D01*
X73206571Y-75549654D01*
X73213390Y-75550533D01*
X74008224Y-75675604D01*
X74015353Y-75676943D01*
X74188265Y-75714767D01*
X74211030Y-75722341D01*
X74212720Y-75722856D01*
X74212723Y-75722858D01*
X74262282Y-75731117D01*
X74268345Y-75732285D01*
X74317414Y-75743019D01*
X74317417Y-75743018D01*
X74317418Y-75743019D01*
X74319208Y-75743171D01*
X74343129Y-75744591D01*
X74625011Y-75791572D01*
X74631556Y-75793088D01*
X74635679Y-75793749D01*
X74635683Y-75793751D01*
X74699089Y-75803919D01*
X74699362Y-75803964D01*
X74762713Y-75814523D01*
X74762715Y-75814522D01*
X74766845Y-75815211D01*
X74773528Y-75815857D01*
X75688099Y-75962533D01*
X75702172Y-75965640D01*
X75702752Y-75965804D01*
X75763554Y-75974647D01*
X75765226Y-75974902D01*
X75825805Y-75984619D01*
X75825812Y-75984618D01*
X75826384Y-75984635D01*
X75840756Y-75985876D01*
X76901147Y-76140115D01*
X77412042Y-76214427D01*
X77414394Y-76214792D01*
X79527895Y-76563719D01*
X79528070Y-76563803D01*
X79528079Y-76563750D01*
X79672554Y-76587829D01*
X79995144Y-76641594D01*
X80008194Y-76644572D01*
X80008768Y-76644660D01*
X80008770Y-76644661D01*
X80052659Y-76651413D01*
X80070007Y-76654082D01*
X80071538Y-76654327D01*
X80079168Y-76655598D01*
X80132714Y-76664523D01*
X80132718Y-76664522D01*
X80133297Y-76664619D01*
X80146614Y-76665867D01*
X80982812Y-76794513D01*
X80983084Y-76794640D01*
X80983098Y-76794557D01*
X82188159Y-76982847D01*
X82188166Y-76982849D01*
X82197632Y-76984328D01*
X82563811Y-77041542D01*
X82571245Y-77042939D01*
X82616902Y-77052976D01*
X82619992Y-77052835D01*
X82644781Y-77054194D01*
X82647837Y-77054672D01*
X82694291Y-77049691D01*
X82701860Y-77049113D01*
X82829160Y-77043327D01*
X82843027Y-77043474D01*
X82846450Y-77043701D01*
X82846457Y-77043703D01*
X82906310Y-77039842D01*
X82908655Y-77039714D01*
X82968550Y-77036992D01*
X82968557Y-77036989D01*
X82971900Y-77036394D01*
X82972262Y-77036350D01*
X82974274Y-77035972D01*
X82974609Y-77035886D01*
X82977964Y-77035222D01*
X82977967Y-77035222D01*
X82982759Y-77033600D01*
X83033934Y-77027586D01*
X83060000Y-77030000D01*
X83241556Y-76900557D01*
X83244608Y-76898452D01*
X83400497Y-76794526D01*
X83411598Y-76787936D01*
X83441062Y-76772462D01*
X83453288Y-76761175D01*
X83468599Y-76749126D01*
X83482453Y-76739891D01*
X83499067Y-76720985D01*
X83520217Y-76701881D01*
X84140000Y-76260000D01*
X85601874Y-74963804D01*
X85608603Y-74958251D01*
X85815653Y-74799352D01*
X85827663Y-74791207D01*
X85852798Y-74776232D01*
X85867214Y-74761412D01*
X85880586Y-74749520D01*
X85896986Y-74736935D01*
X85914791Y-74713725D01*
X85924288Y-74702743D01*
X85944692Y-74681772D01*
X85954777Y-74663735D01*
X85964630Y-74648766D01*
X85977204Y-74632378D01*
X85988401Y-74605339D01*
X85994723Y-74592292D01*
X86410590Y-73848529D01*
X86417773Y-73837178D01*
X86430000Y-73820000D01*
X86456288Y-73767094D01*
X86459040Y-73761879D01*
X86930122Y-72919367D01*
X87016758Y-72764423D01*
X87016842Y-72764272D01*
X87218952Y-72403989D01*
X87231546Y-72385629D01*
X87237644Y-72378258D01*
X87254421Y-72341613D01*
X87259022Y-72332560D01*
X87278745Y-72297403D01*
X87281106Y-72288132D01*
X87288519Y-72267133D01*
X87614444Y-71555246D01*
X87621253Y-71542417D01*
X87621315Y-71542314D01*
X87621320Y-71542308D01*
X87646197Y-71485916D01*
X87646858Y-71484446D01*
X87672503Y-71428435D01*
X87672504Y-71428428D01*
X87672541Y-71428310D01*
X87677608Y-71414718D01*
X87768155Y-71209478D01*
X87774324Y-71197348D01*
X87776762Y-71193139D01*
X87776769Y-71193131D01*
X87799578Y-71138317D01*
X87800583Y-71135975D01*
X87824513Y-71081736D01*
X87824513Y-71081730D01*
X87825876Y-71077074D01*
X87825972Y-71076802D01*
X87826075Y-71076436D01*
X87826137Y-71076143D01*
X87827397Y-71071471D01*
X87827401Y-71071462D01*
X87835236Y-71012690D01*
X87835608Y-71010114D01*
X87837691Y-70996666D01*
X87844688Y-70951505D01*
X87844687Y-70951497D01*
X87844799Y-70946619D01*
X87845855Y-70933050D01*
X87852648Y-70882105D01*
X87854447Y-70871892D01*
X87862976Y-70833097D01*
X87862513Y-70822929D01*
X87863473Y-70800913D01*
X87864818Y-70790834D01*
X87859698Y-70751443D01*
X87858795Y-70741127D01*
X87843324Y-70400774D01*
X87843509Y-70387414D01*
X87843474Y-70386818D01*
X87843475Y-70386816D01*
X87839878Y-70324792D01*
X87839810Y-70323457D01*
X87836992Y-70261449D01*
X87836965Y-70260849D01*
X87835402Y-70247572D01*
X87806255Y-69744783D01*
X87763919Y-69014496D01*
X87763908Y-69000368D01*
X87764024Y-68998282D01*
X87764026Y-68998275D01*
X87759485Y-68937749D01*
X87759358Y-68935819D01*
X87755848Y-68875253D01*
X87755843Y-68875240D01*
X87755450Y-68873176D01*
X87753593Y-68859181D01*
X87734179Y-68600325D01*
X87734738Y-68583683D01*
X87734699Y-68583683D01*
X87734788Y-68575558D01*
X87734787Y-68575554D01*
X87734788Y-68575551D01*
X87728585Y-68524076D01*
X87728044Y-68518528D01*
X87724170Y-68466860D01*
X87724169Y-68466857D01*
X87724169Y-68466855D01*
X87722509Y-68458900D01*
X87722548Y-68458891D01*
X87721082Y-68452581D01*
X87721043Y-68452591D01*
X87719026Y-68444718D01*
X87719025Y-68444716D01*
X87719025Y-68444714D01*
X87699707Y-68396587D01*
X87697756Y-68391388D01*
X87680636Y-68342471D01*
X87676974Y-68335218D01*
X87677009Y-68335200D01*
X87673955Y-68329475D01*
X87673920Y-68329495D01*
X87669936Y-68322416D01*
X87669935Y-68322415D01*
X87669935Y-68322414D01*
X87638828Y-68280938D01*
X87635600Y-68276425D01*
X87617759Y-68250261D01*
X87606394Y-68233593D01*
X87606391Y-68233590D01*
X87600976Y-68227531D01*
X87601005Y-68227505D01*
X87589628Y-68215338D01*
X87464598Y-68048630D01*
X87460053Y-68041720D01*
X87419575Y-67988594D01*
X87419008Y-67987844D01*
X87411665Y-67978053D01*
X87380865Y-67936986D01*
X87380863Y-67936985D01*
X87378880Y-67934340D01*
X87373470Y-67928080D01*
X87173862Y-67666095D01*
X87162226Y-67647662D01*
X87040000Y-67410000D01*
X87023937Y-67399981D01*
X86988434Y-67377836D01*
X86959336Y-67352648D01*
X86933364Y-67321905D01*
X86925549Y-67311610D01*
X86906825Y-67284076D01*
X86894248Y-67273226D01*
X86880522Y-67259357D01*
X86869806Y-67246672D01*
X86869805Y-67246671D01*
X86842468Y-67227665D01*
X86832255Y-67219744D01*
X86807040Y-67197991D01*
X86807037Y-67197989D01*
X86792082Y-67190765D01*
X86775236Y-67180923D01*
X84771245Y-65787671D01*
X84758542Y-65776631D01*
X84758540Y-65776634D01*
X84752287Y-65771447D01*
X84717857Y-65749787D01*
X84708646Y-65743992D01*
X84703909Y-65740857D01*
X84661605Y-65711445D01*
X84654380Y-65707715D01*
X84654381Y-65707712D01*
X84639250Y-65700335D01*
X82628817Y-64435556D01*
X82619936Y-64429189D01*
X82564877Y-64395323D01*
X82563814Y-64394661D01*
X82509166Y-64360282D01*
X82499529Y-64355129D01*
X80060997Y-62855238D01*
X80053709Y-62850392D01*
X79567902Y-62502078D01*
X79557886Y-62494082D01*
X79532765Y-62471806D01*
X79518160Y-62464504D01*
X79501359Y-62454368D01*
X79488085Y-62444851D01*
X79456661Y-62433013D01*
X79444921Y-62427883D01*
X78987445Y-62199145D01*
X78974543Y-62191694D01*
X78666438Y-61988125D01*
X78476320Y-61862511D01*
X78464754Y-61853860D01*
X78045628Y-61500480D01*
X78002892Y-61464448D01*
X77995141Y-61457328D01*
X77651404Y-61113590D01*
X77641205Y-61102038D01*
X77634873Y-61093897D01*
X77329063Y-60700713D01*
X77323786Y-60693391D01*
X77107495Y-60368953D01*
X77103318Y-60362232D01*
X77053221Y-60275577D01*
X76797369Y-59833024D01*
X82366645Y-59833024D01*
X82366645Y-60045517D01*
X82399887Y-60255398D01*
X82399887Y-60255401D01*
X82465549Y-60457488D01*
X82562022Y-60646825D01*
X82601374Y-60700987D01*
X82601374Y-60700988D01*
X83693301Y-59609061D01*
X83710339Y-59672645D01*
X83776165Y-59786659D01*
X83869257Y-59879751D01*
X83983271Y-59945577D01*
X84046854Y-59962614D01*
X82954926Y-61054540D01*
X82954927Y-61054541D01*
X83009085Y-61093889D01*
X83009098Y-61093897D01*
X83198427Y-61190366D01*
X83400515Y-61256028D01*
X83610399Y-61289271D01*
X83822891Y-61289271D01*
X84032772Y-61256028D01*
X84032775Y-61256028D01*
X84234862Y-61190366D01*
X84424202Y-61093891D01*
X84596107Y-60968995D01*
X84596113Y-60968990D01*
X84954081Y-60611022D01*
X84954081Y-60611021D01*
X84305673Y-59962614D01*
X84369257Y-59945577D01*
X84483271Y-59879751D01*
X84576363Y-59786659D01*
X84642189Y-59672645D01*
X84659226Y-59609061D01*
X85307633Y-60257469D01*
X85307634Y-60257469D01*
X85665602Y-59899501D01*
X85665607Y-59899495D01*
X85790503Y-59727590D01*
X85886977Y-59538253D01*
X85886978Y-59538250D01*
X85952640Y-59336159D01*
X85985883Y-59126279D01*
X85985883Y-58913786D01*
X85952640Y-58703905D01*
X85952640Y-58703902D01*
X85886978Y-58501815D01*
X85790509Y-58312486D01*
X85790501Y-58312473D01*
X85751153Y-58258315D01*
X85751152Y-58258314D01*
X84659226Y-59350241D01*
X84642189Y-59286659D01*
X84576363Y-59172645D01*
X84483271Y-59079553D01*
X84369257Y-59013727D01*
X84305672Y-58996689D01*
X85397600Y-57904762D01*
X85343437Y-57865410D01*
X85154100Y-57768937D01*
X84952012Y-57703275D01*
X84742129Y-57670033D01*
X84529637Y-57670033D01*
X84319756Y-57703275D01*
X84117665Y-57768937D01*
X84117662Y-57768938D01*
X83928325Y-57865412D01*
X83756423Y-57990305D01*
X83756418Y-57990309D01*
X83398446Y-58348280D01*
X83398446Y-58348281D01*
X84046854Y-58996689D01*
X83983271Y-59013727D01*
X83869257Y-59079553D01*
X83776165Y-59172645D01*
X83710339Y-59286659D01*
X83693301Y-59350242D01*
X83044893Y-58701834D01*
X83044892Y-58701834D01*
X82686921Y-59059806D01*
X82686917Y-59059811D01*
X82562024Y-59231713D01*
X82465549Y-59421053D01*
X82399887Y-59623140D01*
X82399887Y-59623143D01*
X82366645Y-59833024D01*
X76797369Y-59833024D01*
X76766971Y-59780443D01*
X76758849Y-59763568D01*
X76758169Y-59761831D01*
X76599318Y-59355876D01*
X76598084Y-59352586D01*
X76577680Y-59295746D01*
X76470598Y-58997449D01*
X76467298Y-58986762D01*
X76352012Y-58543352D01*
X76349563Y-58531627D01*
X76259830Y-57966313D01*
X76258422Y-57952425D01*
X76257720Y-57936751D01*
X76231749Y-57356710D01*
X76232025Y-57341221D01*
X76276111Y-56794547D01*
X76277956Y-56781027D01*
X76280379Y-56768475D01*
X76377228Y-56266615D01*
X76379200Y-56258049D01*
X76515496Y-55749213D01*
X76519228Y-55737603D01*
X76531296Y-55705561D01*
X76644645Y-55404600D01*
X76686693Y-55348803D01*
X76752235Y-55324595D01*
X76820460Y-55339665D01*
X76869707Y-55389228D01*
X76878323Y-55409094D01*
X76898208Y-55468749D01*
X76944598Y-55607919D01*
X76947012Y-55615159D01*
X76952825Y-55642702D01*
X76967640Y-55799431D01*
X76977571Y-55862135D01*
X77046195Y-56169137D01*
X77063902Y-56230086D01*
X77170461Y-56526064D01*
X77170464Y-56526072D01*
X77195667Y-56584314D01*
X77291061Y-56771535D01*
X77338486Y-56864612D01*
X77370801Y-56919253D01*
X77523749Y-57144309D01*
X77547615Y-57179427D01*
X77547624Y-57179440D01*
X77586516Y-57229579D01*
X77586541Y-57229609D01*
X77794557Y-57465555D01*
X77794573Y-57465572D01*
X77839428Y-57510427D01*
X77839444Y-57510442D01*
X78075390Y-57718458D01*
X78075420Y-57718483D01*
X78125559Y-57757375D01*
X78125565Y-57757379D01*
X78125570Y-57757383D01*
X78385747Y-57934199D01*
X78440388Y-57966514D01*
X78702672Y-58100154D01*
X78720685Y-58109332D01*
X78771041Y-58131122D01*
X78778936Y-58134539D01*
X78907368Y-58180777D01*
X79074913Y-58241097D01*
X79135862Y-58258804D01*
X79135866Y-58258805D01*
X79135870Y-58258806D01*
X79442868Y-58327429D01*
X79442873Y-58327429D01*
X79442874Y-58327430D01*
X79442886Y-58327432D01*
X79474218Y-58332394D01*
X79505569Y-58337360D01*
X79818745Y-58366964D01*
X79882195Y-58368958D01*
X80196614Y-58359077D01*
X80234161Y-58355527D01*
X80259795Y-58353104D01*
X80259800Y-58353103D01*
X80259814Y-58353102D01*
X80290259Y-58348280D01*
X80570491Y-58303896D01*
X80570499Y-58303894D01*
X80570514Y-58303892D01*
X80632466Y-58290045D01*
X80829809Y-58232711D01*
X80934550Y-58202282D01*
X80973964Y-58188091D01*
X80994279Y-58180777D01*
X81282980Y-58055844D01*
X81339539Y-58027026D01*
X81510261Y-57926062D01*
X81610291Y-57866905D01*
X81610292Y-57866904D01*
X81610306Y-57866896D01*
X81662812Y-57831213D01*
X81911373Y-57638409D01*
X81958990Y-57596428D01*
X82181428Y-57373990D01*
X82223409Y-57326373D01*
X82416213Y-57077812D01*
X82451896Y-57025306D01*
X82465323Y-57002603D01*
X82562099Y-56838962D01*
X82612026Y-56754539D01*
X82640844Y-56697980D01*
X82765777Y-56409279D01*
X82787282Y-56349549D01*
X82788816Y-56344271D01*
X82821605Y-56231409D01*
X82875045Y-56047466D01*
X82888892Y-55985514D01*
X82889570Y-55981238D01*
X82938099Y-55674833D01*
X82938099Y-55674832D01*
X82938102Y-55674814D01*
X82944077Y-55611614D01*
X82953958Y-55297195D01*
X82951964Y-55233745D01*
X82922360Y-54920569D01*
X82912429Y-54857868D01*
X82843806Y-54550870D01*
X82843480Y-54549747D01*
X82826097Y-54489913D01*
X82748520Y-54274435D01*
X82719539Y-54193936D01*
X82707462Y-54166027D01*
X82694332Y-54135685D01*
X82667109Y-54082257D01*
X82551514Y-53855388D01*
X82519199Y-53800747D01*
X82342383Y-53540570D01*
X82342379Y-53540565D01*
X82342375Y-53540559D01*
X82303483Y-53490420D01*
X82303458Y-53490390D01*
X82095442Y-53254444D01*
X82095427Y-53254428D01*
X82050572Y-53209573D01*
X82050555Y-53209557D01*
X81814609Y-53001541D01*
X81814579Y-53001516D01*
X81764440Y-52962624D01*
X81764427Y-52962615D01*
X81746583Y-52950488D01*
X81504253Y-52785801D01*
X81449612Y-52753486D01*
X81273187Y-52663593D01*
X81169314Y-52610667D01*
X81111072Y-52585464D01*
X81111064Y-52585461D01*
X80815086Y-52478902D01*
X80754137Y-52461195D01*
X80447125Y-52392569D01*
X80447113Y-52392567D01*
X80384448Y-52382642D01*
X80384437Y-52382640D01*
X80384431Y-52382640D01*
X80303197Y-52374961D01*
X80292512Y-52373951D01*
X80227622Y-52348044D01*
X80187040Y-52291168D01*
X80183650Y-52221381D01*
X80218528Y-52160839D01*
X80274683Y-52130061D01*
X80673021Y-52032509D01*
X80683440Y-52030427D01*
X81096578Y-51966161D01*
X81100592Y-51965605D01*
X81375200Y-51932319D01*
X81393127Y-51931456D01*
X82136585Y-51949589D01*
X82148911Y-51950507D01*
X82646458Y-52012701D01*
X82658822Y-52014888D01*
X83331283Y-52169372D01*
X83345571Y-52173573D01*
X83697449Y-52300480D01*
X83895219Y-52371807D01*
X83904970Y-52375800D01*
X83977588Y-52409204D01*
X84345660Y-52578517D01*
X84359169Y-52585775D01*
X84811491Y-52866216D01*
X84817233Y-52870001D01*
X85161945Y-53111299D01*
X85170658Y-53117398D01*
X85182873Y-53127151D01*
X85662858Y-53562692D01*
X85668175Y-53567516D01*
X85677762Y-53577231D01*
X85891461Y-53819049D01*
X86021162Y-53965816D01*
X86026426Y-53972188D01*
X86259589Y-54274435D01*
X86268348Y-54287406D01*
X86507364Y-54694618D01*
X86511469Y-54702205D01*
X86531112Y-54741735D01*
X86534875Y-54745999D01*
X86548831Y-54765266D01*
X86551714Y-54770178D01*
X86551720Y-54770186D01*
X86583160Y-54801178D01*
X86589090Y-54807444D01*
X86829581Y-55080001D01*
X86839093Y-55093488D01*
X86839150Y-55093447D01*
X86843979Y-55099983D01*
X86880125Y-55137468D01*
X86883844Y-55141499D01*
X86918304Y-55180554D01*
X86924428Y-55185892D01*
X86924382Y-55185944D01*
X86937058Y-55196509D01*
X87426741Y-55704328D01*
X87427914Y-55705561D01*
X90154359Y-58611771D01*
X90154358Y-58611771D01*
X90154368Y-58611781D01*
X91473090Y-60017772D01*
X91487836Y-60036940D01*
X91490330Y-60040935D01*
X91523312Y-60071718D01*
X91529136Y-60077528D01*
X91560022Y-60110457D01*
X91564021Y-60112939D01*
X91583228Y-60127639D01*
X91603523Y-60146581D01*
X91638358Y-60179095D01*
X91648968Y-60191425D01*
X91649056Y-60191347D01*
X91654487Y-60197391D01*
X91654491Y-60197394D01*
X91654493Y-60197397D01*
X91694357Y-60231516D01*
X91698310Y-60235051D01*
X91736671Y-60270853D01*
X91743287Y-60275577D01*
X91743217Y-60275674D01*
X91747731Y-60278753D01*
X91747797Y-60278653D01*
X91754610Y-60283087D01*
X91754611Y-60283087D01*
X91754613Y-60283089D01*
X91792813Y-60301358D01*
X91801946Y-60305726D01*
X91806672Y-60308112D01*
X91847077Y-60329619D01*
X91853006Y-60332775D01*
X91860616Y-60335624D01*
X91860574Y-60335735D01*
X91875932Y-60341111D01*
X92035877Y-60417606D01*
X92039053Y-60419182D01*
X92411767Y-60611021D01*
X92698799Y-60758759D01*
X92703572Y-60761350D01*
X92793108Y-60812513D01*
X92807729Y-60822305D01*
X92824673Y-60835488D01*
X92850891Y-60846553D01*
X92864181Y-60853125D01*
X92888893Y-60867247D01*
X92909658Y-60872711D01*
X92926312Y-60878386D01*
X92946086Y-60886733D01*
X92974272Y-60890635D01*
X92988809Y-60893543D01*
X93016337Y-60900789D01*
X93037811Y-60900693D01*
X93055365Y-60901863D01*
X93645388Y-60983558D01*
X93651697Y-60984598D01*
X93681878Y-60990378D01*
X94098164Y-61070093D01*
X94101203Y-61070714D01*
X94157989Y-61083068D01*
X94157990Y-61083067D01*
X94157991Y-61083068D01*
X94164220Y-61083588D01*
X94170576Y-61083959D01*
X94170586Y-61083961D01*
X94228523Y-61079746D01*
X94231534Y-61079565D01*
X94360199Y-61073438D01*
X94367575Y-61073545D01*
X94371369Y-61073338D01*
X94371371Y-61073339D01*
X94435111Y-61069873D01*
X94435886Y-61069833D01*
X94499624Y-61066799D01*
X94499628Y-61066797D01*
X94499704Y-61066794D01*
X94500989Y-61066554D01*
X94501773Y-61066410D01*
X94502897Y-61066206D01*
X94502957Y-61066186D01*
X94502960Y-61066186D01*
X94563777Y-61046293D01*
X94564266Y-61046135D01*
X94625151Y-61026675D01*
X94625153Y-61026673D01*
X94625220Y-61026652D01*
X94626297Y-61026137D01*
X94627029Y-61025789D01*
X94628155Y-61025258D01*
X94637252Y-61019325D01*
X94681821Y-60990257D01*
X94682112Y-60990068D01*
X94736016Y-60955429D01*
X94736020Y-60955424D01*
X94739237Y-60953357D01*
X94745131Y-60948967D01*
X94877762Y-60862468D01*
X94892480Y-60854240D01*
X94894829Y-60853129D01*
X94913569Y-60844266D01*
X94933851Y-60827056D01*
X94946320Y-60817758D01*
X94968599Y-60803229D01*
X94984183Y-60785851D01*
X94996253Y-60774108D01*
X95293321Y-60522052D01*
X95604327Y-60259639D01*
X95607674Y-60256915D01*
X95650865Y-60223014D01*
X95650871Y-60223005D01*
X95656551Y-60217201D01*
X95656863Y-60217506D01*
X95657968Y-60216336D01*
X95657645Y-60216041D01*
X95663118Y-60210036D01*
X95667781Y-60203338D01*
X95694469Y-60165000D01*
X95696992Y-60161509D01*
X95817721Y-60000536D01*
X95827401Y-59989137D01*
X95846851Y-59968856D01*
X95857376Y-59949707D01*
X95866832Y-59935054D01*
X95879935Y-59917586D01*
X95881193Y-59914452D01*
X95890393Y-59891532D01*
X95896806Y-59877985D01*
X95910337Y-59853372D01*
X95915546Y-59832157D01*
X95920892Y-59815546D01*
X95929025Y-59795286D01*
X95932383Y-59767404D01*
X95935068Y-59752678D01*
X96048591Y-59290477D01*
X96053317Y-59277847D01*
X96052618Y-59277597D01*
X96055355Y-59269941D01*
X96055355Y-59269937D01*
X96055357Y-59269935D01*
X96067383Y-59214174D01*
X96068158Y-59210810D01*
X96081771Y-59155392D01*
X96081770Y-59155383D01*
X96082663Y-59147307D01*
X96083402Y-59147388D01*
X96084683Y-59133964D01*
X96163972Y-58766351D01*
X96168467Y-58753152D01*
X96167862Y-58752957D01*
X96170358Y-58745230D01*
X96170362Y-58745224D01*
X96180531Y-58689856D01*
X96181277Y-58686123D01*
X96181860Y-58683420D01*
X96193142Y-58631113D01*
X96193141Y-58631104D01*
X96193804Y-58623011D01*
X96194436Y-58623062D01*
X96195353Y-58609158D01*
X96268773Y-58209424D01*
X96270390Y-58201939D01*
X96273833Y-58188091D01*
X96281615Y-58156783D01*
X96281555Y-58153500D01*
X96283576Y-58128834D01*
X96284169Y-58125608D01*
X96280441Y-58079214D01*
X96280064Y-58071543D01*
X96279746Y-58054075D01*
X96271754Y-57614489D01*
X96272242Y-57602863D01*
X96272061Y-57596606D01*
X96270384Y-57538759D01*
X96270357Y-57537619D01*
X96269219Y-57475020D01*
X96269218Y-57475017D01*
X96269191Y-57473521D01*
X96268157Y-57461937D01*
X96267144Y-57426994D01*
X96252352Y-56916663D01*
X96253595Y-56902020D01*
X96253136Y-56901990D01*
X96253681Y-56893882D01*
X96252959Y-56882567D01*
X96250172Y-56838915D01*
X96249976Y-56834692D01*
X96248381Y-56779635D01*
X96248378Y-56779627D01*
X96247086Y-56771609D01*
X96247540Y-56771535D01*
X96244947Y-56757061D01*
X96244786Y-56754533D01*
X96239413Y-56670361D01*
X96254787Y-56602206D01*
X96304569Y-56553180D01*
X96372954Y-56538851D01*
X96438229Y-56563769D01*
X96479671Y-56620021D01*
X96480476Y-56622298D01*
X96512962Y-56717182D01*
X96512963Y-56717187D01*
X96537227Y-56775763D01*
X96675616Y-57058250D01*
X96675633Y-57058282D01*
X96707041Y-57113346D01*
X96707053Y-57113366D01*
X96879749Y-57376272D01*
X96917833Y-57426994D01*
X97122136Y-57666201D01*
X97122145Y-57666211D01*
X97166240Y-57711713D01*
X97166279Y-57711751D01*
X97398918Y-57923435D01*
X97398947Y-57923459D01*
X97448400Y-57963079D01*
X97448416Y-57963091D01*
X97705788Y-58143976D01*
X97759869Y-58177118D01*
X97927983Y-58266129D01*
X98506662Y-56869075D01*
X98518829Y-56877915D01*
X98729200Y-56985104D01*
X98953749Y-57058065D01*
X98968601Y-57060417D01*
X98388445Y-58461040D01*
X98388444Y-58461040D01*
X98389948Y-58461608D01*
X98450545Y-58480251D01*
X98450551Y-58480252D01*
X98756433Y-58553689D01*
X98818906Y-58564592D01*
X99131578Y-58599111D01*
X99131611Y-58599114D01*
X99194919Y-58602099D01*
X99509474Y-58597158D01*
X99572686Y-58592182D01*
X99884129Y-58547858D01*
X99946231Y-58534997D01*
X100249646Y-58451992D01*
X100309622Y-58431457D01*
X100309667Y-58431440D01*
X100600253Y-58311077D01*
X100600290Y-58311060D01*
X100657215Y-58283174D01*
X100657245Y-58283158D01*
X100930472Y-58127312D01*
X100983483Y-58092490D01*
X101235046Y-57903610D01*
X101283268Y-57862424D01*
X101509161Y-57643519D01*
X101509168Y-57643512D01*
X101551850Y-57596606D01*
X101748530Y-57351109D01*
X101785010Y-57299204D01*
X101949361Y-57031006D01*
X101949364Y-57031002D01*
X101979043Y-56974947D01*
X101979698Y-56973494D01*
X100579075Y-56393336D01*
X100587915Y-56381171D01*
X100695104Y-56170800D01*
X100768065Y-55946251D01*
X100770417Y-55931396D01*
X102167470Y-56510075D01*
X102167471Y-56510074D01*
X102223400Y-56328277D01*
X102223405Y-56328260D01*
X102238211Y-56266587D01*
X102253554Y-56178673D01*
X102284471Y-56116015D01*
X102344354Y-56080019D01*
X102414193Y-56082113D01*
X102471812Y-56121632D01*
X102482035Y-56136188D01*
X102495870Y-56159247D01*
X102497755Y-56162501D01*
X102525212Y-56211644D01*
X102525214Y-56211646D01*
X102525216Y-56211649D01*
X102529855Y-56217875D01*
X102534725Y-56224006D01*
X102534726Y-56224007D01*
X102575171Y-56263114D01*
X102577855Y-56265791D01*
X102873435Y-56569817D01*
X102883496Y-56582721D01*
X102883574Y-56582658D01*
X102888708Y-56588956D01*
X102926798Y-56624870D01*
X102930601Y-56628616D01*
X102953592Y-56652263D01*
X102967080Y-56666136D01*
X102973457Y-56671174D01*
X102973394Y-56671253D01*
X102986446Y-56681109D01*
X103279992Y-56957881D01*
X103282607Y-56960421D01*
X103447425Y-57125239D01*
X103461328Y-57141810D01*
X103467759Y-57150997D01*
X103467760Y-57150998D01*
X103467761Y-57150999D01*
X103489126Y-57168931D01*
X103497387Y-57175865D01*
X103505349Y-57183163D01*
X103532686Y-57210500D01*
X103542396Y-57216106D01*
X103560109Y-57228510D01*
X103568702Y-57235722D01*
X103603745Y-57252068D01*
X103613300Y-57257042D01*
X103646814Y-57276392D01*
X103657644Y-57279294D01*
X103677967Y-57286691D01*
X103685494Y-57290203D01*
X103688133Y-57291434D01*
X103726205Y-57298152D01*
X103736749Y-57300490D01*
X103745126Y-57302734D01*
X103774108Y-57310500D01*
X103785322Y-57310500D01*
X103806870Y-57312387D01*
X103914282Y-57331341D01*
X103917716Y-57331997D01*
X103973612Y-57343506D01*
X103973617Y-57343505D01*
X103980745Y-57344020D01*
X103987903Y-57344333D01*
X103987910Y-57344335D01*
X104044731Y-57339371D01*
X104048230Y-57339116D01*
X104542706Y-57310028D01*
X104545215Y-57309908D01*
X105034014Y-57291805D01*
X105051638Y-57292407D01*
X105072884Y-57294655D01*
X105101118Y-57290201D01*
X105115828Y-57288774D01*
X105144371Y-57287718D01*
X105164772Y-57281432D01*
X105181955Y-57277451D01*
X105203059Y-57274124D01*
X105229168Y-57262519D01*
X105243003Y-57257334D01*
X105270315Y-57248922D01*
X105288404Y-57237563D01*
X105303952Y-57229280D01*
X105495139Y-57144308D01*
X105564395Y-57135070D01*
X105627652Y-57164740D01*
X105664827Y-57223900D01*
X105669500Y-57257622D01*
X105669500Y-61744070D01*
X105681976Y-61806786D01*
X105681976Y-61806788D01*
X105693060Y-61862514D01*
X105694499Y-61869744D01*
X105743535Y-61988127D01*
X105814723Y-62094669D01*
X105814726Y-62094673D01*
X105814727Y-62094674D01*
X106387873Y-62667819D01*
X106421358Y-62729142D01*
X106416374Y-62798833D01*
X106374503Y-62854767D01*
X106309038Y-62879184D01*
X106300192Y-62879500D01*
X85085068Y-62879500D01*
X85019096Y-62860494D01*
X84929522Y-62804210D01*
X84929518Y-62804209D01*
X84759262Y-62744633D01*
X84759249Y-62744630D01*
X84580004Y-62724435D01*
X84579996Y-62724435D01*
X84400750Y-62744630D01*
X84400745Y-62744631D01*
X84230476Y-62804211D01*
X84077737Y-62900184D01*
X83950184Y-63027737D01*
X83854211Y-63180476D01*
X83794631Y-63350745D01*
X83794630Y-63350750D01*
X83774435Y-63529996D01*
X83774435Y-63530003D01*
X83794630Y-63709249D01*
X83794631Y-63709254D01*
X83854211Y-63879523D01*
X83904846Y-63960107D01*
X83950184Y-64032262D01*
X84077738Y-64159816D01*
X84117836Y-64185011D01*
X84226021Y-64252989D01*
X84230478Y-64255789D01*
X84400739Y-64315366D01*
X84400745Y-64315368D01*
X84400750Y-64315369D01*
X84579996Y-64335565D01*
X84580000Y-64335565D01*
X84580004Y-64335565D01*
X84759249Y-64315369D01*
X84759251Y-64315368D01*
X84759255Y-64315368D01*
X84759258Y-64315366D01*
X84759262Y-64315366D01*
X84849377Y-64283832D01*
X84929522Y-64255789D01*
X85019096Y-64199505D01*
X85085068Y-64180500D01*
X96111874Y-64180500D01*
X96178913Y-64200185D01*
X96224668Y-64252989D01*
X96234612Y-64322147D01*
X96225431Y-64354309D01*
X96211669Y-64385682D01*
X96155141Y-64608909D01*
X96136126Y-64838388D01*
X96136126Y-64838399D01*
X96155141Y-65067880D01*
X96155141Y-65067883D01*
X96160126Y-65087567D01*
X96157500Y-65157387D01*
X96117543Y-65214704D01*
X96052941Y-65241319D01*
X96019510Y-65240314D01*
X95972567Y-65232480D01*
X95877759Y-65216660D01*
X95647485Y-65216660D01*
X95602058Y-65224240D01*
X95420347Y-65254562D01*
X95202560Y-65329329D01*
X95202552Y-65329332D01*
X95000030Y-65438932D01*
X94818316Y-65580366D01*
X94818311Y-65580371D01*
X94662350Y-65749789D01*
X94536404Y-65942565D01*
X94443904Y-66153445D01*
X94387375Y-66376675D01*
X94368360Y-66606154D01*
X94368360Y-66606165D01*
X94387375Y-66835646D01*
X94387376Y-66835652D01*
X94392360Y-66855335D01*
X94389734Y-66925155D01*
X94349776Y-66982472D01*
X94285174Y-67009087D01*
X94251745Y-67008081D01*
X94109991Y-66984427D01*
X93879717Y-66984427D01*
X93834290Y-66992007D01*
X93652579Y-67022329D01*
X93434792Y-67097096D01*
X93434784Y-67097099D01*
X93232262Y-67206699D01*
X93050548Y-67348133D01*
X93050543Y-67348138D01*
X92894582Y-67517556D01*
X92768636Y-67710332D01*
X92676136Y-67921212D01*
X92619607Y-68144442D01*
X92600592Y-68373921D01*
X92600592Y-68373932D01*
X92619607Y-68603411D01*
X92676136Y-68826641D01*
X92768636Y-69037521D01*
X92894582Y-69230297D01*
X92894585Y-69230300D01*
X93050546Y-69399719D01*
X93232265Y-69541156D01*
X93434785Y-69650755D01*
X93547879Y-69689580D01*
X93652579Y-69725524D01*
X93652581Y-69725524D01*
X93652583Y-69725525D01*
X93879717Y-69763427D01*
X93879718Y-69763427D01*
X94109990Y-69763427D01*
X94109991Y-69763427D01*
X94337125Y-69725525D01*
X94554923Y-69650755D01*
X94757443Y-69541156D01*
X94939162Y-69399719D01*
X95095123Y-69230300D01*
X95221071Y-69037522D01*
X95313571Y-68826643D01*
X95370100Y-68603415D01*
X95383250Y-68444718D01*
X95389116Y-68373932D01*
X95389116Y-68373921D01*
X95370100Y-68144442D01*
X95370100Y-68144439D01*
X95365115Y-68124753D01*
X95367740Y-68054934D01*
X95407696Y-67997616D01*
X95472298Y-67971000D01*
X95505727Y-67972004D01*
X95647485Y-67995660D01*
X95647486Y-67995660D01*
X95877758Y-67995660D01*
X95877759Y-67995660D01*
X96104893Y-67957758D01*
X96322691Y-67882988D01*
X96525211Y-67773389D01*
X96706930Y-67631952D01*
X96862891Y-67462533D01*
X96988839Y-67269755D01*
X97081339Y-67058876D01*
X97137868Y-66835648D01*
X97146319Y-66733653D01*
X97156884Y-66606165D01*
X97156884Y-66606154D01*
X97137868Y-66376673D01*
X97137868Y-66376669D01*
X97132884Y-66356989D01*
X97135508Y-66287169D01*
X97175463Y-66229851D01*
X97240064Y-66203234D01*
X97273493Y-66204238D01*
X97415251Y-66227894D01*
X97415252Y-66227894D01*
X97645524Y-66227894D01*
X97645525Y-66227894D01*
X97872659Y-66189992D01*
X98090457Y-66115222D01*
X98292977Y-66005623D01*
X98474696Y-65864186D01*
X98630657Y-65694767D01*
X98756605Y-65501989D01*
X98849105Y-65291110D01*
X98905634Y-65067882D01*
X98924650Y-64838394D01*
X98905634Y-64608906D01*
X98849105Y-64385678D01*
X98835344Y-64354307D01*
X98826444Y-64285008D01*
X98856421Y-64221897D01*
X98915761Y-64185011D01*
X98948902Y-64180500D01*
X101260192Y-64180500D01*
X101327231Y-64200185D01*
X101372986Y-64252989D01*
X101382930Y-64322147D01*
X101353905Y-64385703D01*
X101347873Y-64392181D01*
X94776873Y-70963181D01*
X94715550Y-70996666D01*
X94689192Y-70999500D01*
X90825929Y-70999500D01*
X90700261Y-71024497D01*
X90700255Y-71024499D01*
X90581874Y-71073534D01*
X90475326Y-71144726D01*
X90475325Y-71144727D01*
X79146873Y-82473181D01*
X79085550Y-82506666D01*
X79059192Y-82509500D01*
X78575068Y-82509500D01*
X78509096Y-82490494D01*
X78419522Y-82434210D01*
X78419518Y-82434209D01*
X78249262Y-82374633D01*
X78249249Y-82374630D01*
X78070004Y-82354435D01*
X78069996Y-82354435D01*
X77890750Y-82374630D01*
X77890745Y-82374631D01*
X77720476Y-82434211D01*
X77567737Y-82530184D01*
X77440184Y-82657737D01*
X77344211Y-82810476D01*
X77284631Y-82980745D01*
X77284630Y-82980750D01*
X77264435Y-83159996D01*
X77264435Y-83160003D01*
X77284630Y-83339249D01*
X77284631Y-83339254D01*
X77344211Y-83509523D01*
X77438964Y-83660321D01*
X77440184Y-83662262D01*
X77567738Y-83789816D01*
X77638340Y-83834178D01*
X77707365Y-83877550D01*
X77720478Y-83885789D01*
X77812889Y-83918125D01*
X77890745Y-83945368D01*
X77890750Y-83945369D01*
X78069996Y-83965565D01*
X78070000Y-83965565D01*
X78070004Y-83965565D01*
X78249249Y-83945369D01*
X78249251Y-83945368D01*
X78249255Y-83945368D01*
X78249258Y-83945366D01*
X78249262Y-83945366D01*
X78339377Y-83913832D01*
X78419522Y-83885789D01*
X78509096Y-83829505D01*
X78575068Y-83810500D01*
X79444071Y-83810500D01*
X79528615Y-83793682D01*
X79569744Y-83785501D01*
X79688127Y-83736465D01*
X79794669Y-83665277D01*
X84269952Y-79189994D01*
X87985737Y-79189994D01*
X87985737Y-79190005D01*
X88004752Y-79419484D01*
X88061281Y-79642714D01*
X88153781Y-79853594D01*
X88279727Y-80046370D01*
X88279730Y-80046373D01*
X88435691Y-80215792D01*
X88543882Y-80300000D01*
X88617407Y-80357227D01*
X88617412Y-80357230D01*
X88661233Y-80380945D01*
X88710824Y-80430164D01*
X88725932Y-80498381D01*
X88701762Y-80563937D01*
X88661234Y-80599054D01*
X88617417Y-80622766D01*
X88617408Y-80622772D01*
X88435694Y-80764206D01*
X88435689Y-80764211D01*
X88279728Y-80933629D01*
X88153782Y-81126405D01*
X88061282Y-81337285D01*
X88004753Y-81560515D01*
X87985738Y-81789994D01*
X87985738Y-81790005D01*
X88004753Y-82019484D01*
X88061282Y-82242714D01*
X88153782Y-82453594D01*
X88279728Y-82646370D01*
X88310656Y-82679967D01*
X88435692Y-82815792D01*
X88505325Y-82869989D01*
X88598032Y-82942146D01*
X88638845Y-82998856D01*
X88642519Y-83068629D01*
X88607887Y-83129312D01*
X88598032Y-83137852D01*
X88435693Y-83264205D01*
X88435688Y-83264210D01*
X88279727Y-83433628D01*
X88153781Y-83626404D01*
X88061281Y-83837284D01*
X88004752Y-84060514D01*
X87985737Y-84289993D01*
X87985737Y-84290004D01*
X88004752Y-84519483D01*
X88061281Y-84742713D01*
X88153781Y-84953593D01*
X88279727Y-85146369D01*
X88279730Y-85146372D01*
X88435691Y-85315791D01*
X88617410Y-85457228D01*
X88819930Y-85566827D01*
X88882278Y-85588231D01*
X89037724Y-85641596D01*
X89037726Y-85641596D01*
X89037728Y-85641597D01*
X89264862Y-85679499D01*
X89264863Y-85679499D01*
X89495135Y-85679499D01*
X89495136Y-85679499D01*
X89722270Y-85641597D01*
X89940068Y-85566827D01*
X90142588Y-85457228D01*
X90324307Y-85315791D01*
X90480268Y-85146372D01*
X90606216Y-84953594D01*
X90698716Y-84742715D01*
X90755245Y-84519487D01*
X90766021Y-84389436D01*
X90774261Y-84290004D01*
X90774261Y-84289993D01*
X90759420Y-84110892D01*
X90755245Y-84060511D01*
X90698716Y-83837283D01*
X90606216Y-83626404D01*
X90590815Y-83602831D01*
X90480270Y-83433628D01*
X90414442Y-83362120D01*
X90324307Y-83264207D01*
X90246998Y-83204035D01*
X90161966Y-83137852D01*
X90121153Y-83081142D01*
X90117479Y-83011369D01*
X90152111Y-82950686D01*
X90161949Y-82942160D01*
X90324308Y-82815792D01*
X90480269Y-82646373D01*
X90606217Y-82453595D01*
X90698717Y-82242716D01*
X90755246Y-82019488D01*
X90765750Y-81892725D01*
X90774262Y-81790005D01*
X90774262Y-81789994D01*
X90755246Y-81560515D01*
X90755246Y-81560512D01*
X90698717Y-81337284D01*
X90606217Y-81126405D01*
X90588285Y-81098958D01*
X90480271Y-80933629D01*
X90424668Y-80873228D01*
X90324308Y-80764208D01*
X90212227Y-80676972D01*
X90142591Y-80622772D01*
X90142582Y-80622766D01*
X90098764Y-80599053D01*
X90049174Y-80549834D01*
X90034066Y-80481617D01*
X90058237Y-80416061D01*
X90098761Y-80380946D01*
X90142588Y-80357229D01*
X90324307Y-80215792D01*
X90480268Y-80046373D01*
X90606216Y-79853595D01*
X90698716Y-79642716D01*
X90755245Y-79419488D01*
X90767453Y-79272165D01*
X90774261Y-79190005D01*
X90774261Y-79189994D01*
X90758556Y-79000467D01*
X90755245Y-78960512D01*
X90698716Y-78737284D01*
X90606216Y-78526405D01*
X90584514Y-78493188D01*
X90480270Y-78333629D01*
X90391506Y-78237206D01*
X90324307Y-78164208D01*
X90237860Y-78096924D01*
X90142590Y-78022772D01*
X89940068Y-77913172D01*
X89940060Y-77913169D01*
X89722273Y-77838402D01*
X89535658Y-77807262D01*
X89495136Y-77800500D01*
X89264862Y-77800500D01*
X89232106Y-77805966D01*
X89037724Y-77838402D01*
X88819937Y-77913169D01*
X88819929Y-77913172D01*
X88617407Y-78022772D01*
X88435693Y-78164206D01*
X88435688Y-78164211D01*
X88279727Y-78333629D01*
X88153781Y-78526405D01*
X88061281Y-78737285D01*
X88004752Y-78960515D01*
X87985737Y-79189994D01*
X84269952Y-79189994D01*
X91123127Y-72336819D01*
X91184450Y-72303334D01*
X91210808Y-72300500D01*
X95074071Y-72300500D01*
X95158615Y-72283682D01*
X95199744Y-72275501D01*
X95318127Y-72226465D01*
X95338560Y-72212812D01*
X95424669Y-72155277D01*
X102303127Y-65276819D01*
X102364450Y-65243334D01*
X102390808Y-65240500D01*
X117639192Y-65240500D01*
X117706231Y-65260185D01*
X117726873Y-65276819D01*
X126863181Y-74413127D01*
X126896666Y-74474450D01*
X126899500Y-74500808D01*
X126899500Y-87434071D01*
X126914889Y-87511433D01*
X126914889Y-87511434D01*
X126924496Y-87559737D01*
X126924498Y-87559742D01*
X126971567Y-87673375D01*
X126973535Y-87678127D01*
X126977793Y-87684499D01*
X127044726Y-87784673D01*
X127128277Y-87868224D01*
X127161762Y-87929547D01*
X127163815Y-87942012D01*
X127164630Y-87949246D01*
X127164632Y-87949255D01*
X127224210Y-88119521D01*
X127288695Y-88222147D01*
X127320184Y-88272262D01*
X127447738Y-88399816D01*
X127600478Y-88495789D01*
X127770745Y-88555368D01*
X127770750Y-88555369D01*
X127949996Y-88575565D01*
X127950000Y-88575565D01*
X127950004Y-88575565D01*
X128129249Y-88555369D01*
X128129252Y-88555368D01*
X128129255Y-88555368D01*
X128299522Y-88495789D01*
X128452262Y-88399816D01*
X128579816Y-88272262D01*
X128675789Y-88119522D01*
X128735368Y-87949255D01*
X128741041Y-87898904D01*
X128755565Y-87770003D01*
X128755565Y-87769996D01*
X128735369Y-87590750D01*
X128735368Y-87590745D01*
X128718191Y-87541656D01*
X128675789Y-87420478D01*
X128674094Y-87417781D01*
X128617015Y-87326940D01*
X128579816Y-87267738D01*
X128452262Y-87140184D01*
X128412523Y-87115214D01*
X128299524Y-87044212D01*
X128299525Y-87044212D01*
X128297785Y-87043603D01*
X128283541Y-87038619D01*
X128226768Y-86997897D01*
X128201022Y-86932944D01*
X128200500Y-86921579D01*
X128200500Y-82345731D01*
X128220185Y-82278692D01*
X128272989Y-82232937D01*
X128342147Y-82222993D01*
X128405703Y-82252018D01*
X128429492Y-82279757D01*
X128500184Y-82392262D01*
X128627738Y-82519816D01*
X128718080Y-82576582D01*
X128775453Y-82612632D01*
X128780478Y-82615789D01*
X128931749Y-82668721D01*
X128950745Y-82675368D01*
X128950750Y-82675369D01*
X129129996Y-82695565D01*
X129130000Y-82695565D01*
X129130004Y-82695565D01*
X129309249Y-82675369D01*
X129309252Y-82675368D01*
X129309255Y-82675368D01*
X129479522Y-82615789D01*
X129632262Y-82519816D01*
X129759816Y-82392262D01*
X129855789Y-82239522D01*
X129915368Y-82069255D01*
X129915369Y-82069249D01*
X129935565Y-81890003D01*
X129935565Y-81889996D01*
X129930405Y-81844195D01*
X131184638Y-81844195D01*
X131184638Y-81844206D01*
X131203653Y-82073685D01*
X131260182Y-82296915D01*
X131352682Y-82507795D01*
X131478628Y-82700571D01*
X131497640Y-82721223D01*
X131634592Y-82869993D01*
X131712554Y-82930673D01*
X131816308Y-83011428D01*
X131816313Y-83011431D01*
X131860134Y-83035146D01*
X131909725Y-83084365D01*
X131924833Y-83152582D01*
X131900663Y-83218138D01*
X131860135Y-83253255D01*
X131816318Y-83276967D01*
X131816309Y-83276973D01*
X131634595Y-83418407D01*
X131634590Y-83418412D01*
X131478629Y-83587830D01*
X131352683Y-83780606D01*
X131260183Y-83991486D01*
X131203654Y-84214716D01*
X131184639Y-84444195D01*
X131184639Y-84444206D01*
X131203654Y-84673685D01*
X131260183Y-84896915D01*
X131352683Y-85107795D01*
X131478629Y-85300571D01*
X131492640Y-85315791D01*
X131634593Y-85469993D01*
X131748040Y-85558292D01*
X131814929Y-85610354D01*
X131816312Y-85611430D01*
X132018832Y-85721029D01*
X132096758Y-85747781D01*
X132236626Y-85795798D01*
X132236628Y-85795798D01*
X132236630Y-85795799D01*
X132463764Y-85833701D01*
X132463765Y-85833701D01*
X132694037Y-85833701D01*
X132694038Y-85833701D01*
X132921172Y-85795799D01*
X133138970Y-85721029D01*
X133341490Y-85611430D01*
X133523209Y-85469993D01*
X133679170Y-85300574D01*
X133805118Y-85107796D01*
X133897618Y-84896917D01*
X133954147Y-84673689D01*
X133967813Y-84508769D01*
X133973163Y-84444206D01*
X133973163Y-84444195D01*
X133954147Y-84214716D01*
X133954147Y-84214713D01*
X133897618Y-83991485D01*
X133805118Y-83780606D01*
X133785246Y-83750190D01*
X133679172Y-83587830D01*
X133619483Y-83522991D01*
X133523209Y-83418409D01*
X133412283Y-83332072D01*
X133341492Y-83276973D01*
X133341483Y-83276967D01*
X133297665Y-83253254D01*
X133248075Y-83204035D01*
X133232967Y-83135818D01*
X133257138Y-83070262D01*
X133297662Y-83035147D01*
X133341489Y-83011430D01*
X133523208Y-82869993D01*
X133679169Y-82700574D01*
X133805117Y-82507796D01*
X133897617Y-82296917D01*
X133954146Y-82073689D01*
X133969139Y-81892753D01*
X133973162Y-81844206D01*
X133973162Y-81844195D01*
X133955325Y-81628945D01*
X133954146Y-81614713D01*
X133897617Y-81391485D01*
X133805117Y-81180606D01*
X133794406Y-81164211D01*
X133679171Y-80987830D01*
X133629275Y-80933629D01*
X133523208Y-80818409D01*
X133422505Y-80740029D01*
X133360867Y-80692054D01*
X133320054Y-80635344D01*
X133316380Y-80565571D01*
X133351012Y-80504888D01*
X133360850Y-80496362D01*
X133523209Y-80369994D01*
X133679170Y-80200575D01*
X133805118Y-80007797D01*
X133897618Y-79796918D01*
X133954147Y-79573690D01*
X133965437Y-79437437D01*
X133973163Y-79344207D01*
X133973163Y-79344196D01*
X133957009Y-79149255D01*
X133954147Y-79114714D01*
X133897618Y-78891486D01*
X133805118Y-78680607D01*
X133786284Y-78651779D01*
X133679172Y-78487831D01*
X133595836Y-78397304D01*
X133523209Y-78318410D01*
X133439166Y-78252997D01*
X133341492Y-78176974D01*
X133138970Y-78067374D01*
X133138962Y-78067371D01*
X132921175Y-77992604D01*
X132750821Y-77964177D01*
X132694038Y-77954702D01*
X132463764Y-77954702D01*
X132418337Y-77962282D01*
X132236626Y-77992604D01*
X132018839Y-78067371D01*
X132018831Y-78067374D01*
X131816309Y-78176974D01*
X131634595Y-78318408D01*
X131634590Y-78318413D01*
X131478629Y-78487831D01*
X131352683Y-78680607D01*
X131260184Y-78891486D01*
X131203654Y-79114717D01*
X131184639Y-79344196D01*
X131184639Y-79344207D01*
X131203654Y-79573686D01*
X131260183Y-79796916D01*
X131352683Y-80007796D01*
X131478629Y-80200572D01*
X131492640Y-80215792D01*
X131634593Y-80369994D01*
X131711900Y-80430164D01*
X131796933Y-80496348D01*
X131837746Y-80553058D01*
X131841420Y-80622831D01*
X131806788Y-80683514D01*
X131796933Y-80692054D01*
X131634594Y-80818407D01*
X131634589Y-80818412D01*
X131478628Y-80987830D01*
X131352682Y-81180606D01*
X131260182Y-81391486D01*
X131203653Y-81614716D01*
X131184638Y-81844195D01*
X129930405Y-81844195D01*
X129915369Y-81710750D01*
X129915368Y-81710745D01*
X129909066Y-81692735D01*
X129855789Y-81540478D01*
X129759816Y-81387738D01*
X129632262Y-81260184D01*
X129616839Y-81250493D01*
X129479523Y-81164211D01*
X129303545Y-81102634D01*
X129246769Y-81061912D01*
X129221022Y-80996959D01*
X129220500Y-80985592D01*
X129220500Y-79886321D01*
X129240185Y-79819282D01*
X129292989Y-79773527D01*
X129330612Y-79763101D01*
X129399255Y-79755368D01*
X129569522Y-79695789D01*
X129722262Y-79599816D01*
X129849816Y-79472262D01*
X129945789Y-79319522D01*
X130005368Y-79149255D01*
X130010747Y-79101512D01*
X130030867Y-79046504D01*
X130036465Y-79038127D01*
X130085501Y-78919744D01*
X130091122Y-78891486D01*
X130110500Y-78794069D01*
X130110500Y-73385931D01*
X130110500Y-73385928D01*
X130085502Y-73260261D01*
X130085501Y-73260260D01*
X130085501Y-73260256D01*
X130040797Y-73152331D01*
X130036466Y-73141874D01*
X129965277Y-73035331D01*
X129965275Y-73035329D01*
X129965273Y-73035326D01*
X120705879Y-63775932D01*
X122322606Y-63775932D01*
X122322606Y-63775933D01*
X123259130Y-63775933D01*
X123226217Y-63832940D01*
X123192142Y-63960107D01*
X123192142Y-64091759D01*
X123226217Y-64218926D01*
X123259130Y-64275933D01*
X122322606Y-64275933D01*
X122373899Y-64478486D01*
X122466366Y-64689288D01*
X122592268Y-64881995D01*
X122748171Y-65051352D01*
X122748181Y-65051361D01*
X122929819Y-65192736D01*
X122929825Y-65192740D01*
X123132273Y-65302300D01*
X123132282Y-65302303D01*
X123349991Y-65377043D01*
X123442141Y-65392420D01*
X123442142Y-65392420D01*
X123442142Y-64458945D01*
X123499149Y-64491858D01*
X123626316Y-64525933D01*
X123757968Y-64525933D01*
X123885135Y-64491858D01*
X123942142Y-64458945D01*
X123942142Y-65388634D01*
X123938348Y-65419074D01*
X123911005Y-65527050D01*
X123891990Y-65756529D01*
X123891990Y-65756540D01*
X123911005Y-65986019D01*
X123967534Y-66209249D01*
X124060034Y-66420129D01*
X124185980Y-66612905D01*
X124185983Y-66612908D01*
X124341944Y-66782327D01*
X124523663Y-66923764D01*
X124726183Y-67033363D01*
X124800500Y-67058876D01*
X124943977Y-67108132D01*
X124943979Y-67108132D01*
X124943981Y-67108133D01*
X125171115Y-67146035D01*
X125171116Y-67146035D01*
X125401388Y-67146035D01*
X125401389Y-67146035D01*
X125543143Y-67122380D01*
X125612506Y-67130762D01*
X125666328Y-67175314D01*
X125687519Y-67241893D01*
X125683758Y-67275125D01*
X125678772Y-67294816D01*
X125659757Y-67524296D01*
X125659757Y-67524307D01*
X125678772Y-67753786D01*
X125735301Y-67977016D01*
X125827801Y-68187896D01*
X125953747Y-68380672D01*
X125992091Y-68422325D01*
X126109711Y-68550094D01*
X126291430Y-68691531D01*
X126493950Y-68801130D01*
X126568267Y-68826643D01*
X126711744Y-68875899D01*
X126711746Y-68875899D01*
X126711748Y-68875900D01*
X126938882Y-68913802D01*
X126938883Y-68913802D01*
X127169155Y-68913802D01*
X127169156Y-68913802D01*
X127310910Y-68890147D01*
X127380272Y-68898529D01*
X127434094Y-68943081D01*
X127455285Y-69009660D01*
X127451524Y-69042892D01*
X127446538Y-69062583D01*
X127427523Y-69292063D01*
X127427523Y-69292074D01*
X127446538Y-69521553D01*
X127503067Y-69744783D01*
X127595567Y-69955663D01*
X127721513Y-70148439D01*
X127721516Y-70148442D01*
X127877477Y-70317861D01*
X128059196Y-70459298D01*
X128261716Y-70568897D01*
X128374810Y-70607722D01*
X128479510Y-70643666D01*
X128479512Y-70643666D01*
X128479514Y-70643667D01*
X128706648Y-70681569D01*
X128706649Y-70681569D01*
X128936921Y-70681569D01*
X128936922Y-70681569D01*
X129164056Y-70643667D01*
X129381854Y-70568897D01*
X129584374Y-70459298D01*
X129766093Y-70317861D01*
X129922054Y-70148442D01*
X130048002Y-69955664D01*
X130140502Y-69744785D01*
X130197031Y-69521557D01*
X130216047Y-69292069D01*
X130213195Y-69257654D01*
X130197031Y-69062584D01*
X130197031Y-69062583D01*
X130197031Y-69062581D01*
X130140502Y-68839353D01*
X130048002Y-68628474D01*
X130029613Y-68600328D01*
X129922056Y-68435698D01*
X129871401Y-68380672D01*
X129766093Y-68266277D01*
X129688551Y-68205924D01*
X129584376Y-68124841D01*
X129381854Y-68015241D01*
X129381846Y-68015238D01*
X129164059Y-67940471D01*
X128958861Y-67906230D01*
X128936922Y-67902569D01*
X128706648Y-67902569D01*
X128564895Y-67926223D01*
X128495530Y-67917841D01*
X128441708Y-67873288D01*
X128420518Y-67806709D01*
X128424281Y-67773473D01*
X128429265Y-67753792D01*
X128429265Y-67753788D01*
X128448281Y-67524307D01*
X128448281Y-67524296D01*
X128434057Y-67352648D01*
X128429265Y-67294814D01*
X128372736Y-67071586D01*
X128280236Y-66860707D01*
X128245679Y-66807813D01*
X128154290Y-66667931D01*
X128080525Y-66587801D01*
X127998327Y-66498510D01*
X127841793Y-66376675D01*
X127816610Y-66357074D01*
X127614088Y-66247474D01*
X127614080Y-66247471D01*
X127396293Y-66172704D01*
X127225939Y-66144277D01*
X127169156Y-66134802D01*
X126938882Y-66134802D01*
X126797128Y-66158456D01*
X126727763Y-66150074D01*
X126673941Y-66105521D01*
X126652751Y-66038942D01*
X126656514Y-66005706D01*
X126661498Y-65986025D01*
X126661498Y-65986021D01*
X126661698Y-65983614D01*
X126678849Y-65776631D01*
X126680514Y-65756540D01*
X126680514Y-65756529D01*
X126667836Y-65603543D01*
X126661498Y-65527047D01*
X126604969Y-65303819D01*
X126512469Y-65092940D01*
X126508959Y-65087567D01*
X126386523Y-64900164D01*
X126329664Y-64838399D01*
X126230560Y-64730743D01*
X126162288Y-64677605D01*
X126048843Y-64589307D01*
X125846321Y-64479707D01*
X125846313Y-64479704D01*
X125628526Y-64404937D01*
X125458172Y-64376510D01*
X125401389Y-64367035D01*
X125193205Y-64367035D01*
X125126166Y-64347350D01*
X125095351Y-64319197D01*
X125061678Y-64275933D01*
X124125154Y-64275933D01*
X124158067Y-64218926D01*
X124192142Y-64091759D01*
X124192142Y-63960107D01*
X124158067Y-63832940D01*
X124125154Y-63775933D01*
X125061678Y-63775933D01*
X125061677Y-63775932D01*
X125010384Y-63573379D01*
X124917917Y-63362577D01*
X124792015Y-63169870D01*
X124636112Y-63000513D01*
X124636102Y-63000504D01*
X124454464Y-62859129D01*
X124454458Y-62859125D01*
X124252010Y-62749565D01*
X124251998Y-62749560D01*
X124034298Y-62674824D01*
X124034279Y-62674820D01*
X123942142Y-62659443D01*
X123942142Y-63592921D01*
X123885135Y-63560008D01*
X123757968Y-63525933D01*
X123626316Y-63525933D01*
X123499149Y-63560008D01*
X123442142Y-63592921D01*
X123442142Y-62659444D01*
X123442141Y-62659443D01*
X123350004Y-62674820D01*
X123349985Y-62674824D01*
X123132285Y-62749560D01*
X123132273Y-62749565D01*
X122929825Y-62859125D01*
X122929819Y-62859129D01*
X122748181Y-63000504D01*
X122748171Y-63000513D01*
X122592268Y-63169870D01*
X122466366Y-63362577D01*
X122373899Y-63573379D01*
X122322606Y-63775932D01*
X120705879Y-63775932D01*
X119144673Y-62214726D01*
X119144669Y-62214723D01*
X119038127Y-62143535D01*
X118919744Y-62094499D01*
X118919738Y-62094497D01*
X118794071Y-62069500D01*
X118794069Y-62069500D01*
X107680808Y-62069500D01*
X107613769Y-62049815D01*
X107593127Y-62033181D01*
X107006819Y-61446873D01*
X106973334Y-61385550D01*
X106970500Y-61359192D01*
X106970500Y-60497260D01*
X106990185Y-60430221D01*
X107042989Y-60384466D01*
X107112147Y-60374522D01*
X107175703Y-60403547D01*
X107213477Y-60462325D01*
X107218076Y-60487020D01*
X107226232Y-60585450D01*
X107282761Y-60808680D01*
X107375261Y-61019560D01*
X107501207Y-61212336D01*
X107520815Y-61233636D01*
X107657171Y-61381758D01*
X107754264Y-61457328D01*
X107838347Y-61522773D01*
X107838890Y-61523195D01*
X108041410Y-61632794D01*
X108141754Y-61667242D01*
X108259204Y-61707563D01*
X108259206Y-61707563D01*
X108259208Y-61707564D01*
X108486342Y-61745466D01*
X108486343Y-61745466D01*
X108716615Y-61745466D01*
X108716616Y-61745466D01*
X108943750Y-61707564D01*
X108945172Y-61707076D01*
X108952141Y-61704683D01*
X109161548Y-61632794D01*
X109364068Y-61523195D01*
X109545787Y-61381758D01*
X109701748Y-61212339D01*
X109701749Y-61212336D01*
X109701752Y-61212334D01*
X109747670Y-61142050D01*
X109800815Y-61096692D01*
X109870047Y-61087268D01*
X109933383Y-61116769D01*
X109955288Y-61142049D01*
X110001208Y-61212336D01*
X110020816Y-61233636D01*
X110157172Y-61381758D01*
X110254265Y-61457328D01*
X110338348Y-61522773D01*
X110338891Y-61523195D01*
X110541411Y-61632794D01*
X110641755Y-61667242D01*
X110759205Y-61707563D01*
X110759207Y-61707563D01*
X110759209Y-61707564D01*
X110986343Y-61745466D01*
X110986344Y-61745466D01*
X111216616Y-61745466D01*
X111216617Y-61745466D01*
X111443751Y-61707564D01*
X111445173Y-61707076D01*
X111452142Y-61704683D01*
X111661549Y-61632794D01*
X111864069Y-61523195D01*
X112045788Y-61381758D01*
X112201749Y-61212339D01*
X112297969Y-61065062D01*
X112351115Y-61019706D01*
X112420347Y-61010282D01*
X112483682Y-61039784D01*
X112505587Y-61065062D01*
X112558238Y-61145651D01*
X113218515Y-60485374D01*
X113235553Y-60548959D01*
X113301379Y-60662973D01*
X113394471Y-60756065D01*
X113508485Y-60821891D01*
X113572068Y-60838928D01*
X112910518Y-61500478D01*
X112910518Y-61500480D01*
X112939155Y-61522769D01*
X112939161Y-61522773D01*
X113141609Y-61632333D01*
X113141618Y-61632336D01*
X113359327Y-61707076D01*
X113586383Y-61744966D01*
X113816573Y-61744966D01*
X114043628Y-61707076D01*
X114261337Y-61632336D01*
X114261346Y-61632333D01*
X114463793Y-61522773D01*
X114463794Y-61522772D01*
X114492436Y-61500479D01*
X114492437Y-61500477D01*
X113830888Y-60838928D01*
X113894471Y-60821891D01*
X114008485Y-60756065D01*
X114101577Y-60662973D01*
X114167403Y-60548959D01*
X114184440Y-60485375D01*
X114844716Y-61145651D01*
X114927250Y-61019325D01*
X114927255Y-61019317D01*
X115019720Y-60808519D01*
X115076228Y-60585374D01*
X115076230Y-60585362D01*
X115095238Y-60355971D01*
X115095238Y-60355960D01*
X115076230Y-60126569D01*
X115076228Y-60126557D01*
X115019720Y-59903412D01*
X114927252Y-59692608D01*
X114844716Y-59566279D01*
X114184440Y-60226555D01*
X114167403Y-60162973D01*
X114101577Y-60048959D01*
X114008485Y-59955867D01*
X113894471Y-59890041D01*
X113830887Y-59873003D01*
X114492436Y-59211452D01*
X114492436Y-59211450D01*
X114463800Y-59189162D01*
X114463794Y-59189158D01*
X114261346Y-59079598D01*
X114261337Y-59079595D01*
X114043628Y-59004855D01*
X113816573Y-58966966D01*
X113586383Y-58966966D01*
X113359327Y-59004855D01*
X113141618Y-59079595D01*
X113141610Y-59079598D01*
X112939159Y-59189160D01*
X112910518Y-59211451D01*
X112910518Y-59211453D01*
X113572069Y-59873003D01*
X113508485Y-59890041D01*
X113394471Y-59955867D01*
X113301379Y-60048959D01*
X113235553Y-60162973D01*
X113218515Y-60226557D01*
X112558238Y-59566280D01*
X112505587Y-59646869D01*
X112452440Y-59692225D01*
X112383209Y-59701649D01*
X112319873Y-59672147D01*
X112297969Y-59646869D01*
X112201749Y-59499593D01*
X112045788Y-59330174D01*
X111939034Y-59247084D01*
X111864071Y-59188738D01*
X111661549Y-59079138D01*
X111661541Y-59079135D01*
X111443754Y-59004368D01*
X111273400Y-58975941D01*
X111216617Y-58966466D01*
X110986343Y-58966466D01*
X110940916Y-58974046D01*
X110759205Y-59004368D01*
X110541418Y-59079135D01*
X110541410Y-59079138D01*
X110338888Y-59188738D01*
X110157174Y-59330172D01*
X110157169Y-59330177D01*
X110001207Y-59499597D01*
X109955287Y-59569883D01*
X109902141Y-59615240D01*
X109832909Y-59624663D01*
X109769574Y-59595161D01*
X109747670Y-59569882D01*
X109701750Y-59499595D01*
X109657401Y-59451419D01*
X109545787Y-59330174D01*
X109439033Y-59247084D01*
X109364070Y-59188738D01*
X109161548Y-59079138D01*
X109161540Y-59079135D01*
X108943753Y-59004368D01*
X108773399Y-58975941D01*
X108716616Y-58966466D01*
X108486342Y-58966466D01*
X108440915Y-58974046D01*
X108259204Y-59004368D01*
X108041417Y-59079135D01*
X108041409Y-59079138D01*
X107838887Y-59188738D01*
X107657173Y-59330172D01*
X107657168Y-59330177D01*
X107501207Y-59499595D01*
X107375261Y-59692371D01*
X107282761Y-59903251D01*
X107226232Y-60126481D01*
X107218076Y-60224911D01*
X107192923Y-60290096D01*
X107136521Y-60331334D01*
X107066778Y-60335532D01*
X107005836Y-60301358D01*
X106973044Y-60239661D01*
X106970500Y-60214671D01*
X106970500Y-57310807D01*
X106990185Y-57243768D01*
X107006819Y-57223126D01*
X108605273Y-55624672D01*
X108605276Y-55624669D01*
X108676465Y-55518127D01*
X108725501Y-55399744D01*
X108750499Y-55274069D01*
X108750499Y-55145931D01*
X108725501Y-55020256D01*
X108676465Y-54901873D01*
X108663762Y-54882861D01*
X108661393Y-54879315D01*
X108640520Y-54812636D01*
X108640500Y-54810431D01*
X108640500Y-51205067D01*
X108659507Y-51139094D01*
X108715788Y-51049524D01*
X108719589Y-51038662D01*
X108775368Y-50879255D01*
X108775369Y-50879249D01*
X108795565Y-50700003D01*
X108795565Y-50699996D01*
X108775369Y-50520750D01*
X108775368Y-50520745D01*
X108740603Y-50421392D01*
X108715789Y-50350478D01*
X108619816Y-50197738D01*
X108492262Y-50070184D01*
X108451471Y-50044553D01*
X108339523Y-49974211D01*
X108169254Y-49914631D01*
X108169249Y-49914630D01*
X107990004Y-49894435D01*
X107989996Y-49894435D01*
X107810750Y-49914630D01*
X107810745Y-49914631D01*
X107640476Y-49974211D01*
X107487737Y-50070184D01*
X107360184Y-50197737D01*
X107264206Y-50350484D01*
X107263851Y-50351223D01*
X107263494Y-50351617D01*
X107260506Y-50356374D01*
X107259672Y-50355850D01*
X107217027Y-50403081D01*
X107149600Y-50421392D01*
X107082976Y-50400342D01*
X107038310Y-50346614D01*
X107035052Y-50338260D01*
X107003653Y-50248249D01*
X107003242Y-50247052D01*
X106902383Y-49948142D01*
X106456914Y-48627938D01*
X106455893Y-48624771D01*
X106446231Y-48593370D01*
X106279965Y-48053004D01*
X106277566Y-48039879D01*
X106276803Y-48040031D01*
X106275226Y-48032062D01*
X106275226Y-48032056D01*
X106256874Y-47977798D01*
X106255832Y-47974573D01*
X106238989Y-47919832D01*
X106238986Y-47919827D01*
X106235604Y-47912439D01*
X106236306Y-47912117D01*
X106230582Y-47900066D01*
X106047715Y-47359419D01*
X106045495Y-47351220D01*
X106038429Y-47330855D01*
X106023611Y-47288146D01*
X106023404Y-47287543D01*
X106003002Y-47227220D01*
X106003000Y-47227218D01*
X106001979Y-47224197D01*
X105998708Y-47216366D01*
X105989127Y-47188750D01*
X108777769Y-47188750D01*
X110321988Y-47188750D01*
X110289075Y-47245757D01*
X110255000Y-47372924D01*
X110255000Y-47504576D01*
X110289075Y-47631743D01*
X110321988Y-47688750D01*
X108777769Y-47688750D01*
X108788242Y-47754876D01*
X108788242Y-47754879D01*
X108853904Y-47956967D01*
X108950379Y-48146307D01*
X109075272Y-48318209D01*
X109075276Y-48318214D01*
X109225535Y-48468473D01*
X109225540Y-48468477D01*
X109397442Y-48593370D01*
X109586782Y-48689845D01*
X109788870Y-48755507D01*
X109998754Y-48788750D01*
X110505000Y-48788750D01*
X110505000Y-47871762D01*
X110562007Y-47904675D01*
X110689174Y-47938750D01*
X110820826Y-47938750D01*
X110947993Y-47904675D01*
X111005000Y-47871762D01*
X111005000Y-48788750D01*
X111511246Y-48788750D01*
X111721127Y-48755507D01*
X111721130Y-48755507D01*
X111923217Y-48689845D01*
X112112557Y-48593370D01*
X112284459Y-48468477D01*
X112284464Y-48468473D01*
X112434723Y-48318214D01*
X112434727Y-48318209D01*
X112559620Y-48146307D01*
X112656095Y-47956967D01*
X112721757Y-47754879D01*
X112721757Y-47754876D01*
X112732231Y-47688750D01*
X111188012Y-47688750D01*
X111220925Y-47631743D01*
X111255000Y-47504576D01*
X111255000Y-47372924D01*
X111220925Y-47245757D01*
X111188012Y-47188750D01*
X112732231Y-47188750D01*
X112721757Y-47122623D01*
X112721757Y-47122620D01*
X112656095Y-46920532D01*
X112559620Y-46731192D01*
X112434727Y-46559290D01*
X112434723Y-46559285D01*
X112284464Y-46409026D01*
X112284459Y-46409022D01*
X112112557Y-46284129D01*
X111923217Y-46187654D01*
X111721129Y-46121992D01*
X111511246Y-46088750D01*
X111005000Y-46088750D01*
X111005000Y-47005738D01*
X110947993Y-46972825D01*
X110820826Y-46938750D01*
X110689174Y-46938750D01*
X110562007Y-46972825D01*
X110505000Y-47005738D01*
X110505000Y-46088750D01*
X109998754Y-46088750D01*
X109788872Y-46121992D01*
X109788869Y-46121992D01*
X109586782Y-46187654D01*
X109397442Y-46284129D01*
X109225540Y-46409022D01*
X109225535Y-46409026D01*
X109075276Y-46559285D01*
X109075272Y-46559290D01*
X108950379Y-46731192D01*
X108853904Y-46920532D01*
X108788242Y-47122620D01*
X108788242Y-47122623D01*
X108777769Y-47188750D01*
X105989127Y-47188750D01*
X105875247Y-46860505D01*
X105871584Y-46844496D01*
X105871499Y-46844518D01*
X105869513Y-46836637D01*
X105850255Y-46788107D01*
X105848362Y-46783012D01*
X105831255Y-46733702D01*
X105827609Y-46726432D01*
X105827687Y-46726392D01*
X105820003Y-46711874D01*
X105732842Y-46492228D01*
X105598219Y-46152977D01*
X105597095Y-46150033D01*
X105496616Y-45875997D01*
X105494189Y-45868677D01*
X105395812Y-45537774D01*
X105393690Y-45529635D01*
X105297024Y-45099032D01*
X105294564Y-45083537D01*
X105249156Y-44602200D01*
X105248866Y-44598546D01*
X105231961Y-44336515D01*
X105231366Y-44327312D01*
X105231167Y-44315576D01*
X105234458Y-44206960D01*
X105240047Y-44022509D01*
X105240166Y-44019681D01*
X105259080Y-43669767D01*
X105259458Y-43664710D01*
X105262422Y-43633586D01*
X105276322Y-43487644D01*
X105277344Y-43479666D01*
X105287251Y-43418244D01*
X105322559Y-43199330D01*
X105323233Y-43195533D01*
X105335999Y-43129579D01*
X105375676Y-42924575D01*
X105378499Y-42913006D01*
X105386538Y-42885798D01*
X105496033Y-42515198D01*
X105497712Y-42509951D01*
X105591806Y-42237078D01*
X105592314Y-42235636D01*
X105664830Y-42034203D01*
X105672512Y-42017067D01*
X105837115Y-41713851D01*
X105838165Y-41711961D01*
X106228225Y-41024711D01*
X106240522Y-41006882D01*
X106398645Y-40815816D01*
X106405328Y-40808678D01*
X106446692Y-40757768D01*
X106447345Y-40756971D01*
X106487593Y-40708340D01*
X106487594Y-40708336D01*
X106489170Y-40706433D01*
X106494863Y-40698480D01*
X106682329Y-40467752D01*
X106693483Y-40455745D01*
X106996806Y-40169754D01*
X107003563Y-40163832D01*
X107406371Y-39835965D01*
X107410217Y-39832960D01*
X107685302Y-39626647D01*
X107750743Y-39602172D01*
X107819030Y-39616962D01*
X107868480Y-39666323D01*
X107883393Y-39734582D01*
X107864398Y-39792290D01*
X107823096Y-39857371D01*
X107792512Y-39913002D01*
X107792504Y-39913018D01*
X107658575Y-40197630D01*
X107658574Y-40197633D01*
X107635208Y-40256648D01*
X107635199Y-40256674D01*
X107537997Y-40555830D01*
X107522206Y-40617331D01*
X107463262Y-40926328D01*
X107455306Y-40989304D01*
X107455304Y-40989321D01*
X107435554Y-41303248D01*
X107435554Y-41366751D01*
X107455304Y-41680678D01*
X107455306Y-41680695D01*
X107463262Y-41743671D01*
X107522206Y-42052668D01*
X107522208Y-42052675D01*
X107537995Y-42114163D01*
X107548110Y-42145294D01*
X107635199Y-42413325D01*
X107635208Y-42413351D01*
X107658574Y-42472366D01*
X107658575Y-42472369D01*
X107756874Y-42681263D01*
X107792512Y-42756997D01*
X107823094Y-42812625D01*
X107991651Y-43078229D01*
X108028965Y-43129587D01*
X108229481Y-43371969D01*
X108229492Y-43371981D01*
X108229494Y-43371983D01*
X108272927Y-43418235D01*
X108272931Y-43418239D01*
X108272936Y-43418244D01*
X108502250Y-43633585D01*
X108551164Y-43674050D01*
X108805659Y-43858951D01*
X108859258Y-43892966D01*
X109134921Y-44044513D01*
X109171845Y-44061888D01*
X109192353Y-44071539D01*
X109192367Y-44071545D01*
X109321352Y-44122613D01*
X109484843Y-44187344D01*
X109545216Y-44206960D01*
X109849906Y-44285192D01*
X109912265Y-44297088D01*
X110224358Y-44336514D01*
X110250684Y-44338170D01*
X110287703Y-44340500D01*
X110287713Y-44340500D01*
X110602297Y-44340500D01*
X110637270Y-44338299D01*
X110665642Y-44336514D01*
X110977735Y-44297088D01*
X111040094Y-44285192D01*
X111344784Y-44206960D01*
X111405157Y-44187344D01*
X111697640Y-44071542D01*
X111755079Y-44044513D01*
X112030742Y-43892966D01*
X112084341Y-43858951D01*
X112338836Y-43674050D01*
X112387750Y-43633585D01*
X112617064Y-43418244D01*
X112660519Y-43371969D01*
X112861035Y-43129587D01*
X112898349Y-43078229D01*
X113066906Y-42812625D01*
X113097488Y-42756997D01*
X113231427Y-42472363D01*
X113254796Y-42413340D01*
X113352005Y-42114163D01*
X113367792Y-42052675D01*
X113426737Y-41743674D01*
X113434694Y-41680693D01*
X113437309Y-41639125D01*
X113454446Y-41366751D01*
X113454446Y-41303248D01*
X113434695Y-40989321D01*
X113434694Y-40989318D01*
X113434694Y-40989307D01*
X113426737Y-40926326D01*
X113367792Y-40617325D01*
X113352005Y-40555837D01*
X113254796Y-40256660D01*
X113231427Y-40197637D01*
X113215513Y-40163819D01*
X113097495Y-39913018D01*
X113097488Y-39913003D01*
X113066906Y-39857375D01*
X112898349Y-39591771D01*
X112861035Y-39540413D01*
X112776570Y-39438312D01*
X112683197Y-39325443D01*
X112655632Y-39261241D01*
X112667153Y-39192328D01*
X112714102Y-39140583D01*
X112781574Y-39122435D01*
X112821722Y-39130091D01*
G37*
%TD.AperFunction*%
%TA.AperFunction,Conductor*%
G36*
X149348772Y-75881873D02*
G01*
X149873193Y-75934315D01*
X149887736Y-75936650D01*
X150367677Y-76043304D01*
X150377008Y-76045762D01*
X151034095Y-76246539D01*
X151049444Y-76252367D01*
X151588302Y-76498963D01*
X151593548Y-76501515D01*
X151861176Y-76639646D01*
X151872436Y-76646231D01*
X152201709Y-76862858D01*
X152210610Y-76869298D01*
X152787626Y-77327246D01*
X152799352Y-77337839D01*
X153129295Y-77676464D01*
X153137637Y-77685946D01*
X153337023Y-77937346D01*
X153341173Y-77942890D01*
X153787952Y-78575828D01*
X153796276Y-78589391D01*
X153979732Y-78936469D01*
X153993657Y-79004937D01*
X153968355Y-79070064D01*
X153911859Y-79111173D01*
X153842106Y-79115213D01*
X153791064Y-79089959D01*
X153614588Y-78943966D01*
X153614586Y-78943964D01*
X153563229Y-78906651D01*
X153478526Y-78852897D01*
X153297625Y-78738094D01*
X153241997Y-78707512D01*
X153241981Y-78707504D01*
X152957369Y-78573575D01*
X152957366Y-78573574D01*
X152898351Y-78550208D01*
X152898343Y-78550205D01*
X152898340Y-78550204D01*
X152861069Y-78538094D01*
X152599169Y-78452997D01*
X152599163Y-78452995D01*
X152556496Y-78442040D01*
X152537668Y-78437206D01*
X152228671Y-78378262D01*
X152228672Y-78378262D01*
X152165695Y-78370306D01*
X152165678Y-78370304D01*
X151851751Y-78350554D01*
X151851740Y-78350554D01*
X151788260Y-78350554D01*
X151788249Y-78350554D01*
X151474321Y-78370304D01*
X151474304Y-78370306D01*
X151411328Y-78378262D01*
X151102331Y-78437206D01*
X151059658Y-78448162D01*
X151040837Y-78452995D01*
X151040834Y-78452995D01*
X151040830Y-78452997D01*
X150741674Y-78550199D01*
X150741648Y-78550208D01*
X150682633Y-78573574D01*
X150682630Y-78573575D01*
X150398018Y-78707504D01*
X150398002Y-78707512D01*
X150365742Y-78725248D01*
X150342375Y-78738094D01*
X150342372Y-78738096D01*
X150076770Y-78906651D01*
X150025420Y-78943959D01*
X149988646Y-78974381D01*
X149783031Y-79144481D01*
X149783025Y-79144485D01*
X149783016Y-79144494D01*
X149736764Y-79187927D01*
X149521413Y-79417251D01*
X149480951Y-79466163D01*
X149480938Y-79466179D01*
X149296055Y-79720650D01*
X149296043Y-79720667D01*
X149262037Y-79774253D01*
X149262021Y-79774280D01*
X149110495Y-80049906D01*
X149110479Y-80049937D01*
X149083460Y-80107353D01*
X149083454Y-80107367D01*
X148967664Y-80399821D01*
X148967651Y-80399858D01*
X148948038Y-80460220D01*
X148869811Y-80764892D01*
X148869809Y-80764901D01*
X148869808Y-80764906D01*
X148865704Y-80786417D01*
X148857915Y-80827246D01*
X148857910Y-80827274D01*
X148818487Y-81139344D01*
X148818484Y-81139381D01*
X148814500Y-81202703D01*
X148814500Y-81517296D01*
X148818484Y-81580618D01*
X148818487Y-81580655D01*
X148857910Y-81892725D01*
X148857912Y-81892735D01*
X148869808Y-81955094D01*
X148869810Y-81955101D01*
X148869811Y-81955107D01*
X148948038Y-82259779D01*
X148948040Y-82259784D01*
X148967656Y-82320157D01*
X148967661Y-82320170D01*
X148967664Y-82320178D01*
X149083454Y-82612632D01*
X149083460Y-82612646D01*
X149104679Y-82657737D01*
X149110487Y-82670079D01*
X149152083Y-82745742D01*
X149260056Y-82942145D01*
X149262034Y-82945742D01*
X149265172Y-82950686D01*
X149296043Y-82999332D01*
X149296055Y-82999349D01*
X149457533Y-83221606D01*
X149480950Y-83253836D01*
X149521415Y-83302750D01*
X149727537Y-83522247D01*
X149736764Y-83532072D01*
X149781184Y-83573785D01*
X149783031Y-83575519D01*
X150025413Y-83776035D01*
X150076771Y-83813349D01*
X150342375Y-83981906D01*
X150398003Y-84012488D01*
X150413168Y-84019624D01*
X150682630Y-84146424D01*
X150682632Y-84146424D01*
X150682637Y-84146427D01*
X150741660Y-84169796D01*
X151040837Y-84267005D01*
X151102325Y-84282792D01*
X151411326Y-84341737D01*
X151474307Y-84349694D01*
X151474318Y-84349694D01*
X151474321Y-84349695D01*
X151788249Y-84369446D01*
X151788260Y-84369446D01*
X151851751Y-84369446D01*
X152165678Y-84349695D01*
X152165679Y-84349694D01*
X152165693Y-84349694D01*
X152228674Y-84341737D01*
X152537675Y-84282792D01*
X152599163Y-84267005D01*
X152898340Y-84169796D01*
X152957363Y-84146427D01*
X153241997Y-84012488D01*
X153297625Y-83981906D01*
X153563229Y-83813349D01*
X153614589Y-83776034D01*
X153735888Y-83675683D01*
X153759468Y-83660323D01*
X153828173Y-83625970D01*
X153896937Y-83613596D01*
X153961476Y-83640364D01*
X154001298Y-83697774D01*
X154003760Y-83767600D01*
X153996350Y-83788545D01*
X153900485Y-83997705D01*
X153893568Y-84010700D01*
X153599367Y-84492119D01*
X153592319Y-84502443D01*
X153227092Y-84983474D01*
X153216014Y-84996171D01*
X152718129Y-85494056D01*
X152713223Y-85498702D01*
X152462135Y-85723815D01*
X152451226Y-85732539D01*
X152060208Y-86010595D01*
X152047725Y-86018399D01*
X151548270Y-86290829D01*
X151541029Y-86294477D01*
X151184136Y-86459866D01*
X151170067Y-86465371D01*
X150320079Y-86739561D01*
X150302397Y-86743862D01*
X149438697Y-86887813D01*
X149418311Y-86889500D01*
X148755071Y-86889500D01*
X148741187Y-86888720D01*
X148113611Y-86818006D01*
X148094994Y-86814451D01*
X147382914Y-86621047D01*
X147362997Y-86613757D01*
X147359026Y-86611905D01*
X147351870Y-86608567D01*
X147351866Y-86608566D01*
X147314834Y-86602030D01*
X147303888Y-86599583D01*
X147267596Y-86589726D01*
X147267597Y-86589726D01*
X147255304Y-86589684D01*
X147234186Y-86587798D01*
X147019835Y-86549972D01*
X147007345Y-86546272D01*
X147007128Y-86547029D01*
X146999319Y-86544786D01*
X146999318Y-86544786D01*
X146999316Y-86544785D01*
X146999314Y-86544785D01*
X146942149Y-86536220D01*
X146938975Y-86535702D01*
X146882091Y-86525664D01*
X146873973Y-86525309D01*
X146874007Y-86524530D01*
X146860987Y-86524062D01*
X144266945Y-86135441D01*
X144265883Y-86135278D01*
X143158261Y-85959517D01*
X143152220Y-85958404D01*
X142349930Y-85789985D01*
X140870002Y-85489999D01*
X140869999Y-85490000D01*
X140701925Y-85572356D01*
X140657516Y-85584589D01*
X140633358Y-85586573D01*
X140632459Y-85586768D01*
X140631853Y-85586862D01*
X140630528Y-85587170D01*
X140628727Y-85587573D01*
X140627441Y-85587850D01*
X140626862Y-85588021D01*
X140625963Y-85588229D01*
X140568671Y-85609713D01*
X140566921Y-85610354D01*
X140549194Y-85616699D01*
X140545562Y-85617784D01*
X140538714Y-85620415D01*
X140536050Y-85621404D01*
X140509149Y-85631035D01*
X140497320Y-85636328D01*
X140482950Y-85641853D01*
X140481991Y-85642217D01*
X140422457Y-85664543D01*
X140421304Y-85665170D01*
X140420409Y-85665652D01*
X140419017Y-85666393D01*
X140367660Y-85703743D01*
X140366835Y-85704338D01*
X140310215Y-85744808D01*
X140309801Y-85745069D01*
X140254241Y-85786223D01*
X140253370Y-85786863D01*
X140239803Y-85796730D01*
X140221431Y-85807798D01*
X139869999Y-85979999D01*
X138428814Y-87049971D01*
X138363254Y-87074128D01*
X138295040Y-87059006D01*
X138245831Y-87009405D01*
X138231250Y-86941074D01*
X138255926Y-86875707D01*
X138267217Y-86862729D01*
X139303127Y-85826819D01*
X139364450Y-85793334D01*
X139390808Y-85790500D01*
X139424071Y-85790500D01*
X139508615Y-85773682D01*
X139549744Y-85765501D01*
X139668127Y-85716465D01*
X139669431Y-85715592D01*
X139669469Y-85715581D01*
X139669463Y-85715572D01*
X139686828Y-85703969D01*
X139774669Y-85645277D01*
X141395277Y-84024669D01*
X141466465Y-83918127D01*
X141479860Y-83885789D01*
X141515501Y-83799744D01*
X141521894Y-83767602D01*
X141554278Y-83705694D01*
X141555774Y-83704170D01*
X142515276Y-82744669D01*
X142586465Y-82638127D01*
X142635501Y-82519744D01*
X142640997Y-82492113D01*
X142656806Y-82412640D01*
X142660500Y-82394070D01*
X142660500Y-80826253D01*
X144711250Y-80826253D01*
X144711250Y-81332500D01*
X145628238Y-81332500D01*
X145595325Y-81389507D01*
X145561250Y-81516674D01*
X145561250Y-81648326D01*
X145595325Y-81775493D01*
X145628238Y-81832500D01*
X144711250Y-81832500D01*
X144711250Y-82338746D01*
X144744492Y-82548627D01*
X144744492Y-82548630D01*
X144810154Y-82750717D01*
X144906629Y-82940057D01*
X145031522Y-83111959D01*
X145031526Y-83111964D01*
X145181785Y-83262223D01*
X145181790Y-83262227D01*
X145353692Y-83387120D01*
X145543032Y-83483595D01*
X145745121Y-83549257D01*
X145811250Y-83559731D01*
X145811250Y-82015512D01*
X145868257Y-82048425D01*
X145995424Y-82082500D01*
X146127076Y-82082500D01*
X146254243Y-82048425D01*
X146311250Y-82015512D01*
X146311250Y-83559730D01*
X146377376Y-83549257D01*
X146377379Y-83549257D01*
X146579467Y-83483595D01*
X146768807Y-83387120D01*
X146940709Y-83262227D01*
X146940714Y-83262223D01*
X147090973Y-83111964D01*
X147090977Y-83111959D01*
X147215870Y-82940057D01*
X147312345Y-82750717D01*
X147378007Y-82548630D01*
X147378007Y-82548627D01*
X147411250Y-82338746D01*
X147411250Y-81832500D01*
X146494262Y-81832500D01*
X146527175Y-81775493D01*
X146561250Y-81648326D01*
X146561250Y-81516674D01*
X146527175Y-81389507D01*
X146494262Y-81332500D01*
X147411250Y-81332500D01*
X147411250Y-80826253D01*
X147378007Y-80616372D01*
X147378007Y-80616369D01*
X147312345Y-80414282D01*
X147215870Y-80224942D01*
X147090977Y-80053040D01*
X147090973Y-80053035D01*
X146940714Y-79902776D01*
X146940709Y-79902772D01*
X146768807Y-79777879D01*
X146579465Y-79681403D01*
X146377374Y-79615741D01*
X146311250Y-79605268D01*
X146311250Y-81149488D01*
X146254243Y-81116575D01*
X146127076Y-81082500D01*
X145995424Y-81082500D01*
X145868257Y-81116575D01*
X145811250Y-81149488D01*
X145811250Y-79605268D01*
X145811249Y-79605268D01*
X145745125Y-79615741D01*
X145543034Y-79681403D01*
X145353692Y-79777879D01*
X145181790Y-79902772D01*
X145181785Y-79902776D01*
X145031526Y-80053035D01*
X145031522Y-80053040D01*
X144906629Y-80224942D01*
X144810154Y-80414282D01*
X144744492Y-80616369D01*
X144744492Y-80616372D01*
X144711250Y-80826253D01*
X142660500Y-80826253D01*
X142660500Y-80325928D01*
X142635502Y-80200261D01*
X142635501Y-80200260D01*
X142635501Y-80200256D01*
X142586465Y-80081873D01*
X142566657Y-80052228D01*
X142565126Y-80049937D01*
X142515278Y-79975332D01*
X142515272Y-79975325D01*
X140734673Y-78194726D01*
X140708105Y-78176974D01*
X140628127Y-78123535D01*
X140609122Y-78115663D01*
X140509744Y-78074499D01*
X140509738Y-78074497D01*
X140384071Y-78049500D01*
X140384069Y-78049500D01*
X140001152Y-78049500D01*
X139934113Y-78029815D01*
X139888358Y-77977011D01*
X139878414Y-77907853D01*
X139907439Y-77844297D01*
X139966217Y-77806523D01*
X139988812Y-77802116D01*
X140081623Y-77792834D01*
X140100783Y-77792406D01*
X140118238Y-77793369D01*
X140149980Y-77786711D01*
X140163090Y-77784687D01*
X140195367Y-77781460D01*
X140211719Y-77775277D01*
X140230106Y-77769908D01*
X144640734Y-76844941D01*
X144655035Y-76842805D01*
X144655378Y-76842773D01*
X144655389Y-76842774D01*
X144715415Y-76829291D01*
X144716954Y-76828956D01*
X144777216Y-76816320D01*
X144777220Y-76816317D01*
X144777550Y-76816202D01*
X144791454Y-76812213D01*
X146518448Y-76424332D01*
X146531983Y-76422918D01*
X146531899Y-76422209D01*
X146539962Y-76421243D01*
X146539971Y-76421244D01*
X146595137Y-76407158D01*
X146598421Y-76406370D01*
X146653970Y-76393895D01*
X146653976Y-76393892D01*
X146661608Y-76391091D01*
X146661852Y-76391758D01*
X146674557Y-76386880D01*
X147066842Y-76286722D01*
X147069579Y-76286057D01*
X147260932Y-76241899D01*
X147451805Y-76197852D01*
X147451811Y-76197881D01*
X147451943Y-76197819D01*
X147990253Y-76074273D01*
X148004397Y-76071880D01*
X148005383Y-76071770D01*
X148005392Y-76071771D01*
X148064795Y-76057180D01*
X148066559Y-76056760D01*
X148126180Y-76043078D01*
X148126187Y-76043073D01*
X148127126Y-76042725D01*
X148140833Y-76038504D01*
X148594406Y-75927099D01*
X148612470Y-75924058D01*
X148975105Y-75890324D01*
X148983530Y-75889831D01*
X149333438Y-75881296D01*
X149348772Y-75881873D01*
G37*
%TD.AperFunction*%
%TA.AperFunction,Conductor*%
G36*
X143918519Y-54690291D02*
G01*
X143948489Y-54743321D01*
X144109149Y-55332410D01*
X144111749Y-55344168D01*
X144172346Y-55699098D01*
X144173641Y-55709130D01*
X144218266Y-56217851D01*
X144218692Y-56232130D01*
X144210316Y-56533640D01*
X144209749Y-56542535D01*
X144125490Y-57385125D01*
X144123318Y-57398931D01*
X144027520Y-57843087D01*
X144024197Y-57855386D01*
X143892847Y-58258189D01*
X143888931Y-58268592D01*
X143695425Y-58720107D01*
X143693146Y-58725114D01*
X143449337Y-59230792D01*
X143440140Y-59246725D01*
X143159823Y-59658440D01*
X143154153Y-59666116D01*
X142865500Y-60026932D01*
X142858690Y-60034750D01*
X142540341Y-60370786D01*
X142530420Y-60380166D01*
X142429028Y-60465959D01*
X142428114Y-60466725D01*
X142139497Y-60706215D01*
X142132868Y-60711347D01*
X141609063Y-61089282D01*
X141595887Y-61097583D01*
X141062587Y-61388474D01*
X141053570Y-61392928D01*
X140959420Y-61434772D01*
X140943933Y-61439713D01*
X140943973Y-61439828D01*
X140936285Y-61442464D01*
X140889255Y-61465833D01*
X140884444Y-61468096D01*
X140836515Y-61489399D01*
X140836514Y-61489399D01*
X140836509Y-61489402D01*
X140829583Y-61493640D01*
X140829520Y-61493537D01*
X140824944Y-61496474D01*
X140825011Y-61496573D01*
X140818265Y-61501110D01*
X140778893Y-61535849D01*
X140774829Y-61539283D01*
X140734043Y-61572267D01*
X140728448Y-61578156D01*
X140728360Y-61578072D01*
X140717416Y-61590094D01*
X140617333Y-61678403D01*
X140609754Y-61684577D01*
X135548364Y-65485543D01*
X135542001Y-65489733D01*
X135488470Y-65530517D01*
X135487788Y-65531034D01*
X135433822Y-65571562D01*
X135428071Y-65576536D01*
X135301646Y-65672859D01*
X135291380Y-65679895D01*
X135261979Y-65697947D01*
X135261978Y-65697948D01*
X135251379Y-65709135D01*
X135236523Y-65722477D01*
X135224262Y-65731819D01*
X135203163Y-65759121D01*
X135195067Y-65768575D01*
X135049984Y-65921718D01*
X135044528Y-65927131D01*
X135010500Y-65958857D01*
X135010499Y-65958859D01*
X135008743Y-65961669D01*
X134993628Y-65981205D01*
X134991348Y-65983611D01*
X134991346Y-65983614D01*
X134969173Y-66024530D01*
X134965305Y-66031168D01*
X134664580Y-66512328D01*
X134658275Y-66521179D01*
X134624574Y-66576326D01*
X134623921Y-66577383D01*
X134589653Y-66632213D01*
X134584556Y-66641810D01*
X134568595Y-66667929D01*
X134518614Y-66749716D01*
X134516308Y-66753345D01*
X134486022Y-66799214D01*
X134482469Y-66806522D01*
X134482066Y-66806326D01*
X134481459Y-66807631D01*
X134481868Y-66807813D01*
X134478572Y-66815240D01*
X134463027Y-66867954D01*
X134461728Y-66872092D01*
X134348448Y-67211931D01*
X134343640Y-67223929D01*
X134324472Y-67283830D01*
X134324009Y-67285247D01*
X134304090Y-67345004D01*
X134300887Y-67357533D01*
X134042601Y-68164678D01*
X134003421Y-68222529D01*
X133939184Y-68250014D01*
X133870285Y-68238406D01*
X133818599Y-68191392D01*
X133800500Y-68126886D01*
X133800500Y-64165928D01*
X133775502Y-64040261D01*
X133775501Y-64040260D01*
X133775501Y-64040256D01*
X133726465Y-63921873D01*
X133696043Y-63876343D01*
X133696042Y-63876341D01*
X133696041Y-63876339D01*
X133655278Y-63815332D01*
X133655272Y-63815325D01*
X131836722Y-61996776D01*
X131803237Y-61935453D01*
X131801182Y-61922973D01*
X131800368Y-61915745D01*
X131800366Y-61915741D01*
X131800366Y-61915737D01*
X131740790Y-61745481D01*
X131740789Y-61745478D01*
X131716966Y-61707564D01*
X131684506Y-61655903D01*
X131665500Y-61589931D01*
X131665500Y-61539513D01*
X131685185Y-61472474D01*
X131701814Y-61451837D01*
X134483677Y-58669973D01*
X134544995Y-58636492D01*
X134614687Y-58641476D01*
X134670620Y-58683348D01*
X134681838Y-58701363D01*
X134715760Y-58767938D01*
X134840653Y-58939840D01*
X134840657Y-58939845D01*
X135198629Y-59297817D01*
X135847037Y-58649409D01*
X135864075Y-58712993D01*
X135929901Y-58827007D01*
X136022993Y-58920099D01*
X136137007Y-58985925D01*
X136200590Y-59002962D01*
X135552182Y-59651369D01*
X135552182Y-59651370D01*
X135910154Y-60009342D01*
X135910159Y-60009346D01*
X136082061Y-60134239D01*
X136271398Y-60230713D01*
X136271401Y-60230714D01*
X136473492Y-60296376D01*
X136683373Y-60329619D01*
X136895865Y-60329619D01*
X137105746Y-60296376D01*
X137105749Y-60296376D01*
X137307836Y-60230714D01*
X137497173Y-60134241D01*
X137551335Y-60094889D01*
X137551335Y-60094888D01*
X136459409Y-59002962D01*
X136522993Y-58985925D01*
X136637007Y-58920099D01*
X136730099Y-58827007D01*
X136795925Y-58712993D01*
X136812962Y-58649409D01*
X137904888Y-59741335D01*
X137904889Y-59741335D01*
X137944241Y-59687173D01*
X138040714Y-59497836D01*
X138106376Y-59295749D01*
X138106376Y-59295746D01*
X138139619Y-59085865D01*
X138139619Y-58873372D01*
X138106376Y-58663492D01*
X138040714Y-58461401D01*
X138040713Y-58461398D01*
X137944239Y-58272061D01*
X137819346Y-58100159D01*
X137819342Y-58100154D01*
X137461370Y-57742182D01*
X137461369Y-57742182D01*
X136812962Y-58390589D01*
X136795925Y-58327007D01*
X136730099Y-58212993D01*
X136637007Y-58119901D01*
X136522993Y-58054075D01*
X136459408Y-58037037D01*
X137107817Y-57388629D01*
X136749845Y-57030657D01*
X136749840Y-57030653D01*
X136577938Y-56905760D01*
X136511363Y-56871838D01*
X136460567Y-56823863D01*
X136443772Y-56756042D01*
X136466309Y-56689908D01*
X136479965Y-56673686D01*
X137708333Y-55445317D01*
X137769654Y-55411834D01*
X137839346Y-55416818D01*
X137895279Y-55458690D01*
X137909813Y-55483753D01*
X138024153Y-55747975D01*
X138052970Y-55804533D01*
X138052972Y-55804537D01*
X138213094Y-56075291D01*
X138213102Y-56075303D01*
X138213104Y-56075306D01*
X138248787Y-56127812D01*
X138248791Y-56127817D01*
X138248795Y-56127823D01*
X138441578Y-56376357D01*
X138441579Y-56376358D01*
X138441591Y-56376373D01*
X138483572Y-56423990D01*
X138706010Y-56646428D01*
X138753627Y-56688409D01*
X138753639Y-56688418D01*
X138753641Y-56688420D01*
X138753642Y-56688421D01*
X138997936Y-56877915D01*
X139002188Y-56881213D01*
X139054694Y-56916896D01*
X139054699Y-56916899D01*
X139054708Y-56916905D01*
X139325462Y-57077027D01*
X139325466Y-57077029D01*
X139382024Y-57105846D01*
X139444586Y-57132919D01*
X139670721Y-57230777D01*
X139684456Y-57235722D01*
X139730449Y-57252282D01*
X139891572Y-57299092D01*
X140032529Y-57340043D01*
X140032530Y-57340044D01*
X140032532Y-57340044D01*
X140032534Y-57340045D01*
X140094486Y-57353892D01*
X140094495Y-57353893D01*
X140094508Y-57353896D01*
X140405166Y-57403099D01*
X140405172Y-57403099D01*
X140405186Y-57403102D01*
X140405195Y-57403102D01*
X140405204Y-57403104D01*
X140442733Y-57406651D01*
X140468386Y-57409077D01*
X140782805Y-57418958D01*
X140846255Y-57416964D01*
X141159431Y-57387360D01*
X141222132Y-57377429D01*
X141529130Y-57308806D01*
X141557754Y-57300490D01*
X141590086Y-57291097D01*
X141669445Y-57262526D01*
X141886064Y-57184539D01*
X141926357Y-57167102D01*
X141944314Y-57159332D01*
X141944317Y-57159330D01*
X141944325Y-57159327D01*
X142224612Y-57016514D01*
X142279253Y-56984199D01*
X142539430Y-56807383D01*
X142580194Y-56775763D01*
X142589590Y-56768475D01*
X142589609Y-56768458D01*
X142605404Y-56754533D01*
X142825556Y-56560442D01*
X142825563Y-56560434D01*
X142825572Y-56560427D01*
X142870427Y-56515572D01*
X142870434Y-56515563D01*
X142870442Y-56515556D01*
X143078474Y-56279591D01*
X143117383Y-56229430D01*
X143294199Y-55969253D01*
X143326514Y-55914612D01*
X143469327Y-55634325D01*
X143471805Y-55628600D01*
X143480754Y-55607919D01*
X143494539Y-55576064D01*
X143585536Y-55323309D01*
X143601097Y-55280086D01*
X143618804Y-55219137D01*
X143618806Y-55219130D01*
X143687429Y-54912132D01*
X143697360Y-54849429D01*
X143705408Y-54764276D01*
X143731314Y-54699389D01*
X143788189Y-54658806D01*
X143857977Y-54655414D01*
X143918519Y-54690291D01*
G37*
%TD.AperFunction*%
%TA.AperFunction,Conductor*%
G36*
X135701936Y-57554229D02*
G01*
X135746283Y-57582730D01*
X136200590Y-58037037D01*
X136137007Y-58054075D01*
X136022993Y-58119901D01*
X135929901Y-58212993D01*
X135864075Y-58327007D01*
X135847037Y-58390589D01*
X135392730Y-57936282D01*
X135359245Y-57874959D01*
X135364229Y-57805267D01*
X135392727Y-57760923D01*
X135570921Y-57582729D01*
X135632244Y-57549245D01*
X135701936Y-57554229D01*
G37*
%TD.AperFunction*%
%TD*%
M02*
